<svg width="100" height="100" viewBox="0 0 100 100" fill="none" xmlns="http://www.w3.org/2000/svg">
<path d="M100 76.48H0V76.53H100V76.48Z" fill="#E0E0E0"/>
<path d="M34.4661 77.688H32.3701V77.738H34.4661V77.688Z" fill="#E0E0E0"/>
<path d="M93.2379 79H85.6499V79.05H93.2379V79Z" fill="#E0E0E0"/>
<path d="M69.5998 77.712H63.4678V77.762H69.5998V77.712Z" fill="#E0E0E0"/>
<path d="M48.4938 78.8521H37.8218V78.9021H48.4938V78.8521Z" fill="#E0E0E0"/>
<path d="M27.9341 78.536H24.2661V78.586H27.9341V78.536Z" fill="#E0E0E0"/>
<path d="M84.6838 79H81.6318V79.05H84.6838V79Z" fill="#E0E0E0"/>
<path d="M23.0998 78.512H12.9858V78.562H23.0998V78.512Z" fill="#E0E0E0"/>
<path d="M47.4001 67.56H8.78209C8.47956 67.5595 8.1896 67.4389 7.97587 67.2248C7.76213 67.0107 7.64209 66.7205 7.64209 66.418V12.132C7.64472 11.8312 7.76593 11.5436 7.97938 11.3316C8.19283 11.1197 8.48128 11.0005 8.78209 11H47.4001C47.703 11 47.9934 11.1203 48.2076 11.3345C48.4218 11.5487 48.5421 11.8391 48.5421 12.142V66.418C48.5421 66.7209 48.4218 67.0114 48.2076 67.2255C47.9934 67.4397 47.703 67.56 47.4001 67.56ZM8.78209 11.04C8.49282 11.0405 8.21558 11.1558 8.01122 11.3605C7.80686 11.5653 7.69209 11.8427 7.69209 12.132V66.418C7.69209 66.7073 7.80686 66.9847 8.01122 67.1895C8.21558 67.3942 8.49282 67.5095 8.78209 67.51H47.4001C47.6895 67.5095 47.967 67.3943 48.1717 67.1896C48.3763 66.9849 48.4916 66.7075 48.4921 66.418V12.132C48.4916 11.8425 48.3763 11.5651 48.1717 11.3604C47.967 11.1557 47.6895 11.0405 47.4001 11.04H8.78209Z" fill="#E0E0E0"/>
<path d="M90.6619 67.56H52.0419C51.7392 67.5595 51.449 67.439 51.235 67.2249C51.0209 67.0109 50.9004 66.7207 50.8999 66.418V12.132C50.9031 11.831 51.0247 11.5434 51.2385 11.3315C51.4522 11.1196 51.7409 11.0005 52.0419 11H90.6619C90.9624 11.001 91.2503 11.1204 91.4633 11.3323C91.6763 11.5442 91.7973 11.8316 91.7999 12.132V66.418C91.7999 66.7202 91.6801 67.0101 91.4668 67.2241C91.2535 67.4382 90.9641 67.5589 90.6619 67.56ZM52.0419 11.04C51.7524 11.0405 51.475 11.1557 51.2703 11.3604C51.0656 11.5651 50.9504 11.8425 50.9499 12.132V66.418C50.9504 66.7075 51.0656 66.9849 51.2703 67.1896C51.475 67.3943 51.7524 67.5095 52.0419 67.51H90.6619C90.9514 67.5095 91.2288 67.3943 91.4335 67.1896C91.6382 66.9849 91.7534 66.7075 91.7539 66.418V12.132C91.7534 11.8425 91.6382 11.5651 91.4335 11.3604C91.2288 11.1557 90.9514 11.0405 90.6619 11.04H52.0419Z" fill="#E0E0E0"/>
<path d="M38.7338 23.6219H14.8218V76.5039H38.7338V23.6219Z" fill="#E6E6E6"/>
<path d="M38.7341 23.6219H15.9561V76.5039H38.7341V23.6219Z" fill="#F5F5F5"/>
<path d="M37.5342 75.306V24.824H17.1562L17.1562 75.306H37.5342Z" fill="#F0F0F0"/>
<path d="M37.5342 75.304V24.822H37.2222V75.304H37.5342Z" fill="#E6E6E6"/>
<path d="M34.812 48.9C35.3765 48.9 35.834 48.4424 35.834 47.878C35.834 47.3135 35.3765 46.856 34.812 46.856C34.2476 46.856 33.79 47.3135 33.79 47.878C33.79 48.4424 34.2476 48.9 34.812 48.9Z" fill="#E6E6E6"/>
<path d="M35.2119 48.688C35.7764 48.688 36.2339 48.2305 36.2339 47.666C36.2339 47.1016 35.7764 46.644 35.2119 46.644C34.6475 46.644 34.1899 47.1016 34.1899 47.666C34.1899 48.2305 34.6475 48.688 35.2119 48.688Z" fill="#FAFAFA"/>
<path d="M89.0498 17.988H72.8638V48.392H89.0498V17.988Z" fill="#E0E0E0"/>
<path d="M89.7422 17.988H73.5562V48.392H89.7422V17.988Z" fill="#F5F5F5"/>
<path d="M88.5 47.054V19.326H74.796V47.054H88.5Z" fill="#FAFAFA"/>
<path d="M88.502 47.054V19.326H87.98V47.054H88.502Z" fill="#E0E0E0"/>
<path d="M89.2298 39.024H74.0698V40.8201H89.2298V39.024Z" fill="#F5F5F5"/>
<path d="M69.0918 17.988H52.9058V48.392H69.0918V17.988Z" fill="#E0E0E0"/>
<path d="M69.7822 17.988H53.5962V48.392H69.7822V17.988Z" fill="#F5F5F5"/>
<path d="M68.542 47.052V19.324H54.838V47.052H68.542Z" fill="#FAFAFA"/>
<path d="M68.542 47.0541V19.326H68.02V47.0541H68.542Z" fill="#E0E0E0"/>
<path d="M69.2699 39.024H54.1099V40.8201H69.2699V39.024Z" fill="#F5F5F5"/>
<path d="M31.9001 21.296L31.7181 21.478H22.7881V17.988L31.9001 21.296Z" fill="#E0E0E0"/>
<path d="M23.1341 21.296H31.9001L31.5561 17.988H22.7881L23.1341 21.296Z" fill="#F5F5F5"/>
<path d="M41.0579 49.7679H44.8379V45.9879H41.0579V49.7679Z" fill="#EBEBEB"/>
<path d="M41.0601 45.988H40.9321V49.768H41.0601V45.988Z" fill="#E0E0E0"/>
<path d="M44.4861 49.048L44.3501 49.184H41.5381V46.592L44.4861 49.048Z" fill="#E0E0E0"/>
<path d="M41.7941 49.048H44.4861L44.2321 46.592H41.5381L41.7941 49.048Z" fill="#FAFAFA"/>
<path d="M46.458 54.722L48.358 53.006L50.256 54.722V76.53H46.458V54.722Z" fill="#F0F0F0"/>
<path d="M53.04 54.722L54.938 53.006L56.838 54.722V76.53H53.04V54.722Z" fill="#F0F0F0"/>
<path d="M59.6201 54.722L61.5201 53.006L63.4181 54.722V76.53H59.6201V54.722Z" fill="#F0F0F0"/>
<path d="M66.2021 54.722L68.1001 53.006L69.9981 54.722V76.53H66.2021V54.722Z" fill="#F0F0F0"/>
<path d="M72.7822 54.722L74.6822 53.006L76.5802 54.722V76.53H72.7822V54.722Z" fill="#F0F0F0"/>
<path d="M79.3638 54.722L81.2618 53.006L83.1598 54.722V76.53H79.3638V54.722Z" fill="#F0F0F0"/>
<path d="M85.9438 54.722L87.8438 53.006L89.7418 54.722V76.53H85.9438V54.722Z" fill="#F0F0F0"/>
<path d="M48.3558 58.8619L87.8418 58.8619V57.8939L48.3558 57.8939V58.8619Z" fill="#F0F0F0"/>
<path d="M48.3558 70.318H87.8418V69.35H48.3558V70.318Z" fill="#F0F0F0"/>
<path d="M50.0002 85.512C71.4167 85.512 88.7782 84.4984 88.7782 83.248C88.7782 81.9976 71.4167 80.984 50.0002 80.984C28.5837 80.984 11.2222 81.9976 11.2222 83.248C11.2222 84.4984 28.5837 85.512 50.0002 85.512Z" fill="#F5F5F5"/>
<path d="M70.3881 37.958L70.4941 38.048L70.6201 38.148C70.7041 38.216 70.7941 38.284 70.8821 38.348C71.0621 38.478 71.2461 38.606 71.4381 38.722C71.8186 38.9628 72.2149 39.1779 72.6241 39.366C73.0354 39.5506 73.4568 39.7122 73.8861 39.85C74.1041 39.908 74.3181 39.98 74.5401 40.024L74.8721 40.096H74.9121C74.9121 40.096 74.9121 40.096 74.9021 40.096C74.8921 40.096 74.8821 40.118 74.9021 40.096C74.9429 40.0522 74.9754 40.0014 74.9981 39.946C75.0753 39.7696 75.1298 39.5841 75.1601 39.394C75.2312 38.9475 75.268 38.4962 75.2701 38.044C75.2701 37.578 75.2701 37.104 75.2421 36.63C75.2141 36.156 75.1841 35.674 75.1441 35.204L75.8441 35.078C76.0863 36.0404 76.2495 37.021 76.3321 38.01C76.379 38.5249 76.379 39.0431 76.3321 39.558C76.3043 39.8493 76.2412 40.136 76.1441 40.412C76.0817 40.5838 75.9934 40.745 75.8821 40.89C75.7373 41.0815 75.5399 41.2267 75.3141 41.308C75.1411 41.3695 74.9569 41.3927 74.7741 41.376L74.6921 41.366H74.6441L74.2621 41.304C74.0061 41.266 73.7561 41.198 73.5021 41.144C73.001 41.0164 72.5103 40.8513 72.0341 40.65C71.5573 40.4475 71.0961 40.2102 70.6541 39.94C70.4321 39.806 70.2181 39.658 70.0061 39.504C69.9001 39.426 69.7961 39.346 69.6921 39.262C69.6401 39.22 69.5901 39.176 69.5381 39.13C69.4861 39.084 69.4401 39.044 69.3721 38.98L70.3881 37.958Z" fill="#9F5B53"/>
<path d="M68.3818 37.118C70.4078 36.842 72.0438 38.48 72.0438 38.48L70.5318 41.052C70.5318 41.052 68.1997 40.07 67.8477 39.2C67.4837 38.3 67.3418 37.258 68.3818 37.118Z" fill="#407BFF"/>
<path opacity="0.3" d="M68.3818 37.118C70.4078 36.842 72.0438 38.48 72.0438 38.48L70.5318 41.052C70.5318 41.052 68.1997 40.07 67.8477 39.2C67.4837 38.3 67.3418 37.258 68.3818 37.118Z" fill="black"/>
<path d="M75.3341 35.582L74.2241 34.558L75.8701 33.916C75.8701 33.916 76.3921 34.796 75.9701 35.676L75.3341 35.582Z" fill="#9F5B53"/>
<path d="M74 33.0901L75.31 32.8401L75.87 33.9161L74.224 34.5581L74 33.0901Z" fill="#9F5B53"/>
<path d="M61.1997 81.714L62.8317 81.874L64.5317 77.988L62.8997 77.828L61.1997 81.714Z" fill="#9F5B53"/>
<path d="M50.686 75.97L51.912 77.122L54.558 74.212L53.332 73.062L50.686 75.97Z" fill="#9F5B53"/>
<path d="M52.4779 76.5701L51.5559 74.9101C51.5406 74.8813 51.5152 74.8591 51.4846 74.8477C51.4541 74.8363 51.4204 74.8364 51.3899 74.8481L49.9719 75.3881C49.9366 75.4027 49.9048 75.4246 49.8786 75.4524C49.8525 75.4802 49.8325 75.5133 49.82 75.5494C49.8075 75.5855 49.8028 75.6238 49.8063 75.6619C49.8097 75.6999 49.8212 75.7368 49.8399 75.7701C50.1719 76.3441 50.3599 76.6041 50.7639 77.3341C51.0139 77.7821 51.4999 78.8121 51.8439 79.4321C52.1879 80.0521 52.8199 79.7461 52.7319 79.4561C52.3319 78.1601 52.4119 77.4381 52.5319 76.8661C52.5489 76.7641 52.5298 76.6594 52.4779 76.5701Z" fill="#263238"/>
<path d="M63.0498 81.37H61.0498C61.0138 81.3705 60.9789 81.3826 60.9504 81.4046C60.9219 81.4266 60.9014 81.4573 60.8918 81.492L60.4558 83.078C60.4451 83.1156 60.4434 83.1551 60.4508 83.1934C60.4583 83.2317 60.4746 83.2677 60.4986 83.2985C60.5226 83.3293 60.5535 83.354 60.5888 83.3706C60.6241 83.3872 60.6628 83.3952 60.7018 83.394C61.4078 83.394 61.7418 83.394 62.6238 83.394H65.3178C66.0518 83.394 66.2038 82.654 65.9018 82.594C64.5418 82.294 63.7578 81.878 63.3398 81.484C63.2618 81.4095 63.1577 81.3686 63.0498 81.37Z" fill="#263238"/>
<path d="M64.5301 77.9901L63.6561 79.9921H61.9521L62.8981 77.8301L64.5301 77.9901Z" fill="#8A4743"/>
<path d="M53.3298 73.062L54.5578 74.214L53.1918 75.712L51.9658 74.56L53.3298 73.062Z" fill="#8A4743"/>
<path d="M70.1157 37.306C70.1157 37.306 70.8477 37.63 68.3877 47.37L61.5497 46.77C61.9057 43.996 62.0577 42.28 61.2197 36.454C62.1947 36.3402 63.1765 36.2968 64.1577 36.324C65.1977 36.3418 66.235 36.4341 67.2617 36.6C68.2243 36.7875 69.1768 37.0231 70.1157 37.306Z" fill="#407BFF"/>
<path opacity="0.3" d="M70.1157 37.306C70.1157 37.306 70.8477 37.63 68.3877 47.37L61.5497 46.77C61.9057 43.996 62.0577 42.28 61.2197 36.454C62.1947 36.3402 63.1765 36.2968 64.1577 36.324C65.1977 36.3418 66.235 36.4341 67.2617 36.6C68.2243 36.7875 69.1768 37.0231 70.1157 37.306Z" fill="black"/>
<path d="M64.158 36.332C64.158 36.332 63.77 36.29 63.312 36.29C63.036 36.716 63.874 38.334 65.354 39.55C65.6855 38.9907 66.1064 38.4894 66.6 38.066L64.158 36.332Z" fill="#FAFAFA"/>
<path d="M67.262 36.6001C67.4599 36.6125 67.6562 36.644 67.848 36.6941C68.124 37.1201 68.658 38.6261 67.848 39.5501C67.5165 38.9907 67.0956 38.4894 66.6021 38.0661L67.262 36.6001Z" fill="#FAFAFA"/>
<path d="M66.8218 39.1501C66.8218 39.2721 66.7878 39.3721 66.7298 39.3761C66.6718 39.3801 66.6218 39.2821 66.6138 39.1621C66.6058 39.0421 66.6478 38.9381 66.7058 38.9361C66.7638 38.9341 66.8158 39.0281 66.8218 39.1501Z" fill="#FAFAFA"/>
<path d="M66.7999 40.0761C66.7999 40.1961 66.7479 40.2941 66.6899 40.2941C66.6319 40.2941 66.5899 40.1921 66.5919 40.0701C66.5939 39.9481 66.6439 39.8521 66.7019 39.8521C66.7599 39.8521 66.8099 39.9541 66.7999 40.0761Z" fill="#FAFAFA"/>
<path d="M64.768 32.8621C64.878 33.8781 64.914 35.7261 64.168 36.3321C64.9001 37.013 65.7176 37.5959 66.6 38.0661C67.788 37.2461 67.262 36.6001 67.262 36.6001C66.172 36.2381 66.272 35.4141 66.532 34.6541L64.768 32.8621Z" fill="#9F5B53"/>
<path d="M65.488 33.6001L66.532 34.6601C66.4689 34.8364 66.4207 35.0177 66.388 35.2021C65.968 35.1041 65.36 34.6681 65.354 34.2181C65.3609 34.0057 65.4064 33.7963 65.488 33.6001Z" fill="#8A4743"/>
<path d="M66.7642 29.852C66.7642 29.852 67.8722 30.94 68.1162 31.47C68.7882 31.72 68.6062 29.95 68.0962 28.926C67.2002 29.724 66.7642 29.852 66.7642 29.852Z" fill="#263238"/>
<path d="M63.8739 31.274C64.2979 32.898 64.4419 33.594 65.4379 34.274C66.9339 35.296 68.8379 34.42 68.9039 32.704C68.9679 31.158 68.2639 28.764 66.5279 28.428C66.1455 28.3514 65.7498 28.3738 65.3785 28.4932C65.0072 28.6127 64.6726 28.8251 64.4066 29.1104C64.1406 29.3956 63.952 29.7442 63.8588 30.1229C63.7655 30.5016 63.7707 30.8979 63.8739 31.274Z" fill="#9F5B53"/>
<path d="M67.5558 29.2C68.2998 29.31 69.0418 28.614 67.8378 27.868C68.2238 27.828 68.6378 26.468 67.2378 26.542C67.1698 25.896 65.7838 25.32 65.0378 26.342C64.1758 25.774 62.9518 26.354 63.2258 27.236C62.2358 27.298 61.7198 28.65 62.5378 28.87C61.5538 29.47 61.3818 30.44 62.3378 30.616C62.4698 31.738 64.6678 31.236 64.4978 30.192C64.8978 30.406 66.1538 29.946 65.8978 29.392C66.3038 29.914 67.5558 29.676 67.5558 29.2Z" fill="#263238"/>
<path d="M63 30.6281C63 30.6281 63.816 31.9481 63.924 32.5221C64.524 32.9221 64.766 31.1641 64.524 30.0481C63.45 30.6001 63 30.6281 63 30.6281Z" fill="#263238"/>
<path d="M63.7399 32.74C63.8917 33.0269 64.1503 33.2425 64.4599 33.34C64.8719 33.462 65.0859 33.096 64.9799 32.704C64.8819 32.35 64.5519 31.86 64.1359 31.904C64.0449 31.9164 63.9584 31.9513 63.8842 32.0055C63.8101 32.0598 63.7507 32.1317 63.7113 32.2147C63.672 32.2977 63.654 32.3892 63.659 32.481C63.664 32.5727 63.6918 32.6617 63.7399 32.74Z" fill="#9F5B53"/>
<path d="M68.3881 47.37C68.3881 47.37 70.7021 57.604 69.1561 64.818C68.1221 69.65 64.3921 79.418 64.3921 79.418L61.4761 79.342C61.4761 79.342 64.3001 69.098 64.8761 65.07C65.8761 58.178 63.3721 46.942 63.3721 46.942L68.3881 47.37Z" fill="#407BFF"/>
<path opacity="0.6" d="M68.3881 47.37C68.3881 47.37 70.7021 57.604 69.1561 64.818C68.1221 69.65 64.3921 79.418 64.3921 79.418L61.4761 79.342C61.4761 79.342 64.3001 69.098 64.8761 65.07C65.8761 58.178 63.3721 46.942 63.3721 46.942L68.3881 47.37Z" fill="#FAFAFA"/>
<path d="M65.7197 49.436L64.2617 51.736C64.7007 54.4633 64.9792 57.2141 65.0957 59.974C67.1457 56.302 66.1757 51.38 65.7197 49.436Z" fill="#407BFF"/>
<path opacity="0.4" d="M65.7197 49.436L64.2617 51.736C64.7007 54.4633 64.9792 57.2141 65.0957 59.974C67.1457 56.302 66.1757 51.38 65.7197 49.436Z" fill="#FAFAFA"/>
<path d="M64.8037 79.562L61.1997 79.472L61.4097 78.364L65.3417 78.55L64.8037 79.562Z" fill="#407BFF"/>
<path opacity="0.3" d="M64.8037 79.562L61.1997 79.472L61.4097 78.364L65.3417 78.55L64.8037 79.562Z" fill="black"/>
<path d="M66.8919 47.2601C66.8919 47.2601 65.5359 58.1141 62.5939 64.0381C60.2179 68.8241 53.8759 75.6381 53.8759 75.6381L52.2559 73.9681C52.2559 73.9681 56.5379 66.5681 58.3039 63.3841C62.6339 55.5841 59.1039 49.6401 61.5499 46.7841L66.8919 47.2601Z" fill="#407BFF"/>
<path opacity="0.6" d="M66.8919 47.2601C66.8919 47.2601 65.5359 58.1141 62.5939 64.0381C60.2179 68.8241 53.8759 75.6381 53.8759 75.6381L52.2559 73.9681C52.2559 73.9681 56.5379 66.5681 58.3039 63.3841C62.6339 55.5841 59.1039 49.6401 61.5499 46.7841L66.8919 47.2601Z" fill="#FAFAFA"/>
<path d="M54.0398 75.8601L51.9478 73.8221L52.6418 72.8761L54.9218 75.2341L54.0398 75.8601Z" fill="#407BFF"/>
<path opacity="0.3" d="M54.0398 75.8601L51.9478 73.8221L52.6418 72.8761L54.9218 75.2341L54.0398 75.8601Z" fill="black"/>
<path d="M61.4818 46.368L61.1198 46.952C61.0918 46.998 61.1458 47.052 61.2238 47.058L68.3938 47.678C68.4558 47.678 68.5098 47.658 68.5178 47.62L68.6318 47.02C68.6318 46.978 68.5898 46.936 68.5218 46.93L61.5978 46.33C61.5768 46.326 61.5552 46.3274 61.5349 46.334C61.5146 46.3407 61.4963 46.3524 61.4818 46.368Z" fill="#263238"/>
<path d="M62.346 47.222L62.16 47.206C62.122 47.206 62.096 47.182 62.1 47.158L62.256 46.37C62.256 46.348 62.296 46.332 62.332 46.334L62.518 46.35C62.554 46.35 62.58 46.376 62.576 46.398L62.42 47.186C62.416 47.21 62.382 47.226 62.346 47.222Z" fill="#407BFF"/>
<path opacity="0.6" d="M62.346 47.222L62.16 47.206C62.122 47.206 62.096 47.182 62.1 47.158L62.256 46.37C62.256 46.348 62.296 46.332 62.332 46.334L62.518 46.35C62.554 46.35 62.58 46.376 62.576 46.398L62.42 47.186C62.416 47.21 62.382 47.226 62.346 47.222Z" fill="#FAFAFA"/>
<path d="M67.8679 47.7001L67.6819 47.6841C67.6459 47.6841 67.6199 47.6601 67.6239 47.6361L67.7799 46.8481C67.7799 46.8261 67.8179 46.8101 67.8539 46.8121L68.0399 46.8281C68.0779 46.8281 68.1039 46.8541 68.0999 46.8761L67.9439 47.6641C67.9369 47.6775 67.9257 47.6883 67.9119 47.6947C67.8982 47.7012 67.8828 47.7031 67.8679 47.7001Z" fill="#407BFF"/>
<path opacity="0.6" d="M67.8679 47.7001L67.6819 47.6841C67.6459 47.6841 67.6199 47.6601 67.6239 47.6361L67.7799 46.8481C67.7799 46.8261 67.8179 46.8101 67.8539 46.8121L68.0399 46.8281C68.0779 46.8281 68.1039 46.8541 68.0999 46.8761L67.9439 47.6641C67.9369 47.6775 67.9257 47.6883 67.9119 47.6947C67.8982 47.7012 67.8828 47.7031 67.8679 47.7001Z" fill="#FAFAFA"/>
<path d="M65.1057 47.4621L64.9217 47.4461C64.8837 47.4461 64.8577 47.4201 64.8617 47.3981L65.0177 46.6101C65.0177 46.5861 65.0557 46.5701 65.0937 46.5741L65.2777 46.5901C65.3157 46.5901 65.3417 46.6141 65.3377 46.6381L65.1817 47.4241C65.1777 47.4481 65.1437 47.4641 65.1057 47.4621Z" fill="#407BFF"/>
<path opacity="0.6" d="M65.1057 47.4621L64.9217 47.4461C64.8837 47.4461 64.8577 47.4201 64.8617 47.3981L65.0177 46.6101C65.0177 46.5861 65.0557 46.5701 65.0937 46.5741L65.2777 46.5901C65.3157 46.5901 65.3417 46.6141 65.3377 46.6381L65.1817 47.4241C65.1777 47.4481 65.1437 47.4641 65.1057 47.4621Z" fill="#FAFAFA"/>
<path d="M66.4558 31.244C66.4818 31.378 66.5738 31.472 66.6558 31.454C66.7378 31.436 66.7918 31.316 66.7658 31.182C66.7398 31.048 66.6478 30.954 66.5658 30.97C66.4838 30.986 66.4298 31.11 66.4558 31.244Z" fill="#263238"/>
<path d="M67.9677 30.946C67.9937 31.08 68.0857 31.174 68.1677 31.158C68.2497 31.142 68.3037 31.018 68.2777 30.884C68.2517 30.75 68.1597 30.656 68.0777 30.684C67.9957 30.712 67.9397 30.812 67.9677 30.946Z" fill="#263238"/>
<path d="M68.04 30.6881L68.344 30.5321C68.344 30.5321 68.228 30.8161 68.04 30.6881Z" fill="#263238"/>
<path d="M67.6118 31.2561C67.7917 31.5369 68.009 31.792 68.2578 32.0141C68.1992 32.0764 68.1276 32.1251 68.0481 32.1569C67.9687 32.1887 67.8833 32.2028 67.7978 32.1981L67.6118 31.2561Z" fill="#892B29"/>
<path d="M67.1799 32.8361C66.8982 32.8398 66.6258 32.7361 66.4179 32.5461C66.412 32.5395 66.4087 32.5309 66.4087 32.5221C66.4087 32.5132 66.412 32.5047 66.4179 32.4981C66.4242 32.4917 66.4329 32.4882 66.4419 32.4882C66.4509 32.4882 66.4595 32.4917 66.4659 32.4981C66.594 32.6104 66.7467 32.6911 66.9117 32.7338C67.0766 32.7765 67.2493 32.78 67.4159 32.7441C67.4246 32.7423 67.4337 32.744 67.4412 32.7489C67.4487 32.7537 67.4539 32.7614 67.4559 32.7701C67.4567 32.7743 67.4567 32.7786 67.4559 32.7828C67.455 32.787 67.4534 32.791 67.4509 32.7946C67.4485 32.7981 67.4454 32.8012 67.4418 32.8035C67.4381 32.8058 67.4341 32.8074 67.4299 32.8081C67.3477 32.8258 67.2639 32.8352 67.1799 32.8361Z" fill="#263238"/>
<path d="M65.712 30.4001C65.7008 30.4027 65.6892 30.4027 65.678 30.4001C65.6631 30.3906 65.6525 30.3757 65.6483 30.3585C65.6442 30.3414 65.647 30.3233 65.656 30.3081C65.7173 30.1997 65.8039 30.1077 65.9083 30.0398C66.0128 29.9719 66.132 29.9302 66.256 29.9181C66.2733 29.9181 66.29 29.9247 66.3027 29.9366C66.3153 29.9485 66.3229 29.9648 66.324 29.9821C66.3242 29.9908 66.3228 29.9994 66.3197 30.0075C66.3166 30.0156 66.312 30.023 66.3061 30.0294C66.3001 30.0357 66.293 30.0408 66.2851 30.0443C66.2772 30.0479 66.2686 30.0498 66.26 30.0501C66.1578 30.0618 66.0598 30.0974 65.974 30.154C65.8881 30.2107 65.8169 30.2867 65.766 30.3761C65.7596 30.3841 65.7513 30.3905 65.7419 30.3947C65.7325 30.3989 65.7222 30.4007 65.712 30.4001Z" fill="#263238"/>
<path d="M68.5519 30.1641C68.5415 30.1668 68.5304 30.1668 68.5199 30.1641C68.4304 30.1098 68.3291 30.0779 68.2246 30.0713C68.1201 30.0647 68.0156 30.0835 67.9199 30.1261C67.9042 30.134 67.8861 30.1354 67.8693 30.1302C67.8525 30.125 67.8384 30.1135 67.8299 30.0981C67.8221 30.0824 67.8206 30.0642 67.8258 30.0474C67.831 30.0307 67.8426 30.0166 67.8579 30.0081C67.9717 29.9567 68.0962 29.9335 68.2208 29.9404C68.3455 29.9474 68.4666 29.9843 68.5739 30.0481C68.5816 30.0523 68.5883 30.0579 68.5938 30.0647C68.5992 30.0715 68.6033 30.0793 68.6057 30.0877C68.6081 30.096 68.6088 30.1048 68.6078 30.1135C68.6069 30.1221 68.6042 30.1305 68.5999 30.1381C68.5944 30.1457 68.5872 30.152 68.5789 30.1565C68.5706 30.161 68.5614 30.1636 68.5519 30.1641Z" fill="#263238"/>
<path d="M61.7398 38.9101C61.4619 39.4648 61.1534 40.0036 60.8158 40.5241C60.4798 41.0401 60.1238 41.5401 59.7418 42.0261C59.355 42.5111 58.9396 42.9726 58.4978 43.4081C58.2718 43.6241 58.0458 43.8401 57.8018 44.0401L57.6218 44.1941C57.5373 44.2634 57.4477 44.3262 57.3538 44.3821C57.1232 44.518 56.8594 44.5872 56.5918 44.5821C56.3195 44.5707 56.0569 44.4781 55.8378 44.3161C55.6683 44.1929 55.5185 44.0445 55.3938 43.8761C55.1896 43.5968 55.0197 43.2939 54.8878 42.9741C54.6492 42.3961 54.4612 41.7985 54.3258 41.1881C54.0597 40.0072 53.8838 38.8077 53.7998 37.6001L54.5058 37.5121C54.6198 38.0801 54.7418 38.6601 54.8838 39.2281C55.0258 39.7961 55.1698 40.3621 55.3438 40.9101C55.5059 41.4491 55.7064 41.9758 55.9438 42.4861C56.052 42.711 56.1863 42.9225 56.3438 43.1161C56.4014 43.1838 56.4688 43.2424 56.5438 43.2901C56.5998 43.3221 56.6178 43.3161 56.6198 43.3121C56.6486 43.3035 56.6756 43.2899 56.6998 43.2721C56.7258 43.2541 56.7578 43.2281 56.7918 43.2001L56.9438 43.0561C57.1438 42.8701 57.3438 42.6661 57.5438 42.4561C57.9278 42.0421 58.2838 41.5981 58.6318 41.1481C58.9798 40.6981 59.2978 40.2181 59.6018 39.7321C59.7558 39.4921 59.9038 39.2461 60.0498 38.9981C60.1958 38.7501 60.3338 38.4941 60.4498 38.2621L61.7398 38.9101Z" fill="#9F5B53"/>
<path d="M54.8197 37.758L54.6417 36.26L53.1577 37.216C53.1577 37.216 53.6437 38.016 54.3157 38.232L54.8197 37.758Z" fill="#9F5B53"/>
<path d="M54.0921 35.6521L53.1221 36.5681L53.1581 37.2161L54.6421 36.2601L54.0921 35.6521Z" fill="#9F5B53"/>
<path d="M61.22 36.4621C60.382 36.6121 59.208 39.0161 59.208 39.0161L61.322 40.9261C61.322 40.9261 63.002 39.0941 62.912 38.0021C62.836 37.0741 62.288 36.2741 61.22 36.4621Z" fill="#407BFF"/>
<path opacity="0.3" d="M61.22 36.4621C60.382 36.6121 59.208 39.0161 59.208 39.0161L61.322 40.9261C61.322 40.9261 63.002 39.0941 62.912 38.0021C62.836 37.0741 62.288 36.2741 61.22 36.4621Z" fill="black"/>
<path d="M52.8001 77.462C52.7782 77.4621 52.7565 77.458 52.7361 77.45C52.5361 77.384 52.4041 77.012 52.3361 76.796C52.3349 76.7898 52.3354 76.7833 52.3375 76.7774C52.3396 76.7714 52.3433 76.7661 52.3481 76.762C52.3535 76.7586 52.3597 76.7568 52.3661 76.7568C52.3724 76.7568 52.3787 76.7586 52.3841 76.762C52.4461 76.794 52.9841 77.08 52.9981 77.292C53.0002 77.3149 52.9961 77.3379 52.9862 77.3587C52.9764 77.3794 52.9611 77.3972 52.9421 77.41C52.9016 77.4422 52.8518 77.4604 52.8001 77.462ZM52.4301 76.862C52.5221 77.158 52.6421 77.356 52.7561 77.394C52.7822 77.4014 52.8098 77.4021 52.8364 77.3962C52.8629 77.3903 52.8875 77.3778 52.9081 77.36C52.9181 77.3537 52.9263 77.3448 52.9316 77.3342C52.9368 77.3236 52.9391 77.3118 52.9381 77.3C52.9281 77.164 52.6141 76.96 52.4301 76.856V76.862Z" fill="#407BFF"/>
<path d="M52.8838 76.9401C52.7013 76.9393 52.5214 76.8969 52.3578 76.8161C52.3529 76.8133 52.3488 76.8092 52.346 76.8043C52.3432 76.7993 52.3417 76.7938 52.3418 76.7881C52.3418 76.7822 52.3432 76.7763 52.346 76.7711C52.3488 76.7659 52.3529 76.7614 52.3578 76.7581C52.3758 76.7481 52.7998 76.5161 53.0278 76.5961C53.0565 76.6053 53.0827 76.6209 53.1045 76.6417C53.1264 76.6625 53.1432 76.6879 53.1538 76.7161C53.1677 76.7429 53.1723 76.7735 53.1669 76.8032C53.1614 76.8329 53.1463 76.86 53.1238 76.8801C53.0521 76.925 52.9681 76.946 52.8838 76.9401ZM52.4478 76.7881C52.6298 76.8661 52.9818 76.9141 53.0798 76.8281C53.0958 76.8141 53.1138 76.7921 53.0918 76.7401C53.0846 76.721 53.0731 76.7039 53.0582 76.69C53.0433 76.6761 53.0253 76.6659 53.0058 76.6601C52.8518 76.6001 52.5678 76.7281 52.4478 76.7881Z" fill="#407BFF"/>
<path d="M63.94 81.6941C63.7554 81.6897 63.5717 81.6662 63.3919 81.6241C63.3852 81.6229 63.379 81.6195 63.3743 81.6144C63.3696 81.6094 63.3667 81.603 63.3659 81.5961C63.3652 81.5893 63.3665 81.5824 63.3697 81.5763C63.3729 81.5702 63.3779 81.5653 63.384 81.5621C63.468 81.5221 64.196 81.1881 64.384 81.3101C64.4004 81.3217 64.4135 81.3374 64.422 81.3556C64.4304 81.3739 64.4338 81.3941 64.4319 81.4141C64.4304 81.4509 64.4207 81.4869 64.4033 81.5195C64.386 81.552 64.3616 81.5803 64.3319 81.6021C64.214 81.6727 64.077 81.7049 63.94 81.6941ZM63.5059 81.5801C63.7219 81.6201 64.1219 81.6721 64.2859 81.5481C64.3081 81.5325 64.3261 81.5118 64.3387 81.4878C64.3512 81.4638 64.3578 81.4372 64.3579 81.4101C64.3579 81.3821 64.358 81.3721 64.34 81.3661C64.238 81.2961 63.7999 81.4461 63.5059 81.5801Z" fill="#407BFF"/>
<path d="M63.3999 81.626C63.3926 81.6279 63.3851 81.6279 63.3779 81.626C63.373 81.6219 63.3694 81.6166 63.3673 81.6106C63.3652 81.6046 63.3647 81.5982 63.3658 81.592C63.3658 81.562 63.5439 80.842 63.9339 80.89C64.0319 80.902 64.0599 80.952 64.0639 80.99C64.0899 81.174 63.6299 81.542 63.4119 81.63L63.3999 81.626ZM63.8978 80.946C63.6458 80.946 63.4979 81.364 63.4499 81.532C63.6859 81.408 64.0138 81.108 63.9978 80.992C63.9978 80.992 63.9979 80.956 63.9259 80.948L63.8978 80.946Z" fill="#407BFF"/>
<path d="M66.5298 30.9861L66.8318 30.8301C66.8318 30.8301 66.7158 31.1141 66.5298 30.9861Z" fill="#263238"/>
<path d="M24.7061 31.3999C26.4791 29.6218 28.5862 28.2117 30.9061 27.2506C33.226 26.2896 35.713 25.7966 38.2241 25.7999H40.9301C40.9301 25.7999 53.6961 29.1419 53.6961 42.8179C53.6961 56.1859 44.8581 68.0179 40.9321 71.9499H38.2281L24.7061 58.4279C21.124 54.8427 19.1118 49.982 19.1118 44.9139C19.1118 39.8459 21.124 34.9852 24.7061 31.3999ZM38.2261 53.7999C39.9816 53.7999 41.6978 53.2793 43.1575 52.3039C44.6172 51.3285 45.7549 49.9422 46.4266 48.3202C47.0983 46.6982 47.274 44.9134 46.9314 43.1916C46.5887 41.4698 45.7432 39.8882 44.5016 38.647C43.2601 37.4057 41.6784 36.5605 39.9565 36.2183C38.2345 35.876 36.4498 36.0521 34.828 36.7242C33.2061 37.3963 31.82 38.5342 30.845 39.9942C29.8699 41.4541 29.3497 43.1704 29.3501 44.9259C29.3548 47.2769 30.2921 49.5299 31.9561 51.1906C33.6202 52.8513 35.8751 53.784 38.2261 53.7839V53.7999Z" fill="#263238"/>
<path d="M54.8002 31.0379C54.0086 30.2471 53.1523 29.5239 52.2402 28.8759L52.3542 28.7119C53.2765 29.3668 54.1423 30.098 54.9422 30.8979L54.8002 31.0379ZM51.0442 28.0939C50.5742 27.8099 50.0862 27.5419 49.5962 27.2939L49.6842 27.1139C50.1802 27.3599 50.6722 27.6299 51.1482 27.9139L51.0442 28.0939Z" fill="#407BFF"/>
<path opacity="0.2" d="M54.8002 31.0379C54.0086 30.2471 53.1523 29.5239 52.2402 28.8759L52.3542 28.7119C53.2765 29.3668 54.1423 30.098 54.9422 30.8979L54.8002 31.0379ZM51.0442 28.0939C50.5742 27.8099 50.0862 27.5419 49.5962 27.2939L49.6842 27.1139C50.1802 27.3599 50.6722 27.6299 51.1482 27.9139L51.0442 28.0939Z" fill="black"/>
<path d="M27.4103 31.3999C31.0174 27.9271 35.8429 26.008 40.8499 26.055C45.8568 26.1021 50.6454 28.1117 54.1865 31.6517C57.7276 35.1918 59.7386 39.9798 59.7872 44.9867C59.8357 49.9937 57.9181 54.8198 54.4463 58.4279L40.9323 71.9439L27.4103 58.4219C23.829 54.8374 21.8174 49.9778 21.8174 44.9109C21.8174 39.844 23.829 34.9843 27.4103 31.3999ZM40.9303 53.7999C42.6859 53.7999 44.402 53.2793 45.8617 52.3039C47.3214 51.3285 48.4591 49.9421 49.1308 48.3201C49.8026 46.6981 49.9782 44.9134 49.6356 43.1915C49.2929 41.4697 48.4474 39.8882 47.2059 38.6469C45.9643 37.4057 44.3826 36.5605 42.6607 36.2182C40.9388 35.8759 39.154 36.052 37.5322 36.7241C35.9104 37.3962 34.5243 38.5342 33.5492 39.9941C32.5741 41.454 32.0539 43.1703 32.0543 44.9259C32.059 47.2768 32.9963 49.5299 34.6604 51.1905C36.3244 52.8512 38.5793 53.7839 40.9303 53.7839V53.7999Z" fill="#407BFF"/>
<path opacity="0.2" d="M27.4103 31.3999C31.0174 27.9271 35.8429 26.008 40.8499 26.055C45.8568 26.1021 50.6454 28.1117 54.1865 31.6517C57.7276 35.1918 59.7386 39.9798 59.7872 44.9867C59.8357 49.9937 57.9181 54.8198 54.4463 58.4279L40.9323 71.9439L27.4103 58.4219C23.829 54.8374 21.8174 49.9778 21.8174 44.9109C21.8174 39.844 23.829 34.9843 27.4103 31.3999ZM40.9303 53.7999C42.6859 53.7999 44.402 53.2793 45.8617 52.3039C47.3214 51.3285 48.4591 49.9421 49.1308 48.3201C49.8026 46.6981 49.9782 44.9134 49.6356 43.1915C49.2929 41.4697 48.4474 39.8882 47.2059 38.6469C45.9643 37.4057 44.3826 36.5605 42.6607 36.2182C40.9388 35.8759 39.154 36.052 37.5322 36.7241C35.9104 37.3962 34.5243 38.5342 33.5492 39.9941C32.5741 41.454 32.0539 43.1703 32.0543 44.9259C32.059 47.2768 32.9963 49.5299 34.6604 51.1905C36.3244 52.8512 38.5793 53.7839 40.9303 53.7839V53.7999Z" fill="black"/>
<g style="mix-blend-mode:color-dodge" opacity="0.4">
<path d="M40.932 70.8619C40.9252 70.8618 40.9185 70.8604 40.9123 70.8576C40.9061 70.8549 40.9006 70.8509 40.896 70.8459L27.94 57.8919C25.3725 55.3234 23.6242 52.0512 22.9163 48.4891C22.2083 44.9271 22.5724 41.2351 23.9626 37.8799C25.3527 34.5248 27.7065 31.6572 30.7263 29.6397C33.7461 27.6221 37.2962 26.5453 40.928 26.5453C44.5597 26.5453 48.1099 27.6221 51.1297 29.6397C54.1495 31.6572 56.5032 34.5248 57.8934 37.8799C59.2835 41.2351 59.6476 44.9271 58.9397 48.4891C58.2317 52.0512 56.4835 55.3234 53.916 57.8919L40.966 70.8399C40.9624 70.8459 40.9574 70.851 40.9515 70.8549C40.9456 70.8587 40.9389 70.8611 40.932 70.8619ZM40.932 26.6439C37.32 26.6445 33.7894 27.7161 30.7864 29.7232C27.7834 31.7302 25.443 34.5826 24.061 37.9197C22.679 41.2567 22.3175 44.9287 23.0221 48.4712C23.7268 52.0137 25.4661 55.2678 28.02 57.8219L40.94 70.7399L53.854 57.8279C56.4076 55.2724 58.1463 52.0171 58.8502 48.4736C59.5541 44.9301 59.1916 41.2574 57.8086 37.9199C56.4256 34.5824 54.0841 31.7298 51.0802 29.7227C48.0763 27.7156 44.5447 26.6442 40.932 26.6439ZM40.932 54.6439C39.0083 54.6439 37.1278 54.0734 35.5283 53.0046C33.9288 51.9358 32.6822 50.4167 31.9461 48.6394C31.2101 46.8621 31.0176 44.9064 31.393 43.0197C31.7684 41.133 32.695 39.4 34.0554 38.0399C35.4158 36.6798 37.149 35.7536 39.0358 35.3785C40.9225 35.0035 42.8782 35.1964 44.6553 35.9328C46.4325 36.6693 47.9514 37.9162 49.0198 39.5159C50.0883 41.1156 50.6584 42.9962 50.658 44.9199C50.6521 47.4969 49.6249 49.9664 47.8014 51.7873C45.9779 53.6081 43.5069 54.6318 40.93 54.6339L40.932 54.6439ZM40.932 35.2939C39.0281 35.2939 37.167 35.8585 35.5841 36.9162C34.0011 37.9739 32.7673 39.4773 32.0387 41.2362C31.3101 42.9951 31.1195 44.9306 31.4909 46.7978C31.8624 48.6651 32.7791 50.3803 34.1254 51.7265C35.4716 53.0727 37.1868 53.9895 39.054 54.3609C40.9213 54.7324 42.8568 54.5417 44.6157 53.8132C46.3746 53.0846 47.878 51.8508 48.9357 50.2678C49.9934 48.6848 50.558 46.8238 50.558 44.9199C50.558 42.3657 49.5439 39.9159 47.7385 38.1091C45.9331 36.3022 43.4842 35.286 40.93 35.2839L40.932 35.2939Z" fill="#FAFAFA"/>
</g>
</svg>
