<svg width="100" height="100" viewBox="0 0 100 100" fill="none" xmlns="http://www.w3.org/2000/svg">
<path d="M81.064 52.928C98.332 62.698 98.422 78.528 81.264 88.306C64.106 98.084 36.204 98.074 18.936 88.306C1.66803 78.538 1.57602 62.706 18.736 52.928C35.896 43.15 63.8 43.158 81.064 52.928Z" fill="#F0F0F0"/>
<path d="M24.5882 10.0799C23.6542 10.6199 22.8462 11.7059 22.4582 12.8339C22.2114 12.8616 21.9737 12.9436 21.7622 13.0739L21.6122 13.1659C20.7686 13.7853 20.1956 14.7055 20.0122 15.7359C19.9668 16.0007 19.9668 16.2712 20.0122 16.5359C20.0144 16.5614 20.0096 16.5869 19.9983 16.6098C19.9871 16.6328 19.9697 16.6522 19.9482 16.6659L18.9802 17.2199C18.7591 17.3642 18.5751 17.5586 18.4431 17.7872C18.3111 18.0158 18.2347 18.2723 18.2202 18.5359C18.2202 19.0199 18.5642 19.2159 18.9862 18.9719L28.4102 13.5299C28.6321 13.3864 28.8167 13.1923 28.9488 12.9635C29.0809 12.7347 29.1568 12.4778 29.1702 12.2139C29.1702 11.7299 28.8262 11.5359 28.4062 11.7799L26.8622 12.6699C26.8142 12.6979 26.7822 12.6699 26.8002 12.6019C26.9417 12.1529 27 11.6819 26.9722 11.2119C26.8702 9.93592 25.9262 9.41192 24.7722 9.98592C24.7062 10.0139 24.6462 10.0459 24.5882 10.0799Z" fill="#E6E6E6"/>
<path d="M17.2221 8.87998C16.5296 9.32779 16.0109 9.99889 15.7521 10.782C15.582 10.8006 15.4181 10.8566 15.2721 10.946C15.2363 10.9661 15.2016 10.9881 15.1681 11.012C14.5843 11.4383 14.1879 12.074 14.0621 12.786C14.0311 12.968 14.0311 13.154 14.0621 13.336C14.0638 13.3536 14.0606 13.3713 14.0528 13.3872C14.045 13.4031 14.033 13.4165 14.0181 13.426L13.3521 13.81C13.1996 13.9096 13.0727 14.0437 12.9817 14.2014C12.8907 14.3592 12.8381 14.5361 12.8281 14.718C12.8281 15.052 13.0661 15.186 13.3561 15.018L19.8601 11.262C20.0126 11.1624 20.1395 11.0283 20.2306 10.8705C20.3216 10.7128 20.3742 10.5358 20.3841 10.354C20.3841 10.02 20.1461 9.88598 19.8561 10.054L18.8001 10.668C18.7661 10.688 18.7441 10.668 18.7561 10.622C18.8538 10.3119 18.8938 9.9865 18.8741 9.66198C18.8041 8.78198 18.1521 8.41998 17.3501 8.81598L17.2221 8.87998Z" fill="#E6E6E6"/>
<path d="M21.4539 75.416L24.2279 77.076C24.4392 77.2031 24.6812 77.2703 24.9279 77.2703C25.1745 77.2703 25.4165 77.2031 25.6279 77.076L48.1819 63.57C48.2522 63.5269 48.3103 63.4665 48.3506 63.3945C48.3909 63.3226 48.4121 63.2415 48.4121 63.159C48.4121 63.0765 48.3909 62.9954 48.3506 62.9235C48.3103 62.8515 48.2522 62.7911 48.1819 62.748L45.3999 61.088C45.1885 60.9609 44.9465 60.8937 44.6999 60.8937C44.4532 60.8937 44.2112 60.9609 43.9999 61.088L21.4539 74.6C21.3849 74.6434 21.328 74.7036 21.2886 74.7749C21.2492 74.8463 21.2285 74.9265 21.2285 75.008C21.2285 75.0895 21.2492 75.1697 21.2886 75.241C21.328 75.3124 21.3849 75.3726 21.4539 75.416Z" fill="#E0E0E0"/>
<path d="M73.9516 71.352C78.6116 74.044 78.6376 78.406 74.0076 81.096C69.3776 83.786 61.8456 83.788 57.1856 81.096C52.5256 78.404 52.4996 74.044 57.1296 71.352C61.7596 68.66 69.2916 68.662 73.9516 71.352Z" fill="#E0E0E0"/>
<path d="M18.6356 60.696C18.1216 60.204 17.5316 59.6659 17.4956 58.9539C17.4976 58.6356 17.5967 58.3254 17.7797 58.0649C17.9627 57.8044 18.2208 57.6059 18.5196 57.496C18.821 57.3942 19.1397 57.3542 19.4568 57.3782C19.774 57.4023 20.083 57.4899 20.3656 57.6359C20.9283 57.9334 21.4298 58.3344 21.8436 58.8179C23.0887 60.2016 23.99 61.8593 24.4745 63.6566C24.9589 65.4538 25.0127 67.34 24.6316 69.1619C24.5796 69.4019 24.4996 69.668 24.2836 69.782C23.9396 69.964 23.5476 69.644 23.3116 69.334C22.7998 68.6544 22.4131 67.8891 22.1696 67.0739C21.9696 66.3839 22.0576 65.6239 21.7976 64.9739C21.1616 63.3799 19.8596 61.866 18.6356 60.696Z" fill="#F58634"/>
<path d="M18.6356 60.696C18.1216 60.204 17.5316 59.6659 17.4956 58.9539C17.4976 58.6356 17.5967 58.3254 17.7797 58.0649C17.9627 57.8044 18.2208 57.6059 18.5196 57.496C18.821 57.3942 19.1397 57.3542 19.4568 57.3782C19.774 57.4023 20.083 57.4899 20.3656 57.6359C20.9283 57.9334 21.4298 58.3344 21.8436 58.8179C23.0887 60.2016 23.99 61.8593 24.4745 63.6566C24.9589 65.4538 25.0127 67.34 24.6316 69.1619C24.5796 69.4019 24.4996 69.668 24.2836 69.782C23.9396 69.964 23.5476 69.644 23.3116 69.334C22.7998 68.6544 22.4131 67.8891 22.1696 67.0739C21.9696 66.3839 22.0576 65.6239 21.7976 64.9739C21.1616 63.3799 19.8596 61.866 18.6356 60.696Z" fill="#F58634"/>
<path d="M23.9838 68.852C23.9658 68.852 23.9479 68.8484 23.9313 68.8415C23.9147 68.8345 23.8996 68.8243 23.8869 68.8115C23.8743 68.7986 23.8643 68.7834 23.8576 68.7667C23.8509 68.7499 23.8475 68.732 23.8478 68.714C23.831 66.7183 23.3703 64.7514 22.4993 62.9557C21.6283 61.16 20.3687 59.5807 18.8118 58.332C18.7968 58.3206 18.7843 58.3064 18.7749 58.2901C18.7656 58.2738 18.7596 58.2558 18.7573 58.2371C18.7551 58.2184 18.7566 58.1995 18.7619 58.1814C18.7671 58.1634 18.7759 58.1466 18.7878 58.132C18.7995 58.1174 18.8139 58.1052 18.8303 58.0962C18.8467 58.0872 18.8646 58.0815 18.8832 58.0795C18.9018 58.0774 18.9206 58.0791 18.9386 58.0843C18.9565 58.0895 18.9732 58.0983 18.9878 58.11C20.5776 59.3845 21.8637 60.9971 22.7528 62.8305C23.6419 64.664 24.1116 66.6724 24.1278 68.71C24.1284 68.729 24.125 68.7479 24.118 68.7655C24.1109 68.7831 24.1003 68.7991 24.0868 68.8124C24.0732 68.8257 24.0571 68.8361 24.0394 68.8429C24.0217 68.8497 24.0028 68.8528 23.9838 68.852Z" fill="white"/>
<path d="M22.2978 74.308C21.4318 74.586 20.3458 74.404 19.8438 73.644C19.2438 72.752 19.6218 71.376 18.8318 70.644C18.3898 70.244 17.7398 70.2 17.1538 70.08C16.5678 69.96 15.9178 69.634 15.8298 69.042C15.7138 68.258 16.6778 67.606 16.5438 66.824C16.4098 66.042 15.3438 65.812 15.0298 65.096C14.7438 64.444 15.2498 63.654 15.9218 63.41C16.5938 63.166 17.3398 63.334 18.0078 63.582C18.6758 63.83 19.3258 64.158 20.0338 64.246C20.7418 64.334 21.6218 64.192 22.1618 64.698C22.8858 65.374 22.4718 66.664 23.0298 67.48C23.4058 68.028 24.1118 68.218 24.6518 68.602C24.9875 68.8457 25.2599 69.1663 25.4464 69.5368C25.6329 69.9074 25.728 70.3171 25.7238 70.732C25.7058 71.63 25.2338 72.28 24.5538 72.796C23.8338 73.356 23.1998 74.02 22.2978 74.308Z" fill="#F58634"/>
<path opacity="0.3" d="M22.2978 74.308C21.4318 74.586 20.3458 74.404 19.8438 73.644C19.2438 72.752 19.6218 71.376 18.8318 70.644C18.3898 70.244 17.7398 70.2 17.1538 70.08C16.5678 69.96 15.9178 69.634 15.8298 69.042C15.7138 68.258 16.6778 67.606 16.5438 66.824C16.4098 66.042 15.3438 65.812 15.0298 65.096C14.7438 64.444 15.2498 63.654 15.9218 63.41C16.5938 63.166 17.3398 63.334 18.0078 63.582C18.6758 63.83 19.3258 64.158 20.0338 64.246C20.7418 64.334 21.6218 64.192 22.1618 64.698C22.8858 65.374 22.4718 66.664 23.0298 67.48C23.4058 68.028 24.1118 68.218 24.6518 68.602C24.9875 68.8457 25.2599 69.1663 25.4464 69.5368C25.6329 69.9074 25.728 70.3171 25.7238 70.732C25.7058 71.63 25.2338 72.28 24.5538 72.796C23.8338 73.356 23.1998 74.02 22.2978 74.308Z" fill="black"/>
<path d="M21.9079 68.166L21.8978 68.152C21.7678 67.964 21.6338 67.778 21.4978 67.6C20.2162 66.0121 18.4778 64.856 16.5178 64.288C16.5 64.2809 16.4808 64.2777 16.4616 64.2784C16.4423 64.2792 16.4235 64.284 16.4062 64.2925C16.3889 64.301 16.3736 64.313 16.3613 64.3277C16.3489 64.3425 16.3398 64.3597 16.3345 64.3781C16.3292 64.3966 16.3278 64.416 16.3304 64.4351C16.333 64.4542 16.3396 64.4725 16.3497 64.4888C16.3598 64.5052 16.3732 64.5193 16.3891 64.5302C16.405 64.541 16.4229 64.5485 16.4418 64.552C18.3476 65.104 20.0378 66.228 21.2838 67.772C21.3218 67.82 21.3559 67.874 21.3939 67.922C19.8419 67.352 18.2579 67.676 17.4139 68.356C17.3987 68.3673 17.386 68.3816 17.3767 68.3981C17.3674 68.4145 17.3616 68.4328 17.3597 68.4516C17.3578 68.4704 17.3599 68.4894 17.3658 68.5074C17.3716 68.5254 17.3812 68.5419 17.3939 68.556C17.405 68.5713 17.4192 68.5841 17.4356 68.5936C17.452 68.6032 17.4702 68.6091 17.489 68.6112C17.5078 68.6133 17.5269 68.6114 17.5449 68.6057C17.563 68.6 17.5796 68.5905 17.5939 68.578C18.4299 67.904 20.1558 67.604 21.7198 68.362C22.6928 69.7978 23.262 71.4688 23.3678 73.2C23.3699 73.2347 23.3851 73.2672 23.4104 73.291C23.4357 73.3148 23.4691 73.3281 23.5038 73.328C23.5219 73.3272 23.5396 73.3229 23.5559 73.3152C23.5723 73.3075 23.5869 73.2967 23.599 73.2832C23.6111 73.2698 23.6205 73.2542 23.6264 73.2371C23.6324 73.2201 23.6349 73.202 23.6339 73.184C23.5229 71.386 22.9264 69.6518 21.9079 68.166Z" fill="white"/>
<path d="M74.9421 65.08C75.3601 64.68 75.8381 64.244 75.8661 63.668C75.865 63.4097 75.7849 63.1581 75.6365 62.9467C75.4881 62.7354 75.2786 62.5746 75.0361 62.486C74.7916 62.4028 74.5328 62.3701 74.2754 62.3897C74.0179 62.4093 73.7671 62.4808 73.5381 62.6C73.0805 62.8397 72.6732 63.1649 72.3381 63.558C71.3259 64.6809 70.5933 66.0271 70.1999 67.4868C69.8065 68.9465 69.7634 70.4784 70.0741 71.958C70.0834 72.0572 70.1135 72.1534 70.1624 72.2402C70.2113 72.327 70.278 72.4026 70.3581 72.462C70.6381 72.61 70.9581 72.35 71.1461 72.098C71.5621 71.5463 71.8757 70.9244 72.0721 70.262C72.2401 69.704 72.1641 69.086 72.3741 68.56C72.8921 67.26 73.9481 66.03 74.9421 65.08Z" fill="#F58634"/>
<path d="M70.5997 71.698C70.6294 71.698 70.6579 71.6862 70.6789 71.6652C70.6999 71.6441 70.7117 71.6157 70.7117 71.586C70.7252 69.9664 71.0991 68.3703 71.8062 66.9132C72.5133 65.4561 73.5359 64.1747 74.7997 63.162C74.8186 63.1424 74.8298 63.1167 74.8311 63.0896C74.8324 63.0624 74.8239 63.0357 74.807 63.0145C74.7901 62.9932 74.7661 62.9787 74.7393 62.9739C74.7126 62.969 74.685 62.974 74.6617 62.988C73.3721 64.0222 72.3288 65.3305 71.6075 66.818C70.8863 68.3055 70.5051 69.9349 70.4917 71.588C70.4922 71.6166 70.5037 71.644 70.5238 71.6645C70.5439 71.685 70.571 71.6969 70.5997 71.698Z" fill="white"/>
<path d="M71.9699 76.124C72.6739 76.35 73.5559 76.202 73.9699 75.586C74.4479 74.862 74.1499 73.746 74.7899 73.16C75.1499 72.834 75.6759 72.8 76.1519 72.702C76.6279 72.604 77.1519 72.342 77.2259 71.862C77.3199 71.224 76.5379 70.696 76.6479 70.062C76.7579 69.428 77.6199 69.242 77.8759 68.662C78.1079 68.132 77.6959 67.49 77.1519 67.294C76.6079 67.098 76.0019 67.232 75.4599 67.432C74.9179 67.632 74.3898 67.9 73.8158 67.97C73.2418 68.04 72.5279 67.926 72.0899 68.338C71.5019 68.886 71.8379 69.938 71.3839 70.596C71.0799 71.04 70.5079 71.196 70.0699 71.504C69.797 71.7017 69.5756 71.962 69.4242 72.2631C69.2728 72.5641 69.1959 72.8971 69.1999 73.234C69.2139 73.962 69.5999 74.488 70.1479 74.908C70.7259 75.352 71.2479 75.892 71.9699 76.124Z" fill="#F58634"/>
<path opacity="0.3" d="M71.9699 76.124C72.6739 76.35 73.5559 76.202 73.9699 75.586C74.4479 74.862 74.1499 73.746 74.7899 73.16C75.1499 72.834 75.6759 72.8 76.1519 72.702C76.6279 72.604 77.1519 72.342 77.2259 71.862C77.3199 71.224 76.5379 70.696 76.6479 70.062C76.7579 69.428 77.6199 69.242 77.8759 68.662C78.1079 68.132 77.6959 67.49 77.1519 67.294C76.6079 67.098 76.0019 67.232 75.4599 67.432C74.9179 67.632 74.3898 67.9 73.8158 67.97C73.2418 68.04 72.5279 67.926 72.0899 68.338C71.5019 68.886 71.8379 69.938 71.3839 70.596C71.0799 71.04 70.5079 71.196 70.0699 71.504C69.797 71.7017 69.5756 71.962 69.4242 72.2631C69.2728 72.5641 69.1959 72.8971 69.1999 73.234C69.2139 73.962 69.5999 74.488 70.1479 74.908C70.7259 75.352 71.2479 75.892 71.9699 76.124Z" fill="black"/>
<path d="M72.288 71.142V71.13C72.394 70.978 72.502 70.828 72.618 70.684C73.6593 69.3945 75.0728 68.4573 76.666 68C76.6944 67.9919 76.7248 67.9954 76.7506 68.0096C76.7765 68.0239 76.7956 68.0477 76.804 68.076C76.8079 68.0902 76.8091 68.105 76.8073 68.1196C76.8055 68.1342 76.8009 68.1483 76.7936 68.1612C76.7864 68.174 76.7767 68.1852 76.7651 68.1943C76.7535 68.2034 76.7402 68.2101 76.726 68.214C75.1808 68.6599 73.8101 69.5704 72.8 70.822C72.768 70.862 72.74 70.904 72.71 70.944C73.968 70.48 75.252 70.744 75.938 71.296C75.9563 71.3104 75.9697 71.3302 75.9762 71.3526C75.9828 71.3751 75.9821 71.399 75.9744 71.421C75.9667 71.443 75.9523 71.4621 75.9332 71.4755C75.9141 71.489 75.8913 71.4961 75.868 71.496C75.8423 71.4961 75.8174 71.4869 75.798 71.47C75.12 70.924 73.72 70.682 72.45 71.296C71.6573 72.4617 71.1924 73.819 71.104 75.226C71.102 75.2543 71.0893 75.2808 71.0685 75.3001C71.0477 75.3194 71.0204 75.3301 70.992 75.33C70.9774 75.3292 70.963 75.3256 70.9498 75.3192C70.9366 75.3128 70.9249 75.3039 70.9152 75.2929C70.9055 75.2819 70.8981 75.2691 70.8934 75.2552C70.8888 75.2413 70.8869 75.2266 70.888 75.212C70.9773 73.7535 71.4612 72.3468 72.288 71.142Z" fill="white"/>
<path d="M56.1997 21.832C56.2917 21.778 56.3657 21.832 56.3657 21.928V23.05C56.3626 23.1074 56.3459 23.1632 56.317 23.2129C56.2882 23.2626 56.248 23.3048 56.1997 23.336C56.1077 23.39 56.0337 23.336 56.0337 23.242V22.12C56.0368 22.0623 56.0535 22.0062 56.0823 21.9562C56.1112 21.9061 56.1514 21.8636 56.1997 21.832Z" fill="#F58634"/>
<path d="M54.066 23.964C54.0848 23.9512 54.1071 23.9443 54.13 23.9443C54.1528 23.9443 54.1751 23.9512 54.194 23.964L54.824 24.46C54.884 24.508 54.874 24.634 54.804 24.742C54.7777 24.7854 54.7413 24.8217 54.698 24.848C54.6792 24.8611 54.6568 24.8681 54.634 24.8681C54.6111 24.8681 54.5887 24.8611 54.57 24.848L53.94 24.352C53.88 24.304 53.888 24.178 53.96 24.07C53.9865 24.0268 54.0228 23.9905 54.066 23.964Z" fill="#F58634"/>
<path d="M53.3256 25.412C53.3488 25.4016 53.3743 25.3975 53.3996 25.4L54.2476 25.474C54.3276 25.474 54.3556 25.582 54.3096 25.7C54.2814 25.7729 54.231 25.8352 54.1656 25.878C54.1406 25.8941 54.1112 25.9018 54.0816 25.9L53.2336 25.828C53.1556 25.828 53.1276 25.72 53.1736 25.602C53.2005 25.5229 53.2543 25.4556 53.3256 25.412Z" fill="#F58634"/>
<path d="M54.1799 28.2C54.2379 28.166 54.2939 28.168 54.3239 28.212C54.3435 28.2619 54.3483 28.3163 54.3376 28.3689C54.327 28.4214 54.3014 28.4697 54.2639 28.508L53.4199 29.558C53.3973 29.5868 53.3695 29.6113 53.3379 29.63C53.2799 29.664 53.2239 29.662 53.1919 29.618C53.1728 29.568 53.1683 29.5137 53.179 29.4613C53.1896 29.4089 53.2149 29.3606 53.2519 29.322L54.0959 28.272C54.1193 28.2431 54.1478 28.2187 54.1799 28.2Z" fill="#F58634"/>
<path d="M53.8978 27.47C53.9778 27.426 54.0478 27.45 54.0618 27.534C54.0654 27.5911 54.0551 27.6482 54.0318 27.7005C54.0084 27.7527 53.9728 27.7985 53.9278 27.834L52.9658 28.584L52.9378 28.604C52.8578 28.65 52.7878 28.626 52.7738 28.54C52.7697 28.4828 52.7798 28.4255 52.8032 28.3732C52.8266 28.3208 52.8625 28.2751 52.9078 28.24L53.8678 27.49L53.8978 27.47Z" fill="#F58634"/>
<path d="M58.35 21.492C58.3655 21.4812 58.3833 21.474 58.402 21.4709C58.4206 21.4677 58.4398 21.4688 58.458 21.474C58.528 21.502 58.538 21.616 58.48 21.732L57.854 22.954C57.8256 23.0125 57.7812 23.0617 57.726 23.096C57.7102 23.1063 57.6925 23.1132 57.6739 23.1163C57.6553 23.1194 57.6363 23.1186 57.618 23.114C57.548 23.086 57.538 22.97 57.598 22.854L58.222 21.634C58.2498 21.5751 58.2943 21.5257 58.35 21.492Z" fill="#F58634"/>
<path d="M57.3458 21.3999C57.3638 21.3898 57.3834 21.383 57.4038 21.3799C57.4898 21.3659 57.5338 21.4499 57.5038 21.5679L57.1718 22.8139C57.149 22.9031 57.0932 22.9802 57.0158 23.0299C56.9987 23.0407 56.9797 23.0481 56.9598 23.0519C56.8738 23.0659 56.8278 22.9819 56.8598 22.8639L57.1898 21.6179C57.2131 21.5285 57.2687 21.4508 57.3458 21.3999Z" fill="#F58634"/>
<g opacity="0.2">
<path d="M56.1997 21.832C56.2917 21.778 56.3657 21.832 56.3657 21.928V23.05C56.3626 23.1074 56.3459 23.1632 56.317 23.2129C56.2882 23.2626 56.248 23.3048 56.1997 23.336C56.1077 23.39 56.0337 23.336 56.0337 23.242V22.12C56.0368 22.0623 56.0535 22.0062 56.0823 21.9562C56.1112 21.9061 56.1514 21.8636 56.1997 21.832Z" fill="black"/>
<path d="M54.066 23.964C54.0848 23.9512 54.1071 23.9443 54.13 23.9443C54.1528 23.9443 54.1751 23.9512 54.194 23.964L54.824 24.46C54.884 24.508 54.874 24.634 54.804 24.742C54.7777 24.7854 54.7413 24.8217 54.698 24.848C54.6792 24.8611 54.6568 24.8681 54.634 24.8681C54.6111 24.8681 54.5887 24.8611 54.57 24.848L53.94 24.352C53.88 24.304 53.888 24.178 53.96 24.07C53.9865 24.0268 54.0228 23.9905 54.066 23.964Z" fill="black"/>
<path d="M53.3256 25.4119C53.3488 25.4015 53.3743 25.3974 53.3996 25.3999L54.2476 25.4739C54.3276 25.4739 54.3556 25.5819 54.3096 25.6999C54.2814 25.7728 54.231 25.8351 54.1656 25.8779C54.1406 25.8939 54.1112 25.9016 54.0816 25.8999L53.2336 25.8279C53.1556 25.8279 53.1276 25.7199 53.1736 25.6019C53.2005 25.5227 53.2543 25.4555 53.3256 25.4119Z" fill="black"/>
<path d="M54.1799 28.2C54.2379 28.166 54.2939 28.168 54.3239 28.212C54.3435 28.2619 54.3483 28.3163 54.3376 28.3689C54.327 28.4214 54.3014 28.4697 54.2639 28.508L53.4199 29.558C53.3973 29.5868 53.3695 29.6113 53.3379 29.63C53.2799 29.664 53.2239 29.662 53.1919 29.618C53.1728 29.568 53.1683 29.5137 53.179 29.4613C53.1896 29.4089 53.2149 29.3606 53.2519 29.322L54.0959 28.272C54.1193 28.2431 54.1478 28.2187 54.1799 28.2Z" fill="black"/>
<path d="M53.8978 27.47C53.9778 27.426 54.0478 27.45 54.0618 27.534C54.0654 27.5911 54.0551 27.6482 54.0318 27.7005C54.0084 27.7527 53.9728 27.7985 53.9278 27.834L52.9658 28.584L52.9378 28.604C52.8578 28.65 52.7878 28.626 52.7738 28.54C52.7697 28.4828 52.7798 28.4255 52.8032 28.3732C52.8266 28.3208 52.8625 28.2751 52.9078 28.24L53.8678 27.49L53.8978 27.47Z" fill="black"/>
<path d="M58.35 21.492C58.3655 21.4812 58.3833 21.474 58.402 21.4709C58.4206 21.4677 58.4398 21.4688 58.458 21.474C58.528 21.502 58.538 21.616 58.48 21.732L57.854 22.954C57.8256 23.0125 57.7812 23.0617 57.726 23.096C57.7102 23.1063 57.6925 23.1132 57.6739 23.1163C57.6553 23.1194 57.6363 23.1186 57.618 23.114C57.548 23.086 57.538 22.97 57.598 22.854L58.222 21.634C58.2498 21.5751 58.2943 21.5257 58.35 21.492Z" fill="black"/>
<path d="M57.3458 21.3999C57.3638 21.3898 57.3834 21.383 57.4038 21.3799C57.4898 21.3659 57.5338 21.4499 57.5038 21.5679L57.1718 22.8139C57.149 22.9031 57.0932 22.9802 57.0158 23.0299C56.9987 23.0407 56.9797 23.0481 56.9598 23.0519C56.8738 23.0659 56.8278 22.9819 56.8598 22.8639L57.1898 21.6179C57.2131 21.5285 57.2687 21.4508 57.3458 21.3999Z" fill="black"/>
</g>
<path d="M56.728 77.724C56.9777 77.9705 57.2764 78.1617 57.6047 78.2854C57.9331 78.4091 58.2837 78.4625 58.634 78.442C59.3318 78.3939 60.0146 78.217 60.648 77.92C61.294 77.648 62.102 76.888 62.8 76.902C63.4816 76.8969 64.1622 76.8495 64.838 76.76C64.8626 75.8082 64.7651 74.8571 64.548 73.93L61.294 73.842C60.416 75.076 58.708 76.102 57.416 76.486C57.2159 76.5462 57.0359 76.6593 56.895 76.8136C56.7542 76.9678 56.6577 77.1574 56.616 77.362C56.615 77.3693 56.615 77.3767 56.616 77.384C56.6392 77.5015 56.6768 77.6157 56.728 77.724Z" fill="#455A64"/>
<path d="M62.8 76.902C62.102 76.888 61.294 77.648 60.648 77.92C60.0147 78.2169 59.3318 78.3939 58.634 78.442C58.2838 78.4624 57.9331 78.4091 57.6048 78.2854C57.2765 78.1617 56.9778 77.9704 56.728 77.724C56.6769 77.6157 56.6393 77.5015 56.616 77.384C56.615 77.3767 56.615 77.3693 56.616 77.362C56.585 77.5084 56.585 77.6596 56.616 77.806C56.6393 77.9235 56.6769 78.0377 56.728 78.146C56.9775 78.3929 57.2761 78.5844 57.6045 78.7081C57.9329 78.8318 58.2837 78.8849 58.634 78.864C59.3317 78.8166 60.0146 78.6403 60.648 78.344C61.294 78.072 62.102 77.312 62.8 77.326C63.4686 77.331 64.1368 77.2909 64.8 77.206C64.816 77.058 64.826 76.908 64.832 76.76C64.1583 76.8492 63.4796 76.8966 62.8 76.902Z" fill="#37474F"/>
<path d="M71.3499 77.93C71.3524 78.2698 71.3195 78.609 71.2519 78.942C71.149 79.5299 70.8266 80.0568 70.3499 80.416C69.9157 80.674 69.4209 80.812 68.9159 80.816C68.4742 80.8633 68.0276 80.8156 67.6059 80.676C67.2835 80.557 67.0122 80.3302 66.8379 80.034C66.8379 80.034 66.8379 80.046 66.8379 80.052C66.8988 80.2685 67.0109 80.4671 67.1647 80.6311C67.3186 80.795 67.5097 80.9195 67.7219 80.994C68.1442 81.1339 68.5917 81.181 69.0339 81.132C69.5374 81.1318 70.0318 80.9972 70.4659 80.742C70.9439 80.3832 71.2666 79.8551 71.3679 79.266C71.4355 78.9337 71.4684 78.5952 71.4659 78.256C71.467 78.025 71.5145 77.7966 71.6056 77.5843C71.6966 77.372 71.8293 77.1801 71.9959 77.02C72.0772 76.9432 72.154 76.8617 72.2259 76.776C72.2777 76.7155 72.317 76.6452 72.3414 76.5693C72.3658 76.4934 72.3748 76.4134 72.3679 76.334C72.3679 76.272 72.3559 76.21 72.3479 76.15C72.2299 76.294 71.9479 76.634 71.8759 76.702C71.7113 76.8617 71.58 77.0525 71.4897 77.2633C71.3994 77.4741 71.3519 77.7007 71.3499 77.93Z" fill="#37474F"/>
<path d="M68.8617 74.4C68.9669 75.097 68.8762 75.8096 68.5997 76.458C68.3264 77.0963 67.9707 77.6961 67.5417 78.242C67.331 78.5001 67.1448 78.7773 66.9857 79.07C66.8315 79.3634 66.7768 79.6989 66.8297 80.026C67.004 80.3222 67.2753 80.549 67.5977 80.668C68.0194 80.8076 68.466 80.8553 68.9077 80.808C69.4127 80.804 69.9075 80.666 70.3417 80.408C70.8183 80.0488 71.1408 79.5219 71.2437 78.934C71.3113 78.601 71.3442 78.2618 71.3417 77.922C71.3429 77.6912 71.3902 77.463 71.4809 77.2507C71.5716 77.0385 71.7038 76.8465 71.8697 76.686C71.9417 76.618 72.2237 76.286 72.3417 76.134C72.2776 75.6295 72.1123 75.1431 71.8557 74.704L68.8617 74.4Z" fill="#455A64"/>
<path d="M60.1318 44.6L60.3778 61.812L61.1778 73.86C63.1778 75.16 64.6378 74.098 64.6378 74.098C65.3998 68.39 65.5018 64.88 65.0878 62.498L65.4678 53.21L66.5998 62.86L68.5198 74.682C70.5778 76.05 72.0318 74.682 72.0318 74.682C72.0318 70.306 72.4118 65.414 71.2318 62.258C72.0618 52.508 70.6778 44.78 70.6778 44.78L60.1318 44.6Z" fill="#37474F"/>
<path d="M65.0398 49.67L65.4598 53.218L65.2818 57.568L64.5098 50.416C62.7098 49.698 62.4858 48.688 62.4858 48.688C63.2387 49.2292 64.1183 49.5674 65.0398 49.67Z" fill="#263238"/>
<path d="M61.6539 24.706L61.1959 24.466H61.1859H61.1679C61.1302 24.4487 61.0889 24.4407 61.0474 24.4428C61.006 24.4449 60.9657 24.457 60.9299 24.478L56.8319 26.844C56.7515 26.8904 56.6848 26.9571 56.6384 27.0375C56.5921 27.1179 56.5678 27.2091 56.5679 27.302V29.286C56.5674 29.3274 56.577 29.3683 56.5958 29.4053C56.6146 29.4422 56.6421 29.474 56.6759 29.498C56.6915 29.5086 56.7083 29.5173 56.7259 29.524L57.1699 29.76L57.1479 29.398L61.0539 27.144C61.1345 27.0977 61.2015 27.031 61.2482 26.9506C61.2949 26.8702 61.3196 26.7789 61.3199 26.686V24.958L61.6539 24.706Z" fill="#455A64"/>
<path d="M61.5239 27.378L57.4259 29.744C57.3856 29.7675 57.3398 29.7799 57.2932 29.7802C57.2465 29.7804 57.2007 29.7684 57.1602 29.7453C57.1196 29.7222 57.0859 29.6888 57.0623 29.6486C57.0388 29.6083 57.0262 29.5626 57.0259 29.516V27.53C57.0264 27.4373 57.0509 27.3463 57.0972 27.266C57.1435 27.1857 57.2099 27.1188 57.2899 27.072L61.3999 24.706C61.4402 24.6817 61.4863 24.6687 61.5333 24.6682C61.5804 24.6678 61.6267 24.6799 61.6675 24.7033C61.7083 24.7268 61.7421 24.7607 61.7654 24.8016C61.7886 24.8425 61.8005 24.8889 61.7999 24.936V26.92C61.799 27.014 61.773 27.1061 61.7244 27.1866C61.6759 27.2672 61.6066 27.3333 61.5239 27.378Z" fill="#455A64"/>
<path d="M57.292 27.53C57.2923 27.4838 57.3046 27.4385 57.3278 27.3985C57.3509 27.3586 57.3841 27.3253 57.424 27.302L61.524 24.936V26.92C61.524 26.9666 61.5119 27.0123 61.4887 27.0527C61.4655 27.093 61.4322 27.1266 61.392 27.15L57.294 29.514L57.292 27.53Z" fill="#F58634"/>
<path d="M59.742 30.4639C59.797 30.3338 59.8897 30.2231 60.008 30.1459C60.3556 29.9282 60.6208 29.601 60.762 29.2159C60.8769 28.8047 60.94 28.3808 60.95 27.9539C60.9615 27.5246 61.1132 27.1109 61.382 26.7759C60.654 26.4819 60.358 27.1439 60.094 28.2039L57.656 29.6039L57.69 29.6839C57.7253 29.7618 57.7436 29.8464 57.7436 29.9319C57.7436 30.0175 57.7253 30.102 57.69 30.1799L56.98 31.6219C57.3239 31.8677 57.7248 32.0216 58.1449 32.0688C58.5649 32.1161 58.9901 32.0552 59.38 31.8919C59.4718 31.4091 59.5927 30.9322 59.742 30.4639Z" fill="#954F1B"/>
<path d="M59.2497 33.384C59.3777 32.866 59.5317 32.184 59.6317 31.584C59.1806 31.7414 58.6997 31.7941 58.2253 31.7379C57.7509 31.6818 57.2955 31.5183 56.8937 31.26C56.6046 31.7492 56.3454 32.2554 56.1177 32.776C56.556 33.1149 57.0676 33.3463 57.6115 33.4519C58.1554 33.5575 58.7164 33.5342 59.2497 33.384Z" fill="#E0E0E0"/>
<path d="M59.0241 34.2479C59.0241 34.2479 59.1241 33.8919 59.2501 33.3839C58.7163 33.5333 58.155 33.5556 57.6111 33.449C57.0672 33.3424 56.5559 33.1098 56.1181 32.7699C55.4286 34.3675 55.0024 36.0661 54.8561 37.7999C54.7903 38.3063 54.8154 38.8204 54.9301 39.3179C54.99 39.5667 55.1026 39.7997 55.2603 40.0012C55.4179 40.2027 55.617 40.368 55.8441 40.4859C56.4901 40.7819 57.2641 40.5259 57.8441 40.1239C58.9461 39.3679 59.6441 38.1619 60.2941 36.9979L62.0681 30.6639C61.0181 30.7799 60.1581 31.3699 59.0241 34.2479Z" fill="#F0F0F0"/>
<path opacity="0.1" d="M59.024 34.2479C58.608 35.7199 57.958 38.0699 57.958 38.0699C59.438 36.5659 59.024 34.2479 59.024 34.2479Z" fill="black"/>
<path opacity="0.1" d="M61.8117 31.6C61.2713 31.9683 60.8186 32.4511 60.4857 33.014C59.9057 34.014 59.7357 35.178 59.5777 36.318C59.4657 37.118 59.3543 37.918 59.2437 38.718C59.6281 38.1659 59.9806 37.5923 60.2997 37L61.8117 31.6Z" fill="black"/>
<path d="M63.966 30.47L62.074 30.67C60.524 32.036 59.724 34.902 60.058 38.07C60.2544 40.242 60.2791 42.4261 60.132 44.602C64.332 47.67 70.018 45.442 70.684 44.776L70.146 40.886C70.1126 40.4491 70.1853 40.0107 70.358 39.608C70.758 38.686 71.462 36.874 71.558 35.47C71.6179 34.2191 71.357 32.9736 70.8 31.852L68.05 30.652L63.966 30.47Z" fill="#F0F0F0"/>
<path opacity="0.1" d="M70.3577 39.6C70.7077 38.788 71.2976 37.286 71.4976 35.98C71.1076 36.216 70.6977 36.448 70.5337 36.836C70.0153 38.0899 69.8796 39.4691 70.1436 40.8C70.1228 40.3889 70.196 39.9785 70.3577 39.6Z" fill="black"/>
<path d="M63.4418 33.228C61.8578 36.87 61.8838 40.628 61.8838 40.628L62.6618 42.302L63.8838 40.702C63.789 38.2486 63.8378 35.7918 64.0298 33.344L63.4418 33.228Z" fill="#F58634"/>
<path d="M63.3737 31.8519C63.3404 32.3117 63.3633 32.7737 63.4417 33.2279C63.6238 33.3179 63.8274 33.3553 64.0297 33.3359C64.4018 33.0066 64.7202 32.6213 64.9737 32.1939L64.0297 31.8519H63.3737Z" fill="#F58634"/>
<path d="M64.0298 31.852C64.8438 32.152 65.5678 33.602 65.5678 33.602C67.7078 31.786 68.0418 30.652 68.0418 30.652C67.4918 29.87 66.8918 29.744 66.8918 29.744L64.0298 31.852Z" fill="#E0E0E0"/>
<path d="M64.0296 31.852C63.4076 31.87 62.8577 32.736 62.8577 32.736C62.7577 31.22 64.0296 30.052 64.0296 30.052V31.852Z" fill="#E0E0E0"/>
<path d="M66.9418 28.046L64.0298 29.086V30.164C64.6849 30.0712 65.3136 29.843 65.8758 29.494C66.3789 29.1399 66.753 28.6316 66.9418 28.046Z" fill="#954F1B"/>
<path d="M66.9418 28.046C66.753 28.6315 66.3789 29.1398 65.8758 29.494C65.3136 29.843 64.6849 30.0711 64.0298 30.164V31.852C64.0298 31.852 67.1078 30.47 67.1078 29.82V27.986L66.9418 28.046Z" fill="#954F1B"/>
<path d="M61.3318 23.776C61.0081 23.7879 60.6873 23.7102 60.405 23.5514C60.1227 23.3926 59.8897 23.1588 59.7318 22.876C59.711 22.8355 59.7021 22.7901 59.706 22.7448C59.7098 22.6995 59.7264 22.6562 59.7537 22.6199C59.7811 22.5836 59.8181 22.5557 59.8606 22.5394C59.903 22.5232 59.9492 22.5192 59.9938 22.528C60.2167 22.568 60.4449 22.568 60.6678 22.528C60.4112 22.1924 60.2236 21.8093 60.1158 21.4008C60.008 20.9923 59.9822 20.5665 60.0398 20.148C60.047 20.1013 60.065 20.0569 60.0925 20.0185C60.1199 19.98 60.156 19.9485 60.1978 19.9265C60.2396 19.9045 60.286 19.8927 60.3333 19.8919C60.3805 19.8911 60.4273 19.9014 60.4698 19.922C61.3969 20.3799 62.4278 20.5868 63.4598 20.522C64.0098 20.484 64.5518 20.366 65.1018 20.322C65.6522 20.2555 66.2102 20.3405 66.7158 20.568C66.966 20.6853 67.1798 20.8681 67.3347 21.0969C67.4896 21.3257 67.5798 21.5921 67.5958 21.868C67.6588 21.7792 67.7402 21.705 67.8344 21.6505C67.9286 21.596 68.0334 21.5624 68.1418 21.552C68.255 21.5386 68.3698 21.5484 68.4791 21.5807C68.5884 21.613 68.69 21.6672 68.7778 21.74C68.4598 21.916 68.1498 22.092 67.8318 22.266C68.1578 22.15 68.5678 22.404 68.7298 22.71C68.8673 23.0287 68.9269 23.3756 68.9038 23.722C68.9232 24.1809 68.9025 24.6407 68.8418 25.096C68.7818 25.5543 68.6025 25.9888 68.3218 26.356C68.0751 26.6578 67.7456 26.8809 67.3738 26.998C66.8686 27.1375 66.3329 27.12 65.8378 26.948C65.3432 26.777 64.8727 26.5431 64.4378 26.252C63.3296 25.5225 62.2899 24.6938 61.3318 23.776Z" fill="#263238"/>
<path d="M61.2617 22.8599C60.9421 24.7627 61.1496 26.7167 61.8617 28.5099C62.0257 28.9239 62.2417 29.3519 62.6277 29.5739C63.0137 29.7959 63.5357 29.7559 63.9977 29.6859C64.7468 29.6048 65.4778 29.4022 66.1617 29.0859C66.8506 28.7615 67.3874 28.1831 67.6597 27.4719C67.9047 27.522 68.1589 27.5 68.3917 27.4088C68.6245 27.3176 68.8259 27.161 68.9717 26.9579C69.2595 26.5359 69.4084 26.0346 69.3977 25.5239C69.3977 25.1999 69.3377 24.8179 69.0457 24.6759C68.7537 24.5339 68.4457 24.6919 68.2157 24.8759C67.8343 25.1912 67.5557 25.6133 67.4157 26.0879C67.2017 25.2999 66.8677 24.5379 66.6537 23.7479C66.5697 23.4359 66.4657 23.0979 66.1937 22.9239C65.8637 22.7119 65.4317 22.8339 65.0497 22.9239C63.8021 23.225 62.4984 23.203 61.2617 22.8599Z" fill="#954F1B"/>
<path d="M63.5636 25.256L62.6396 26.812L63.7416 27.018L63.5636 25.256Z" fill="#954F1B"/>
<path d="M64.7999 27.554L63.9619 27.954C64.0338 28.0492 64.1348 28.1184 64.2495 28.1513C64.3642 28.1841 64.4865 28.1787 64.5979 28.136C64.692 28.0757 64.7631 27.9855 64.7997 27.8799C64.8363 27.7744 64.8364 27.6596 64.7999 27.554Z" fill="#954F1B"/>
<path opacity="0.3" d="M64.7999 27.554L63.9619 27.954C64.0338 28.0492 64.1348 28.1184 64.2495 28.1513C64.3642 28.1841 64.4865 28.1787 64.5979 28.136C64.692 28.0757 64.7631 27.9855 64.7997 27.8799C64.8363 27.7744 64.8364 27.6596 64.7999 27.554Z" fill="black"/>
<path d="M64.3101 28.168C64.4078 28.1879 64.5093 28.1789 64.6021 28.142C64.6784 28.0982 64.7401 28.033 64.7796 27.9544C64.8191 27.8758 64.8345 27.7873 64.8241 27.7C64.705 27.6999 64.5894 27.7401 64.4961 27.814C64.3906 27.9034 64.3239 28.0303 64.3101 28.168Z" fill="#954F1B"/>
<path d="M65.1596 25.318C65.1638 25.3594 65.1598 25.4012 65.1479 25.441C65.1359 25.4808 65.1163 25.5179 65.09 25.5501C65.0637 25.5824 65.0313 25.6091 64.9947 25.6288C64.9581 25.6485 64.918 25.6608 64.8766 25.665C64.8353 25.6692 64.7935 25.6652 64.7536 25.6533C64.7138 25.6413 64.6767 25.6217 64.6445 25.5954C64.6123 25.5691 64.5856 25.5367 64.5658 25.5001C64.5461 25.4635 64.5338 25.4234 64.5296 25.382C64.5252 25.3408 64.529 25.299 64.5408 25.2592C64.5526 25.2194 64.5722 25.1824 64.5984 25.1502C64.6247 25.118 64.657 25.0914 64.6936 25.0718C64.7302 25.0522 64.7703 25.04 64.8116 25.036C64.8951 25.0276 64.9785 25.0525 65.0437 25.1054C65.1089 25.1582 65.1505 25.2346 65.1596 25.318Z" fill="#263238"/>
<path d="M62.508 25.4839C62.514 25.546 62.5014 25.6085 62.472 25.6634C62.4425 25.7184 62.3974 25.7634 62.3425 25.7928C62.2875 25.8222 62.225 25.8347 62.1629 25.8287C62.1009 25.8227 62.042 25.7984 61.9936 25.759C61.9453 25.7196 61.9098 25.6667 61.8914 25.6071C61.8731 25.5475 61.8728 25.4838 61.8906 25.424C61.9083 25.3643 61.9434 25.3111 61.9914 25.2712C62.0393 25.2313 62.098 25.2065 62.16 25.1999C62.2438 25.1916 62.3275 25.2168 62.3927 25.27C62.4579 25.3232 62.4994 25.4002 62.508 25.4839Z" fill="#263238"/>
<path d="M62.0739 24.262L61.4259 24.814C61.3869 24.7309 61.3743 24.638 61.3897 24.5475C61.405 24.4571 61.4477 24.3735 61.5119 24.308C61.5918 24.2484 61.6869 24.2125 61.7863 24.2044C61.8856 24.1963 61.9853 24.2162 62.0739 24.262Z" fill="#263238"/>
<path d="M64.7656 23.952C65.0136 24.09 65.2616 24.228 65.5116 24.364C65.5331 24.2745 65.5269 24.1807 65.4936 24.0949C65.4604 24.0091 65.4018 23.9355 65.3256 23.884C65.2351 23.8426 65.1349 23.827 65.036 23.839C64.9372 23.851 64.8436 23.8901 64.7656 23.952Z" fill="#263238"/>
<path d="M77.2236 38.686L78.2236 38.19C78.5368 38.0351 78.7976 37.7917 78.9736 37.49L79.2876 36.952C79.5046 36.5833 79.8243 36.2858 80.2076 36.096C80.7842 35.8128 81.322 35.4565 81.8076 35.036C81.9094 35.1983 81.9523 35.3906 81.929 35.5807C81.9057 35.7709 81.8176 35.9472 81.6796 36.08C81.4734 36.2691 81.2542 36.4435 81.0236 36.602L81.5056 36.724C81.8537 36.8133 82.221 36.7909 82.5556 36.66L83.9316 36.126C83.9711 36.111 84.0139 36.1067 84.0556 36.1135C84.0973 36.1203 84.1364 36.138 84.1691 36.1647C84.2018 36.1915 84.2268 36.2265 84.2416 36.266C84.2565 36.3056 84.2606 36.3483 84.2536 36.39C84.1267 37.0001 83.896 37.5839 83.5716 38.116C83.4224 38.3706 83.2201 38.59 82.9786 38.7595C82.737 38.9289 82.4618 39.0444 82.1716 39.098C81.4696 39.23 80.7896 39.334 80.4036 39.388C80.1825 39.421 79.9679 39.4885 79.7676 39.588L78.2916 40.322L77.2236 38.686Z" fill="#954F1B"/>
<path d="M76.2679 40.232C76.0931 39.8196 76.0323 39.3679 76.0919 38.924L74.1999 39.82C73.8584 38.4434 73.5913 37.0494 73.3999 35.644C73.1759 33.746 73.2259 32.47 70.7839 31.844L70.5259 36.844C70.5259 36.844 70.8259 42.944 72.5759 43.62C74.0239 44.178 75.0459 42.8 77.2559 41.372C76.8169 41.1029 76.4719 40.7047 76.2679 40.232Z" fill="#F0F0F0"/>
<path opacity="0.1" d="M72.9417 41.07C73.0077 40.786 73.4737 40.136 74.2077 39.82C74.2077 39.82 74.1517 39.598 74.0697 39.238C73.6897 39.426 72.7537 40 72.9417 41.07Z" fill="black"/>
<path d="M77.7837 38.12L76.0917 38.92C76.0254 39.398 76.1011 39.885 76.3095 40.3202C76.5179 40.7555 76.8498 41.1199 77.2637 41.368C77.7612 41.0461 78.2767 40.7529 78.8077 40.49C78.8077 40.49 77.9077 39.77 77.7837 38.12Z" fill="#E0E0E0"/>
<path d="M84.7122 13.6881C84.7122 13.6428 84.7002 13.5984 84.6774 13.5594C84.6545 13.5204 84.6217 13.4881 84.5822 13.4661L83.4262 12.8241H83.4162C83.3784 12.8025 83.3357 12.7911 83.2922 12.7911C83.2487 12.7911 83.206 12.8025 83.1682 12.8241L75.2642 17.3881C75.147 17.4564 75.0498 17.5542 74.9821 17.6717C74.9144 17.7892 74.8785 17.9224 74.8782 18.0581V20.9961L72.1422 23.8261C71.8982 24.0801 71.8722 24.4621 72.0622 24.5221L73.1522 25.1221C73.1715 25.1416 73.1952 25.1561 73.2213 25.1645C73.2474 25.1728 73.2752 25.1747 73.3022 25.1701L74.8902 24.9701V27.1261C74.8897 27.1706 74.9011 27.2145 74.9232 27.2532C74.9454 27.2919 74.9775 27.324 75.0162 27.3461L76.1642 27.9841H76.1802H76.1922C76.2294 28.0016 76.2703 28.0099 76.3114 28.0082C76.3525 28.0064 76.3926 27.9947 76.4282 27.9741L84.3322 23.4101C84.45 23.3425 84.5479 23.2449 84.6157 23.1272C84.6835 23.0095 84.7189 22.8759 84.7182 22.7401L84.7122 13.6881ZM76.2982 18.1321C76.307 18.1235 76.3164 18.1155 76.3262 18.1081C76.3166 18.1122 76.3073 18.1169 76.2982 18.1221V18.1321Z" fill="#F58634"/>
<path d="M82 16.532C81.9648 16.5497 81.9336 16.5742 81.908 16.604C81.8877 16.6282 81.8721 16.6561 81.862 16.686C81.776 16.8592 81.7025 17.0384 81.642 17.222C81.576 17.384 81.514 17.546 81.458 17.71C81.4429 17.7392 81.4315 17.7701 81.424 17.802C81.4049 17.841 81.3902 17.8819 81.38 17.924C81.344 18.016 81.308 18.106 81.274 18.198C81.26 18.224 81.248 18.248 81.236 18.274C81.2002 18.3501 81.1708 18.4291 81.148 18.51C81.1329 18.5447 81.1272 18.5827 81.1314 18.6202C81.1356 18.6578 81.1496 18.6936 81.172 18.724C81.2583 18.8058 81.3644 18.8637 81.48 18.892L81.51 18.902L81.606 18.928L81.772 19.01L81.804 19.03C81.814 19.044 81.826 19.056 81.836 19.068C81.8468 19.0827 81.8555 19.0989 81.862 19.116C81.8683 19.143 81.8683 19.171 81.862 19.198C81.852 19.238 81.842 19.28 81.834 19.32C81.826 19.36 81.784 19.456 81.76 19.52L81.724 19.608L81.6 19.9C81.558 19.994 81.528 20.072 81.498 20.15C81.4689 20.2056 81.4435 20.2631 81.422 20.322L81.38 20.408C81.346 20.48 81.31 20.552 81.276 20.626L81.246 20.69L81.134 20.89L81.092 20.97L80.962 21.198L80.928 21.256L80.8 21.5L80.76 21.56L80.46 21.996L80.34 22.158L80.306 22.204L79.94 22.668L79.8 22.8C79.7734 22.8318 79.7416 22.8589 79.706 22.88C79.6834 22.894 79.6575 22.9014 79.631 22.9014C79.6044 22.9014 79.5785 22.894 79.556 22.88L79.466 22.834C79.466 22.82 79.454 22.818 79.444 22.816C79.3197 22.7068 79.1858 22.6091 79.044 22.524C79.0173 22.5071 78.9865 22.4981 78.955 22.4981C78.9234 22.4981 78.8926 22.5071 78.866 22.524C78.8496 22.5339 78.8342 22.5452 78.82 22.558C78.7601 22.6079 78.7082 22.6665 78.666 22.732C78.6501 22.7416 78.6381 22.7565 78.632 22.774C78.522 22.928 78.4 23.066 78.286 23.214C78.172 23.362 78.076 23.46 77.974 23.588C77.916 23.654 77.86 23.722 77.806 23.788C77.752 23.854 77.684 23.938 77.626 24.02C77.6026 24.0466 77.5818 24.0754 77.564 24.106C77.5345 24.1392 77.5128 24.1784 77.5004 24.2209C77.4879 24.2635 77.485 24.3082 77.492 24.352C77.4923 24.4056 77.497 24.4591 77.506 24.512C77.51 24.5804 77.5242 24.6478 77.548 24.712C77.5539 24.7542 77.5661 24.7953 77.584 24.834C77.5899 24.8464 77.5965 24.8584 77.604 24.87C77.6019 24.8792 77.6019 24.8888 77.604 24.898C77.6101 24.9094 77.6175 24.9202 77.626 24.93C77.6305 24.9445 77.638 24.9578 77.6479 24.9692C77.6579 24.9805 77.6702 24.9897 77.684 24.996C77.7026 25.0212 77.7274 25.0412 77.756 25.054L77.806 25.074H77.84L77.882 25.09H77.902C77.925 25.095 77.9489 25.095 77.972 25.09C77.9771 25.093 77.983 25.0946 77.989 25.0946C77.9949 25.0946 78.0008 25.093 78.006 25.09C78.0349 25.097 78.065 25.097 78.094 25.09C78.1256 25.0969 78.1583 25.0969 78.19 25.09C78.2218 25.0949 78.2541 25.0949 78.286 25.09H78.344C78.3895 25.0855 78.4344 25.0761 78.478 25.062H78.5L78.548 25.05C78.5602 25.048 78.5718 25.0432 78.582 25.036L78.632 25.018C78.6821 25.0034 78.7309 24.9847 78.778 24.962L78.818 24.942L78.85 24.924C78.8783 24.9084 78.9057 24.891 78.932 24.872C78.9644 24.853 78.9958 24.8323 79.026 24.81C79.0619 24.7858 79.0966 24.7598 79.13 24.732C79.1593 24.712 79.1893 24.69 79.22 24.666L79.256 24.634L79.274 24.618L79.324 24.576C79.3757 24.5313 79.4251 24.4839 79.472 24.434C79.5108 24.4025 79.547 24.3677 79.58 24.33C79.5924 24.3211 79.6027 24.3095 79.61 24.296C79.6814 24.2343 79.7482 24.1675 79.81 24.096C79.8635 24.0491 79.9143 23.999 79.962 23.946C80.0023 23.9103 80.0397 23.8716 80.074 23.83L80.136 23.766C80.1547 23.7521 80.1704 23.7344 80.182 23.714C80.1917 23.7086 80.1994 23.7002 80.204 23.69L80.238 23.658C80.2564 23.6376 80.2737 23.6162 80.29 23.594C80.326 23.5579 80.3601 23.5199 80.392 23.48L80.424 23.44L80.456 23.4C80.5195 23.3302 80.5789 23.2567 80.634 23.18C80.6636 23.1509 80.6892 23.118 80.71 23.082C80.7473 23.04 80.7813 22.9952 80.812 22.948C80.8634 22.8844 80.9109 22.8176 80.954 22.748C80.982 22.712 80.994 22.694 81.008 22.678L81.044 22.626C81.07 22.59 81.092 22.554 81.116 22.516L81.162 22.454C81.1765 22.4327 81.1898 22.4107 81.202 22.388C81.2321 22.3508 81.2582 22.3106 81.28 22.268C81.3181 22.217 81.3528 22.1636 81.384 22.108C81.3958 22.0928 81.4065 22.0768 81.416 22.06C81.4214 22.0525 81.426 22.0444 81.43 22.036L81.444 22.01L81.478 21.962C81.51 21.912 81.54 21.862 81.568 21.808L81.608 21.742L81.734 21.524C81.7517 21.5031 81.7659 21.4795 81.776 21.454C81.808 21.402 81.838 21.35 81.868 21.294C81.868 21.276 81.886 21.258 81.896 21.24C81.9128 21.2156 81.9269 21.1895 81.938 21.162L82.046 20.962C82.064 20.924 82.084 20.888 82.102 20.85C82.1327 20.7998 82.1588 20.7469 82.18 20.692C82.266 20.534 82.342 20.374 82.412 20.21L82.444 20.136C82.4738 20.0787 82.4993 20.0192 82.52 19.958C82.6021 19.7745 82.6749 19.5869 82.738 19.396L82.756 19.348C82.7976 19.2401 82.833 19.13 82.862 19.018C82.906 18.882 82.942 18.748 82.976 18.618C82.988 18.574 83 18.53 83.01 18.484C83.0192 18.4713 83.0235 18.4557 83.022 18.44C83.0226 18.4294 83.0226 18.4187 83.022 18.408L83.038 18.348C83.0873 18.1854 83.126 18.0197 83.154 17.852V17.826C83.1576 17.8116 83.1576 17.7965 83.154 17.782C83.154 17.782 83.154 17.764 83.154 17.756C83.154 17.748 83.154 17.724 83.154 17.71C83.153 17.6934 83.153 17.6767 83.154 17.66C83.1667 17.5894 83.1727 17.5178 83.172 17.446C83.172 17.418 83.172 17.388 83.172 17.358C83.1771 17.3377 83.1771 17.3164 83.172 17.296C83.172 17.286 83.172 17.274 83.172 17.262C83.1713 17.1994 83.1605 17.1372 83.14 17.078C83.1241 16.9892 83.0958 16.903 83.056 16.822C83.0096 16.6908 82.936 16.5708 82.84 16.47C82.8148 16.4327 82.7794 16.4035 82.738 16.386C82.738 16.386 82.728 16.37 82.716 16.372C82.6827 16.3468 82.6416 16.334 82.6 16.336C82.4741 16.3311 82.3487 16.3529 82.232 16.4L82.19 16.418C82.1538 16.427 82.1188 16.4404 82.086 16.458L82.066 16.47C82.056 16.5 82.026 16.512 82 16.532Z" fill="white"/>
<path opacity="0.1" d="M76.0622 27.78C76.0618 27.8238 76.0729 27.867 76.0943 27.9052C76.1157 27.9435 76.1466 27.9754 76.1842 27.998L75.0362 27.36C74.9975 27.3379 74.9654 27.3059 74.9432 27.2672C74.9211 27.2285 74.9097 27.1846 74.9102 27.14V24.984L76.0642 24.842L76.0622 27.78Z" fill="black"/>
<path opacity="0.2" d="M75.2643 17.3881L83.1703 12.8241C83.2081 12.8025 83.2508 12.7911 83.2943 12.7911C83.3378 12.7911 83.3805 12.8025 83.4183 12.8241H83.4283L84.5843 13.4661C84.5452 13.444 84.5011 13.4324 84.4563 13.4324C84.4114 13.4324 84.3673 13.444 84.3283 13.4661L76.4223 18.0301C76.2754 18.1142 76.1602 18.2442 76.0943 18.4001L74.9463 17.7381C75.0128 17.5908 75.1241 17.4684 75.2643 17.3881Z" fill="white"/>
<path opacity="0.1" d="M74.8862 21.0001V18.0621C74.8862 17.9531 74.9093 17.8454 74.9542 17.7461L76.0942 18.4001C76.0561 18.4948 76.0364 18.596 76.0362 18.6981V21.6361L74.8862 21.0001Z" fill="white"/>
<path opacity="0.05" d="M72.15 23.826L74.886 21L76.044 21.644L73.308 24.472C73.096 24.692 73.048 25.006 73.16 25.128L72.07 24.528C71.88 24.462 71.906 24.08 72.15 23.826Z" fill="white"/>
<path d="M46.9781 11.9619C46.8261 11.3859 45.7481 10.2879 44.6761 10.3099C44.5723 10.3137 44.47 10.336 44.3741 10.3759L23.5401 23.2579C23.1865 23.4819 22.9079 23.8064 22.7401 24.1899C22.6067 24.4895 22.5385 24.814 22.5401 25.1419V74.1299C22.5401 75.3779 23.8641 76.5679 25.1081 75.9959C25.1355 75.9856 25.1622 75.9735 25.1881 75.9599L46.0241 63.0539C46.3365 62.8506 46.5922 62.5713 46.7672 62.2421C46.9421 61.9129 47.0305 61.5446 47.0241 61.1719V12.1999C47.0263 12.1182 47.0106 12.0369 46.9781 11.9619Z" fill="#37474F"/>
<path d="M25.4401 30.32C25.4374 30.1331 25.4822 29.9486 25.5704 29.7838C25.6585 29.619 25.7871 29.4794 25.9441 29.378L45.2901 17.414C45.3688 17.3697 45.4579 17.3476 45.548 17.3499C45.6382 17.3522 45.7261 17.3788 45.8024 17.427C45.8786 17.4752 45.9404 17.5431 45.9812 17.6235C46.022 17.704 46.0403 17.794 46.0341 17.884V57.388C46.0367 57.5745 45.9919 57.7587 45.9037 57.9231C45.8155 58.0876 45.687 58.2269 45.5301 58.328L26.1841 70.312C26.1055 70.3562 26.0164 70.3783 25.9262 70.376C25.8361 70.3737 25.7482 70.3471 25.6719 70.2989C25.5957 70.2508 25.5339 70.1828 25.4931 70.1024C25.4522 70.0219 25.434 69.932 25.4401 69.842V30.32Z" fill="#F58634"/>
<path d="M22.5322 25.142V74.13C22.5322 75.378 23.8562 76.568 25.1002 75.996C25.022 76.0226 24.9385 76.0297 24.8569 76.0165C24.7753 76.0033 24.6983 75.9703 24.6325 75.9203C24.5667 75.8703 24.5142 75.8049 24.4796 75.7299C24.4451 75.6548 24.4295 75.5724 24.4342 75.49V26.496C24.4343 26.0725 24.5512 25.6572 24.7722 25.296L22.7402 24.2C22.6055 24.4959 22.5346 24.8168 22.5322 25.142Z" fill="#263238"/>
<path d="M44.6782 10.3079C44.5744 10.3117 44.4722 10.3341 44.3762 10.3739L23.5402 23.2579C23.1866 23.4819 22.9081 23.8065 22.7402 24.1899L24.7802 25.2979C24.9463 25.0196 25.1759 24.7845 25.4502 24.6119L46.2862 11.7279C46.3458 11.692 46.4124 11.6694 46.4816 11.6619C46.5507 11.6543 46.6207 11.6619 46.6866 11.6842C46.7525 11.7065 46.8127 11.7429 46.8631 11.7909C46.9135 11.8388 46.9528 11.8972 46.9782 11.9619C46.8282 11.3839 45.7502 10.2859 44.6782 10.3079Z" fill="#455A64"/>
<path d="M38.3041 19.816C38.4521 19.724 38.5721 19.796 38.5721 19.978C38.5685 20.0763 38.5427 20.1725 38.4967 20.2595C38.4506 20.3464 38.3854 20.4218 38.3061 20.48L34.2181 23.046C34.0721 23.138 33.9541 23.06 33.9541 22.878C33.9574 22.7809 33.9827 22.6858 34.0281 22.5999C34.0734 22.5139 34.1377 22.4394 34.2161 22.382L38.3041 19.816Z" fill="#263238"/>
<path d="M33.1684 23.0399C33.3144 22.9479 33.4324 23.0219 33.4324 23.2039C33.4292 23.3018 33.4037 23.3977 33.358 23.4844C33.3123 23.571 33.2474 23.6461 33.1684 23.7039C33.0224 23.7959 32.9024 23.7219 32.9004 23.5379C32.9045 23.4401 32.9308 23.3444 32.9772 23.2582C33.0236 23.1719 33.089 23.0973 33.1684 23.0399Z" fill="#263238"/>
<path d="M35.7844 19.4439C36.0764 19.2599 36.3124 19.4059 36.3124 19.7719C36.3062 19.9673 36.2558 20.1588 36.1651 20.3319C36.0743 20.5051 35.9456 20.6555 35.7884 20.7719C35.4944 20.9539 35.2524 20.8039 35.2524 20.4399C35.2598 20.2444 35.3115 20.0531 35.4037 19.8806C35.4958 19.708 35.626 19.5587 35.7844 19.4439Z" fill="#263238"/>
<path d="M35.7861 65.562C36.3861 65.188 36.8622 65.486 36.8642 66.23C36.8662 66.974 36.3882 67.888 35.7922 68.262C35.1962 68.636 34.7041 68.33 34.7021 67.586C34.7183 67.1887 34.8243 66.8002 35.012 66.4497C35.1997 66.0991 35.4644 65.7957 35.7861 65.562Z" fill="#263238"/>
<path d="M37.7521 37.9719C37.7001 38.002 37.6534 38.0405 37.6141 38.0859C37.5829 38.1245 37.5591 38.1686 37.5441 38.2159C37.4127 38.4898 37.3004 38.7725 37.2081 39.0619C37.1081 39.3159 37.0081 39.5719 36.9301 39.8279C36.9065 39.8741 36.889 39.9232 36.8781 39.9739C36.8485 40.038 36.8257 40.1051 36.8101 40.1739L36.6481 40.6019C36.6301 40.6439 36.6101 40.6839 36.5921 40.7239C36.538 40.8441 36.4939 40.9685 36.4601 41.0959C36.4375 41.1503 36.4287 41.2095 36.4347 41.2682C36.4406 41.3268 36.461 41.3831 36.4941 41.4319C36.625 41.5588 36.786 41.6503 36.9621 41.6979L37.0101 41.7119C37.0581 41.7279 37.1061 41.7399 37.1541 41.7539L37.4061 41.8819L37.4541 41.9159C37.4718 41.935 37.4885 41.955 37.5041 41.9759C37.5213 41.9972 37.5342 42.0217 37.5421 42.0479C37.5523 42.0906 37.5523 42.1352 37.5421 42.1779L37.5001 42.3779C37.4641 42.4859 37.4261 42.5939 37.3881 42.6999L37.3341 42.8399C37.2781 42.9899 37.2201 43.1419 37.1621 43.2919C37.1041 43.4419 37.0521 43.5639 37.0061 43.6919C36.9625 43.779 36.9238 43.8685 36.8901 43.9599C36.8701 44.0059 36.8481 44.0519 36.8281 44.0959C36.7741 44.2099 36.7221 44.3239 36.6701 44.4379L36.6221 44.5399L36.4541 44.8719C36.4341 44.9139 36.4121 44.9559 36.3901 44.9979L36.1901 45.3579C36.1741 45.3879 36.1561 45.4179 36.1381 45.4479C36.0661 45.5699 35.9941 45.6939 35.9201 45.8159L35.8601 45.9099C35.7081 46.1399 35.5561 46.3699 35.4021 46.5999L35.2221 46.8539L35.1721 46.9239L34.6141 47.6539L34.4261 47.8679C34.3857 47.9172 34.3378 47.9597 34.2841 47.9939C34.2512 48.0173 34.2124 48.031 34.1721 48.0335C34.1318 48.036 34.0916 48.0271 34.0561 48.0079L33.9181 47.9319C33.9181 47.9119 33.9001 47.9079 33.8861 47.9059C33.6948 47.7336 33.4879 47.5796 33.2681 47.4459C33.2279 47.4198 33.181 47.4059 33.1331 47.4059C33.0851 47.4059 33.0383 47.4198 32.9981 47.4459C32.9732 47.4611 32.9498 47.4785 32.9281 47.4979C32.8377 47.5785 32.7584 47.6706 32.6921 47.7719C32.6697 47.7902 32.6531 47.8145 32.6441 47.8419C32.4761 48.0839 32.2921 48.2999 32.1181 48.5319C31.9561 48.7219 31.7961 48.9179 31.6421 49.1219C31.5541 49.2259 31.4701 49.3319 31.3901 49.4479C31.2922 49.5635 31.2008 49.6844 31.1161 49.8099C31.0795 49.8522 31.048 49.8985 31.0221 49.9479C30.9768 50.0008 30.9435 50.0629 30.9245 50.1298C30.9055 50.1968 30.9013 50.2671 30.9121 50.3359C30.9104 50.4197 30.9171 50.5034 30.9321 50.5859C30.9398 50.6877 30.9613 50.7879 30.9961 50.8839C31.0042 50.9531 31.0231 51.0206 31.0521 51.0839C31.0602 51.1031 31.0695 51.1219 31.0801 51.1399C31.081 51.155 31.0844 51.1699 31.0901 51.1839C31.099 51.2027 31.1105 51.2202 31.1241 51.2359C31.1384 51.2809 31.1701 51.3183 31.2121 51.3399C31.2395 51.3789 31.2768 51.4099 31.3201 51.4299C31.3453 51.4423 31.3714 51.453 31.3981 51.4619L31.4501 51.4759C31.4705 51.4866 31.4919 51.4953 31.5141 51.5019H31.5441C31.5791 51.508 31.615 51.508 31.6501 51.5019C31.6576 51.5065 31.6662 51.5089 31.6751 51.5089C31.6839 51.5089 31.6925 51.5065 31.7001 51.5019C31.744 51.513 31.7901 51.513 31.8341 51.5019C31.8823 51.5109 31.9318 51.5109 31.9801 51.5019C32.0298 51.505 32.0798 51.5003 32.1281 51.4879H32.2161C32.284 51.4786 32.3509 51.4632 32.4161 51.4419H32.4461C32.4718 51.438 32.4973 51.432 32.5221 51.4239C32.5391 51.4191 32.5553 51.4117 32.5701 51.4019C32.6281 51.3839 32.6381 51.3779 32.6501 51.3739C32.7247 51.3498 32.7976 51.3204 32.8681 51.2859L32.9321 51.2539L32.9781 51.2259C33.0215 51.2012 33.063 51.1731 33.1021 51.1419L33.2481 51.0459C33.3027 51.0081 33.3541 50.9659 33.4021 50.9199C33.4509 50.889 33.4977 50.855 33.5421 50.8179C33.5601 50.8039 33.5781 50.7859 33.5961 50.7699L33.6221 50.7419L33.6981 50.6759C33.7741 50.6059 33.8501 50.5339 33.9221 50.4539C33.9823 50.4037 34.0378 50.3481 34.0881 50.2879C34.1072 50.2749 34.1224 50.2569 34.1321 50.2359C34.2362 50.1407 34.3344 50.0392 34.4261 49.9319C34.5067 49.8565 34.5835 49.7771 34.6561 49.6939C34.7177 49.6381 34.7746 49.5772 34.8261 49.5119L34.9181 49.4099C34.9465 49.3876 34.9709 49.3605 34.9901 49.3299C35.0038 49.3202 35.0148 49.3071 35.0221 49.2919C35.0404 49.2749 35.0578 49.2569 35.0741 49.2379C35.1033 49.2075 35.1301 49.1747 35.1541 49.1399C35.2091 49.0826 35.2612 49.0226 35.3101 48.9599L35.3581 48.8959L35.4081 48.8359C35.5001 48.7219 35.5921 48.6119 35.6761 48.4859C35.7211 48.4404 35.7601 48.3893 35.7921 48.3339C35.849 48.2675 35.9005 48.1966 35.9461 48.1219C36.0237 48.0233 36.0958 47.9205 36.1621 47.8139C36.2041 47.7559 36.2241 47.7299 36.2421 47.7019C36.2601 47.6739 36.2821 47.6479 36.3001 47.6199C36.3181 47.5919 36.3721 47.5079 36.4061 47.4499L36.4761 47.3519C36.4993 47.3177 36.5206 47.2824 36.5401 47.2459C36.5851 47.187 36.6246 47.1241 36.6581 47.0579C36.7154 46.9766 36.7675 46.8918 36.8141 46.8039C36.8337 46.7813 36.8504 46.7565 36.8641 46.7299L36.8861 46.6919C36.8935 46.6783 36.9002 46.6643 36.9061 46.6499C36.9241 46.6259 36.9401 46.5999 36.9561 46.5739C37.0067 46.4966 37.0527 46.4166 37.0941 46.3339L37.1561 46.2299L37.3561 45.8859C37.3817 45.8516 37.4026 45.8139 37.4181 45.7739C37.4681 45.6939 37.5141 45.6099 37.5581 45.5239L37.6001 45.4379C37.6247 45.3991 37.6462 45.3583 37.6641 45.3159L37.8281 45.0039C37.8561 44.9439 37.8861 44.8859 37.9141 44.8279C37.9605 44.7485 38.0006 44.6656 38.0341 44.5799C38.1641 44.3299 38.2781 44.0759 38.3841 43.8199L38.4321 43.7039C38.4777 43.612 38.5171 43.5171 38.5501 43.4199C38.6741 43.1279 38.7861 42.8319 38.8801 42.5359C38.8801 42.5099 38.8981 42.4859 38.9081 42.4619C38.9717 42.2914 39.0244 42.1171 39.0661 41.9399C39.1361 41.7259 39.1901 41.5139 39.2421 41.3039C39.2581 41.2319 39.2761 41.1619 39.2941 41.0919C39.3063 41.0699 39.3125 41.0451 39.3121 41.0199C39.3121 41.0039 39.3221 40.9879 39.3261 40.9719L39.3501 40.8779C39.4257 40.6207 39.4845 40.3588 39.5261 40.0939V40.0539C39.5325 40.0317 39.5325 40.0081 39.5261 39.9859V39.9439C39.5261 39.9199 39.5261 39.8959 39.5361 39.8699V39.7939C39.5559 39.683 39.5653 39.5705 39.5641 39.4579C39.5641 39.4119 39.5641 39.3639 39.5641 39.3179C39.5703 39.2855 39.5703 39.2523 39.5641 39.2199C39.563 39.2019 39.563 39.1839 39.5641 39.1659C39.562 39.0673 39.5451 38.9695 39.5141 38.8759C39.4909 38.7371 39.4478 38.6024 39.3861 38.4759C39.3166 38.2702 39.2057 38.0809 39.0601 37.9199C39.022 37.8621 38.9678 37.8169 38.9041 37.7899C38.9041 37.7779 38.8901 37.7619 38.8701 37.7679C38.8202 37.7281 38.7578 37.7075 38.6941 37.7099C38.5028 37.7017 38.3121 37.7366 38.1361 37.8119L38.0721 37.8379C38.0173 37.8538 37.9644 37.8752 37.9141 37.9019L37.8841 37.9219C37.8481 37.9219 37.8001 37.9439 37.7521 37.9719Z" fill="white"/>
</svg>
