<svg width="783" height="783" viewBox="0 0 783 783" fill="none" xmlns="http://www.w3.org/2000/svg">
        <path d="M116.307 215.074H250.357C250.357 215.074 237.061 178.759 216.609 178.759C196.157 178.759 189.737 203.815 189.737 203.815C189.737 203.815 175.94 190.206 164.602 190.206C153.265 190.206 143.414 208.278 143.414 208.278C143.414 208.278 127.394 198.522 116.307 215.074Z" fill="#EBEBEB"/>
        <path d="M233.334 121.71H295.974C295.974 121.71 281.974 101.352 270.918 101.352C259.862 101.352 256.62 114.866 256.62 114.866C256.62 114.866 248.79 108.602 241.634 109.698C234.477 110.794 233.334 121.71 233.334 121.71Z" fill="#EBEBEB"/>
        <path d="M569.116 232.488H691.123C691.123 232.488 674.414 195.186 656.546 192.853C638.677 190.52 630.111 220.571 630.111 220.571C630.111 220.571 618.586 209.954 609.519 209.954C600.451 209.954 593.514 223.938 593.514 223.938C593.514 223.938 575.333 214.354 569.116 232.488Z" fill="#EBEBEB"/>
        <path d="M442.536 75.7631H524.97C524.97 75.7631 510.876 48.7339 495.435 48.3424C479.995 47.9509 471.945 68.7944 471.945 68.7944C471.945 68.7944 448.111 49.6265 442.536 75.7631Z" fill="#EBEBEB"/>
        <path d="M353.399 150.54H409.023C409.023 150.54 399.471 132.296 389.104 132.045C378.737 131.795 373.287 145.842 373.287 145.842C373.287 145.842 357.158 132.906 353.399 150.54Z" fill="#EBEBEB"/>
        <path d="M210.079 238.063H267.066V536.825H210.079V238.063Z" fill="#DBDBDB"/>
        <path d="M247.146 247.773H258.218V259.173H247.146V247.773Z" fill="#EBEBEB"/>
        <path d="M232.974 247.773H244.045V259.173H232.974V247.773Z" fill="#EBEBEB"/>
        <path d="M247.146 267.144H258.218V278.544H247.146V267.144Z" fill="#EBEBEB"/>
        <path d="M232.974 267.144H244.045V278.544H232.974V267.144Z" fill="#EBEBEB"/>
        <path d="M247.146 286.515H258.218V297.916H247.146V286.515Z" fill="#EBEBEB"/>
        <path d="M232.974 286.515H244.045V297.916H232.974V286.515Z" fill="#EBEBEB"/>
        <path d="M247.146 305.871H258.218V317.272H247.146V305.871Z" fill="#EBEBEB"/>
        <path d="M232.974 305.871H244.045V317.272H232.974V305.871Z" fill="#EBEBEB"/>
        <path d="M247.146 325.243H258.218V336.643H247.146V325.243Z" fill="#EBEBEB"/>
        <path d="M232.974 325.243H244.045V336.643H232.974V325.243Z" fill="#EBEBEB"/>
        <path d="M247.146 344.614H258.218V356.014H247.146V344.614Z" fill="#EBEBEB"/>
        <path d="M232.974 344.614H244.045V356.014H232.974V344.614Z" fill="#EBEBEB"/>
        <path d="M247.146 363.985H258.218V375.386H247.146V363.985Z" fill="#EBEBEB"/>
        <path d="M232.974 363.985H244.045V375.386H232.974V363.985Z" fill="#EBEBEB"/>
        <path d="M247.146 383.341H258.218V394.742H247.146V383.341Z" fill="#EBEBEB"/>
        <path d="M232.974 383.341H244.045V394.742H232.974V383.341Z" fill="#EBEBEB"/>
        <path d="M247.146 402.713H258.218V414.113H247.146V402.713Z" fill="#EBEBEB"/>
        <path d="M232.974 402.713H244.045V414.113H232.974V402.713Z" fill="#EBEBEB"/>
        <path d="M247.146 422.084H258.218V433.484H247.146V422.084Z" fill="#EBEBEB"/>
        <path d="M232.974 422.084H244.045V433.484H232.974V422.084Z" fill="#EBEBEB"/>
        <path d="M247.146 441.44H258.218V452.84H247.146V441.44Z" fill="#EBEBEB"/>
        <path d="M232.974 441.44H244.045V452.84H232.974V441.44Z" fill="#EBEBEB"/>
        <path d="M247.146 460.811H258.218V472.212H247.146V460.811Z" fill="#EBEBEB"/>
        <path d="M232.974 460.811H244.045V472.212H232.974V460.811Z" fill="#EBEBEB"/>
        <path d="M247.146 480.183H258.218V491.583H247.146V480.183Z" fill="#EBEBEB"/>
        <path d="M232.974 480.183H244.045V491.583H232.974V480.183Z" fill="#EBEBEB"/>
        <path d="M247.146 499.554H258.218V510.954H247.146V499.554Z" fill="#EBEBEB"/>
        <path d="M229.999 510.954H218.927V499.554H229.999V510.954Z" fill="#EBEBEB"/>
        <path d="M229.999 491.583H218.927V480.183H229.999V491.583Z" fill="#EBEBEB"/>
        <path d="M229.999 472.227H218.927V460.827H229.999V472.227Z" fill="#EBEBEB"/>
        <path d="M229.999 452.856H218.927V441.455H229.999V452.856Z" fill="#EBEBEB"/>
        <path d="M229.999 433.484H218.927V422.084H229.999V433.484Z" fill="#EBEBEB"/>
        <path d="M229.999 414.113H218.927V402.713H229.999V414.113Z" fill="#EBEBEB"/>
        <path d="M229.999 394.757H218.927V383.357H229.999V394.757Z" fill="#EBEBEB"/>
        <path d="M229.999 375.37H218.927V363.97H229.999V375.37Z" fill="#EBEBEB"/>
        <path d="M229.999 356.014H218.927V344.614H229.999V356.014Z" fill="#EBEBEB"/>
        <path d="M229.999 336.659H218.927V325.258H229.999V336.659Z" fill="#EBEBEB"/>
        <path d="M229.999 317.287H218.927V305.887H229.999V317.287Z" fill="#EBEBEB"/>
        <path d="M229.999 297.916H218.927V286.515H229.999V297.916Z" fill="#EBEBEB"/>
        <path d="M229.999 278.544H218.927V267.144H229.999V278.544Z" fill="#EBEBEB"/>
        <path d="M229.999 259.189H218.927V247.788H229.999V259.189Z" fill="#EBEBEB"/>
        <path d="M232.974 499.554H244.045V510.954H232.974V499.554Z" fill="#EBEBEB"/>
        <path d="M165.15 238.063H210.079V536.825H165.15V238.063Z" fill="#A6A6A6"/>
        <path d="M178.931 510.954H169.786V499.554H178.931V510.954Z" fill="#F58634"/>
        <path d="M190.613 510.954H181.468V499.554H190.613V510.954Z" fill="#F58634"/>
        <path d="M178.931 491.583H169.786V480.183H178.931V491.583Z" fill="#F58634"/>
        <path d="M190.613 491.583H181.468V480.183H190.613V491.583Z" fill="#F58634"/>
        <path d="M178.931 472.227H169.786V460.827H178.931V472.227Z" fill="#F58634"/>
        <path d="M190.613 472.227H181.468V460.827H190.613V472.227Z" fill="#F58634"/>
        <path d="M178.931 452.856H169.786V441.455H178.931V452.856Z" fill="#F58634"/>
        <path d="M190.613 452.856H181.468V441.455H190.613V452.856Z" fill="#F58634"/>
        <path d="M178.931 433.484H169.786V422.084H178.931V433.484Z" fill="#F58634"/>
        <path d="M190.613 433.484H181.468V422.084H190.613V433.484Z" fill="#F58634"/>
        <path d="M178.931 414.113H169.786V402.713H178.931V414.113Z" fill="#F58634"/>
        <path d="M190.613 414.113H181.468V402.713H190.613V414.113Z" fill="#F58634"/>
        <path d="M178.931 394.757H169.786V383.357H178.931V394.757Z" fill="#F58634"/>
        <path d="M190.613 394.757H181.468V383.357H190.613V394.757Z" fill="#F58634"/>
        <path d="M178.931 375.37H169.786V363.97H178.931V375.37Z" fill="#F58634"/>
        <path d="M190.613 375.37H181.468V363.97H190.613V375.37Z" fill="#F58634"/>
        <path d="M178.931 356.014H169.786V344.614H178.931V356.014Z" fill="#F58634"/>
        <path d="M190.613 356.014H181.468V344.614H190.613V356.014Z" fill="#F58634"/>
        <path d="M178.931 336.659H169.786V325.258H178.931V336.659Z" fill="#F58634"/>
        <path d="M190.613 336.659H181.468V325.258H190.613V336.659Z" fill="#F58634"/>
        <path d="M178.931 317.287H169.786V305.887H178.931V317.287Z" fill="#F58634"/>
        <path d="M190.613 317.287H181.468V305.887H190.613V317.287Z" fill="#F58634"/>
        <path d="M178.931 297.916H169.786V286.515H178.931V297.916Z" fill="#F58634"/>
        <path d="M190.613 297.916H181.468V286.515H190.613V297.916Z" fill="#F58634"/>
        <path d="M178.931 278.544H169.786V267.144H178.931V278.544Z" fill="#F58634"/>
        <path d="M190.613 278.544H181.468V267.144H190.613V278.544Z" fill="#F58634"/>
        <path d="M178.931 259.189H169.786V247.788H178.931V259.189Z" fill="#F58634"/>
        <path d="M193.088 247.773H202.234V259.173H193.088V247.773Z" fill="#F58634"/>
        <path d="M193.088 267.144H202.234V278.544H193.088V267.144Z" fill="#F58634"/>
        <path d="M193.088 286.515H202.234V297.916H193.088V286.515Z" fill="#F58634"/>
        <path d="M193.088 305.871H202.234V317.272H193.088V305.871Z" fill="#F58634"/>
        <path d="M193.088 325.243H202.234V336.643H193.088V325.243Z" fill="#F58634"/>
        <path d="M193.088 344.614H202.234V356.014H193.088V344.614Z" fill="#F58634"/>
        <path d="M193.088 363.985H202.234V375.386H193.088V363.985Z" fill="#F58634"/>
        <path d="M193.088 383.341H202.234V394.742H193.088V383.341Z" fill="#F58634"/>
        <path d="M193.088 402.713H202.234V414.113H193.088V402.713Z" fill="#F58634"/>
        <path d="M193.088 422.084H202.234V433.484H193.088V422.084Z" fill="#F58634"/>
        <path d="M193.088 441.44H202.234V452.84H193.088V441.44Z" fill="#F58634"/>
        <path d="M193.088 460.811H202.234V472.212H193.088V460.811Z" fill="#F58634"/>
        <path d="M193.088 480.183H202.234V491.583H193.088V480.183Z" fill="#F58634"/>
        <path d="M193.088 499.554H202.234V510.954H193.088V499.554Z" fill="#F58634"/>
        <path d="M190.613 259.189H181.468V247.788H190.613V259.189Z" fill="#F58634"/>
        <path d="M560.91 221.965H628.326V536.825H560.91V221.965Z" fill="#EBEBEB"/>
        <path d="M560.91 215.074H629.955V221.965H560.91V215.074Z" fill="#F58634"/>
        <path d="M615.407 232.128H622.234V536.84H615.407V232.128Z" fill="white"/>
        <path d="M603.317 232.128H610.145V536.84H603.317V232.128Z" fill="white"/>
        <path d="M591.212 232.128H598.04V536.84H591.212V232.128Z" fill="white"/>
        <path d="M579.107 232.128H585.935V536.84H579.107V232.128Z" fill="white"/>
        <path d="M567.017 232.128H573.845V536.84H567.017V232.128Z" fill="white"/>
        <path d="M615.407 240.835H622.234V254.444H615.407V240.835Z" fill="#EBEBEB"/>
        <path d="M603.317 240.835H610.145V254.444H603.317V240.835Z" fill="#EBEBEB"/>
        <path d="M591.212 240.835H598.04V254.444H591.212V240.835Z" fill="#EBEBEB"/>
        <path d="M579.107 240.835H585.935V254.444H579.107V240.835Z" fill="#EBEBEB"/>
        <path d="M567.017 240.835H573.845V254.444H567.017V240.835Z" fill="#EBEBEB"/>
        <path d="M615.407 262.947H622.234V276.556H615.407V262.947Z" fill="#EBEBEB"/>
        <path d="M603.317 262.947H610.145V276.556H603.317V262.947Z" fill="#EBEBEB"/>
        <path d="M591.212 262.947H598.04V276.556H591.212V262.947Z" fill="#EBEBEB"/>
        <path d="M579.107 262.947H585.935V276.556H579.107V262.947Z" fill="#EBEBEB"/>
        <path d="M567.017 262.947H573.845V276.556H567.017V262.947Z" fill="#EBEBEB"/>
        <path d="M615.407 285.059H622.234V298.668H615.407V285.059Z" fill="#EBEBEB"/>
        <path d="M603.317 285.059H610.145V298.668H603.317V285.059Z" fill="#EBEBEB"/>
        <path d="M591.212 285.059H598.04V298.668H591.212V285.059Z" fill="#EBEBEB"/>
        <path d="M579.107 285.059H585.935V298.668H579.107V285.059Z" fill="#EBEBEB"/>
        <path d="M567.017 285.059H573.845V298.668H567.017V285.059Z" fill="#EBEBEB"/>
        <path d="M615.407 307.187H622.234V320.795H615.407V307.187Z" fill="#EBEBEB"/>
        <path d="M603.317 307.187H610.145V320.795H603.317V307.187Z" fill="#EBEBEB"/>
        <path d="M591.212 307.187H598.04V320.795H591.212V307.187Z" fill="#EBEBEB"/>
        <path d="M579.107 307.187H585.935V320.795H579.107V307.187Z" fill="#EBEBEB"/>
        <path d="M567.017 307.187H573.845V320.795H567.017V307.187Z" fill="#EBEBEB"/>
        <path d="M615.407 329.298H622.234V342.907H615.407V329.298Z" fill="#EBEBEB"/>
        <path d="M603.317 329.298H610.145V342.907H603.317V329.298Z" fill="#EBEBEB"/>
        <path d="M591.212 329.298H598.04V342.907H591.212V329.298Z" fill="#EBEBEB"/>
        <path d="M579.107 329.298H585.935V342.907H579.107V329.298Z" fill="#EBEBEB"/>
        <path d="M567.017 329.298H573.845V342.907H567.017V329.298Z" fill="#EBEBEB"/>
        <path d="M615.407 351.41H622.234V365.019H615.407V351.41Z" fill="#EBEBEB"/>
        <path d="M603.317 351.41H610.145V365.019H603.317V351.41Z" fill="#EBEBEB"/>
        <path d="M591.212 351.41H598.04V365.019H591.212V351.41Z" fill="#EBEBEB"/>
        <path d="M579.107 351.41H585.935V365.019H579.107V351.41Z" fill="#EBEBEB"/>
        <path d="M567.017 351.41H573.845V365.019H567.017V351.41Z" fill="#EBEBEB"/>
        <path d="M615.407 373.522H622.234V387.131H615.407V373.522Z" fill="#EBEBEB"/>
        <path d="M603.317 373.522H610.145V387.131H603.317V373.522Z" fill="#EBEBEB"/>
        <path d="M591.212 373.522H598.04V387.131H591.212V373.522Z" fill="#EBEBEB"/>
        <path d="M579.107 373.522H585.935V387.131H579.107V373.522Z" fill="#EBEBEB"/>
        <path d="M567.017 373.522H573.845V387.131H567.017V373.522Z" fill="#EBEBEB"/>
        <path d="M615.407 395.65H622.234V409.258H615.407V395.65Z" fill="#EBEBEB"/>
        <path d="M603.317 395.65H610.145V409.258H603.317V395.65Z" fill="#EBEBEB"/>
        <path d="M591.212 395.65H598.04V409.258H591.212V395.65Z" fill="#EBEBEB"/>
        <path d="M579.107 395.65H585.935V409.258H579.107V395.65Z" fill="#EBEBEB"/>
        <path d="M567.017 395.65H573.845V409.258H567.017V395.65Z" fill="#EBEBEB"/>
        <path d="M615.407 417.762H622.234V431.37H615.407V417.762Z" fill="#EBEBEB"/>
        <path d="M603.317 417.762H610.145V431.37H603.317V417.762Z" fill="#EBEBEB"/>
        <path d="M591.212 417.762H598.04V431.37H591.212V417.762Z" fill="#EBEBEB"/>
        <path d="M579.107 417.762H585.935V431.37H579.107V417.762Z" fill="#EBEBEB"/>
        <path d="M567.017 417.762H573.845V431.37H567.017V417.762Z" fill="#EBEBEB"/>
        <path d="M615.407 439.874H622.234V453.482H615.407V439.874Z" fill="#EBEBEB"/>
        <path d="M603.317 439.874H610.145V453.482H603.317V439.874Z" fill="#EBEBEB"/>
        <path d="M591.212 439.874H598.04V453.482H591.212V439.874Z" fill="#EBEBEB"/>
        <path d="M579.107 439.874H585.935V453.482H579.107V439.874Z" fill="#EBEBEB"/>
        <path d="M567.017 439.874H573.845V453.482H567.017V439.874Z" fill="#EBEBEB"/>
        <path d="M615.407 462.001H622.234V475.61H615.407V462.001Z" fill="#EBEBEB"/>
        <path d="M603.317 462.001H610.145V475.61H603.317V462.001Z" fill="#EBEBEB"/>
        <path d="M591.212 462.001H598.04V475.61H591.212V462.001Z" fill="#EBEBEB"/>
        <path d="M579.107 462.001H585.935V475.61H579.107V462.001Z" fill="#EBEBEB"/>
        <path d="M567.017 462.001H573.845V475.61H567.017V462.001Z" fill="#EBEBEB"/>
        <path d="M615.407 484.113H622.234V497.722H615.407V484.113Z" fill="#EBEBEB"/>
        <path d="M603.317 484.113H610.145V497.722H603.317V484.113Z" fill="#EBEBEB"/>
        <path d="M591.212 484.113H598.04V497.722H591.212V484.113Z" fill="#EBEBEB"/>
        <path d="M579.107 484.113H585.935V497.722H579.107V484.113Z" fill="#EBEBEB"/>
        <path d="M567.017 484.113H573.845V497.722H567.017V484.113Z" fill="#EBEBEB"/>
        <path d="M615.407 506.225H622.234V519.834H615.407V506.225Z" fill="#EBEBEB"/>
        <path d="M603.317 506.225H610.145V519.834H603.317V506.225Z" fill="#EBEBEB"/>
        <path d="M591.212 506.225H598.04V519.834H591.212V506.225Z" fill="#EBEBEB"/>
        <path d="M579.107 506.225H585.935V519.834H579.107V506.225Z" fill="#EBEBEB"/>
        <path d="M567.017 506.225H573.845V519.834H567.017V506.225Z" fill="#EBEBEB"/>
        <path d="M615.407 528.337H622.234V536.825H615.407V528.337Z" fill="#EBEBEB"/>
        <path d="M603.317 528.337H610.145V536.825H603.317V528.337Z" fill="#EBEBEB"/>
        <path d="M591.212 528.337H598.04V536.825H591.212V528.337Z" fill="#EBEBEB"/>
        <path d="M579.107 528.337H585.935V536.825H579.107V528.337Z" fill="#EBEBEB"/>
        <path d="M567.017 528.337H573.845V536.825H567.017V528.337Z" fill="#EBEBEB"/>
        <path d="M517.626 221.965H560.91V536.825H517.626V221.965Z" fill="#DBDBDB"/>
        <path d="M515.746 215.074H560.91V221.965H515.746V215.074Z" fill="#F58634"/>
        <path d="M547.991 232.128H554.818V536.84H547.991V232.128Z" fill="#F58634"/>
        <path d="M535.885 232.128H542.713V536.84H535.885V232.128Z" fill="#F58634"/>
        <path d="M523.78 232.128H530.608V536.84H523.78V232.128Z" fill="#F58634"/>
        <path d="M547.991 240.835H554.818V254.444H547.991V240.835Z" fill="#DBDBDB"/>
        <path d="M535.885 240.835H542.713V254.444H535.885V240.835Z" fill="#DBDBDB"/>
        <path d="M523.78 240.835H530.608V254.444H523.78V240.835Z" fill="#DBDBDB"/>
        <path d="M547.991 262.947H554.818V276.556H547.991V262.947Z" fill="#DBDBDB"/>
        <path d="M535.885 262.947H542.713V276.556H535.885V262.947Z" fill="#DBDBDB"/>
        <path d="M523.78 262.947H530.608V276.556H523.78V262.947Z" fill="#DBDBDB"/>
        <path d="M547.991 285.059H554.818V298.668H547.991V285.059Z" fill="#DBDBDB"/>
        <path d="M535.885 285.059H542.713V298.668H535.885V285.059Z" fill="#DBDBDB"/>
        <path d="M523.78 285.059H530.608V298.668H523.78V285.059Z" fill="#DBDBDB"/>
        <path d="M547.991 307.187H554.818V320.795H547.991V307.187Z" fill="#DBDBDB"/>
        <path d="M535.885 307.187H542.713V320.795H535.885V307.187Z" fill="#DBDBDB"/>
        <path d="M523.78 307.187H530.608V320.795H523.78V307.187Z" fill="#DBDBDB"/>
        <path d="M547.991 329.298H554.818V342.907H547.991V329.298Z" fill="#DBDBDB"/>
        <path d="M535.885 329.298H542.713V342.907H535.885V329.298Z" fill="#DBDBDB"/>
        <path d="M523.78 329.298H530.608V342.907H523.78V329.298Z" fill="#DBDBDB"/>
        <path d="M547.991 351.41H554.818V365.019H547.991V351.41Z" fill="#DBDBDB"/>
        <path d="M535.885 351.41H542.713V365.019H535.885V351.41Z" fill="#DBDBDB"/>
        <path d="M523.78 351.41H530.608V365.019H523.78V351.41Z" fill="#DBDBDB"/>
        <path d="M547.991 373.522H554.818V387.131H547.991V373.522Z" fill="#DBDBDB"/>
        <path d="M535.885 373.522H542.713V387.131H535.885V373.522Z" fill="#DBDBDB"/>
        <path d="M523.78 373.522H530.608V387.131H523.78V373.522Z" fill="#DBDBDB"/>
        <path d="M547.991 395.65H554.818V409.258H547.991V395.65Z" fill="#DBDBDB"/>
        <path d="M535.885 395.65H542.713V409.258H535.885V395.65Z" fill="#DBDBDB"/>
        <path d="M523.78 395.65H530.608V409.258H523.78V395.65Z" fill="#DBDBDB"/>
        <path d="M547.991 417.762H554.818V431.37H547.991V417.762Z" fill="#DBDBDB"/>
        <path d="M535.885 417.762H542.713V431.37H535.885V417.762Z" fill="#DBDBDB"/>
        <path d="M523.78 417.762H530.608V431.37H523.78V417.762Z" fill="#DBDBDB"/>
        <path d="M547.991 439.874H554.818V453.482H547.991V439.874Z" fill="#DBDBDB"/>
        <path d="M535.885 439.874H542.713V453.482H535.885V439.874Z" fill="#DBDBDB"/>
        <path d="M523.78 439.874H530.608V453.482H523.78V439.874Z" fill="#DBDBDB"/>
        <path d="M547.991 462.001H554.818V475.61H547.991V462.001Z" fill="#DBDBDB"/>
        <path d="M535.885 462.001H542.713V475.61H535.885V462.001Z" fill="#DBDBDB"/>
        <path d="M523.78 462.001H530.608V475.61H523.78V462.001Z" fill="#DBDBDB"/>
        <path d="M547.991 484.113H554.818V497.722H547.991V484.113Z" fill="#DBDBDB"/>
        <path d="M535.885 484.113H542.713V497.722H535.885V484.113Z" fill="#DBDBDB"/>
        <path d="M523.78 484.113H530.608V497.722H523.78V484.113Z" fill="#DBDBDB"/>
        <path d="M547.991 506.225H554.818V519.834H547.991V506.225Z" fill="#DBDBDB"/>
        <path d="M535.885 506.225H542.713V519.834H535.885V506.225Z" fill="#DBDBDB"/>
        <path d="M523.78 506.225H530.608V519.834H523.78V506.225Z" fill="#DBDBDB"/>
        <path d="M547.991 528.337H554.818V536.825H547.991V528.337Z" fill="#DBDBDB"/>
        <path d="M535.885 528.337H542.713V536.825H535.885V528.337Z" fill="#DBDBDB"/>
        <path d="M523.78 528.337H530.608V536.825H523.78V528.337Z" fill="#DBDBDB"/>
        <path d="M645.834 337.677H712.969V536.825H645.834V337.677Z" fill="#EBEBEB"/>
        <path d="M645.85 320.795H703.431V337.677H645.85V320.795Z" fill="#F58634"/>
        <path d="M653.194 346.493H705.608V536.825H653.194V346.493Z" fill="#DBDBDB"/>
        <path d="M653.194 364.659H705.608V369.153H653.194V364.659Z" fill="white"/>
        <path d="M653.194 383.279H705.608V387.773H653.194V383.279Z" fill="white"/>
        <path d="M653.194 401.914H705.608V406.408H653.194V401.914Z" fill="white"/>
        <path d="M653.194 420.549H705.608V425.044H653.194V420.549Z" fill="white"/>
        <path d="M653.194 439.169H705.608V443.663H653.194V439.169Z" fill="white"/>
        <path d="M653.194 457.804H705.608V462.299H653.194V457.804Z" fill="white"/>
        <path d="M653.194 476.44H705.608V480.934H653.194V476.44Z" fill="white"/>
        <path d="M653.194 495.06H705.608V499.554H653.194V495.06Z" fill="white"/>
        <path d="M653.194 513.695H705.608V518.189H653.194V513.695Z" fill="white"/>
        <path d="M653.194 532.33H705.608V536.825H653.194V532.33Z" fill="white"/>
        <path d="M603.787 337.677H645.834V536.825H603.787V337.677Z" fill="#DBDBDB"/>
        <path d="M610.098 320.795H645.834V337.677H610.098V320.795Z" fill="#A6A6A6"/>
        <path d="M607.702 346.493H640.04V536.825H607.702V346.493Z" fill="#F58634"/>
        <path d="M607.702 364.659H640.04V369.153H607.702V364.659Z" fill="white"/>
        <path d="M607.702 383.279H640.04V387.773H607.702V383.279Z" fill="white"/>
        <path d="M607.702 401.914H640.04V406.408H607.702V401.914Z" fill="white"/>
        <path d="M607.702 420.549H640.04V425.044H607.702V420.549Z" fill="white"/>
        <path d="M607.702 439.169H640.04V443.663H607.702V439.169Z" fill="white"/>
        <path d="M607.702 457.804H640.04V462.299H607.702V457.804Z" fill="white"/>
        <path d="M607.702 476.44H640.04V480.934H607.702V476.44Z" fill="white"/>
        <path d="M607.702 495.06H640.04V499.554H607.702V495.06Z" fill="white"/>
        <path d="M607.702 513.695H640.04V518.189H607.702V513.695Z" fill="white"/>
        <path d="M607.702 532.33H640.04V536.825H607.702V532.33Z" fill="white"/>
        <path d="M475.626 420.236H527.523V536.825H475.626V420.236Z" fill="#DBDBDB"/>
        <path d="M510.187 430.337H519.364V437.478H510.187V430.337Z" fill="#F58634"/>
        <path d="M510.187 445.59H519.364V452.731H510.187V445.59Z" fill="#F58634"/>
        <path d="M510.187 460.842H519.364V467.983H510.187V460.842Z" fill="#F58634"/>
        <path d="M510.187 476.095H519.364V483.236H510.187V476.095Z" fill="#F58634"/>
        <path d="M510.187 491.364H519.364V498.505H510.187V491.364Z" fill="#F58634"/>
        <path d="M510.187 506.617H519.364V513.758H510.187V506.617Z" fill="#F58634"/>
        <path d="M510.187 521.87H519.364V529.01H510.187V521.87Z" fill="#F58634"/>
        <path d="M496.954 430.337H506.147V437.478H496.954V430.337Z" fill="#F58634"/>
        <path d="M496.954 445.59H506.147V452.731H496.954V445.59Z" fill="#F58634"/>
        <path d="M496.954 460.842H506.147V467.983H496.954V460.842Z" fill="#F58634"/>
        <path d="M496.954 476.095H506.147V483.236H496.954V476.095Z" fill="#F58634"/>
        <path d="M496.954 491.364H506.147V498.505H496.954V491.364Z" fill="#F58634"/>
        <path d="M496.954 506.617H506.147V513.758H496.954V506.617Z" fill="#F58634"/>
        <path d="M496.954 521.87H506.147V529.01H496.954V521.87Z" fill="#F58634"/>
        <path d="M483.769 430.337H492.961V437.478H483.769V430.337Z" fill="#F58634"/>
        <path d="M483.769 445.59H492.961V452.731H483.769V445.59Z" fill="#F58634"/>
        <path d="M483.769 460.842H492.961V467.983H483.769V460.842Z" fill="#F58634"/>
        <path d="M483.769 476.095H492.961V483.236H483.769V476.095Z" fill="#F58634"/>
        <path d="M483.769 491.364H492.961V498.505H483.769V491.364Z" fill="#F58634"/>
        <path d="M483.769 506.617H492.961V513.758H483.769V506.617Z" fill="#F58634"/>
        <path d="M483.769 521.87H492.961V529.01H483.769V521.87Z" fill="#F58634"/>
        <path d="M439.216 420.236H475.625V536.825H439.216V420.236Z" fill="#A6A6A6"/>
        <path d="M450.398 527.883H442.928V520.742H450.398V527.883Z" fill="#F58634"/>
        <path d="M450.398 512.614H442.928V505.473H450.398V512.614Z" fill="#F58634"/>
        <path d="M450.398 497.362H442.928V490.221H450.398V497.362Z" fill="#F58634"/>
        <path d="M450.398 482.093H442.928V474.952H450.398V482.093Z" fill="#F58634"/>
        <path d="M450.398 466.856H442.928V459.715H450.398V466.856Z" fill="#F58634"/>
        <path d="M450.398 451.587H442.928V444.446H450.398V451.587Z" fill="#F58634"/>
        <path d="M450.398 436.335H442.928V429.194H450.398V436.335Z" fill="#F58634"/>
        <path d="M461.156 527.883H453.686V520.742H461.156V527.883Z" fill="#F58634"/>
        <path d="M461.156 512.614H453.686V505.473H461.156V512.614Z" fill="#F58634"/>
        <path d="M461.156 497.362H453.686V490.221H461.156V497.362Z" fill="#F58634"/>
        <path d="M461.156 482.093H453.686V474.952H461.156V482.093Z" fill="#F58634"/>
        <path d="M461.156 466.856H453.686V459.715H461.156V466.856Z" fill="#F58634"/>
        <path d="M461.156 451.587H453.686V444.446H461.156V451.587Z" fill="#F58634"/>
        <path d="M461.156 436.335H453.686V429.194H461.156V436.335Z" fill="#F58634"/>
        <path d="M471.883 527.883H464.413V520.742H471.883V527.883Z" fill="#F58634"/>
        <path d="M471.883 512.614H464.413V505.473H471.883V512.614Z" fill="#F58634"/>
        <path d="M471.883 497.362H464.413V490.221H471.883V497.362Z" fill="#F58634"/>
        <path d="M471.883 482.093H464.413V474.952H471.883V482.093Z" fill="#F58634"/>
        <path d="M471.883 466.856H464.413V459.715H471.883V466.856Z" fill="#F58634"/>
        <path d="M471.883 451.587H464.413V444.446H471.883V451.587Z" fill="#F58634"/>
        <path d="M471.883 436.335H464.413V429.194H471.883V436.335Z" fill="#F58634"/>
        <path d="M125.374 286.515H161.235V328.876H125.374V286.515Z" fill="#DBDBDB"/>
        <path d="M102.636 286.515H125.374V330.426H102.636V286.515Z" fill="#F58634"/>
        <path d="M101.132 305.213H123.698V330.426H101.132V305.213Z" fill="#DBDBDB"/>
        <path d="M87.0541 305.213H101.132V330.426H87.0541V305.213Z" fill="#F58634"/>
        <path d="M117.012 326.104H174.985V536.825H117.012V326.104Z" fill="#EBEBEB"/>
        <path d="M150.132 335.171H168.361V342.625H150.132V335.171Z" fill="white"/>
        <path d="M126.815 335.171H145.043V342.625H126.815V335.171Z" fill="white"/>
        <path d="M150.132 347.824H168.361V355.278H150.132V347.824Z" fill="white"/>
        <path d="M126.815 347.824H145.043V355.278H126.815V347.824Z" fill="white"/>
        <path d="M150.132 360.462H168.361V367.916H150.132V360.462Z" fill="white"/>
        <path d="M126.815 360.462H145.043V367.916H126.815V360.462Z" fill="white"/>
        <path d="M150.132 373.115H168.361V380.569H150.132V373.115Z" fill="white"/>
        <path d="M126.815 373.115H145.043V380.569H126.815V373.115Z" fill="white"/>
        <path d="M150.132 385.753H168.361V393.207H150.132V385.753Z" fill="white"/>
        <path d="M126.815 385.753H145.043V393.207H126.815V385.753Z" fill="white"/>
        <path d="M150.132 398.406H168.361V405.86H150.132V398.406Z" fill="white"/>
        <path d="M126.815 398.406H145.043V405.86H126.815V398.406Z" fill="white"/>
        <path d="M150.132 411.059H168.361V418.514H150.132V411.059Z" fill="white"/>
        <path d="M126.815 411.059H145.043V418.514H126.815V411.059Z" fill="white"/>
        <path d="M150.132 423.697H168.361V431.151H150.132V423.697Z" fill="white"/>
        <path d="M126.815 423.697H145.043V431.151H126.815V423.697Z" fill="white"/>
        <path d="M150.132 436.35H168.361V443.804H150.132V436.35Z" fill="white"/>
        <path d="M126.815 436.35H145.043V443.804H126.815V436.35Z" fill="white"/>
        <path d="M150.132 449.004H168.361V456.458H150.132V449.004Z" fill="white"/>
        <path d="M126.815 449.004H145.043V456.458H126.815V449.004Z" fill="white"/>
        <path d="M150.132 461.641H168.361V469.095H150.132V461.641Z" fill="white"/>
        <path d="M126.815 461.641H145.043V469.095H126.815V461.641Z" fill="white"/>
        <path d="M150.132 474.294H168.361V481.749H150.132V474.294Z" fill="white"/>
        <path d="M126.815 474.294H145.043V481.749H126.815V474.294Z" fill="white"/>
        <path d="M150.132 486.948H168.361V494.402H150.132V486.948Z" fill="white"/>
        <path d="M126.815 486.948H145.043V494.402H126.815V486.948Z" fill="white"/>
        <path d="M150.132 499.585H168.361V507.04H150.132V499.585Z" fill="white"/>
        <path d="M126.815 499.585H145.043V507.04H126.815V499.585Z" fill="white"/>
        <path d="M70.0315 326.104H117.011V536.825H70.0315V326.104Z" fill="#F58634"/>
        <path d="M89.7161 507.039H74.7451V499.585H89.7161V507.039Z" fill="#EBEBEB"/>
        <path d="M108.853 507.039H93.8816V499.585H108.853V507.039Z" fill="#EBEBEB"/>
        <path d="M89.7161 494.386H74.7451V486.932H89.7161V494.386Z" fill="#EBEBEB"/>
        <path d="M108.853 494.386H93.8816V486.932H108.853V494.386Z" fill="#EBEBEB"/>
        <path d="M89.7161 481.749H74.7451V474.294H89.7161V481.749Z" fill="#EBEBEB"/>
        <path d="M108.853 481.749H93.8816V474.294H108.853V481.749Z" fill="#EBEBEB"/>
        <path d="M89.7161 469.095H74.7451V461.641H89.7161V469.095Z" fill="#EBEBEB"/>
        <path d="M108.853 469.095H93.8816V461.641H108.853V469.095Z" fill="#EBEBEB"/>
        <path d="M89.7161 456.442H74.7451V448.988H89.7161V456.442Z" fill="#EBEBEB"/>
        <path d="M108.853 456.442H93.8816V448.988H108.853V456.442Z" fill="#EBEBEB"/>
        <path d="M89.7161 443.804H74.7451V436.35H89.7161V443.804Z" fill="#EBEBEB"/>
        <path d="M108.853 443.804H93.8816V436.35H108.853V443.804Z" fill="#EBEBEB"/>
        <path d="M89.7161 431.167H74.7451V423.713H89.7161V431.167Z" fill="#EBEBEB"/>
        <path d="M108.853 431.167H93.8816V423.713H108.853V431.167Z" fill="#EBEBEB"/>
        <path d="M89.7161 418.498H74.7451V411.044H89.7161V418.498Z" fill="#EBEBEB"/>
        <path d="M108.853 418.498H93.8816V411.044H108.853V418.498Z" fill="#EBEBEB"/>
        <path d="M89.7161 405.86H74.7451V398.406H89.7161V405.86Z" fill="#EBEBEB"/>
        <path d="M108.853 405.86H93.8816V398.406H108.853V405.86Z" fill="#EBEBEB"/>
        <path d="M89.7161 393.223H74.7451V385.768H89.7161V393.223Z" fill="#EBEBEB"/>
        <path d="M108.853 393.223H93.8816V385.768H108.853V393.223Z" fill="#EBEBEB"/>
        <path d="M89.7161 380.554H74.7451V373.099H89.7161V380.554Z" fill="#EBEBEB"/>
        <path d="M108.853 380.554H93.8816V373.099H108.853V380.554Z" fill="#EBEBEB"/>
        <path d="M89.7161 367.916H74.7451V360.462H89.7161V367.916Z" fill="#EBEBEB"/>
        <path d="M108.853 367.916H93.8816V360.462H108.853V367.916Z" fill="#EBEBEB"/>
        <path d="M89.7161 355.263H74.7451V347.809H89.7161V355.263Z" fill="#EBEBEB"/>
        <path d="M108.853 355.263H93.8816V347.809H108.853V355.263Z" fill="#EBEBEB"/>
        <path d="M89.7161 342.609H74.7451V335.155H89.7161V342.609Z" fill="#EBEBEB"/>
        <path d="M108.853 342.609H93.8816V335.155H108.853V342.609Z" fill="#EBEBEB"/>
        <path d="M326.433 399.518H394.82V536.825H326.433V399.518Z" fill="#F58634"/>
        <path d="M371.956 411.404H384.062V419.813H371.956V411.404Z" fill="#DBDBDB"/>
        <path d="M371.956 429.382H384.062V437.791H371.956V429.382Z" fill="#DBDBDB"/>
        <path d="M371.956 447.344H384.062V455.753H371.956V447.344Z" fill="#DBDBDB"/>
        <path d="M371.956 465.306H384.062V473.715H371.956V465.306Z" fill="#DBDBDB"/>
        <path d="M371.956 483.283H384.062V491.693H371.956V483.283Z" fill="#DBDBDB"/>
        <path d="M371.956 501.245H384.062V509.655H371.956V501.245Z" fill="#DBDBDB"/>
        <path d="M371.956 519.207H384.062V527.617H371.956V519.207Z" fill="#DBDBDB"/>
        <path d="M354.543 411.404H366.648V419.813H354.543V411.404Z" fill="#DBDBDB"/>
        <path d="M354.543 429.382H366.648V437.791H354.543V429.382Z" fill="#DBDBDB"/>
        <path d="M354.543 447.344H366.648V455.753H354.543V447.344Z" fill="#DBDBDB"/>
        <path d="M354.543 465.306H366.648V473.715H354.543V465.306Z" fill="#DBDBDB"/>
        <path d="M354.543 483.283H366.648V491.693H354.543V483.283Z" fill="#DBDBDB"/>
        <path d="M354.543 501.245H366.648V509.655H354.543V501.245Z" fill="#DBDBDB"/>
        <path d="M354.543 519.207H366.648V527.617H354.543V519.207Z" fill="#DBDBDB"/>
        <path d="M337.176 411.404H349.281V419.813H337.176V411.404Z" fill="#DBDBDB"/>
        <path d="M337.176 429.382H349.281V437.791H337.176V429.382Z" fill="#DBDBDB"/>
        <path d="M337.176 447.344H349.281V455.753H337.176V447.344Z" fill="#DBDBDB"/>
        <path d="M337.176 465.306H349.281V473.715H337.176V465.306Z" fill="#DBDBDB"/>
        <path d="M337.176 483.283H349.281V491.693H337.176V483.283Z" fill="#DBDBDB"/>
        <path d="M337.176 501.245H349.281V509.655H337.176V501.245Z" fill="#DBDBDB"/>
        <path d="M337.176 519.207H349.281V527.617H337.176V519.207Z" fill="#DBDBDB"/>
        <path d="M326.433 385.22H371.956V399.534H326.433V385.22Z" fill="#DBDBDB"/>
        <path d="M326.433 376.357H355.294V385.22H326.433V376.357Z" fill="#EBEBEB"/>
        <path d="M278.45 399.518H326.433V536.825H278.45V399.518Z" fill="#A6A6A6"/>
        <path d="M293.202 526.286H283.352V517.876H293.202V526.286Z" fill="#F58634"/>
        <path d="M293.202 508.324H283.352V499.914H293.202V508.324Z" fill="#F58634"/>
        <path d="M293.202 490.346H283.352V481.936H293.202V490.346Z" fill="#F58634"/>
        <path d="M293.202 472.368H283.352V463.959H293.202V472.368Z" fill="#F58634"/>
        <path d="M293.202 454.422H283.352V446.012H293.202V454.422Z" fill="#F58634"/>
        <path d="M293.202 436.444H283.352V428.035H293.202V436.444Z" fill="#F58634"/>
        <path d="M293.202 418.482H283.352V410.073H293.202V418.482Z" fill="#F58634"/>
        <path d="M307.375 526.286H297.524V517.876H307.375V526.286Z" fill="#F58634"/>
        <path d="M307.375 508.324H297.524V499.914H307.375V508.324Z" fill="#F58634"/>
        <path d="M307.375 490.346H297.524V481.936H307.375V490.346Z" fill="#F58634"/>
        <path d="M307.375 472.368H297.524V463.959H307.375V472.368Z" fill="#F58634"/>
        <path d="M307.375 454.422H297.524V446.012H307.375V454.422Z" fill="#F58634"/>
        <path d="M307.375 436.444H297.524V428.035H307.375V436.444Z" fill="#F58634"/>
        <path d="M307.375 418.482H297.524V410.073H307.375V418.482Z" fill="#F58634"/>
        <path d="M321.516 526.286H311.666V517.876H321.516V526.286Z" fill="#F58634"/>
        <path d="M321.516 508.324H311.666V499.914H321.516V508.324Z" fill="#F58634"/>
        <path d="M321.516 490.346H311.666V481.936H321.516V490.346Z" fill="#F58634"/>
        <path d="M321.516 472.368H311.666V463.959H321.516V472.368Z" fill="#F58634"/>
        <path d="M321.516 454.422H311.666V446.012H321.516V454.422Z" fill="#F58634"/>
        <path d="M321.516 436.444H311.666V428.035H321.516V436.444Z" fill="#F58634"/>
        <path d="M321.516 418.482H311.666V410.073H321.516V418.482Z" fill="#F58634"/>
        <path d="M285.717 385.22H326.433V399.534H285.717V385.22Z" fill="#F58634"/>
        <path d="M304.368 376.357H326.433V385.22H304.368V376.357Z" fill="#DBDBDB"/>
        <path d="M391.5 729.192C227.502 729.192 94.5552 718.388 94.5552 705.06C94.5552 691.732 227.502 680.928 391.5 680.928C555.498 680.928 688.445 691.732 688.445 705.06C688.445 718.388 555.498 729.192 391.5 729.192Z" fill="#EBEBEB"/>
        <path d="M721.754 548.21L639.194 547.834L556.619 547.693L391.5 547.427L226.381 547.693L143.806 547.818L61.2461 548.21L143.806 548.585L226.381 548.726L391.5 548.993L556.619 548.726L639.194 548.585L721.754 548.21Z" fill="#263238"/>
        <path d="M64.7852 536.825H718.23V548.21H64.7852V536.825Z" fill="#F58634"/>
        <path d="M672.409 536.825C671.386 540.551 671.386 544.484 672.409 548.21C672.96 546.366 673.224 544.449 673.192 542.525C673.218 540.596 672.954 538.675 672.409 536.825Z" fill="#263238"/>
        <path d="M621.342 536.825C620.797 538.675 620.533 540.596 620.559 542.525C620.527 544.449 620.791 546.366 621.342 548.21C622.365 544.484 622.365 540.551 621.342 536.825Z" fill="#263238"/>
        <path d="M570.259 536.825C569.236 540.551 569.236 544.484 570.259 548.21C570.809 546.366 571.073 544.449 571.042 542.525C571.068 540.596 570.804 538.675 570.259 536.825Z" fill="#263238"/>
        <path d="M519.191 536.825C518.646 538.675 518.382 540.596 518.408 542.525C518.377 544.449 518.641 546.366 519.191 548.21C520.214 544.484 520.214 540.551 519.191 536.825Z" fill="#263238"/>
        <path d="M468.108 536.825C467.085 540.551 467.085 544.484 468.108 548.21C468.659 546.366 468.923 544.449 468.891 542.525C468.917 540.596 468.653 538.675 468.108 536.825Z" fill="#263238"/>
        <path d="M417.041 536.825C416.496 538.675 416.233 540.596 416.258 542.525C416.227 544.449 416.491 546.366 417.041 548.21C418.064 544.484 418.064 540.551 417.041 536.825Z" fill="#263238"/>
        <path d="M365.958 536.825C364.935 540.551 364.935 544.484 365.958 548.21C366.509 546.366 366.773 544.449 366.741 542.525C366.767 540.596 366.503 538.675 365.958 536.825Z" fill="#263238"/>
        <path d="M314.891 536.825C314.346 538.675 314.082 540.596 314.108 542.525C314.076 544.449 314.341 546.366 314.891 548.21C315.914 544.484 315.914 540.551 314.891 536.825Z" fill="#263238"/>
        <path d="M263.808 536.825C262.785 540.551 262.785 544.484 263.808 548.21C264.359 546.366 264.623 544.449 264.591 542.525C264.617 540.596 264.353 538.675 263.808 536.825Z" fill="#263238"/>
        <path d="M212.741 536.825C212.196 538.675 211.932 540.596 211.958 542.525C211.927 544.449 212.191 546.366 212.741 548.21C213.764 544.484 213.764 540.551 212.741 536.825Z" fill="#263238"/>
        <path d="M161.658 536.825C160.635 540.551 160.635 544.484 161.658 548.21C162.208 546.366 162.473 544.449 162.441 542.525C162.467 540.596 162.203 538.675 161.658 536.825Z" fill="#263238"/>
        <path d="M110.591 536.825C110.046 538.675 109.782 540.596 109.808 542.525C109.776 544.449 110.04 546.366 110.591 548.21C111.614 544.484 111.614 540.551 110.591 536.825Z" fill="#263238"/>
        <path d="M644.534 536.825C644.534 536.825 645.85 530.67 648.481 529.731C651.111 528.791 652.724 531.547 652.724 531.547C652.724 531.547 653.335 525.659 657.078 523.905C660.821 522.151 663.608 525.753 663.608 525.753C663.608 525.753 666.474 518.346 671.595 518.346C676.716 518.346 679.284 529.308 679.284 529.308C679.284 529.308 682.306 526.066 685.407 527.899C688.507 529.731 688.539 536.934 688.539 536.934L644.534 536.825Z" fill="#37474F"/>
        <path d="M207.87 536.825C207.87 536.825 209.186 530.67 211.817 529.731C214.448 528.791 216.045 531.547 216.045 531.547C216.045 531.547 216.671 525.659 220.398 523.905C224.126 522.151 226.929 525.753 226.929 525.753C226.929 525.753 229.794 518.346 234.9 518.346C240.005 518.346 242.604 529.308 242.604 529.308C242.604 529.308 245.611 526.066 248.712 527.899C251.812 529.731 251.844 536.934 251.844 536.934L207.87 536.825Z" fill="#455A64"/>
        <path d="M528.212 536.825H574.487C574.487 536.825 572.921 530.31 569.898 529.84C568.961 529.748 568.018 529.948 567.199 530.414C566.38 530.879 565.726 531.587 565.326 532.44C565.326 532.44 565.467 523.342 559.735 521.791C554.004 520.241 549.212 528.274 549.212 528.274C549.212 528.274 545.61 523.686 540.724 523.984C535.838 524.281 534.569 531.814 534.569 531.814C534.569 531.814 530.185 529.198 528.212 536.825Z" fill="#37474F"/>
        <path d="M685.657 536.825H710.009C710.009 536.825 710.009 533.207 707.566 532.236C706.915 531.956 706.19 531.894 705.501 532.061C704.812 532.227 704.195 532.613 703.745 533.16C703.745 533.16 702.774 526.489 698.311 526.489C693.847 526.489 691.702 532.236 691.702 532.236C691.323 531.688 690.792 531.262 690.175 531.011C689.557 530.761 688.879 530.697 688.225 530.827C685.751 531.14 685.657 536.825 685.657 536.825Z" fill="#455A64"/>
        <path d="M509.106 536.825H533.458C533.458 536.825 533.458 533.207 531.015 532.236C530.364 531.956 529.639 531.894 528.95 532.061C528.261 532.227 527.645 532.613 527.194 533.16C527.194 533.16 526.207 526.489 521.744 526.489C517.281 526.489 515.151 532.236 515.151 532.236C514.773 531.688 514.242 531.262 513.624 531.011C513.006 530.761 512.329 530.697 511.675 530.827C509.2 531.14 509.106 536.825 509.106 536.825Z" fill="#455A64"/>
        <path d="M108.523 536.825H132.875C132.875 536.825 132.875 533.207 130.432 532.236C129.781 531.956 129.056 531.894 128.367 532.061C127.678 532.227 127.062 532.613 126.611 533.16C126.611 533.16 125.64 526.489 121.177 526.489C116.714 526.489 114.568 532.236 114.568 532.236C114.191 531.686 113.66 531.259 113.042 531.009C112.424 530.758 111.746 530.695 111.092 530.827C108.617 531.14 108.523 536.825 108.523 536.825Z" fill="#455A64"/>
        <path d="M72.9913 536.825H113.144C113.144 536.825 113.05 530.843 109.103 529.261C108.03 528.81 106.84 528.719 105.711 529.002C104.581 529.284 103.574 529.924 102.839 530.827C102.839 530.827 101.273 519.865 93.8661 519.865C86.4589 519.865 82.9981 529.308 82.9981 529.308C82.3743 528.402 81.4994 527.699 80.481 527.285C79.4627 526.87 78.3453 526.762 77.2665 526.975C73.1479 527.46 72.9913 536.825 72.9913 536.825Z" fill="#37474F"/>
        <path d="M253.927 75.7161H280.706V90.8906H253.927V75.7161Z" fill="#263238"/>
        <path d="M250.153 70.6109H284.495V80.5394H250.153V70.6109Z" fill="#455A64"/>
        <path d="M313.802 90.7137L321.099 98.011L309.572 109.538L302.275 102.241L313.802 90.7137Z" fill="#263238"/>
        <path d="M315.527 84.6815L327.121 96.2753L319.591 103.805L307.997 92.2114L315.527 84.6815Z" fill="#455A64"/>
        <path d="M232.359 102.228L225.062 109.525L213.535 97.998L220.832 90.7007L232.359 102.228Z" fill="#263238"/>
        <path d="M226.667 92.2187L215.073 103.812L207.543 96.2826L219.137 84.6889L226.667 92.2187Z" fill="#455A64"/>
        <path d="M203.974 168.922C195.764 133.919 217.484 98.8875 252.487 90.6776C287.49 82.4677 322.521 104.188 330.731 139.191C338.941 174.194 317.221 209.225 282.218 217.435C247.215 225.645 212.184 203.925 203.974 168.922Z" fill="#455A64"/>
        <path d="M268.115 215.106C233.814 215.106 206.007 187.299 206.007 152.998C206.007 118.697 233.814 90.8906 268.115 90.8906C302.416 90.8906 330.222 118.697 330.222 152.998C330.222 187.299 302.416 215.106 268.115 215.106Z" fill="#263238"/>
        <path d="M213.058 161.714C208.674 131.736 229.421 103.881 259.399 99.4968C289.377 95.1128 317.233 115.861 321.617 145.839C326.001 175.816 305.253 203.672 275.275 208.056C245.297 212.44 217.442 191.692 213.058 161.714Z" fill="white"/>
        <path opacity="0.5" d="M212.459 153.797H267.269V98.9868C252.732 98.9868 238.791 104.761 228.512 115.04C218.234 125.319 212.459 139.26 212.459 153.797Z" fill="#235EAC"/>
        <path d="M266.784 102.918H267.849V111.233H266.784V102.918Z" fill="#F58634"/>
        <path d="M292.309 109.433L293.231 109.965L289.073 117.167L288.151 116.634L292.309 109.433Z" fill="#F58634"/>
        <path d="M311.136 127.874L311.669 128.796L304.467 132.954L303.935 132.032L311.136 127.874Z" fill="#F58634"/>
        <path d="M309.88 153.264H318.195V154.329H309.88V153.264Z" fill="#F58634"/>
        <path d="M302.581 175.145L309.816 179.303L309.283 180.229L302.049 176.071L302.581 175.145Z" fill="#F58634"/>
        <path d="M289.069 190.394L293.223 197.598L292.3 198.13L288.146 190.926L289.069 190.394Z" fill="#F58634"/>
        <path d="M266.784 196.361H267.849V204.676H266.784V196.361Z" fill="#F58634"/>
        <path d="M245.59 190.366L246.512 190.898L242.354 198.1L241.432 197.567L245.59 190.366Z" fill="#F58634"/>
        <path d="M230.202 174.578L230.734 175.5L223.533 179.658L223.001 178.736L230.202 174.578Z" fill="#F58634"/>
        <path d="M216.437 153.264H224.752V154.329H216.437V153.264Z" fill="#F58634"/>
        <path d="M223.53 127.867L230.732 132.024L230.199 132.947L222.998 128.789L223.53 127.867Z" fill="#F58634"/>
        <path d="M242.35 109.455L246.505 116.658L245.583 117.19L241.428 109.987L242.35 109.455Z" fill="#F58634"/>
        <path d="M266.94 114.099L264.497 157.054L270.01 156.976L268.428 114.083L266.94 114.099Z" fill="#235EAC"/>
        <path d="M265.437 153.797C265.437 154.172 265.548 154.539 265.757 154.851C265.966 155.163 266.263 155.406 266.61 155.549C266.957 155.692 267.339 155.728 267.707 155.654C268.075 155.58 268.413 155.398 268.677 155.131C268.942 154.865 269.121 154.525 269.192 154.157C269.263 153.788 269.224 153.407 269.078 153.061C268.932 152.715 268.687 152.42 268.373 152.214C268.059 152.007 267.691 151.899 267.316 151.902C267.068 151.902 266.822 151.951 266.593 152.047C266.364 152.142 266.156 152.282 265.982 152.458C265.807 152.634 265.669 152.843 265.575 153.073C265.482 153.303 265.435 153.549 265.437 153.797Z" fill="#235EAC"/>
        <path d="M227.555 154.439L270.511 156.866L270.433 151.354L227.54 152.936L227.555 154.439Z" fill="#263238"/>
        <path d="M265.437 153.797C265.437 154.172 265.548 154.539 265.757 154.851C265.966 155.163 266.263 155.406 266.61 155.549C266.957 155.692 267.339 155.728 267.707 155.654C268.075 155.58 268.413 155.398 268.677 155.131C268.942 154.865 269.121 154.525 269.192 154.157C269.263 153.788 269.224 153.407 269.078 153.061C268.932 152.715 268.687 152.42 268.373 152.214C268.059 152.007 267.691 151.899 267.316 151.902C267.068 151.902 266.822 151.951 266.593 152.047C266.364 152.142 266.156 152.282 265.982 152.458C265.807 152.634 265.669 152.843 265.575 153.073C265.482 153.303 265.435 153.549 265.437 153.797Z" fill="#235EAC"/>
        <path d="M490.362 271.701C482.297 302.473 471.789 322.565 464.742 329.518C447.86 346.18 411.498 349.876 391.046 358.363C384.39 361.135 365.99 318.916 372.802 315.22C377.829 312.48 436.209 305.088 441.174 303.569C443.726 302.786 463.098 277.558 474.06 263.37C491.724 240.632 494.778 254.898 490.362 271.701Z" fill="#954F1B"/>
        <path d="M359.084 364.283C362.216 364.205 362.325 365.849 357.956 369.466C353.587 373.084 333.245 383.56 337.52 390.372C341.795 397.185 370.281 381.9 377.093 375.355C383.905 368.809 392.659 355.842 392.659 355.842C386.504 357.706 371.142 360.791 359.084 364.283Z" fill="#954F1B"/>
        <path d="M377.719 313.889C347.401 318.587 335.343 324.522 322.063 340.026C320.547 341.701 319.633 343.833 319.464 346.086C313.388 352.914 314.766 357.847 314.766 357.847C311.07 365.943 313.2 370.782 313.2 370.782C313.2 370.782 306.153 378.878 310.35 383.952C315.048 389.652 324.005 377.155 333.135 373.303C354.073 364.455 386.379 357.753 392.643 355.811L377.719 313.889Z" fill="#954F1B"/>
        <path d="M348.623 348.654C342.462 351.162 336.481 354.092 330.724 357.424C324.654 361.454 318.896 365.935 313.498 370.829C313.461 370.85 313.418 370.858 313.376 370.852C313.335 370.845 313.296 370.825 313.267 370.795C313.238 370.764 313.221 370.724 313.217 370.682C313.213 370.64 313.224 370.598 313.247 370.563C322.746 360.081 334.939 352.406 348.498 348.372C348.811 348.278 348.936 348.513 348.623 348.654Z" fill="#263238"/>
        <path d="M345.131 335.234C339.321 338.209 329.173 343.518 314.97 358.019C314.97 358.019 314.829 358.019 314.876 358.019C322.584 347.705 333.011 339.739 344.99 335.014C345.366 334.795 345.507 335.03 345.131 335.234Z" fill="#263238"/>
        <path d="M343.11 328.061C333.448 333.511 328.046 338.162 319.542 346.117C319.542 346.117 319.417 346.117 319.464 346.039C328.155 335.985 332.446 333.323 342.954 327.701C343.33 327.513 343.486 327.842 343.11 328.061Z" fill="#263238"/>
        <path d="M455.972 285.654L483.894 311.822C483.894 311.822 495.169 271.231 495.091 258.39C495.091 243.905 487.637 247.099 477.865 256.824C468.093 266.549 455.972 285.654 455.972 285.654Z" fill="#235EAC"/>
        <path opacity="0.1" d="M455.972 285.654L483.894 311.822C483.894 311.822 495.169 271.231 495.091 258.39C495.091 243.905 487.637 247.099 477.865 256.824C468.093 266.549 455.972 285.654 455.972 285.654Z" fill="black"/>
        <path d="M461.688 281.52C465.697 284.37 476.518 294.612 478.335 296.287C479.29 297.18 482.923 300.86 483.878 301.737C484.004 301.846 483.878 302.019 483.69 301.909C481.858 300.249 479.854 298.777 478.021 297.102C476.189 295.426 464.789 285.419 461.563 281.661C461.484 281.582 461.594 281.457 461.688 281.52Z" fill="#263238"/>
        <path d="M308.001 599.668C311.791 600.905 420.909 596.536 424.997 593.89C425.498 593.592 427.44 572.608 427.44 572.608L414.818 491.975L343.173 492.93L357.001 561.834C357.001 561.834 341.216 569.1 328.202 575.442C320.184 579.326 313.216 582.881 311.618 584.181C307.421 587.532 304.195 598.447 308.001 599.668Z" fill="#954F1B"/>
        <path d="M307.985 599.668C311.775 600.905 420.925 596.536 424.997 593.905C425.482 593.592 427.455 572.608 427.455 572.608L423.556 547.771L354.824 550.903L357.048 561.771C357.048 561.771 341.278 569.037 328.249 575.364C320.231 579.248 313.263 582.803 311.665 584.102C307.437 587.547 304.211 598.463 307.985 599.668Z" fill="#EBEBEB"/>
        <path d="M308.048 599.778C311.916 600.984 421.755 598.431 425.874 595.675C427.44 594.657 428.019 578.621 428.145 559.234V558.639L357.252 559.5V560.691C357.252 560.691 315.643 580.485 311.431 583.993C307.218 587.501 304.18 598.619 308.048 599.778Z" fill="#F58634"/>
        <path d="M314.312 600.091C338.35 600.342 422.366 598.087 425.874 595.691C427.44 594.673 428.019 578.637 428.145 559.25V558.655L383.748 559.187L314.312 600.091Z" fill="#A6A6A6"/>
        <path d="M309.192 595.519C327.702 594.626 402.431 592.794 420.785 593.326C420.941 593.326 420.941 593.436 420.785 593.451C402.462 594.72 327.733 595.941 309.207 595.816C308.816 595.816 308.8 595.534 309.192 595.519Z" fill="#263238"/>
        <path d="M351.363 561.066C358.614 559.5 367.556 560.44 373.287 565.514C373.507 565.702 373.287 566.015 372.99 565.937C365.974 563.855 358.755 562.532 351.457 561.99C351.345 561.985 351.239 561.939 351.157 561.862C351.076 561.784 351.025 561.68 351.014 561.569C351.002 561.457 351.032 561.345 351.096 561.253C351.16 561.161 351.255 561.095 351.363 561.066Z" fill="#263238"/>
        <path d="M346.18 564.355C353.431 562.789 362.373 563.744 368.104 568.803C368.324 568.99 368.104 569.304 367.807 569.241C360.775 567.167 353.54 565.854 346.227 565.326C346.099 565.332 345.973 565.287 345.877 565.2C345.782 565.114 345.725 564.993 345.718 564.864C345.712 564.735 345.757 564.609 345.844 564.514C345.931 564.418 346.052 564.361 346.18 564.355Z" fill="#263238"/>
        <path d="M340.997 567.644C348.247 566.078 357.189 567.033 362.921 572.091C363.14 572.295 362.921 572.592 362.623 572.53C355.608 570.444 348.389 569.116 341.091 568.568C340.979 568.562 340.872 568.516 340.791 568.439C340.71 568.362 340.659 568.258 340.647 568.146C340.636 568.034 340.665 567.922 340.729 567.83C340.793 567.738 340.888 567.672 340.997 567.644Z" fill="#263238"/>
        <path d="M350.988 551.404L430.963 547.771C430.963 547.771 403.323 435.536 406.268 431.887C409.4 427.972 525.19 456.943 548.335 428.223C572.044 398.798 560.158 356.437 560.158 356.437H481.185C481.185 356.437 482.751 367.039 481.686 372.097C481.686 372.097 370.5 355.09 346.321 367.9C341.623 370.422 324.397 384.578 324.115 397.999C322.596 457.272 350.988 551.404 350.988 551.404Z" fill="#455A64"/>
        <path d="M350.189 536.919C359.679 535.729 369.185 535.008 378.722 534.288C388.259 533.568 397.795 533.004 407.332 532.644C412.719 532.424 418.106 532.471 423.494 532.283C423.521 532.293 423.545 532.311 423.562 532.335C423.579 532.359 423.588 532.387 423.588 532.416C423.588 532.446 423.579 532.474 423.562 532.498C423.545 532.522 423.521 532.54 423.494 532.55C418.702 532.894 413.925 533.505 409.133 533.881L394.945 534.914C385.408 535.541 375.871 536.073 366.335 536.653C360.963 536.981 355.592 537.154 350.205 537.279C350.165 537.269 350.13 537.247 350.105 537.216C350.079 537.184 350.064 537.145 350.062 537.105C350.06 537.064 350.072 537.024 350.095 536.991C350.118 536.957 350.151 536.932 350.189 536.919Z" fill="#263238"/>
        <path d="M393.943 423.916C409.306 424.417 424.59 425.748 439.874 427.252C455.158 428.755 470.536 430.384 485.946 431.386C493.588 431.871 501.261 432.185 508.935 432.232C515.308 432.505 521.687 431.84 527.867 430.258C534.003 428.465 539.248 424.444 542.572 418.983C545.914 413.449 548.103 407.297 549.008 400.896C551.029 387.945 549.009 374.712 546.644 361.934C546.346 360.368 546.049 358.802 545.767 357.111C545.767 356.97 545.97 356.907 546.017 357.111C549.149 369.999 552.078 383.263 551.138 396.574C550.754 403.106 549.161 409.509 546.44 415.46C543.986 421.241 539.765 426.098 534.382 429.335C528.885 432.467 522.386 433.39 516.076 433.704C508.715 434.08 501.261 433.704 493.901 433.375C478.147 432.607 462.456 430.979 446.796 429.35C431.136 427.722 415.554 426.124 399.816 425.341C398.077 425.247 396.339 425.185 394.601 425.122C396.981 439.216 417.136 523.122 418.263 529.762C418.373 530.42 417.746 530.623 417.574 529.95C414.129 516.874 394.57 432.858 393.27 424.652C393.249 424.557 393.251 424.458 393.277 424.363C393.302 424.269 393.35 424.182 393.416 424.11C393.482 424.038 393.564 423.982 393.656 423.949C393.748 423.915 393.846 423.904 393.943 423.916Z" fill="#263238"/>
        <path d="M332.29 602.941H503.203V621.843H332.29V602.941Z" fill="#235EAC"/>
        <path d="M653.398 437.118H643.704L581.064 508.778H590.758L653.398 437.118Z" fill="#A6A6A6"/>
        <path d="M531.313 431.433H666.02V437.102H531.313V431.433Z" fill="#A6A6A6"/>
        <path d="M616.848 437.118H607.154L544.514 508.778H554.208L616.848 437.118Z" fill="#A6A6A6"/>
        <path d="M554.521 569.225C505.849 569.225 477.646 603.035 477.646 642.827C477.646 682.619 503.767 715.662 551.232 715.662C603.756 715.662 628.843 673.881 628.843 642.467C628.843 611.053 603.787 569.225 554.521 569.225Z" fill="#37474F"/>
        <path d="M562.006 569.225C515.731 569.225 488.936 603.035 488.936 642.827C488.936 682.619 513.757 715.662 558.905 715.662C608.845 715.662 632.664 673.818 632.664 642.405C632.664 610.991 608.845 569.225 562.006 569.225Z" fill="#263238"/>
        <path d="M561.537 597.805C533.349 597.805 517.015 618.413 517.015 642.655C517.015 666.897 532.143 687.02 559.642 687.02C590.085 687.02 604.617 661.557 604.617 642.405C604.617 623.252 590.085 597.805 561.537 597.805Z" fill="#F58634"/>
        <path d="M416.744 480.01V473.605L580.532 478.883V493.29C580.532 493.29 627.966 545.673 632.758 600.122L468.516 603.599L442.129 602.941H409.728V570.024C409.728 570.024 434.221 552.172 429.93 515.699C428.505 503.594 416.744 480.01 416.744 480.01Z" fill="#235EAC"/>
        <path d="M483.816 595.973C485.523 599.105 510.438 603.599 557.668 604.867C600.185 606.011 631.944 605.071 634.402 602.331C636.861 599.59 630.597 551.122 601.814 524.876C573.031 498.63 532.283 494.856 505.411 510.516C481.78 524.25 464.147 559.156 483.816 595.973Z" fill="#235EAC"/>
        <path opacity="0.1" d="M475.797 550.089C478.323 538.612 484.147 528.123 492.554 519.912C500.981 511.468 511.505 505.42 523.044 502.389C535.915 499.176 549.395 499.321 562.194 502.811C568.599 504.491 574.793 506.892 580.657 509.968C586.848 513.295 592.683 517.246 598.071 521.76C599.511 522.95 600.968 524.14 602.393 525.362C602.518 525.456 602.393 525.628 602.205 525.534C596.784 520.767 590.916 516.535 584.681 512.896C578.993 509.647 572.957 507.047 566.688 505.145C554.259 501.258 541.06 500.515 528.274 502.984C516.718 505.306 506.008 510.718 497.283 518.644C488.876 526.213 482.693 535.931 479.399 546.753C475.484 559.939 476.768 574.456 480.668 587.469C481.185 589.223 481.748 590.946 482.328 592.668C482.328 592.856 482.108 592.919 482.046 592.747C476.784 579.232 472.853 564.668 475.797 550.089Z" fill="black"/>
        <path d="M589.646 609.863C618.163 609.863 633.259 608.986 640.917 605.948L637.362 597.006C628.405 600.561 600.358 600.498 555.225 599.982C521.885 599.59 497.283 596.442 481.937 590.586L478.507 599.574C495.107 605.838 520.163 609.158 555.116 609.565C568.38 609.753 579.812 609.863 589.646 609.863Z" fill="#DBDBDB"/>
        <path d="M414.051 477.818C414.051 477.818 412.954 441.988 414.051 440.578C415.147 439.169 580.955 436.178 585.919 436.616C590.883 437.055 591.384 478.898 591.009 480.856C590.633 482.813 418.373 478.194 414.051 477.818Z" fill="#37474F"/>
        <path d="M398.516 441.299C399.001 440.735 420.017 440.14 421.176 440.109C422.335 440.077 422.742 478.272 422.116 478.241C421.489 478.209 399.283 478.523 398.547 477.708C397.811 476.894 397.467 442.52 398.516 441.299Z" fill="#455A64"/>
        <path d="M514.65 436.648C515.244 437.267 515.633 438.055 515.762 438.903C515.959 439.796 516.1 440.701 516.185 441.612C516.389 443.429 516.498 445.276 516.592 447.109C516.749 450.804 516.843 454.516 516.905 458.243C516.968 461.97 517.062 465.666 516.905 469.346C516.892 471.168 516.766 472.988 516.53 474.796C516.435 475.669 516.23 476.527 515.919 477.348C515.804 477.717 515.602 478.052 515.329 478.324C515.056 478.597 514.721 478.8 514.353 478.914C514.766 478.902 515.167 478.772 515.509 478.539C515.85 478.305 516.117 477.979 516.279 477.599C516.717 476.78 517.059 475.913 517.297 475.015C517.74 473.179 518.028 471.309 518.158 469.424C518.447 465.673 518.541 461.91 518.44 458.149C518.346 454.406 518.19 450.648 517.767 446.905C517.563 445.033 517.265 443.172 516.874 441.33C516.655 440.419 516.389 439.52 516.075 438.637C515.825 437.869 515.386 436.914 514.65 436.648Z" fill="#455A64"/>
        <path d="M659.787 431.355H503.203V334.012H659.787V431.355Z" fill="#37474F"/>
        <path d="M659.787 431.355H546.659V334.012H659.787V431.355Z" fill="#1190CF"/>
        <path d="M597.132 333.997H609.3V431.339H597.132V333.997Z" fill="#235EAC"/>
        <path d="M546.644 324.992H662.966V333.996H546.644V324.992Z" fill="#37474F"/>
        <path d="M499.695 324.992H546.659V333.996H499.695V324.992Z" fill="#263238"/>
        <path d="M596.113 324.992H610.333V333.996H596.113V324.992Z" fill="#235EAC"/>
        <path d="M643.203 325.399H528.901V254.334H643.203V325.399Z" fill="#37474F"/>
        <path d="M643.203 325.399H560.628V254.334H643.203V325.399Z" fill="#1190CF"/>
        <path d="M597.476 254.35H606.355V325.415H597.476V254.35Z" fill="#235EAC"/>
        <path d="M560.628 247.773H645.536V254.35H560.628V247.773Z" fill="#37474F"/>
        <path d="M526.348 247.773H560.628V254.35H526.348V247.773Z" fill="#263238"/>
        <path d="M596.724 247.773H607.107V254.35H596.724V247.773Z" fill="#235EAC"/>
        <path d="M197.034 568.63C148.347 568.63 120.159 602.44 120.159 642.232C120.159 682.024 146.28 715.02 193.761 715.02C246.301 715.02 271.388 673.239 271.388 641.841C271.388 610.442 246.301 568.63 197.034 568.63Z" fill="#37474F"/>
        <path d="M204.52 568.63C158.244 568.63 131.434 602.44 131.434 642.232C131.434 682.024 156.271 715.02 201.403 715.02C251.343 715.02 275.193 673.239 275.193 641.841C275.193 610.442 251.343 568.63 204.52 568.63Z" fill="#263238"/>
        <path d="M204.05 597.21C175.862 597.21 159.513 617.818 159.513 642.06C159.513 666.302 174.64 686.425 202.155 686.425C232.582 686.425 247.115 660.962 247.115 641.825C247.115 622.689 232.582 597.21 204.05 597.21Z" fill="#F58634"/>
        <path d="M275.788 402.399H294.94L308.063 383.138H285.623L275.788 402.399Z" fill="#235EAC"/>
        <path d="M308.063 383.138L300.374 394.413L294.94 402.399H275.788L280.972 392.252L285.638 383.138H308.063Z" fill="#235EAC"/>
        <path opacity="0.1" d="M308.063 383.138L300.374 394.413L280.972 392.252L285.638 383.138H308.063Z" fill="black"/>
        <path d="M229.247 546.143L247.898 550.433L264.999 534.585L243.137 529.574L229.247 546.143Z" fill="#235EAC"/>
        <path d="M264.999 534.585L254.992 543.872L247.913 550.433L229.231 546.143L236.56 537.42L243.137 529.574L264.999 534.585Z" fill="#235EAC"/>
        <path opacity="0.1" d="M264.999 534.585L254.992 543.872L236.56 537.42L243.137 529.574L264.999 534.585Z" fill="black"/>
        <path d="M124.388 578.026L142.506 587.548C142.506 587.548 194.983 578.026 228.636 585.23C262.29 592.433 271.372 610.411 271.372 610.411H288.379C288.379 610.411 273.784 558.561 249.026 539.738C224.267 520.914 184.475 525.127 162.473 536.981C140.47 548.836 124.388 578.026 124.388 578.026Z" fill="#235EAC"/>
        <path opacity="0.1" d="M144.417 583.961C147.927 580.297 151.729 576.924 155.786 573.876C159.806 570.752 164.057 567.935 168.502 565.451C177.118 560.663 186.568 557.56 196.345 556.306C215.482 553.957 235.495 559.532 249.589 574.237C257.513 582.568 263.151 592.794 268.507 603.114C268.585 603.27 268.366 603.395 268.287 603.239C263.75 594.165 258.02 585.738 251.249 578.183C244.726 571.06 236.606 565.586 227.556 562.21C209.5 555.586 189.972 558.122 172.62 566.125C167.652 568.377 162.857 570.994 158.276 573.955C153.591 577.11 149.069 580.502 144.73 584.118C144.702 584.143 144.667 584.16 144.629 584.165C144.592 584.17 144.554 584.164 144.52 584.147C144.486 584.13 144.458 584.103 144.44 584.07C144.421 584.037 144.413 583.999 144.417 583.961Z" fill="black"/>
        <path d="M343.534 392.032C343.815 392.69 381.634 399.643 381.634 399.643C381.634 399.643 387.898 395.415 384.03 390.059L346.086 381.869C344.628 383.066 343.592 384.7 343.132 386.529C342.673 388.359 342.813 390.289 343.534 392.032Z" fill="#263238"/>
        <path d="M264.153 343.142V388.008C264.153 388.008 288.379 385.894 294.831 385.675C301.283 385.455 329.956 389.167 329.956 389.167L332.18 379.113C332.18 379.113 310.068 371.393 300.672 365.363C291.276 359.334 280.455 347.809 274.645 345.256C271.357 343.753 267.767 343.03 264.153 343.142Z" fill="#235EAC"/>
        <path d="M329.862 377.844C328.422 379.326 327.336 381.114 326.685 383.075C326.034 385.035 325.835 387.118 326.104 389.167C326.104 389.167 344.16 392.471 344.379 392.471C344.229 390.347 344.744 388.228 345.853 386.41C346.961 384.592 348.608 383.163 350.565 382.323L329.862 377.844Z" fill="#DBDBDB"/>
        <path d="M263.918 388.008C257.362 388.008 252.048 377.968 252.048 365.583C252.048 353.198 257.362 343.158 263.918 343.158C270.474 343.158 275.788 353.198 275.788 365.583C275.788 377.968 270.474 388.008 263.918 388.008Z" fill="#DBDBDB"/>
        <path d="M263.182 385.596C257.569 385.596 253.019 376.636 253.019 365.583C253.019 354.529 257.569 345.569 263.182 345.569C268.795 345.569 273.345 354.529 273.345 365.583C273.345 376.636 268.795 385.596 263.182 385.596Z" fill="white"/>
        <path d="M262.509 384.953C277.136 382.697 278.51 350.683 262.509 345.411L15 260V473L262.509 384.953Z" fill="url(#paint0_linear_123_610)"/>
        <path d="M260.097 402.462C256.151 408.241 240.35 486.822 237.249 490.769C234.148 494.715 228.213 494.997 228.213 494.997L217.768 520.961C217.768 520.961 243.717 529.151 258.124 540.99C276.743 556.29 293.954 607.013 293.954 607.013C296.773 608.986 331.757 623.378 341.357 623.941C341.357 623.941 296.741 574.957 293.108 507.165C291.699 480.903 307.86 443.914 308.909 425.592C310.068 405.923 304.117 402.462 293.672 402.462H260.097Z" fill="#235EAC"/>
        <path d="M343.502 629.532L350.487 622.923C311.337 581.487 296.898 516.201 298.041 498.38C298.637 489.25 301.565 479.039 304.681 468.218C308.001 456.677 311.76 443.601 313.357 429.397C314.845 416.212 313.357 407.692 308.863 402.603C304.368 397.513 298.198 397.529 294.095 397.545H256.824V407.16H294.111C297.697 407.16 300.14 407.285 301.69 409.024C303.241 410.762 305.261 415.288 303.789 428.332C302.223 441.722 298.793 453.842 295.426 465.556C292.169 476.894 289.162 487.59 288.442 497.753C287.22 516.78 302.238 586.044 343.502 629.532Z" fill="#DBDBDB"/>
        <path d="M237.061 512.207C234.869 520.288 227.963 525.424 221.636 523.702C215.309 521.979 211.943 514.039 214.151 505.975C216.359 497.91 223.265 492.742 229.591 494.464C235.918 496.187 239.269 504.142 237.061 512.207Z" fill="#DBDBDB"/>
        <path d="M234.712 511.565C232.755 518.769 226.772 523.404 221.354 521.932C215.936 520.46 213.148 513.429 215.09 506.272C217.032 499.116 223.03 494.433 228.432 495.905C233.835 497.377 236.67 504.362 234.712 511.565Z" fill="white"/>
        <path opacity="0.1" d="M264.764 510.907C266.502 502.78 268.381 494.684 270.01 486.541C271.639 478.397 273.142 470.238 274.41 462.048C275.648 454.422 276.979 446.717 277.464 438.997C277.95 430.932 277.464 422.789 273.549 415.507C273.541 415.492 273.536 415.476 273.533 415.46C273.531 415.444 273.533 415.427 273.537 415.411C273.541 415.395 273.549 415.38 273.559 415.367C273.569 415.354 273.582 415.343 273.596 415.335C273.61 415.326 273.626 415.321 273.643 415.319C273.659 415.317 273.676 415.318 273.692 415.322C273.708 415.327 273.723 415.334 273.736 415.344C273.749 415.354 273.76 415.367 273.768 415.381C277.793 421.254 279.108 428.317 279.328 435.317C279.307 443.034 278.626 450.736 277.292 458.337C275.007 475.028 271.871 491.592 267.896 507.963C265.625 517.218 262.697 526.317 259.565 535.306C259.565 535.335 259.553 535.363 259.533 535.383C259.512 535.404 259.484 535.415 259.455 535.415C259.426 535.415 259.398 535.404 259.378 535.383C259.357 535.363 259.345 535.335 259.345 535.306C261.214 527.131 263.02 518.998 264.764 510.907Z" fill="black"/>
        <path opacity="0.1" d="M409.728 570.024V602.91H437.791V578.011C437.791 578.011 453.451 570.102 456.583 541.335C459.402 515.277 438.605 480.496 434.659 474.185L416.791 473.605V480.01C416.791 480.01 428.552 503.594 429.977 515.699C434.221 552.172 409.728 570.024 409.728 570.024Z" fill="black"/>
        <path d="M339.149 610.599C342.939 611.821 452.073 607.467 456.16 604.821C456.646 604.523 458.588 583.523 458.588 583.523L445.966 502.89L374.321 503.845L388.149 572.749C388.149 572.749 372.379 579.999 359.35 586.342C351.332 590.241 344.364 593.796 342.766 595.08C338.585 598.463 335.359 609.378 339.149 610.599Z" fill="#954F1B"/>
        <path d="M339.133 610.599C342.938 611.821 452.073 607.467 456.145 604.821C456.646 604.523 458.603 583.539 458.603 583.539L454.704 558.686L385.972 561.818L388.149 572.655C388.149 572.655 372.379 579.921 359.35 586.248C351.348 590.147 344.364 593.702 342.766 594.986C338.585 598.478 335.359 609.378 339.133 610.599Z" fill="#EBEBEB"/>
        <path d="M339.211 610.74C343.064 611.946 452.919 609.378 457.037 606.621C458.603 605.604 459.167 589.583 459.292 570.196V569.586L388.415 570.447V571.653C388.415 571.653 346.806 591.431 342.594 594.939C338.381 598.447 335.343 609.534 339.211 610.74Z" fill="#F58634"/>
        <path d="M340.354 606.433C358.849 605.557 433.578 603.724 451.932 604.257C452.088 604.257 452.088 604.366 451.932 604.366C433.61 605.65 358.88 606.872 340.354 606.747C339.963 606.731 339.963 606.449 340.354 606.433Z" fill="#263238"/>
        <path d="M382.511 571.981C389.762 570.415 398.704 571.371 404.435 576.429C404.67 576.632 404.435 576.93 404.138 576.867C397.123 574.78 389.904 573.452 382.605 572.905C382.493 572.9 382.387 572.854 382.306 572.777C382.224 572.699 382.173 572.595 382.162 572.484C382.151 572.372 382.18 572.26 382.244 572.168C382.308 572.076 382.403 572.01 382.511 571.981Z" fill="#263238"/>
        <path d="M377.328 575.286C384.578 573.72 393.52 574.659 399.252 579.718C399.471 579.921 399.252 580.234 398.954 580.156C391.934 578.068 384.71 576.74 377.406 576.194C377.346 576.199 377.286 576.192 377.229 576.174C377.172 576.156 377.119 576.127 377.073 576.089C377.028 576.05 376.99 576.003 376.962 575.95C376.935 575.897 376.918 575.839 376.913 575.779C376.908 575.719 376.914 575.659 376.932 575.602C376.95 575.545 376.979 575.492 377.018 575.446C377.057 575.401 377.104 575.363 377.157 575.335C377.21 575.308 377.268 575.291 377.328 575.286Z" fill="#263238"/>
        <path d="M372.144 578.574C379.395 577.008 388.336 577.948 394.068 583.022C394.287 583.21 394.068 583.523 393.77 583.445C386.753 581.371 379.535 580.048 372.238 579.498C372.126 579.493 372.02 579.447 371.938 579.37C371.857 579.292 371.806 579.188 371.795 579.077C371.783 578.965 371.812 578.853 371.876 578.761C371.94 578.669 372.035 578.603 372.144 578.574Z" fill="#263238"/>
        <path d="M382.104 562.335L462.08 558.686C462.08 558.686 434.424 446.451 437.368 442.802C440.5 438.871 545.954 467.858 569.116 439.138C592.825 409.713 569.116 360.462 569.116 360.462H488.044C488.044 360.462 488.044 369.482 493.556 382.981C493.556 382.981 401.632 365.959 377.406 378.768C372.63 381.305 355.482 395.462 355.2 408.883C353.791 468.234 382.104 562.335 382.104 562.335Z" fill="#455A64"/>
        <path d="M381.337 547.849C390.827 546.659 400.348 545.923 409.885 545.219C419.422 544.514 428.943 543.934 438.496 543.559C443.867 543.355 449.254 543.402 454.641 543.198C454.679 543.198 454.715 543.213 454.741 543.24C454.767 543.266 454.782 543.302 454.782 543.339C454.782 543.377 454.767 543.413 454.741 543.439C454.715 543.465 454.679 543.48 454.641 543.48C449.849 543.825 445.073 544.42 440.281 544.796C435.489 545.172 430.885 545.516 426.093 545.829C416.572 546.471 407.035 546.988 397.498 547.583C392.111 547.912 386.74 548.084 381.352 548.21C381.313 548.2 381.278 548.178 381.252 548.146C381.227 548.115 381.212 548.076 381.21 548.035C381.208 547.995 381.22 547.955 381.242 547.921C381.265 547.888 381.298 547.863 381.337 547.849Z" fill="#263238"/>
        <path d="M535.212 367.243C535.318 367.573 535.454 367.893 535.619 368.198C535.637 368.22 535.646 368.248 535.646 368.276C535.646 368.305 535.637 368.332 535.619 368.355C536.559 371.283 536.95 374.384 537.858 377.328C538.721 380.453 540.635 383.185 543.277 385.064C548.82 388.916 555.476 390.654 561.928 392.252C561.967 392.263 562.001 392.287 562.025 392.319C562.049 392.352 562.062 392.391 562.062 392.432C562.062 392.472 562.049 392.512 562.025 392.544C562.001 392.577 561.967 392.6 561.928 392.612C558.208 392.633 554.509 392.067 550.966 390.936C547.636 390.015 544.497 388.509 541.695 386.489C539.063 384.497 537.185 381.67 536.371 378.471C535.977 376.77 535.668 375.05 535.447 373.319C535.084 371.328 534.87 369.312 534.805 367.29C534.828 367.259 534.857 367.233 534.89 367.214C534.923 367.195 534.96 367.183 534.998 367.178C535.036 367.174 535.075 367.177 535.112 367.188C535.148 367.2 535.182 367.218 535.212 367.243Z" fill="#263238"/>
        <path d="M480.512 378.972C484.921 380.244 489.217 381.884 493.353 383.874L493.556 383.968C493.472 383.712 493.409 383.45 493.369 383.185C493.369 382.871 493.275 382.574 493.212 382.261C493.149 381.947 493.212 381.618 493.118 381.29V380.789C492.585 380.754 492.065 380.61 491.591 380.364C491.116 380.119 490.698 379.778 490.362 379.363C489.497 378.162 488.913 376.781 488.655 375.323C488.169 373.507 487.715 371.659 487.324 369.811C486.932 367.963 486.509 365.692 486.181 363.547C485.783 361.517 485.547 359.459 485.476 357.392C485.476 357.318 485.506 357.246 485.558 357.193C485.611 357.14 485.683 357.111 485.758 357.111C485.833 357.111 485.904 357.14 485.957 357.193C486.01 357.246 486.04 357.318 486.04 357.392C486.525 359.287 486.744 361.245 487.105 363.155C487.465 365.066 487.872 366.992 488.31 368.903C488.749 370.813 489.219 372.724 489.751 374.603C490.284 376.482 490.691 378.721 492.633 379.301C496.641 380.444 494.841 371.471 494.668 369.686C494.261 365.614 494.011 361.448 493.29 357.408C493.29 357.252 493.525 357.173 493.556 357.408C494.433 361.12 495.42 364.768 496.078 368.527C496.407 370.375 496.641 372.238 496.845 374.086C497.17 375.687 497.04 377.347 496.469 378.878C496.221 379.395 495.85 379.844 495.389 380.185C494.927 380.526 494.39 380.749 493.823 380.836L493.948 381.258C494.042 381.556 494.136 381.853 494.214 382.151C494.292 382.448 494.355 382.762 494.418 383.059C494.556 383.413 494.604 383.795 494.559 384.171C494.524 384.277 494.451 384.366 494.355 384.422C496.062 385.158 497.785 385.894 499.476 386.692C501.602 387.528 503.66 388.528 505.63 389.683C505.865 389.793 505.63 390.106 505.458 390.059C503.253 389.44 501.097 388.661 499.006 387.726C496.861 386.912 494.747 386.035 492.617 385.142C488.398 383.593 484.317 381.691 480.418 379.457C480.353 379.445 480.297 379.407 480.26 379.353C480.223 379.299 480.209 379.232 480.222 379.168C480.234 379.103 480.272 379.047 480.326 379.01C480.381 378.973 480.447 378.96 480.512 378.972Z" fill="#263238"/>
        <path d="M357.581 398.688C360.355 390.533 365.968 383.646 373.397 379.285C381.024 375.073 389.919 373.945 398.453 373.679C408.382 373.381 418.373 373.898 428.286 374.525C438.84 375.182 449.395 376.185 459.888 377.657C470.38 379.129 480.684 380.929 491.004 383.153C493.478 383.686 495.937 384.343 498.395 385.032C498.583 385.032 498.552 385.44 498.395 385.408C488.138 383.968 477.928 382.276 467.671 380.867C457.413 379.457 447.046 378.346 436.679 377.563C426.312 376.78 416.055 376.341 405.735 376.185C397.279 376.059 388.509 376.185 380.476 378.909C376.503 380.179 372.824 382.228 369.655 384.938C366.541 387.722 363.99 391.076 362.138 394.82C357.91 403.135 357.518 412.672 357.095 421.88C355.874 449.207 375.527 536.042 379.019 549.995C379.028 550.116 378.994 550.237 378.923 550.335C378.852 550.434 378.749 550.504 378.631 550.534C378.513 550.564 378.389 550.551 378.279 550.499C378.17 550.446 378.083 550.356 378.033 550.245C374.102 534.491 354.543 452.464 354.543 427.816C354.527 417.981 354.167 407.959 357.581 398.688Z" fill="#263238"/>
        <path d="M425.623 433.343C439.952 433.845 454.203 435.176 468.453 436.679C482.704 438.182 497.064 439.811 511.409 440.813C518.55 441.299 525.706 441.612 532.863 441.659C538.813 441.938 544.77 441.272 550.512 439.686C556.343 437.802 561.245 433.778 564.23 428.426C567.363 422.817 569.399 416.663 570.228 410.292C572.107 397.341 570.228 384.108 568.02 371.33C567.738 369.764 567.471 368.198 567.19 366.522C567.19 366.366 567.393 366.303 567.425 366.522C570.416 379.41 573.093 392.674 572.123 405.985C571.767 412.491 570.289 418.886 567.753 424.887C565.543 430.567 561.612 435.413 556.509 438.746C551.255 441.557 545.399 443.056 539.44 443.115C532.544 443.374 525.638 443.264 518.753 442.786C504.064 442.019 489.438 440.39 474.827 438.762C460.216 437.133 445.699 435.536 431.073 434.753C429.507 434.675 427.831 434.596 426.218 434.549C428.426 448.565 447.218 532.534 448.268 539.174C448.377 539.831 447.782 540.035 447.626 539.377C444.493 526.286 426.171 442.285 424.965 434.064C424.945 433.97 424.946 433.873 424.971 433.781C424.996 433.688 425.042 433.603 425.107 433.532C425.171 433.462 425.252 433.408 425.342 433.375C425.432 433.342 425.528 433.331 425.623 433.343Z" fill="#263238"/>
        <path d="M573.767 370.469C573.548 370.782 466.418 379.019 465.29 378.017C463.724 376.592 474.326 266.831 483.894 250.732C485.946 247.303 493.791 245.502 500.666 245.564C502.456 245.556 504.243 245.708 506.006 246.019H506.178C507.601 246.261 508.973 246.742 510.234 247.444C530.811 260.285 552.767 310.992 558.295 326.339C567.456 351.645 574.566 369.341 573.767 370.469Z" fill="#235EAC"/>
        <path d="M488.827 264.732C494.151 264.732 503.14 256.135 504.926 248.07C505.051 247.506 502.843 242.699 500.462 236.717C499.022 233.068 497.503 228.996 496.391 225.175C496.172 224.376 474.107 237.969 474.107 237.969C476.863 242.355 479.072 247.062 480.684 251.985C480.829 252.497 480.929 253.021 480.981 253.551C480.975 253.64 480.975 253.729 480.981 253.817C481.404 256.996 483.143 264.811 488.827 264.732Z" fill="#954F1B"/>
        <path d="M480.981 253.598C480.975 253.687 480.975 253.776 480.981 253.864C481.826 253.741 482.659 253.547 483.471 253.285C497.565 248.869 496.093 230.108 495.498 225.426C491.411 227.274 474.06 237.954 474.06 237.954C476.814 242.343 479.027 247.049 480.653 251.969C480.805 252.503 480.915 253.047 480.981 253.598Z" fill="#263238"/>
        <path d="M494.433 195.828C498.302 204.253 497.111 230.28 491.646 236.732C483.706 246.128 468.986 248.963 460.545 239.034C452.371 229.403 454.516 195.562 460.78 189.47C470.035 180.513 488.702 183.41 494.433 195.828Z" fill="#954F1B"/>
        <path d="M471.758 214.37C471.758 214.37 471.883 214.464 471.883 214.542C471.758 216.28 471.883 218.316 473.449 218.958C473.449 218.958 473.449 219.068 473.449 219.052C471.523 218.708 471.366 216.014 471.758 214.37Z" fill="#263238"/>
        <path d="M473.402 212.616C476.221 212.506 476.205 218.175 473.59 218.269C470.975 218.363 471.022 212.694 473.402 212.616Z" fill="#263238"/>
        <path d="M461.61 214.652C461.61 214.652 461.469 214.73 461.484 214.808C461.484 216.546 461.297 218.567 459.715 219.146C459.715 219.146 459.715 219.256 459.715 219.24C461.657 218.974 461.97 216.296 461.61 214.652Z" fill="#263238"/>
        <path d="M460.044 212.819C457.241 212.6 457.006 218.253 459.621 218.441C462.236 218.629 462.409 212.976 460.044 212.819Z" fill="#263238"/>
        <path d="M475.626 210.032C474.886 209.811 474.16 209.549 473.449 209.249C472.639 209.093 471.905 208.668 471.366 208.043C471.233 207.814 471.179 207.546 471.213 207.283C471.247 207.02 471.367 206.775 471.554 206.587C471.981 206.275 472.483 206.082 473.009 206.03C473.535 205.978 474.066 206.067 474.545 206.289C475.589 206.583 476.484 207.259 477.051 208.184C477.165 208.402 477.214 208.647 477.193 208.892C477.172 209.137 477.081 209.37 476.931 209.565C476.781 209.759 476.578 209.907 476.347 209.989C476.115 210.072 475.865 210.087 475.626 210.032Z" fill="#263238"/>
        <path d="M457.867 209.954C458.63 209.807 459.383 209.613 460.122 209.374C460.942 209.292 461.71 208.933 462.299 208.356C462.458 208.147 462.543 207.891 462.543 207.628C462.543 207.365 462.458 207.109 462.299 206.9C461.901 206.55 461.417 206.312 460.896 206.213C460.375 206.114 459.838 206.157 459.339 206.336C458.275 206.537 457.325 207.129 456.677 207.996C456.545 208.197 456.473 208.43 456.469 208.67C456.465 208.91 456.529 209.146 456.654 209.351C456.778 209.556 456.958 209.721 457.173 209.828C457.388 209.934 457.628 209.978 457.867 209.954Z" fill="#263238"/>
        <path d="M473.355 230.64C472.932 231.048 472.509 231.611 471.789 231.674C471.138 231.655 470.498 231.5 469.909 231.22C469.909 231.22 469.8 231.22 469.831 231.314C470.081 231.659 470.42 231.929 470.812 232.098C471.203 232.266 471.633 232.325 472.055 232.269C472.416 232.177 472.74 231.979 472.986 231.699C473.232 231.42 473.388 231.073 473.433 230.703C473.543 230.625 473.417 230.578 473.355 230.64Z" fill="#263238"/>
        <path d="M471.523 225.394C471.076 226.087 470.491 226.681 469.803 227.136C469.116 227.592 468.342 227.9 467.529 228.041C466.822 228.174 466.1 228.206 465.384 228.135C465.249 228.151 465.112 228.151 464.977 228.135H464.585C464.494 228.115 464.411 228.066 464.349 227.996C464.287 227.925 464.249 227.837 464.241 227.743C464.233 227.686 464.233 227.628 464.241 227.571V227.415C464.241 226.068 464.35 224.016 464.35 224.016C463.849 224.267 461.328 225.394 461.375 224.69C461.541 218.607 462.328 212.557 463.724 206.634C463.724 206.592 463.741 206.552 463.77 206.523C463.799 206.494 463.839 206.477 463.881 206.477C463.922 206.477 463.962 206.494 463.991 206.523C464.021 206.552 464.037 206.592 464.037 206.634C463.912 212.256 462.816 217.815 462.597 223.453C463.492 223.041 464.441 222.756 465.415 222.607C465.603 222.607 465.086 226.569 465.149 227.18C466.253 227.289 467.368 227.176 468.427 226.848C469.487 226.52 470.47 225.983 471.319 225.269C471.476 225.144 471.617 225.253 471.523 225.394Z" fill="#263238"/>
        <path d="M466.182 227.446C466.919 228.416 467.896 229.178 469.017 229.654C469.631 229.892 470.303 229.936 470.943 229.779C472.337 229.419 472.384 228.213 472.133 227.023C471.984 226.444 471.774 225.882 471.507 225.347C470.002 226.598 468.136 227.334 466.182 227.446Z" fill="#263238"/>
        <path d="M469.017 229.654C469.631 229.892 470.303 229.936 470.943 229.779C472.337 229.419 472.384 228.213 472.133 227.023C471.394 227.047 470.684 227.32 470.118 227.797C469.553 228.274 469.165 228.929 469.017 229.654Z" fill="#FF9BBC"/>
        <path d="M457.037 198.068C457.992 195.844 459.104 193.605 460.451 193.15C461.798 192.696 462.659 195.985 465.713 196.188C469.816 196.47 471.805 192.696 477.552 192.289C485.82 191.725 489.453 198.553 489.641 210.329C489.814 220.79 496.14 221.777 496.14 221.777C496.14 221.777 499.977 198.71 493.478 191.068C486.979 183.426 472.055 180.106 462.033 187.341C458.384 189.987 457.037 198.068 457.037 198.068Z" fill="#263238"/>
        <path d="M490.863 217.674C490.863 217.674 495.671 208.795 499.633 210.408C503.595 212.021 500.65 224.502 496.501 226.585C495.981 226.897 495.403 227.101 494.802 227.184C494.201 227.267 493.589 227.228 493.004 227.068C492.419 226.909 491.872 226.633 491.396 226.256C490.921 225.88 490.526 225.411 490.237 224.878L490.863 217.674Z" fill="#954F1B"/>
        <path d="M498.693 213.931V214.041C495.764 215.607 494.48 218.739 493.681 221.761C493.824 221.433 494.037 221.14 494.304 220.902C494.571 220.664 494.887 220.486 495.229 220.382C495.572 220.278 495.933 220.249 496.287 220.298C496.642 220.347 496.982 220.472 497.283 220.665C497.377 220.665 497.283 220.853 497.283 220.837C496.723 220.73 496.143 220.797 495.623 221.029C495.102 221.262 494.665 221.648 494.37 222.137C493.896 222.967 493.508 223.843 493.212 224.752C493.102 225.034 492.585 224.956 492.664 224.627V224.549C492.131 220.634 494.543 214.808 498.693 213.931Z" fill="#263238"/>
        <path d="M458.024 191.193C460.451 190.614 473.903 191.021 479.948 193.62C485.993 196.22 496.735 204.911 497.283 205.365C497.832 205.819 500.603 183.645 482.61 179.605C463.019 175.188 458.024 191.193 458.024 191.193Z" fill="#235EAC"/>
        <path d="M496.25 204.457C496.25 204.457 484.364 188.797 477.756 185.195C471.147 181.593 456.348 179.589 447.187 183.629C440.062 186.761 457.476 195.938 457.476 195.938C457.641 195.187 457.978 194.484 458.462 193.886C458.946 193.288 459.563 192.811 460.263 192.493C464.711 190.723 473.167 192.086 477.99 193.699C484.067 195.75 496.25 204.457 496.25 204.457Z" fill="#235EAC"/>
        <path opacity="0.2" d="M496.25 204.535C496.25 204.535 484.364 188.781 477.756 185.195C471.147 181.609 456.348 179.589 447.187 183.629C440.062 186.761 457.476 195.938 457.476 195.938C457.641 195.187 457.978 194.484 458.462 193.886C458.946 193.288 459.563 192.811 460.263 192.493C464.711 190.723 473.167 192.086 477.99 193.699C484.067 195.75 496.25 204.535 496.25 204.535Z" fill="black"/>
        <path d="M517.015 276.728C518.017 307.609 506.617 365.442 498.223 369.372C471.131 382.026 425.545 382.824 409.932 382.965C403.198 382.965 392.862 335.077 399.534 332.384C403.965 330.598 470.802 330.583 471.977 328.202C473.151 325.822 489.077 291.433 495.952 272.39C505.082 247.068 516.435 258.594 517.015 276.728Z" fill="#954F1B"/>
        <path d="M406.706 331.741C406.706 331.741 386.238 332.994 372.912 334.435C365.458 335.234 352.82 337.755 347.637 340.84C339.807 345.538 310.303 369.78 316.035 377.077C321.234 383.67 343.972 359.569 343.972 359.569C343.972 359.569 318.916 381.853 326.589 388.666C334.263 395.478 356.343 364.8 356.343 364.8C356.343 364.8 331.068 388.29 340.135 394.053C346.979 398.39 368.543 371.753 368.543 371.753C368.543 371.753 346.947 392.111 353.807 396.809C361.386 402.086 382.825 378.737 382.825 378.737C402.29 387.945 415.319 384.359 424.292 380.71C426.5 379.896 406.706 331.741 406.706 331.741Z" fill="#954F1B"/>
        <path d="M352.162 351.301C349.124 353.806 346.024 356.328 343.22 359.131C340.417 361.934 337.692 364.784 335.155 367.806C331.761 371.694 328.819 375.955 326.386 380.507C331.287 372.677 341.185 362.654 344.003 359.882C346.822 357.111 349.469 354.198 352.272 351.426C352.35 351.332 352.241 351.238 352.162 351.301Z" fill="#263238"/>
        <path d="M362.357 361.261C358.614 364.627 354.777 367.853 351.175 371.393C347.574 374.932 344.504 378.581 341.169 382.355C340.918 382.636 341.169 382.683 341.435 382.355C344.911 378.737 348.403 375.652 351.911 372.066C355.419 368.48 358.817 364.753 362.451 361.308C362.513 361.292 362.419 361.214 362.357 361.261Z" fill="#263238"/>
        <path d="M372.708 368.229C366.835 373.267 361.498 378.898 356.782 385.032C356.547 385.33 356.86 385.361 357.126 385.032C362.31 379.348 366.334 374.853 372.88 368.417C372.927 368.339 372.708 368.135 372.708 368.229Z" fill="#263238"/>
        <path d="M350.22 338.366C355.086 336.287 360.249 334.992 365.52 334.529C376.889 333.135 388.321 332.227 399.753 331.397C411.184 330.567 422.788 329.831 434.314 329.408C440.797 329.158 447.281 328.964 453.764 328.829C460.247 328.703 461.594 328.938 468.109 329.017C468.281 329.017 468.265 329.252 468.109 329.267C456.755 329.862 450.491 330.332 439.138 330.927C427.784 331.522 416.462 332.196 405.14 332.979C393.818 333.762 382.683 334.545 371.502 335.797C366.094 336.164 360.731 337.029 355.482 338.381C350.34 340.27 345.569 343.048 341.388 346.587C336.596 350.361 318.634 367.634 316.99 369.874C316.786 370.14 316.708 370.062 316.817 369.717C318.117 365.035 339.712 343.267 350.22 338.366Z" fill="#263238"/>
        <path d="M484.677 296.663L517.986 315.549C517.986 315.549 519.395 273.455 516.31 260.958C512.833 246.864 506.413 251.75 499.178 263.464C491.943 275.178 484.677 296.663 484.677 296.663Z" fill="#235EAC"/>
        <path opacity="0.1" d="M484.677 296.663L517.986 315.549C517.986 315.549 519.395 273.455 516.31 260.958C512.833 246.864 506.413 251.75 499.178 263.464C491.943 275.178 484.677 296.663 484.677 296.663Z" fill="black"/>
        <path d="M489.266 291.276C493.823 293.108 506.758 300.531 508.903 301.737C510.031 302.363 514.447 305.104 515.574 305.73C515.715 305.808 515.574 306.012 515.433 305.934C513.257 304.744 510.97 303.773 508.778 302.598C506.586 301.424 493.118 294.345 489.172 291.433C489.157 291.418 489.147 291.398 489.144 291.377C489.142 291.357 489.146 291.335 489.157 291.317C489.168 291.299 489.185 291.285 489.204 291.278C489.224 291.27 489.246 291.27 489.266 291.276Z" fill="#263238"/>
        <path d="M489.923 281.081C490.44 279.124 490.972 277.182 491.567 275.24C491.238 276.681 490.863 278.122 490.487 279.562C491.693 276.837 492.93 274.144 494.276 271.529H494.355C492.898 275.773 491.223 279.938 489.657 284.151C488.091 288.363 486.525 292.388 484.959 296.506C485.663 297.055 486.352 297.587 487.073 298.072C487.102 298.091 487.122 298.121 487.13 298.154C487.137 298.188 487.131 298.223 487.112 298.253C487.093 298.282 487.064 298.302 487.03 298.309C486.996 298.317 486.961 298.31 486.932 298.292C486.071 297.853 485.209 297.415 484.317 297.023C484.213 296.984 484.129 296.908 484.079 296.809C484.03 296.71 484.02 296.597 484.05 296.491C485.804 291.37 487.746 286.171 489.923 281.081Z" fill="#263238"/>
        <g opacity="0.5">
        <path d="M118.045 262.446C118.045 263.899 118.476 265.32 119.284 266.528C120.092 267.736 121.24 268.677 122.583 269.233C123.926 269.788 125.403 269.933 126.828 269.648C128.253 269.363 129.562 268.662 130.588 267.634C131.615 266.605 132.313 265.295 132.595 263.869C132.877 262.443 132.729 260.966 132.171 259.624C131.612 258.283 130.668 257.137 129.459 256.332C128.249 255.526 126.827 255.098 125.374 255.101C124.41 255.101 123.456 255.291 122.566 255.661C121.675 256.03 120.867 256.571 120.186 257.253C119.505 257.936 118.966 258.745 118.598 259.636C118.231 260.527 118.043 261.482 118.045 262.446Z" fill="#235EAC"/>
        <path d="M125.374 274.896C127.858 274.911 130.291 274.188 132.363 272.817C134.436 271.446 136.053 269.491 137.011 267.198C137.969 264.906 138.224 262.38 137.743 259.943C137.262 257.505 136.067 255.266 134.311 253.509C132.554 251.753 130.314 250.558 127.877 250.077C125.439 249.596 122.914 249.851 120.622 250.809C118.329 251.766 116.374 253.384 115.003 255.456C113.632 257.529 112.909 259.962 112.924 262.446C112.945 265.741 114.263 268.896 116.593 271.227C118.924 273.557 122.078 274.875 125.374 274.896ZM125.374 251.562C127.523 251.562 129.624 252.199 131.412 253.391C133.2 254.584 134.595 256.279 135.421 258.263C136.247 260.247 136.467 262.432 136.054 264.541C135.64 266.65 134.611 268.589 133.097 270.114C131.583 271.639 129.651 272.682 127.545 273.111C125.439 273.54 123.253 273.335 121.263 272.524C119.273 271.712 117.568 270.329 116.362 268.549C115.157 266.77 114.506 264.673 114.49 262.524C114.48 261.088 114.754 259.665 115.296 258.335C115.838 257.006 116.638 255.797 117.65 254.778C118.662 253.759 119.865 252.95 121.191 252.398C122.516 251.846 123.938 251.562 125.374 251.562Z" fill="#235EAC"/>
        <path d="M567.142 192.211C567.139 193.664 567.567 195.086 568.372 196.296C569.178 197.505 570.324 198.449 571.665 199.007C573.007 199.566 574.484 199.713 575.91 199.432C577.336 199.15 578.646 198.452 579.675 197.425C580.703 196.399 581.404 195.09 581.689 193.665C581.974 192.24 581.829 190.762 581.274 189.42C580.718 188.077 579.777 186.929 578.569 186.121C577.361 185.313 575.94 184.882 574.487 184.882C572.542 184.882 570.676 185.654 569.299 187.028C567.922 188.402 567.146 190.266 567.142 192.211Z" fill="#235EAC"/>
        <path d="M574.487 204.676C576.968 204.692 579.398 203.97 581.468 202.603C583.539 201.236 585.157 199.285 586.117 196.997C587.077 194.709 587.336 192.188 586.862 189.752C586.387 187.317 585.2 185.078 583.451 183.318C581.702 181.558 579.47 180.357 577.038 179.867C574.606 179.377 572.083 179.621 569.789 180.567C567.495 181.512 565.534 183.118 564.154 185.18C562.774 187.242 562.037 189.667 562.037 192.148C562.037 195.457 563.346 198.632 565.679 200.979C568.011 203.326 571.178 204.656 574.487 204.676ZM574.487 181.327C576.661 181.312 578.792 181.943 580.606 183.142C582.421 184.34 583.838 186.052 584.677 188.058C585.517 190.064 585.74 192.275 585.32 194.408C584.899 196.542 583.854 198.502 582.316 200.04C580.778 201.578 578.818 202.624 576.684 203.044C574.55 203.464 572.34 203.241 570.334 202.401C568.328 201.562 566.616 200.145 565.418 198.33C564.219 196.516 563.588 194.386 563.603 192.211C563.624 189.331 564.777 186.574 566.813 184.538C568.85 182.501 571.607 181.348 574.487 181.327Z" fill="#235EAC"/>
        <path d="M297.383 301.22H392.283V154.517H517.516V192.994H562.82V191.428H519.082V152.951H390.717V299.654H298.949V259.016H191.537V219.444H124.591V250.779H126.157V221.01H189.971V260.582H297.383V301.22Z" fill="#235EAC"/>
        </g>
        <path d="M548.413 115.884C549.713 102.855 558.701 89.8727 574.487 89.8727C590.272 89.8727 599.245 102.918 600.545 115.884C602.534 136.007 588.972 154.235 574.487 170.866C560.001 154.298 546.424 136.07 548.413 115.884ZM574.487 130.354C577.312 130.354 580.074 129.516 582.423 127.946C584.772 126.376 586.602 124.144 587.683 121.534C588.763 118.923 589.045 116.051 588.493 113.28C587.941 110.509 586.579 107.964 584.58 105.968C582.581 103.971 580.035 102.612 577.263 102.063C574.492 101.513 571.62 101.798 569.01 102.882C566.401 103.965 564.172 105.798 562.604 108.149C561.037 110.499 560.202 113.262 560.205 116.088C560.197 117.968 560.56 119.831 561.274 121.57C561.988 123.309 563.039 124.89 564.367 126.221C565.694 127.553 567.271 128.609 569.008 129.329C570.745 130.049 572.607 130.419 574.487 130.416V130.354Z" fill="#235EAC"/>
        <defs>
        <linearGradient id="paint0_linear_123_610" x1="398.5" y1="355" x2="14.9904" y2="366.684" gradientUnits="userSpaceOnUse">
        <stop stop-color="#FF6D02"/>
        <stop offset="1" stop-color="#994201" stop-opacity="0"/>
        </linearGradient>
        </defs>
</svg>
