<svg width="156" height="155" viewBox="0 0 156 155" fill="none" xmlns="http://www.w3.org/2000/svg">
<path d="M14.4189 116.408H144.402C144.402 116.408 141.265 110.137 137.188 108.097C133.112 106.057 130.917 110.137 125.898 107.313C120.879 104.489 121.98 97.9073 116.335 93.9827C110.689 90.0581 104.731 94.4539 99.5574 94.1408C94.3835 93.8277 92.8149 86.9271 87.1574 86.1428C81.4999 85.3585 81.6672 91.8871 76.4933 93.8277C71.3194 95.7683 67.7513 92.6094 64.1088 92.7303C60.4663 92.8512 61.1297 95.0801 57.6794 96.6487C54.2291 98.2173 53.6029 97.433 47.0185 98.0592C40.4341 98.6854 38.8655 105.428 36.5126 107.31C34.1597 109.191 31.0256 106.212 26.1648 107.31C21.304 108.407 14.4189 116.408 14.4189 116.408Z" fill="#F58634"/>
<g opacity="0.8">
<path d="M14.4189 116.408H144.402C144.402 116.408 141.265 110.137 137.188 108.097C133.112 106.057 130.917 110.137 125.898 107.313C120.879 104.489 121.98 97.9073 116.335 93.9827C110.689 90.0581 104.731 94.4539 99.5574 94.1408C94.3835 93.8277 92.8149 86.9271 87.1574 86.1428C81.4999 85.3585 81.6672 91.8871 76.4933 93.8277C71.3194 95.7683 67.7513 92.6094 64.1088 92.7303C60.4663 92.8512 61.1297 95.0801 57.6794 96.6487C54.2291 98.2173 53.6029 97.433 47.0185 98.0592C40.4341 98.6854 38.8655 105.428 36.5126 107.31C34.1597 109.191 31.0256 106.212 26.1648 107.31C21.304 108.407 14.4189 116.408 14.4189 116.408Z" fill="white"/>
</g>
<path d="M123.325 92.5567C123.57 93.8556 126.512 98.0871 127.597 100.468C127.346 100.158 127.054 99.7921 126.766 99.4542C126.54 99.0605 126.338 98.6203 126.112 98.2824C125.762 97.7585 125.393 97.247 124.993 96.7603C124.38 95.9878 123.679 95.2896 122.903 94.6802C122.007 93.9486 120.917 93.495 119.766 93.3751C119.456 93.3534 117.686 93.2201 118.098 93.9331C118.174 94.0424 118.275 94.1317 118.393 94.1935C119.481 94.86 120.684 95.2165 121.831 95.7435C123.548 96.5464 125.817 98.6854 126.763 99.6154L127.243 100.251C125.554 98.6761 122.795 97.7709 121.849 98.2142C120.681 98.7474 123.195 99.293 125.328 99.8448C126.282 100.062 127.169 100.508 127.913 101.144C128.322 101.695 128.784 102.315 129.246 102.951C129.302 103.05 129.357 103.143 129.413 103.236C129.086 102.856 128.716 102.515 128.31 102.219C127.218 101.472 124.215 101.02 123.898 102.03C123.582 103.041 125.712 102.579 127.544 102.87C128.536 103.054 129.447 103.537 130.154 104.256L130.275 104.386C130.483 104.696 130.681 104.966 130.867 105.239C131.304 105.877 131.72 106.479 132.107 107.058C131.491 106.251 130.76 105.538 129.937 104.941C128.338 103.844 126.202 103.611 125.424 104.2C124.646 104.789 128.235 105.322 129.999 105.942C131.016 106.329 131.916 106.97 132.616 107.802C133.195 108.624 133.769 109.424 134.386 110.261C133.403 109.39 132.35 108.601 131.239 107.902C129.432 106.717 127.56 106.879 127.06 107.592C126.561 108.305 128.09 108.351 130.932 108.962C132.431 109.28 133.821 109.985 134.962 111.008L135.778 112.093C136.088 112.518 136.475 112.952 136.869 113.379C136.388 113.162 135.678 112.852 134.891 112.514C134.011 112.153 133.16 111.724 132.346 111.231C131.416 110.648 130.151 110.031 129.038 110.527C128.954 110.555 128.876 110.6 128.811 110.66C128.745 110.72 128.693 110.793 128.659 110.875C128.624 110.957 128.607 111.045 128.61 111.134C128.612 111.222 128.633 111.309 128.672 111.389C128.795 111.614 128.988 111.792 129.221 111.898C130.461 112.576 131.989 112.756 133.344 113.057C134.587 113.335 135.848 113.531 137.117 113.643C137.486 114.03 137.87 114.412 138.251 114.771L137.681 114.877C137.008 115.004 133.728 114.095 132.101 113.894C130.473 113.692 129.156 114.762 130.923 115.382C132.69 116.002 137.089 115.115 137.089 115.115L138.36 114.877C139.87 116.3 141.268 117.388 141.268 117.388L141.857 116.991C141.857 116.991 140.638 116.656 138.592 114.722C138.544 114.339 138.538 113.952 138.574 113.568C138.704 111.398 140.493 108.949 139.119 106.851C138.788 106.342 138.072 106.063 137.675 106.621C137.39 107.024 137.405 107.703 137.495 108.171C137.805 109.706 138.285 111.067 138.168 112.666C138.168 112.738 138.168 113.81 138.242 114.393C137.963 114.117 137.675 113.816 137.371 113.485C137.121 112.882 136.92 112.26 136.77 111.625C136.376 109.935 136.77 108.143 136.488 106.423C136.398 105.896 135.576 104.647 135.173 105.732C134.996 106.212 135.223 107.124 135.254 107.635C135.347 109.083 135.489 110.596 136.06 111.947L135.815 111.637C135.324 110.288 134.943 108.902 134.674 107.492C134.237 105.164 134.311 103.183 133.561 102.563C132.811 101.943 132.851 104.535 133.561 107.26C133.887 108.502 134.416 109.682 135.127 110.751C134.327 109.728 133.53 108.677 132.771 107.651C132.066 106.533 131.625 105.269 131.484 103.955C131.351 101.888 131.227 100.198 130.272 99.1721C129.317 98.146 129.274 98.9148 130.027 101.249C130.545 102.849 131.165 105 131.887 106.448C131.295 105.645 130.74 104.882 130.241 104.191C129.909 103.475 129.103 101.624 128.852 100.025C128.542 97.991 128.145 96.9246 127.612 97.464C127.243 97.8422 127.922 100.31 128.911 102.319C128.493 101.726 128.18 101.271 127.981 101.001C127.898 100.877 127.805 100.747 127.702 100.61C127.221 98.969 126.636 97.36 125.951 95.7931C124.751 93.0527 123.061 91.14 123.325 92.5567Z" fill="#F58634"/>
<g opacity="0.6">
<path d="M123.325 92.5567C123.57 93.8556 126.512 98.0871 127.597 100.468C127.346 100.158 127.054 99.7921 126.766 99.4542C126.54 99.0605 126.338 98.6203 126.112 98.2824C125.762 97.7585 125.393 97.247 124.993 96.7603C124.38 95.9878 123.679 95.2896 122.903 94.6802C122.007 93.9486 120.917 93.495 119.766 93.3751C119.456 93.3534 117.686 93.2201 118.098 93.9331C118.174 94.0424 118.275 94.1317 118.393 94.1935C119.481 94.86 120.684 95.2165 121.831 95.7435C123.548 96.5464 125.817 98.6854 126.763 99.6154L127.243 100.251C125.554 98.6761 122.795 97.7709 121.849 98.2142C120.681 98.7474 123.195 99.293 125.328 99.8448C126.282 100.062 127.169 100.508 127.913 101.144C128.322 101.695 128.784 102.315 129.246 102.951C129.302 103.05 129.357 103.143 129.413 103.236C129.086 102.856 128.716 102.515 128.31 102.219C127.218 101.472 124.215 101.02 123.898 102.03C123.582 103.041 125.712 102.579 127.544 102.87C128.536 103.054 129.447 103.537 130.154 104.256L130.275 104.386C130.483 104.696 130.681 104.966 130.867 105.239C131.304 105.877 131.72 106.479 132.107 107.058C131.491 106.251 130.76 105.538 129.937 104.941C128.338 103.844 126.202 103.611 125.424 104.2C124.646 104.789 128.235 105.322 129.999 105.942C131.016 106.329 131.916 106.97 132.616 107.802C133.195 108.624 133.769 109.424 134.386 110.261C133.403 109.39 132.35 108.601 131.239 107.902C129.432 106.717 127.56 106.879 127.06 107.592C126.561 108.305 128.09 108.351 130.932 108.962C132.431 109.28 133.821 109.985 134.962 111.008L135.778 112.093C136.088 112.518 136.475 112.952 136.869 113.379C136.388 113.162 135.678 112.852 134.891 112.514C134.011 112.153 133.16 111.724 132.346 111.231C131.416 110.648 130.151 110.031 129.038 110.527C128.954 110.555 128.876 110.6 128.811 110.66C128.745 110.72 128.693 110.793 128.659 110.875C128.624 110.957 128.607 111.045 128.61 111.134C128.612 111.222 128.633 111.309 128.672 111.389C128.795 111.614 128.988 111.792 129.221 111.898C130.461 112.576 131.989 112.756 133.344 113.057C134.587 113.335 135.848 113.531 137.117 113.643C137.486 114.03 137.87 114.412 138.251 114.771L137.681 114.877C137.008 115.004 133.728 114.095 132.101 113.894C130.473 113.692 129.156 114.762 130.923 115.382C132.69 116.002 137.089 115.115 137.089 115.115L138.36 114.877C139.87 116.3 141.268 117.388 141.268 117.388L141.857 116.991C141.857 116.991 140.638 116.656 138.592 114.722C138.544 114.339 138.538 113.952 138.574 113.568C138.704 111.398 140.493 108.949 139.119 106.851C138.788 106.342 138.072 106.063 137.675 106.621C137.39 107.024 137.405 107.703 137.495 108.171C137.805 109.706 138.285 111.067 138.168 112.666C138.168 112.738 138.168 113.81 138.242 114.393C137.963 114.117 137.675 113.816 137.371 113.485C137.121 112.882 136.92 112.26 136.77 111.625C136.376 109.935 136.77 108.143 136.488 106.423C136.398 105.896 135.576 104.647 135.173 105.732C134.996 106.212 135.223 107.124 135.254 107.635C135.347 109.083 135.489 110.596 136.06 111.947L135.815 111.637C135.324 110.288 134.943 108.902 134.674 107.492C134.237 105.164 134.311 103.183 133.561 102.563C132.811 101.943 132.851 104.535 133.561 107.26C133.887 108.502 134.416 109.682 135.127 110.751C134.327 109.728 133.53 108.677 132.771 107.651C132.066 106.533 131.625 105.269 131.484 103.955C131.351 101.888 131.227 100.198 130.272 99.1721C129.317 98.146 129.274 98.9148 130.027 101.249C130.545 102.849 131.165 105 131.887 106.448C131.295 105.645 130.74 104.882 130.241 104.191C129.909 103.475 129.103 101.624 128.852 100.025C128.542 97.991 128.145 96.9246 127.612 97.464C127.243 97.8422 127.922 100.31 128.911 102.319C128.493 101.726 128.18 101.271 127.981 101.001C127.898 100.877 127.805 100.747 127.702 100.61C127.221 98.969 126.636 97.36 125.951 95.7931C124.751 93.0527 123.061 91.14 123.325 92.5567Z" fill="white"/>
</g>
<path d="M145.298 86.5148C144.579 87.6215 143.791 92.7148 142.936 95.1948C142.979 94.7856 143.01 94.333 143.032 93.8897C143.14 93.4495 143.298 92.9938 143.37 92.5877C143.475 91.9677 143.559 91.3477 143.608 90.7277C143.698 89.7453 143.671 88.7557 143.528 87.7796C143.38 86.6349 142.903 85.5578 142.154 84.6796C141.959 84.4595 140.756 83.1296 140.564 83.9325C140.543 84.0635 140.555 84.1977 140.598 84.3231C140.924 85.5631 141.55 86.645 142.012 87.8261C142.7 89.5931 142.867 92.7055 142.911 94.0261C142.886 94.24 142.855 94.5097 142.821 94.8166C142.685 92.5133 141.302 89.9589 140.319 89.621C139.104 89.2056 140.549 91.3322 141.714 93.2015C142.255 94.0167 142.59 94.9505 142.691 95.9233C142.607 96.6084 142.511 97.3741 142.409 98.1522C142.381 98.2638 142.356 98.3692 142.334 98.4777C142.358 97.9754 142.325 97.472 142.235 96.9773C141.959 95.6846 140.096 93.2852 139.169 93.7998C138.242 94.3144 140.099 95.449 141.231 96.9215C141.822 97.7386 142.147 98.7184 142.161 99.727C142.161 99.7859 142.161 99.8448 142.161 99.9037C142.108 100.26 142.055 100.604 142.003 100.93C141.879 101.692 141.767 102.412 141.658 103.1C141.769 102.091 141.734 101.072 141.553 100.074C141.147 98.177 139.761 96.534 138.791 96.4255C137.821 96.317 140.053 99.1752 140.905 100.843C141.378 101.82 141.591 102.903 141.525 103.986C141.379 104.978 141.243 105.955 141.113 106.987C141 105.678 140.782 104.38 140.462 103.106C139.969 101.004 138.5 99.8262 137.638 100.006C136.776 100.186 137.861 101.265 139.498 103.667C140.36 104.93 140.878 106.396 140.998 107.92C140.945 108.354 140.893 108.801 140.84 109.266C140.781 109.796 140.75 110.369 140.744 110.952C140.542 110.462 140.245 109.746 139.907 108.962C139.519 108.093 139.199 107.195 138.949 106.277C138.67 105.208 138.186 103.893 137.039 103.487C136.959 103.449 136.872 103.428 136.783 103.427C136.695 103.425 136.607 103.442 136.525 103.478C136.444 103.513 136.371 103.565 136.312 103.631C136.252 103.697 136.208 103.775 136.181 103.859C136.115 104.107 136.13 104.369 136.224 104.606C136.646 105.946 137.638 107.136 138.41 108.289C139.12 109.347 139.899 110.358 140.741 111.315C140.741 111.851 140.756 112.39 140.784 112.914L140.298 112.604C139.721 112.232 137.976 109.312 136.937 108.047C135.899 106.783 134.206 106.643 135.055 108.311C135.905 109.979 139.705 112.369 139.705 112.369L140.79 113.076C140.905 115.146 141.166 116.898 141.166 116.898L141.866 117.016C141.866 117.016 141.215 115.934 141.066 113.125C141.296 112.814 141.559 112.529 141.851 112.276C143.438 110.794 146.423 110.255 146.876 107.784C146.984 107.189 146.662 106.494 145.986 106.624C145.502 106.717 145.056 107.223 144.796 107.616C143.956 108.934 143.37 110.258 142.185 111.336C142.133 111.386 141.398 112.167 141.048 112.638C141.048 112.248 141.032 111.829 141.048 111.38C141.284 110.769 141.568 110.178 141.897 109.613C142.778 108.119 144.3 107.096 145.279 105.651C145.589 105.208 145.843 103.738 144.805 104.247C144.343 104.473 143.875 105.288 143.565 105.679C142.635 106.792 141.705 107.988 141.172 109.359C141.172 109.228 141.197 109.098 141.206 108.968C141.782 107.653 142.462 106.386 143.239 105.18C144.529 103.193 145.946 101.807 145.831 100.84C145.716 99.8727 143.971 101.77 142.585 104.25C141.966 105.374 141.536 106.594 141.314 107.858C141.441 106.562 141.587 105.254 141.736 103.996C141.994 102.7 142.548 101.481 143.354 100.434C144.681 98.8435 145.757 97.5353 145.772 96.1341C145.788 94.7329 145.227 95.2568 144.163 97.4671C143.435 98.983 142.402 100.97 141.919 102.511C142.046 101.522 142.17 100.586 142.288 99.7425C142.539 98.9954 143.218 97.0982 144.148 95.7683C145.32 94.0757 145.772 93.031 145.013 93.0589C144.486 93.0775 143.264 95.3219 142.607 97.4671C142.712 96.751 142.799 96.2054 142.855 95.883C142.88 95.7383 142.902 95.5802 142.92 95.4087C143.699 93.8785 144.38 92.3006 144.96 90.6843C145.989 87.854 146.079 85.312 145.298 86.5148Z" fill="#F58634"/>
<g opacity="0.6">
<path d="M145.298 86.5148C144.579 87.6215 143.791 92.7148 142.936 95.1948C142.979 94.7856 143.01 94.333 143.032 93.8897C143.14 93.4495 143.298 92.9938 143.37 92.5877C143.475 91.9677 143.559 91.3477 143.608 90.7277C143.698 89.7453 143.671 88.7557 143.528 87.7796C143.38 86.6349 142.903 85.5578 142.154 84.6796C141.959 84.4595 140.756 83.1296 140.564 83.9325C140.543 84.0635 140.555 84.1977 140.598 84.3231C140.924 85.5631 141.55 86.645 142.012 87.8261C142.7 89.5931 142.867 92.7055 142.911 94.0261C142.886 94.24 142.855 94.5097 142.821 94.8166C142.685 92.5133 141.302 89.9589 140.319 89.621C139.104 89.2056 140.549 91.3322 141.714 93.2015C142.255 94.0167 142.59 94.9505 142.691 95.9233C142.607 96.6084 142.511 97.3741 142.409 98.1522C142.381 98.2638 142.356 98.3692 142.334 98.4777C142.358 97.9754 142.325 97.472 142.235 96.9773C141.959 95.6846 140.096 93.2852 139.169 93.7998C138.242 94.3144 140.099 95.449 141.231 96.9215C141.822 97.7386 142.147 98.7184 142.161 99.727C142.161 99.7859 142.161 99.8448 142.161 99.9037C142.108 100.26 142.055 100.604 142.003 100.93C141.879 101.692 141.767 102.412 141.658 103.1C141.769 102.091 141.734 101.072 141.553 100.074C141.147 98.177 139.761 96.534 138.791 96.4255C137.821 96.317 140.053 99.1752 140.905 100.843C141.378 101.82 141.591 102.903 141.525 103.986C141.379 104.978 141.243 105.955 141.113 106.987C141 105.678 140.782 104.38 140.462 103.106C139.969 101.004 138.5 99.8262 137.638 100.006C136.776 100.186 137.861 101.265 139.498 103.667C140.36 104.93 140.878 106.396 140.998 107.92C140.945 108.354 140.893 108.801 140.84 109.266C140.781 109.796 140.75 110.369 140.744 110.952C140.542 110.462 140.245 109.746 139.907 108.962C139.519 108.093 139.199 107.195 138.949 106.277C138.67 105.208 138.186 103.893 137.039 103.487C136.959 103.449 136.872 103.428 136.783 103.427C136.695 103.425 136.607 103.442 136.525 103.478C136.444 103.513 136.371 103.565 136.312 103.631C136.252 103.697 136.208 103.775 136.181 103.859C136.115 104.107 136.13 104.369 136.224 104.606C136.646 105.946 137.638 107.136 138.41 108.289C139.12 109.347 139.899 110.358 140.741 111.315C140.741 111.851 140.756 112.39 140.784 112.914L140.298 112.604C139.721 112.232 137.976 109.312 136.937 108.047C135.899 106.783 134.206 106.643 135.055 108.311C135.905 109.979 139.705 112.369 139.705 112.369L140.79 113.076C140.905 115.146 141.166 116.898 141.166 116.898L141.866 117.016C141.866 117.016 141.215 115.934 141.066 113.125C141.296 112.814 141.559 112.529 141.851 112.276C143.438 110.794 146.423 110.255 146.876 107.784C146.984 107.189 146.662 106.494 145.986 106.624C145.502 106.717 145.056 107.223 144.796 107.616C143.956 108.934 143.37 110.258 142.185 111.336C142.133 111.386 141.398 112.167 141.048 112.638C141.048 112.248 141.032 111.829 141.048 111.38C141.284 110.769 141.568 110.178 141.897 109.613C142.778 108.119 144.3 107.096 145.279 105.651C145.589 105.208 145.843 103.738 144.805 104.247C144.343 104.473 143.875 105.288 143.565 105.679C142.635 106.792 141.705 107.988 141.172 109.359C141.172 109.228 141.197 109.098 141.206 108.968C141.782 107.653 142.462 106.386 143.239 105.18C144.529 103.193 145.946 101.807 145.831 100.84C145.716 99.8727 143.971 101.77 142.585 104.25C141.966 105.374 141.536 106.594 141.314 107.858C141.441 106.562 141.587 105.254 141.736 103.996C141.994 102.7 142.548 101.481 143.354 100.434C144.681 98.8435 145.757 97.5353 145.772 96.1341C145.788 94.7329 145.227 95.2568 144.163 97.4671C143.435 98.983 142.402 100.97 141.919 102.511C142.046 101.522 142.17 100.586 142.288 99.7425C142.539 98.9954 143.218 97.0982 144.148 95.7683C145.32 94.0757 145.772 93.031 145.013 93.0589C144.486 93.0775 143.264 95.3219 142.607 97.4671C142.712 96.751 142.799 96.2054 142.855 95.883C142.88 95.7383 142.902 95.5802 142.92 95.4087C143.699 93.8785 144.38 92.3006 144.96 90.6843C145.989 87.854 146.079 85.312 145.298 86.5148Z" fill="white"/>
</g>
<path d="M13.0797 97.65C13.2254 98.6234 15.2993 101.869 16.0371 103.673C15.8604 103.422 15.6558 103.156 15.4481 102.895C15.29 102.585 15.1536 102.26 14.9924 101.999C14.7475 101.599 14.4871 101.209 14.205 100.834C13.7689 100.239 13.2642 99.6981 12.7015 99.2217C12.0548 98.6506 11.2553 98.281 10.4013 98.1584C10.1812 98.1336 8.85129 97.9817 9.13959 98.5242C9.1916 98.6093 9.26546 98.6789 9.35348 98.7257C10.1471 99.2558 11.0306 99.5565 11.8738 99.9936C13.1324 100.626 14.7599 102.3 15.4419 103.01L15.7798 103.497C14.5677 102.272 12.5341 101.525 11.8149 101.82C10.9283 102.185 12.7883 102.666 14.3631 103.14C15.0692 103.327 15.7185 103.685 16.2541 104.182C16.5455 104.603 16.8741 105.084 17.1841 105.571C17.2213 105.645 17.2616 105.716 17.3019 105.788C17.0692 105.494 16.8029 105.229 16.5083 104.997C15.7147 104.408 13.4858 103.983 13.2192 104.727C12.9526 105.471 14.5584 105.189 15.9162 105.459C16.6513 105.625 17.3178 106.012 17.8258 106.569C17.8537 106.606 17.8816 106.637 17.9126 106.671C18.0583 106.894 18.1978 107.114 18.328 107.322C18.638 107.812 18.9263 108.271 19.2146 108.714C18.7778 108.097 18.256 107.545 17.6646 107.074C16.5021 106.209 14.9118 105.974 14.3166 106.392C13.7214 106.811 16.3812 107.322 17.6801 107.824C18.427 108.139 19.0811 108.64 19.5804 109.278C19.9865 109.898 20.3926 110.518 20.8204 111.163C20.1117 110.482 19.3486 109.86 18.5388 109.303C17.2244 108.373 15.8232 108.432 15.4388 108.959C15.0544 109.486 16.1859 109.557 18.2877 110.093C19.395 110.375 20.4093 110.941 21.2296 111.736C21.4125 112.006 21.6047 112.282 21.8062 112.57C22.0478 112.913 22.3065 113.243 22.5812 113.559C22.2278 113.386 21.7101 113.131 21.1304 112.859C20.485 112.562 19.8632 112.217 19.2704 111.826C18.5853 111.364 17.6677 110.868 16.8214 111.206C16.7574 111.222 16.6977 111.252 16.6462 111.293C16.5948 111.334 16.5529 111.386 16.5234 111.445C16.494 111.504 16.4776 111.568 16.4755 111.634C16.4735 111.7 16.4857 111.766 16.5114 111.826C16.5999 112.009 16.7473 112.156 16.9299 112.245C17.8289 112.787 18.9697 112.964 19.9741 113.228C20.8911 113.47 21.8231 113.653 22.7641 113.773C23.0307 114.083 23.3066 114.368 23.5794 114.647L23.1516 114.712C22.6432 114.787 20.2252 114.015 19.0193 113.813C17.8134 113.612 16.7966 114.378 18.0893 114.892C19.382 115.407 22.6959 114.871 22.6959 114.871L23.6538 114.731C24.7388 115.835 25.7494 116.687 25.7494 116.687L26.1989 116.408C26.1989 116.408 25.303 116.123 23.8305 114.623C23.8064 114.335 23.8137 114.046 23.8522 113.761C24.0103 112.146 25.4022 110.369 24.4505 108.764C24.218 108.376 23.6941 108.144 23.3779 108.553C23.1819 108.9 23.1191 109.307 23.2012 109.697C23.381 110.85 23.7065 111.867 23.5763 113.066C23.5763 113.122 23.5453 113.922 23.5763 114.356C23.3779 114.145 23.1702 113.913 22.9563 113.655C22.7873 113.196 22.6547 112.725 22.5595 112.245C22.3177 110.974 22.6649 109.647 22.5006 108.357C22.4479 107.961 21.8806 107.006 21.5396 107.803C21.3939 108.156 21.5396 108.844 21.5396 109.225C21.5174 110.324 21.6787 111.419 22.017 112.465C21.9581 112.387 21.8992 112.31 21.8434 112.229C21.5214 111.214 21.2809 110.174 21.1242 109.12C20.8669 107.372 20.9785 105.896 20.436 105.4C19.8935 104.904 19.8501 106.854 20.2934 108.903C20.5022 109.84 20.8635 110.737 21.3629 111.557C20.7956 110.766 20.2314 109.963 19.6951 109.182C19.2006 108.33 18.9089 107.375 18.8426 106.392C18.8023 104.842 18.7558 103.583 18.0738 102.79C17.3918 101.996 17.336 102.567 17.832 104.34C18.173 105.549 18.5729 107.17 19.072 108.274C18.6566 107.654 18.2629 107.071 17.9126 106.541C17.4709 105.534 17.1584 104.476 16.9826 103.391C16.8059 101.866 16.5455 101.057 16.1301 101.448C15.8449 101.717 16.2696 103.577 16.9609 105.106C16.6509 104.65 16.4432 104.303 16.3161 104.095C16.2582 104.002 16.1931 103.899 16.1208 103.785C15.8088 102.544 15.4195 101.323 14.9552 100.13C14.1399 98.0437 12.9247 96.5743 13.0797 97.65Z" fill="#F58634"/>
<path opacity="0.6" d="M13.0797 97.65C13.2254 98.6234 15.2993 101.869 16.0371 103.673C15.8604 103.422 15.6558 103.156 15.4481 102.895C15.29 102.585 15.1536 102.26 14.9924 101.999C14.7475 101.599 14.4871 101.209 14.205 100.834C13.7689 100.239 13.2642 99.6981 12.7015 99.2217C12.0548 98.6506 11.2553 98.281 10.4013 98.1584C10.1812 98.1336 8.85129 97.9817 9.13959 98.5242C9.1916 98.6093 9.26546 98.6789 9.35348 98.7257C10.1471 99.2558 11.0306 99.5565 11.8738 99.9936C13.1324 100.626 14.7599 102.3 15.4419 103.01L15.7798 103.497C14.5677 102.272 12.5341 101.525 11.8149 101.82C10.9283 102.185 12.7883 102.666 14.3631 103.14C15.0692 103.327 15.7185 103.685 16.2541 104.182C16.5455 104.603 16.8741 105.084 17.1841 105.571C17.2213 105.645 17.2616 105.716 17.3019 105.788C17.0692 105.494 16.8029 105.229 16.5083 104.997C15.7147 104.408 13.4858 103.983 13.2192 104.727C12.9526 105.471 14.5584 105.189 15.9162 105.459C16.6513 105.625 17.3178 106.012 17.8258 106.569C17.8537 106.606 17.8816 106.637 17.9126 106.671C18.0583 106.894 18.1978 107.114 18.328 107.322C18.638 107.812 18.9263 108.271 19.2146 108.714C18.7778 108.097 18.256 107.545 17.6646 107.074C16.5021 106.209 14.9118 105.974 14.3166 106.392C13.7214 106.811 16.3812 107.322 17.6801 107.824C18.427 108.139 19.0811 108.64 19.5804 109.278C19.9865 109.898 20.3926 110.518 20.8204 111.163C20.1117 110.482 19.3486 109.86 18.5388 109.303C17.2244 108.373 15.8232 108.432 15.4388 108.959C15.0544 109.486 16.1859 109.557 18.2877 110.093C19.395 110.375 20.4093 110.941 21.2296 111.736C21.4125 112.006 21.6047 112.282 21.8062 112.57C22.0478 112.913 22.3065 113.243 22.5812 113.559C22.2278 113.386 21.7101 113.131 21.1304 112.859C20.485 112.562 19.8632 112.217 19.2704 111.826C18.5853 111.364 17.6677 110.868 16.8214 111.206C16.7574 111.222 16.6977 111.252 16.6462 111.293C16.5948 111.334 16.5529 111.386 16.5234 111.445C16.494 111.504 16.4776 111.568 16.4755 111.634C16.4735 111.7 16.4857 111.766 16.5114 111.826C16.5999 112.009 16.7473 112.156 16.9299 112.245C17.8289 112.787 18.9697 112.964 19.9741 113.228C20.8911 113.47 21.8231 113.653 22.7641 113.773C23.0307 114.083 23.3066 114.368 23.5794 114.647L23.1516 114.712C22.6432 114.787 20.2252 114.015 19.0193 113.813C17.8134 113.612 16.7966 114.378 18.0893 114.892C19.382 115.407 22.6959 114.871 22.6959 114.871L23.6538 114.731C24.7388 115.835 25.7494 116.687 25.7494 116.687L26.1989 116.408C26.1989 116.408 25.303 116.123 23.8305 114.623C23.8064 114.335 23.8137 114.046 23.8522 113.761C24.0103 112.146 25.4022 110.369 24.4505 108.764C24.218 108.376 23.6941 108.144 23.3779 108.553C23.1819 108.9 23.1191 109.307 23.2012 109.697C23.381 110.85 23.7065 111.867 23.5763 113.066C23.5763 113.122 23.5453 113.922 23.5763 114.356C23.3779 114.145 23.1702 113.913 22.9563 113.655C22.7873 113.196 22.6547 112.725 22.5595 112.245C22.3177 110.974 22.6649 109.647 22.5006 108.357C22.4479 107.961 21.8806 107.006 21.5396 107.803C21.3939 108.156 21.5396 108.844 21.5396 109.225C21.5174 110.324 21.6787 111.419 22.017 112.465C21.9581 112.387 21.8992 112.31 21.8434 112.229C21.5214 111.214 21.2809 110.174 21.1242 109.12C20.8669 107.372 20.9785 105.896 20.436 105.4C19.8935 104.904 19.8501 106.854 20.2934 108.903C20.5022 109.84 20.8635 110.737 21.3629 111.557C20.7956 110.766 20.2314 109.963 19.6951 109.182C19.2006 108.33 18.9089 107.375 18.8426 106.392C18.8023 104.842 18.7558 103.583 18.0738 102.79C17.3918 101.996 17.336 102.567 17.832 104.34C18.173 105.549 18.5729 107.17 19.072 108.274C18.6566 107.654 18.2629 107.071 17.9126 106.541C17.4709 105.534 17.1584 104.476 16.9826 103.391C16.8059 101.866 16.5455 101.057 16.1301 101.448C15.8449 101.717 16.2696 103.577 16.9609 105.106C16.6509 104.65 16.4432 104.303 16.3161 104.095C16.2582 104.002 16.1931 103.899 16.1208 103.785C15.8088 102.544 15.4195 101.323 14.9552 100.13C14.1399 98.0437 12.9247 96.5743 13.0797 97.65Z" fill="white"/>
<path d="M35.5298 96.8812C34.7021 97.4144 32.6034 100.641 31.2642 102.061C31.4192 101.795 31.5742 101.497 31.7292 101.203C31.9369 100.933 32.1849 100.672 32.3492 100.418C32.6127 100.028 32.8607 99.6278 33.087 99.2155C33.4476 98.5741 33.7316 97.8926 33.9333 97.185C34.1888 96.3599 34.1953 95.4779 33.9519 94.6492C33.8868 94.4384 33.4745 93.1643 33.0994 93.6541C33.0438 93.7361 33.0107 93.8312 33.0033 93.93C32.8452 94.86 32.9382 95.79 32.8886 96.7479C32.8173 98.1615 31.9772 100.331 31.599 101.249C31.5184 101.385 31.4161 101.559 31.289 101.757C31.909 100.149 31.7447 97.9879 31.1805 97.4547C30.4799 96.7975 30.8116 98.6947 31.0317 100.319C31.1497 101.04 31.0912 101.78 30.8612 102.474C30.5946 102.911 30.2939 103.404 29.987 103.903L29.8351 104.101C30.0179 103.769 30.1605 103.416 30.2598 103.05C30.4675 102.086 29.9498 99.882 29.1469 99.9502C28.344 100.018 29.2802 101.358 29.5933 102.706C29.748 103.444 29.67 104.212 29.3701 104.904L29.3143 105.025C29.1686 105.251 29.0291 105.468 28.8927 105.673C28.5827 106.156 28.2727 106.603 27.9875 107.052C28.3717 106.401 28.6598 105.697 28.8431 104.963C29.1531 103.546 28.7098 102.002 28.0836 101.63C27.4574 101.258 28.0836 103.89 28.1673 105.285C28.1886 106.096 28.0018 106.899 27.6248 107.616C27.2218 108.236 26.8312 108.856 26.4251 109.532C26.7462 108.605 26.9919 107.653 27.1598 106.686C27.4698 105.105 26.8312 103.853 26.1864 103.714C25.5416 103.574 25.9508 104.644 26.329 106.776C26.5299 107.901 26.4326 109.058 26.0469 110.134C25.8764 110.413 25.7059 110.701 25.5261 111.002C25.3463 111.302 25.1293 111.724 24.9433 112.121C24.9433 111.724 24.9743 111.147 24.9836 110.509C24.9875 109.798 25.0445 109.088 25.1541 108.385C25.2936 107.573 25.368 106.525 24.7108 105.905C24.6683 105.854 24.6151 105.813 24.5548 105.784C24.4945 105.756 24.4287 105.741 24.3621 105.741C24.2954 105.741 24.2296 105.756 24.1693 105.784C24.1091 105.813 24.0558 105.854 24.0133 105.905C23.8919 106.052 23.8222 106.235 23.8149 106.426C23.6909 107.471 24.0009 108.596 24.1714 109.607C24.331 110.55 24.5515 111.482 24.8317 112.397C24.6674 112.759 24.5217 113.134 24.3698 113.497L24.1342 113.134C23.8583 112.704 23.5638 110.18 23.2476 108.999C22.9314 107.818 21.8154 107.207 21.8836 108.602C21.9518 109.997 23.8056 112.793 23.8056 112.793L24.3295 113.606C23.7715 115.047 23.3995 116.321 23.3995 116.321L23.8366 116.616C23.8366 116.616 23.7281 115.686 24.4876 113.723C24.7429 113.569 25.0155 113.445 25.2998 113.355C26.8498 112.834 29.0198 113.379 30.0986 111.839C30.3559 111.467 30.3497 110.909 29.8506 110.775C29.4532 110.738 29.056 110.849 28.7346 111.085C27.7581 111.724 26.9552 112.446 25.8175 112.815C25.7648 112.834 25.027 113.141 24.6426 113.351C24.7542 113.085 24.8813 112.797 25.027 112.496C25.3736 112.155 25.7479 111.844 26.1461 111.566C27.2032 110.819 28.5548 110.589 29.6646 109.904C30.0025 109.697 30.6349 108.776 29.7731 108.804C29.3887 108.804 28.8214 109.228 28.4804 109.396C27.4697 109.828 26.5383 110.427 25.7245 111.166C25.771 111.082 25.8175 110.995 25.8671 110.912C26.6574 110.188 27.5044 109.529 28.3998 108.94C29.8878 107.985 31.2766 107.477 31.4998 106.77C31.723 106.063 29.9498 106.835 28.251 108.088C27.483 108.663 26.8157 109.362 26.2763 110.155C26.7599 109.312 27.2621 108.466 27.7488 107.657C28.3254 106.857 29.0786 106.2 29.9498 105.738C31.3448 105.062 32.4763 104.498 32.9165 103.568C33.3567 102.638 32.8142 102.805 31.413 103.983C30.452 104.792 29.1407 105.825 28.3378 106.727C28.7284 106.107 29.1004 105.487 29.4383 104.957C30.1714 104.143 31.0047 103.425 31.9183 102.821C33.2358 102.03 33.8651 101.457 33.3381 101.243C32.9723 101.094 31.4533 102.247 30.3466 103.506L31.0007 102.505C31.0627 102.412 31.1278 102.309 31.1929 102.195C32.1912 101.398 33.1386 100.54 34.0294 99.6247C35.5949 98.0034 36.435 96.3015 35.5298 96.8812Z" fill="#F58634"/>
<path opacity="0.6" d="M35.5298 96.8812C34.7021 97.4144 32.6034 100.641 31.2642 102.061C31.4192 101.795 31.5742 101.497 31.7292 101.203C31.9369 100.933 32.1849 100.672 32.3492 100.418C32.6127 100.028 32.8607 99.6278 33.087 99.2155C33.4476 98.5741 33.7316 97.8926 33.9333 97.185C34.1888 96.3599 34.1953 95.4779 33.9519 94.6492C33.8868 94.4384 33.4745 93.1643 33.0994 93.6541C33.0438 93.7361 33.0107 93.8312 33.0033 93.93C32.8452 94.86 32.9382 95.79 32.8886 96.7479C32.8173 98.1615 31.9772 100.331 31.599 101.249C31.5184 101.385 31.4161 101.559 31.289 101.757C31.909 100.149 31.7447 97.9879 31.1805 97.4547C30.4799 96.7975 30.8116 98.6947 31.0317 100.319C31.1497 101.04 31.0912 101.78 30.8612 102.474C30.5946 102.911 30.2939 103.404 29.987 103.903L29.8351 104.101C30.0179 103.769 30.1605 103.416 30.2598 103.05C30.4675 102.086 29.9498 99.882 29.1469 99.9502C28.344 100.018 29.2802 101.358 29.5933 102.706C29.748 103.444 29.67 104.212 29.3701 104.904L29.3143 105.025C29.1686 105.251 29.0291 105.468 28.8927 105.673C28.5827 106.156 28.2727 106.603 27.9875 107.052C28.3717 106.401 28.6598 105.697 28.8431 104.963C29.1531 103.546 28.7098 102.002 28.0836 101.63C27.4574 101.258 28.0836 103.89 28.1673 105.285C28.1886 106.096 28.0018 106.899 27.6248 107.616C27.2218 108.236 26.8312 108.856 26.4251 109.532C26.7462 108.605 26.9919 107.653 27.1598 106.686C27.4698 105.105 26.8312 103.853 26.1864 103.714C25.5416 103.574 25.9508 104.644 26.329 106.776C26.5299 107.901 26.4326 109.058 26.0469 110.134C25.8764 110.413 25.7059 110.701 25.5261 111.002C25.3463 111.302 25.1293 111.724 24.9433 112.121C24.9433 111.724 24.9743 111.147 24.9836 110.509C24.9875 109.798 25.0445 109.088 25.1541 108.385C25.2936 107.573 25.368 106.525 24.7108 105.905C24.6683 105.854 24.6151 105.813 24.5548 105.784C24.4945 105.756 24.4287 105.741 24.3621 105.741C24.2954 105.741 24.2296 105.756 24.1693 105.784C24.1091 105.813 24.0558 105.854 24.0133 105.905C23.8919 106.052 23.8222 106.235 23.8149 106.426C23.6909 107.471 24.0009 108.596 24.1714 109.607C24.331 110.55 24.5515 111.482 24.8317 112.397C24.6674 112.759 24.5217 113.134 24.3698 113.497L24.1342 113.134C23.8583 112.704 23.5638 110.18 23.2476 108.999C22.9314 107.818 21.8154 107.207 21.8836 108.602C21.9518 109.997 23.8056 112.793 23.8056 112.793L24.3295 113.606C23.7715 115.047 23.3995 116.321 23.3995 116.321L23.8366 116.616C23.8366 116.616 23.7281 115.686 24.4876 113.723C24.7429 113.569 25.0155 113.445 25.2998 113.355C26.8498 112.834 29.0198 113.379 30.0986 111.839C30.3559 111.467 30.3497 110.909 29.8506 110.775C29.4532 110.738 29.056 110.849 28.7346 111.085C27.7581 111.724 26.9552 112.446 25.8175 112.815C25.7648 112.834 25.027 113.141 24.6426 113.351C24.7542 113.085 24.8813 112.797 25.027 112.496C25.3736 112.155 25.7479 111.844 26.1461 111.566C27.2032 110.819 28.5548 110.589 29.6646 109.904C30.0025 109.697 30.6349 108.776 29.7731 108.804C29.3887 108.804 28.8214 109.228 28.4804 109.396C27.4697 109.828 26.5383 110.427 25.7245 111.166C25.771 111.082 25.8175 110.995 25.8671 110.912C26.6574 110.188 27.5044 109.529 28.3998 108.94C29.8878 107.985 31.2766 107.477 31.4998 106.77C31.723 106.063 29.9498 106.835 28.251 108.088C27.483 108.663 26.8157 109.362 26.2763 110.155C26.7599 109.312 27.2621 108.466 27.7488 107.657C28.3254 106.857 29.0786 106.2 29.9498 105.738C31.3448 105.062 32.4763 104.498 32.9165 103.568C33.3567 102.638 32.8142 102.805 31.413 103.983C30.452 104.792 29.1407 105.825 28.3378 106.727C28.7284 106.107 29.1004 105.487 29.4383 104.957C30.1714 104.143 31.0047 103.425 31.9183 102.821C33.2358 102.03 33.8651 101.457 33.3381 101.243C32.9723 101.094 31.4533 102.247 30.3466 103.506L31.0007 102.505C31.0627 102.412 31.1278 102.309 31.1929 102.195C32.1912 101.398 33.1386 100.54 34.0294 99.6247C35.5949 98.0034 36.435 96.3015 35.5298 96.8812Z" fill="white"/>
<path d="M44.6191 96.9649C43.7883 97.5012 41.6896 100.728 40.3504 102.145C40.5054 101.881 40.6604 101.584 40.8154 101.286C41.0231 101.02 41.2711 100.756 41.4354 100.505C41.6989 100.114 41.9469 99.7146 42.1732 99.3023C42.5333 98.6606 42.8173 97.9792 43.0195 97.2718C43.2746 96.4468 43.2822 95.5652 43.0412 94.736C42.973 94.5252 42.5607 93.2511 42.1856 93.7378C42.1304 93.8211 42.0974 93.9171 42.0895 94.0168C41.9345 94.9468 42.0244 95.8768 41.9748 96.8316C41.9035 98.2483 41.0634 100.418 40.6852 101.336C40.6046 101.472 40.5023 101.646 40.3752 101.844C40.9952 100.232 40.834 98.0716 40.2667 97.5415C39.5661 96.8843 39.8978 98.7815 40.1179 100.406C40.2378 101.126 40.1792 101.865 39.9474 102.557C39.6808 102.997 39.3801 103.487 39.0732 103.989C39.0205 104.055 38.9709 104.123 38.9213 104.188C39.0934 103.854 39.2256 103.502 39.315 103.137C39.5258 102.173 39.005 99.9688 38.2021 100.037C37.3992 100.105 38.3354 101.444 38.6485 102.793C38.8036 103.53 38.7256 104.297 38.4253 104.988L38.3695 105.112C38.2238 105.335 38.0843 105.555 37.9479 105.76C37.6379 106.24 37.3279 106.69 37.0427 107.139C37.4275 106.487 37.7156 105.782 37.8983 105.047C38.2083 103.633 37.765 102.089 37.1388 101.717C36.5126 101.345 37.1543 103.977 37.2225 105.372C37.2438 106.183 37.0571 106.985 36.68 107.703C36.277 108.323 35.8864 108.943 35.4803 109.619C35.8051 108.693 36.0549 107.742 36.2274 106.776C36.5374 105.195 35.8988 103.943 35.254 103.803C34.6092 103.664 35.0184 104.733 35.3997 106.866C35.598 107.991 35.4997 109.148 35.1145 110.224C34.944 110.503 34.7735 110.791 34.5937 111.092C34.4139 111.392 34.1969 111.814 34.0109 112.208C34.0109 111.814 34.0419 111.237 34.0512 110.596C34.0553 109.886 34.1122 109.177 34.2217 108.475C34.3612 107.663 34.4356 106.615 33.7784 105.995C33.736 105.944 33.6827 105.903 33.6224 105.874C33.5621 105.846 33.4963 105.831 33.4297 105.831C33.3631 105.831 33.2973 105.846 33.237 105.874C33.1767 105.903 33.1234 105.944 33.0809 105.995C32.9596 106.142 32.8899 106.325 32.8825 106.516C32.7585 107.558 33.0685 108.686 33.239 109.697C33.3988 110.634 33.6193 111.559 33.8993 112.468C33.735 112.834 33.5893 113.206 33.4374 113.572L33.2018 113.206C32.9259 112.775 32.6314 110.255 32.3152 109.073C31.999 107.892 30.883 107.282 30.9512 108.677C31.0194 110.072 32.8732 112.865 32.8732 112.865L33.3971 113.677C32.8391 115.122 32.4671 116.396 32.4671 116.396L32.9042 116.69C32.9042 116.69 32.7957 115.76 33.5552 113.798C33.8063 113.655 34.0725 113.541 34.3488 113.457C35.8988 112.936 38.0688 113.485 39.1476 111.944C39.4049 111.569 39.3987 110.999 38.8996 110.881C38.5021 110.842 38.1044 110.953 37.7836 111.191C36.8071 111.829 36.0042 112.552 34.8665 112.921C34.8138 112.936 34.076 113.246 33.6916 113.457C33.8032 113.187 33.9303 112.902 34.076 112.598C34.4233 112.258 34.7976 111.947 35.1951 111.668C36.2553 110.921 37.6038 110.692 38.7136 110.007C39.0546 109.799 39.6839 108.878 38.8221 108.903C38.4377 108.903 37.8704 109.331 37.5294 109.495C36.5192 109.93 35.588 110.529 34.7735 111.268L34.9161 111.011C35.7113 110.292 36.5623 109.638 37.4612 109.055C38.9492 108.097 40.338 107.592 40.5612 106.885C40.7844 106.178 39.0112 106.95 37.3124 108.202C36.5444 108.778 35.8771 109.476 35.3377 110.27C35.8213 109.427 36.3235 108.581 36.8102 107.768C37.384 106.967 38.1337 106.307 39.0019 105.84C40.3969 105.164 41.5284 104.6 41.9686 103.655C42.4088 102.709 41.8663 102.889 40.4651 104.07C39.5041 104.876 38.1928 105.911 37.3899 106.814C37.7805 106.178 38.1525 105.574 38.4904 105.04C39.2246 104.228 40.0578 103.512 40.9704 102.908C42.2879 102.114 42.9172 101.544 42.3902 101.33C42.0244 101.181 40.5054 102.334 39.3987 103.593C39.7087 103.137 39.9195 102.793 40.0528 102.591C40.1148 102.498 40.1799 102.396 40.245 102.281C41.244 101.486 42.1924 100.628 43.0846 99.7146C44.678 98.0902 45.5181 96.3883 44.6191 96.9649Z" fill="#F58634"/>
<path opacity="0.6" d="M44.6191 96.9649C43.7883 97.5012 41.6896 100.728 40.3504 102.145C40.5054 101.881 40.6604 101.584 40.8154 101.286C41.0231 101.02 41.2711 100.756 41.4354 100.505C41.6989 100.114 41.9469 99.7146 42.1732 99.3023C42.5333 98.6606 42.8173 97.9792 43.0195 97.2718C43.2746 96.4468 43.2822 95.5652 43.0412 94.736C42.973 94.5252 42.5607 93.2511 42.1856 93.7378C42.1304 93.8211 42.0974 93.9171 42.0895 94.0168C41.9345 94.9468 42.0244 95.8768 41.9748 96.8316C41.9035 98.2483 41.0634 100.418 40.6852 101.336C40.6046 101.472 40.5023 101.646 40.3752 101.844C40.9952 100.232 40.834 98.0716 40.2667 97.5415C39.5661 96.8843 39.8978 98.7815 40.1179 100.406C40.2378 101.126 40.1792 101.865 39.9474 102.557C39.6808 102.997 39.3801 103.487 39.0732 103.989C39.0205 104.055 38.9709 104.123 38.9213 104.188C39.0934 103.854 39.2256 103.502 39.315 103.137C39.5258 102.173 39.005 99.9688 38.2021 100.037C37.3992 100.105 38.3354 101.444 38.6485 102.793C38.8036 103.53 38.7256 104.297 38.4253 104.988L38.3695 105.112C38.2238 105.335 38.0843 105.555 37.9479 105.76C37.6379 106.24 37.3279 106.69 37.0427 107.139C37.4275 106.487 37.7156 105.782 37.8983 105.047C38.2083 103.633 37.765 102.089 37.1388 101.717C36.5126 101.345 37.1543 103.977 37.2225 105.372C37.2438 106.183 37.0571 106.985 36.68 107.703C36.277 108.323 35.8864 108.943 35.4803 109.619C35.8051 108.693 36.0549 107.742 36.2274 106.776C36.5374 105.195 35.8988 103.943 35.254 103.803C34.6092 103.664 35.0184 104.733 35.3997 106.866C35.598 107.991 35.4997 109.148 35.1145 110.224C34.944 110.503 34.7735 110.791 34.5937 111.092C34.4139 111.392 34.1969 111.814 34.0109 112.208C34.0109 111.814 34.0419 111.237 34.0512 110.596C34.0553 109.886 34.1122 109.177 34.2217 108.475C34.3612 107.663 34.4356 106.615 33.7784 105.995C33.736 105.944 33.6827 105.903 33.6224 105.874C33.5621 105.846 33.4963 105.831 33.4297 105.831C33.3631 105.831 33.2973 105.846 33.237 105.874C33.1767 105.903 33.1234 105.944 33.0809 105.995C32.9596 106.142 32.8899 106.325 32.8825 106.516C32.7585 107.558 33.0685 108.686 33.239 109.697C33.3988 110.634 33.6193 111.559 33.8993 112.468C33.735 112.834 33.5893 113.206 33.4374 113.572L33.2018 113.206C32.9259 112.775 32.6314 110.255 32.3152 109.073C31.999 107.892 30.883 107.282 30.9512 108.677C31.0194 110.072 32.8732 112.865 32.8732 112.865L33.3971 113.677C32.8391 115.122 32.4671 116.396 32.4671 116.396L32.9042 116.69C32.9042 116.69 32.7957 115.76 33.5552 113.798C33.8063 113.655 34.0725 113.541 34.3488 113.457C35.8988 112.936 38.0688 113.485 39.1476 111.944C39.4049 111.569 39.3987 110.999 38.8996 110.881C38.5021 110.842 38.1044 110.953 37.7836 111.191C36.8071 111.829 36.0042 112.552 34.8665 112.921C34.8138 112.936 34.076 113.246 33.6916 113.457C33.8032 113.187 33.9303 112.902 34.076 112.598C34.4233 112.258 34.7976 111.947 35.1951 111.668C36.2553 110.921 37.6038 110.692 38.7136 110.007C39.0546 109.799 39.6839 108.878 38.8221 108.903C38.4377 108.903 37.8704 109.331 37.5294 109.495C36.5192 109.93 35.588 110.529 34.7735 111.268L34.9161 111.011C35.7113 110.292 36.5623 109.638 37.4612 109.055C38.9492 108.097 40.338 107.592 40.5612 106.885C40.7844 106.178 39.0112 106.95 37.3124 108.202C36.5444 108.778 35.8771 109.476 35.3377 110.27C35.8213 109.427 36.3235 108.581 36.8102 107.768C37.384 106.967 38.1337 106.307 39.0019 105.84C40.3969 105.164 41.5284 104.6 41.9686 103.655C42.4088 102.709 41.8663 102.889 40.4651 104.07C39.5041 104.876 38.1928 105.911 37.3899 106.814C37.7805 106.178 38.1525 105.574 38.4904 105.04C39.2246 104.228 40.0578 103.512 40.9704 102.908C42.2879 102.114 42.9172 101.544 42.3902 101.33C42.0244 101.181 40.5054 102.334 39.3987 103.593C39.7087 103.137 39.9195 102.793 40.0528 102.591C40.1148 102.498 40.1799 102.396 40.245 102.281C41.244 101.486 42.1924 100.628 43.0846 99.7146C44.678 98.0902 45.5181 96.3883 44.6191 96.9649Z" fill="white"/>
<path d="M141.07 38.2509C141.07 38.2509 139.882 34.8409 136.466 34.689C133.05 34.5371 133.645 37.8076 131.271 38.6973C128.896 39.587 128.003 37.0636 125.923 37.6588C123.843 38.254 125.182 39.8846 123.4 40.4798C121.617 41.075 121.766 39.4413 119.094 40.7898C116.422 42.1383 115.826 42.5723 115.231 42.7211C114.636 42.8699 109.292 43.7596 109.292 43.7596H146.268C146.268 43.7596 147.31 40.4922 145.23 39.1561C143.15 37.82 143.299 39.4413 141.07 38.2509Z" fill="#F58634"/>
<path opacity="0.7" d="M141.07 38.2509C141.07 38.2509 139.882 34.8409 136.466 34.689C133.05 34.5371 133.645 37.8076 131.271 38.6973C128.896 39.587 128.003 37.0636 125.923 37.6588C123.843 38.254 125.182 39.8846 123.4 40.4798C121.617 41.075 121.766 39.4413 119.094 40.7898C116.422 42.1383 115.826 42.5723 115.231 42.7211C114.636 42.8699 109.292 43.7596 109.292 43.7596H146.268C146.268 43.7596 147.31 40.4922 145.23 39.1561C143.15 37.82 143.299 39.4413 141.07 38.2509Z" fill="white"/>
<path d="M73.1237 32.7329C73.1237 32.7329 72.4014 30.6621 70.3337 30.5629C68.2661 30.4637 68.6256 32.4508 67.1841 32.9933C65.7426 33.5358 65.2032 32.0013 63.9415 32.3733C62.6798 32.7453 63.492 33.7249 62.4132 34.0845C61.3344 34.4441 61.4212 33.4645 59.7999 34.2643C58.1786 35.0641 57.8222 35.3462 57.4595 35.4361C57.0968 35.526 53.8604 36.0561 53.8604 36.0561H76.2764C76.2764 36.0561 76.8964 34.0752 75.6564 33.2661C74.4164 32.457 74.4722 33.4521 73.1237 32.7329Z" fill="#F58634"/>
<path opacity="0.8" d="M73.1237 32.7329C73.1237 32.7329 72.4014 30.6621 70.3337 30.5629C68.2661 30.4637 68.6256 32.4508 67.1841 32.9933C65.7426 33.5358 65.2032 32.0013 63.9415 32.3733C62.6798 32.7453 63.492 33.7249 62.4132 34.0845C61.3344 34.4441 61.4212 33.4645 59.7999 34.2643C58.1786 35.0641 57.8222 35.3462 57.4595 35.4361C57.0968 35.526 53.8604 36.0561 53.8604 36.0561H76.2764C76.2764 36.0561 76.8964 34.0752 75.6564 33.2661C74.4164 32.457 74.4722 33.4521 73.1237 32.7329Z" fill="white"/>
<path d="M35.4153 69.13C35.4153 69.13 34.445 66.34 31.6581 66.2222C28.8712 66.1044 29.3517 68.7673 27.4142 69.4958C25.4767 70.2243 24.7451 68.1597 23.0494 68.6464C21.3537 69.1331 22.4294 70.463 20.9879 70.9497C19.5464 71.4364 19.6549 70.1003 17.4725 71.1915C15.2901 72.2827 14.8065 72.6454 14.3198 72.7694C13.8331 72.8934 9.47144 73.6157 9.47144 73.6157H39.6592C39.6592 73.6157 40.5055 70.9497 38.8098 69.8585C37.1141 68.7673 37.2319 70.1065 35.4153 69.13Z" fill="#F58634"/>
<g opacity="0.7">
<path d="M35.4153 69.13C35.4153 69.13 34.445 66.34 31.6581 66.2222C28.8712 66.1044 29.3517 68.7673 27.4142 69.4958C25.4767 70.2243 24.7451 68.1597 23.0494 68.6464C21.3537 69.1331 22.4294 70.463 20.9879 70.9497C19.5464 71.4364 19.6549 70.1003 17.4725 71.1915C15.2901 72.2827 14.8065 72.6454 14.3198 72.7694C13.8331 72.8934 9.47144 73.6157 9.47144 73.6157H39.6592C39.6592 73.6157 40.5055 70.9497 38.8098 69.8585C37.1141 68.7673 37.2319 70.1065 35.4153 69.13Z" fill="white"/>
</g>
<path d="M71.2729 124.465C89.4312 124.465 104.151 123.421 104.151 122.134C104.151 120.846 89.4312 119.803 71.2729 119.803C53.1145 119.803 38.3943 120.846 38.3943 122.134C38.3943 123.421 53.1145 124.465 71.2729 124.465Z" fill="#F58634"/>
<path d="M102.081 120.584C112.375 120.584 120.721 120.062 120.721 119.418C120.721 118.774 112.375 118.253 102.081 118.253C91.786 118.253 83.4404 118.774 83.4404 119.418C83.4404 120.062 91.786 120.584 102.081 120.584Z" fill="#F58634"/>
<g opacity="0.6">
<path d="M71.2729 124.465C89.4312 124.465 104.151 123.421 104.151 122.134C104.151 120.846 89.4312 119.803 71.2729 119.803C53.1145 119.803 38.3943 120.846 38.3943 122.134C38.3943 123.421 53.1145 124.465 71.2729 124.465Z" fill="white"/>
<path d="M102.081 120.584C112.375 120.584 120.721 120.062 120.721 119.418C120.721 118.774 112.375 118.253 102.081 118.253C91.786 118.253 83.4404 118.774 83.4404 119.418C83.4404 120.062 91.786 120.584 102.081 120.584Z" fill="white"/>
</g>
<path d="M71.0344 87.3734L76.8159 83.2318" stroke="#263238" stroke-width="0.835087" stroke-linecap="round" stroke-linejoin="round"/>
<path d="M89.3088 116.145L88.9833 119.818C88.9833 119.818 87.3372 120.54 87.3403 120.782C87.3434 121.024 87.6503 121.356 88.9926 121.356C90.3349 121.356 90.772 120.847 90.772 120.466C90.772 120.085 93.6302 116.907 93.6302 116.907C93.7003 116.716 93.7198 116.511 93.6866 116.31C93.6535 116.11 93.5689 115.921 93.4411 115.763C92.9947 115.255 91.4695 115.193 91.4695 115.193L89.3088 116.145Z" fill="#F58634"/>
<path d="M87.3435 121.027C87.3435 121.027 89.5786 120.881 90.1769 120.54C90.7752 120.199 92.9049 116.957 93.0754 116.699C93.1869 116.489 93.2455 116.255 93.2459 116.017" stroke="#263238" stroke-width="0.417543" stroke-linecap="round" stroke-linejoin="round"/>
<path d="M92.1734 115.246C92.1734 115.246 93.9869 115.59 93.8133 116.368C93.6397 117.146 90.7939 120.596 90.363 121.018C89.9321 121.439 87.263 121.449 87.3436 121.018C87.4242 120.587 88.9835 119.809 88.9835 119.809L89.5012 116.709" stroke="#263238" stroke-width="0.835087" stroke-linecap="round" stroke-linejoin="round"/>
<path d="M53.9812 119.13L48.643 121.737C48.643 121.737 47.9455 122.245 49.3436 122.245C50.7417 122.245 58.1104 122.307 58.1104 122.307C58.1104 122.307 58.9381 122.5 59.1272 122.118C59.4372 121.498 59.5736 121.101 59.3814 120.909C59.1892 120.717 53.9812 119.13 53.9812 119.13Z" fill="#F58634"/>
<path d="M49.1453 121.647H58.6158" stroke="#263238" stroke-width="0.417543" stroke-linecap="round" stroke-linejoin="round"/>
<path d="M53.6216 119.462C53.6216 119.462 48.1842 121.793 48.271 122.05C48.3578 122.307 53.7921 122.31 55.8629 122.31C57.9337 122.31 59.4031 122.397 59.4031 121.88" stroke="#263238" stroke-width="0.835087" stroke-linecap="round" stroke-linejoin="round"/>
<path d="M92.1732 115.246L74.2273 102.129L73.6073 88.9265C72.9459 89.5086 72.1995 89.9864 71.3939 90.3432C70.2841 90.7679 63.8547 94.0167 63.8547 94.0167C63.8547 94.0167 66.7036 104.113 67.2213 104.978C67.739 105.843 89.4855 116.712 89.4855 116.712L92.1732 115.246Z" fill="#263238"/>
<path d="M59.4001 121.362C59.4001 121.362 58.7088 121.188 57.9338 121.015C57.1588 120.841 53.6186 119.465 53.6186 119.465C53.5485 119.183 53.5193 118.893 53.5318 118.603C53.5409 118.416 53.5922 118.233 53.6819 118.069C53.7715 117.905 53.8972 117.763 54.0495 117.654C54.0495 117.654 40.5862 99.7053 40.2421 99.1876C39.898 98.6699 40.1553 97.805 42.4865 95.9946C44.8177 94.1842 60.0697 84.8749 60.0697 84.8749C59.4838 84.1805 60.5874 83.7527 60.5874 83.7527L61.97 84.1836L71.0313 87.3766L74.6552 84.9617C74.6552 84.9617 75.2597 87.203 73.0153 88.9297C70.7709 90.6564 50.252 99.7797 50.252 99.7797L49.911 99.8014L59.1428 119.97C59.1428 119.97 59.7628 121.074 59.4001 121.362Z" fill="#263238"/>
<path d="M47.9517 97.5073L49.6567 99.6401L48.9747 96.8253" stroke="white" stroke-width="0.835087" stroke-linecap="round" stroke-linejoin="round"/>
<path d="M64.7568 94.181C64.7568 94.181 68.2536 99.6401 69.5339 100.75" stroke="white" stroke-width="0.835087" stroke-linecap="round" stroke-linejoin="round"/>
<path d="M65.2683 94.0106C66.2322 94.8541 67.2581 95.624 68.3373 96.3139" stroke="white" stroke-width="0.835087" stroke-linecap="round" stroke-linejoin="round"/>
<g style="mix-blend-mode:multiply">
<path d="M71.4001 65.1093L59.2915 73.3615L61.9389 84.2735L70.9258 87.2867L82.9166 78.7431L81.4689 67.766L71.4001 65.1093Z" fill="#F58634"/>
</g>
<path d="M59.3567 73.3615L60.1255 76.7715" stroke="#263238" stroke-width="0.835087" stroke-linecap="round" stroke-linejoin="round"/>
<path d="M60.7642 79.2607L61.9732 84.1804L71.0345 87.3734L69.9123 79.2607" stroke="#263238" stroke-width="0.835087" stroke-linecap="round" stroke-linejoin="round"/>
<path d="M69.8253 78.5726L69.4812 76.5018" stroke="#263238" stroke-width="0.835087" stroke-linecap="round" stroke-linejoin="round"/>
<path d="M80.5266 80.6433L82.9415 78.8298L81.7325 68.5626" stroke="#263238" stroke-width="0.835087" stroke-linecap="round" stroke-linejoin="round"/>
<path d="M70.6873 75.8972L77.2469 70.9775" stroke="#263238" stroke-width="0.835087" stroke-linecap="round" stroke-linejoin="round"/>
<path d="M76.9028 66.5756L71.4654 65.1093L59.5552 73.222" stroke="#263238" stroke-width="0.835087" stroke-linecap="round" stroke-linejoin="round"/>
<path d="M59.6418 73.566L61.4553 74.0837" stroke="#263238" stroke-width="0.835087" stroke-linecap="round" stroke-linejoin="round"/>
<path d="M64.5615 74.775L69.4812 76.1545" stroke="#263238" stroke-width="0.835087" stroke-linecap="round" stroke-linejoin="round"/>
<path d="M76.0379 66.405L68.6165 72.0997" stroke="#263238" stroke-width="0.417543" stroke-linecap="round" stroke-linejoin="round"/>
<path d="M68.012 72.6174L65.3367 74.6882" stroke="#263238" stroke-width="0.417543" stroke-linecap="round" stroke-linejoin="round"/>
<path d="M76.2238 61.6434C76.2238 61.6434 78.1086 77.1899 78.1086 77.8812C78.1086 78.5725 76.3819 78.9166 76.3819 79.7784C76.3336 80.4851 76.1886 81.1819 75.951 81.8492C75.951 81.8492 75.6069 82.1964 75.6069 82.4692C75.6069 82.742 76.2114 82.6428 76.7291 82.3855C77.2468 82.1282 77.4173 81.1765 77.4173 81.1765C77.2989 81.7467 77.213 82.3232 77.16 82.9032L76.8159 83.2473C76.8159 83.2473 75.7805 84.1959 76.4687 84.2827C77.1569 84.3695 80.353 83.1605 80.5266 82.3855C80.7002 81.6105 80.0926 77.8967 80.0926 77.8967C80.0926 77.8967 82.5974 60.3786 82.5974 58.7387C82.6095 58.2804 82.4843 57.829 82.2379 57.4423C81.9916 57.0557 81.6353 56.7515 81.2148 56.5687" fill="white"/>
<mask id="mask0_125_2870" style="mask-type:luminance" maskUnits="userSpaceOnUse" x="75" y="56" width="8" height="29">
<path d="M76.2238 61.6434C76.2238 61.6434 78.1086 77.1899 78.1086 77.8812C78.1086 78.5725 76.3819 78.9166 76.3819 79.7784C76.3336 80.4851 76.1886 81.1819 75.951 81.8492C75.951 81.8492 75.6069 82.1964 75.6069 82.4692C75.6069 82.742 76.2114 82.6428 76.7291 82.3855C77.2468 82.1282 77.4173 81.1765 77.4173 81.1765C77.2989 81.7467 77.213 82.3232 77.16 82.9032L76.8159 83.2473C76.8159 83.2473 75.7805 84.1959 76.4687 84.2827C77.1569 84.3695 80.353 83.1605 80.5266 82.3855C80.7002 81.6105 80.0926 77.8967 80.0926 77.8967C80.0926 77.8967 82.5974 60.3786 82.5974 58.7387C82.6095 58.2804 82.4843 57.829 82.2379 57.4423C81.9916 57.0557 81.6353 56.7515 81.2148 56.5687" fill="white"/>
</mask>
<g mask="url(#mask0_125_2870)">
<g style="mix-blend-mode:multiply" opacity="0.3">
<path d="M82.585 60.9211C82.2223 59.5416 81.8286 57.0368 81.8286 57.0368L80.1856 56.5377L78.0156 59.1448L79.7299 58.0908V78.7771C79.7299 79.8311 78.4124 83.9138 78.4124 83.9138C78.4124 83.9138 81.1373 83.3403 80.6971 80.8603C80.2569 78.3803 79.7299 78.7771 80.5204 73.7706C81.3109 68.7641 82.9601 62.3099 82.585 60.9211Z" fill="#F58634"/>
</g>
</g>
<path d="M76.2238 61.6434C76.2238 61.6434 78.1086 77.1899 78.1086 77.8812C78.1086 78.5725 76.3819 78.9166 76.3819 79.7784C76.3336 80.4851 76.1886 81.1819 75.951 81.8492C75.951 81.8492 75.6069 82.1964 75.6069 82.4692C75.6069 82.742 76.2114 82.6428 76.7291 82.3855C77.2468 82.1282 77.4173 81.1765 77.4173 81.1765C77.2989 81.7467 77.213 82.3232 77.16 82.9032L76.8159 83.2473C76.8159 83.2473 75.7805 84.1959 76.4687 84.2827C77.1569 84.3695 80.353 83.1605 80.5266 82.3855C80.7002 81.6105 80.0926 77.8967 80.0926 77.8967C80.0926 77.8967 82.5974 60.3786 82.5974 58.7387C82.6095 58.2804 82.4843 57.829 82.2379 57.4423C81.9916 57.0557 81.6353 56.7515 81.2148 56.5687" stroke="#263238" stroke-width="0.835087" stroke-linecap="round" stroke-linejoin="round"/>
<path d="M78.3102 82.2399C78.4041 82.6082 78.3736 82.9973 78.2234 83.3466C78.0537 83.6238 77.8541 83.8817 77.6282 84.1154" stroke="#263238" stroke-width="0.417543" stroke-linecap="round" stroke-linejoin="round"/>
<path d="M79.3423 82.2399C79.2914 82.5887 79.2052 82.9315 79.085 83.2629" stroke="#263238" stroke-width="0.417543" stroke-linecap="round" stroke-linejoin="round"/>
<path d="M80.1111 81.9825C80.0589 82.3311 79.9727 82.6738 79.8538 83.0055" stroke="#263238" stroke-width="0.417543" stroke-linecap="round" stroke-linejoin="round"/>
<path d="M52.2329 49.6743C52.1337 48.7815 50.3481 47.0951 47.8681 46.5991C45.3881 46.1031 42.7066 46.1031 41.7146 46.9091C41.3426 47.2036 41.0946 47.8887 40.9334 48.6265C41.1101 48.2483 41.4666 47.4826 41.8355 47.1757C43.6614 45.6536 44.1698 46.5557 44.4736 47.8856C44.7774 49.2155 44.3713 52.8456 44.3713 52.8456C44.3713 52.8456 40.2111 54.0639 40.8187 51.9311C40.7295 51.6272 40.6673 51.316 40.6327 51.0011C40.6327 51.1592 40.6327 51.2553 40.6327 51.2553L40.4343 52.5449L38.7479 52.8549L32.8889 52.6689C32.8889 52.6689 35.8711 54.5289 37.5575 54.5289C38.6473 54.4841 39.6916 54.0797 40.5273 53.3788L51.3773 54.2065C51.3773 54.2065 52.3321 50.5671 52.2329 49.6743Z" fill="#F58634"/>
<path d="M39.5849 52.7681L32.8765 52.6658C32.8765 52.6658 34.7365 54.4204 37.2165 54.4204C39.6965 54.4204 40.5211 53.3881 40.5211 53.3881L51.3711 54.2158C51.3711 54.2158 52.7878 51.5157 52.0655 49.1442C51.3432 46.7727 44.8332 45.976 43.0228 46.4131C40.7846 46.9556 40.6358 48.8466 40.6358 49.8789C40.6194 50.6403 40.55 51.3996 40.4281 52.1512" stroke="#263238" stroke-width="0.835087" stroke-linecap="round" stroke-linejoin="round"/>
<mask id="mask1_125_2870" style="mask-type:luminance" maskUnits="userSpaceOnUse" x="39" y="53" width="13" height="14">
<path d="M40.1025 53.6981C40.1025 53.6981 38.9648 56.3827 39.4825 56.7981C40.0002 57.2135 40.3071 57.4181 40.3071 57.4181C40.3071 57.4181 40.6171 61.0296 41.1317 61.6496C41.6463 62.2696 44.9509 61.2373 44.9509 61.2373C44.9509 61.2373 51.65 67.9426 51.867 66.7026C52.084 65.4626 51.247 60.8126 51.247 60.3042C51.247 59.7958 49.8024 58.4442 49.8024 58.4442" fill="white"/>
</mask>
<g mask="url(#mask1_125_2870)">
<g style="mix-blend-mode:multiply" opacity="0.3">
<path d="M45.8561 53.85L41.4758 53.9275C41.4758 53.9275 40.2358 55.772 40.5458 56.3114C40.7857 56.6844 41.1028 57.0015 41.4758 57.2414C41.4758 57.2414 41.1658 59.7028 41.5533 60.5491C41.9408 61.3954 45.0129 61.0079 45.0129 61.0079C44.3331 61.4099 43.5688 61.6477 42.7809 61.7023C41.3208 61.8542 40.862 61.5473 40.6295 60.701C40.397 59.8547 40.3195 57.4243 40.3195 57.4243L39.25 56.3114L40.0188 54.2344L40.8651 53.3912L45.8561 53.85Z" fill="#F58634"/>
</g>
</g>
<path d="M40.1025 53.6981C40.1025 53.6981 38.9648 56.3827 39.4825 56.7981C40.0002 57.2135 40.3071 57.4181 40.3071 57.4181C40.3071 57.4181 40.6171 61.0296 41.1317 61.6496C41.6463 62.2696 44.9509 61.2373 44.9509 61.2373C44.9509 61.2373 51.65 67.9426 51.867 66.7026C52.084 65.4626 51.247 60.8126 51.247 60.3042C51.247 59.7958 49.8024 58.4442 49.8024 58.4442" stroke="#263238" stroke-width="0.835087" stroke-linecap="round" stroke-linejoin="round"/>
<path d="M46.0886 53.8004C46.0886 53.8004 46.2932 54.7304 46.9132 54.8327C47.5332 54.935 48.0478 53.9027 48.0478 53.9027L46.0886 53.8004Z" fill="#263238"/>
<path d="M51.34 54.2159C51.34 54.2159 51.96 56.0759 51.2346 57.1051C50.5092 58.1343 50.2054 58.1374 50.2054 58.1374C49.5854 59.1697 47.9331 56.8974 47.9331 56.8974C47.9331 56.8974 49.1731 56.8416 49.4831 56.017C49.7931 55.1924 49.3591 53.9865 49.3591 53.9865L51.34 54.2159Z" fill="#263238"/>
<path d="M49.4801 54.2158C49.4801 54.2158 49.7901 55.6604 49.4801 56.3858C49.1701 57.1112 47.9301 56.9004 47.9301 56.9004L47.3101 58.4504" stroke="#263238" stroke-width="0.835087" stroke-linecap="round" stroke-linejoin="round"/>
<path d="M41.0417 58.0134C41.0417 58.0134 42.2383 58.2707 43.004 56.9036" stroke="#263238" stroke-width="0.626315" stroke-linecap="round" stroke-linejoin="round"/>
<path d="M62.2883 64.7281L59.7517 65.6624L61.1842 69.5516L63.7208 68.6173L62.2883 64.7281Z" fill="#263238"/>
<path d="M61.8444 65.5981L60.6313 66.0449L61.2956 67.8485L62.5087 67.4017L61.8444 65.5981Z" fill="white"/>
<path d="M60.9503 64.1348L60.415 64.3319L60.8511 65.5159L61.3864 65.3187L60.9503 64.1348Z" fill="white" stroke="#263238" stroke-width="0.417543" stroke-linecap="round" stroke-linejoin="round"/>
<path d="M58.2935 81.1301L60.5906 83.7496" stroke="#263238" stroke-width="0.835087" stroke-linecap="round" stroke-linejoin="round"/>
<mask id="mask2_125_2870" style="mask-type:luminance" maskUnits="userSpaceOnUse" x="71" y="30" width="65" height="86">
<path d="M71.8651 54.2035L72.4448 54.4267L80.7156 55.9395C80.7156 55.9395 82.0641 56.6494 82.5384 57.4058C83.0127 58.1622 82.5849 60.9212 82.5849 60.9212L81.72 67.4126L83.1057 79.05L80.6877 80.8635L80.7807 82.0136C80.8458 82.0322 80.7652 83.5481 77.1785 84.1836C77.1785 84.1836 76.4345 84.5556 76.2175 84.3913C75.6688 83.979 76.109 84.0131 76.109 84.0131L74.6582 84.9431C74.7353 85.6745 74.6572 86.414 74.4288 87.1131C74.0506 88.3531 73.7902 88.5949 73.7902 88.5949L74.4505 100.13L76.0408 102.396L96.8108 115.004H135.102V30.535H71.397V54.0268L71.8651 54.2035Z" fill="white"/>
</mask>
<g mask="url(#mask2_125_2870)">
<path d="M81.8904 48.8095L79.6119 50.1239L78.3254 47.8764L80.6008 46.5651L81.8904 48.8095Z" stroke="#263238" stroke-width="0.835087" stroke-linecap="round" stroke-linejoin="round"/>
<path d="M81.1215 46.252L77.5348 48.3228L75.3989 44.3672L78.9856 42.2964L81.1215 46.252Z" stroke="#263238" stroke-width="0.835087" stroke-linecap="round" stroke-linejoin="round"/>
<path d="M115.654 96.5111C126.424 85.7413 126.424 68.2802 115.654 57.5104C104.885 46.7407 87.4233 46.7407 76.6536 57.5104C65.8839 68.2802 65.8839 85.7413 76.6536 96.511C87.4233 107.281 104.885 107.281 115.654 96.5111Z" fill="white"/>
<path d="M96.3952 44.702C90.0987 44.7002 83.943 46.5657 78.7067 50.0625C73.4704 53.5593 69.3888 58.5305 66.9779 64.3472C64.567 70.1639 63.9353 76.5649 65.1626 82.7407C66.3898 88.9165 69.421 94.5896 73.8727 99.0426C78.3243 103.496 83.9966 106.528 90.172 107.757C96.3474 108.987 102.749 108.357 108.566 105.948C114.384 103.538 119.356 99.4581 122.854 94.2229C126.353 88.9876 128.22 82.8325 128.22 76.5359C128.22 68.0947 124.867 59.999 118.899 54.0293C112.931 48.0595 104.836 44.7045 96.3952 44.702ZM96.3952 104.114C90.9384 104.114 85.6042 102.495 81.067 99.4638C76.5299 96.4321 72.9936 92.1232 70.9054 87.0818C68.8172 82.0403 68.2708 76.4929 69.3353 71.141C70.3999 65.789 73.0276 60.873 76.8861 57.0145C80.7447 53.1559 85.6607 50.5282 91.0127 49.4637C96.3646 48.3991 101.912 48.9455 106.953 51.0337C111.995 53.1219 116.304 56.6582 119.335 61.1953C122.367 65.7325 123.985 71.0667 123.985 76.5235C123.985 80.1467 123.272 83.7344 121.885 87.0818C120.499 90.4291 118.466 93.4706 115.904 96.0326C113.342 98.5946 110.301 100.627 106.953 102.013C103.606 103.4 100.018 104.114 96.3952 104.114Z" fill="#263238" stroke="#263238" stroke-width="0.835087" stroke-linecap="round" stroke-linejoin="round"/>
<path d="M115.928 52.5233C112.756 49.9383 109.101 48.0089 105.177 46.8472" stroke="white" stroke-width="1.67017" stroke-linecap="round" stroke-linejoin="round"/>
<path d="M102.242 46.1342C101.114 45.9202 99.9759 45.7681 98.8318 45.6785" stroke="white" stroke-width="1.67017" stroke-linecap="round" stroke-linejoin="round"/>
<path d="M119.614 93.5549C123.334 88.4763 125.287 82.3192 125.175 76.0254C125.063 69.7316 122.892 63.6478 118.994 58.7047" stroke="white" stroke-width="0.835087" stroke-linecap="round" stroke-linejoin="round"/>
<path d="M115.591 97.9847C116.495 97.1774 117.346 96.3128 118.139 95.3962" stroke="white" stroke-width="0.835087" stroke-linecap="round" stroke-linejoin="round"/>
<path d="M84.6929 102.843C89.531 104.991 94.8674 105.766 100.117 105.083C105.366 104.399 110.326 102.283 114.453 98.9675" stroke="white" stroke-width="0.835087" stroke-linecap="round" stroke-linejoin="round"/>
<path d="M80.5852 100.595C81.4463 101.159 82.3373 101.677 83.2543 102.145" stroke="white" stroke-width="0.835087" stroke-linecap="round" stroke-linejoin="round"/>
<path d="M77.4978 98.2513C78.2238 98.8832 78.9812 99.4781 79.767 100.034" stroke="white" stroke-width="0.835087" stroke-linecap="round" stroke-linejoin="round"/>
<path d="M88.4344 48.8652C83.5426 50.2739 79.1118 52.9543 75.5934 56.6332C72.075 60.3121 69.5949 64.8581 68.4057 69.8078C67.2166 74.7575 67.361 79.9339 68.8242 84.8097C70.2873 89.6854 73.017 94.086 76.735 97.5631" stroke="white" stroke-width="0.835087" stroke-linecap="round" stroke-linejoin="round"/>
<path d="M116.75 56.1813C113.383 52.8181 109.235 50.341 104.677 48.9708C100.119 47.6007 95.2931 47.3802 90.6294 48.329" stroke="white" stroke-width="0.835087" stroke-linecap="round" stroke-linejoin="round"/>
<path d="M100.521 86.7318H92.2383V88.9762H100.521V86.7318Z" fill="#F58634"/>
<path d="M98.7079 76.5359C98.7078 75.9949 98.5179 75.4711 98.1712 75.0558C97.8245 74.6405 97.343 74.3602 96.8107 74.2636L96.5658 59.1139H96.2217L95.9799 74.2636C95.4529 74.3583 94.9752 74.6332 94.6285 75.0412C94.2817 75.4492 94.0876 75.965 94.0791 76.5003C94.0707 77.0357 94.2486 77.5574 94.5823 77.9761C94.916 78.3948 95.3848 78.6846 95.9086 78.7958L95.8218 84.1712H96.9688L96.882 78.7958C97.3985 78.684 97.8613 78.3989 98.1934 77.9878C98.5256 77.5767 98.7071 77.0644 98.7079 76.5359ZM96.3953 77.7759C96.15 77.7759 95.9103 77.7032 95.7064 77.5669C95.5024 77.4307 95.3435 77.237 95.2497 77.0104C95.1558 76.7838 95.1313 76.5345 95.1791 76.294C95.2269 76.0534 95.345 75.8325 95.5185 75.6591C95.6919 75.4857 95.9128 75.3676 96.1534 75.3197C96.3939 75.2719 96.6432 75.2964 96.8698 75.3903C97.0964 75.4841 97.29 75.6431 97.4263 75.847C97.5626 76.0509 97.6353 76.2906 97.6353 76.5359C97.6353 76.6987 97.6032 76.86 97.5409 77.0104C97.4786 77.1609 97.3872 77.2976 97.2721 77.4127C97.1569 77.5278 97.0202 77.6192 96.8698 77.6815C96.7194 77.7438 96.5581 77.7759 96.3953 77.7759Z" fill="#263238"/>
<path d="M96.3952 77.8099C97.0989 77.8099 97.6693 77.2395 97.6693 76.5358C97.6693 75.8322 97.0989 75.2617 96.3952 75.2617C95.6915 75.2617 95.1211 75.8322 95.1211 76.5358C95.1211 77.2395 95.6915 77.8099 96.3952 77.8099Z" fill="#F58634"/>
<path d="M96.3953 50.5051V55.0962" stroke="#263238" stroke-width="3.34035" stroke-linecap="round" stroke-linejoin="round"/>
<path d="M96.3953 98.1335V102.725" stroke="#263238" stroke-width="3.34035" stroke-linecap="round" stroke-linejoin="round"/>
<path d="M83.3413 54.0051L85.6353 57.9793" stroke="#263238" stroke-width="3.34035" stroke-linecap="round" stroke-linejoin="round"/>
<path d="M107.155 95.2506L109.449 99.2279" stroke="#263238" stroke-width="3.34035" stroke-linecap="round" stroke-linejoin="round"/>
<path d="M73.7839 63.5593L77.7581 65.8564" stroke="#263238" stroke-width="3.34035" stroke-linecap="round" stroke-linejoin="round"/>
<path d="M115.029 87.3734L119.007 89.6705" stroke="#263238" stroke-width="3.34035" stroke-linecap="round" stroke-linejoin="round"/>
<path d="M122.503 76.6165H117.912" stroke="#263238" stroke-width="3.34035" stroke-linecap="round" stroke-linejoin="round"/>
<path d="M74.875 76.6165H70.2839" stroke="#263238" stroke-width="3.34035" stroke-linecap="round" stroke-linejoin="round"/>
<path d="M122.503 76.6165H117.912" stroke="#263238" stroke-width="3.34035" stroke-linecap="round" stroke-linejoin="round"/>
<path d="M74.875 76.6165H70.2839" stroke="#263238" stroke-width="3.34035" stroke-linecap="round" stroke-linejoin="round"/>
<path d="M119.007 63.5593L115.029 65.8564" stroke="#263238" stroke-width="3.34035" stroke-linecap="round" stroke-linejoin="round"/>
<path d="M77.7581 87.3734L73.7839 89.6705" stroke="#263238" stroke-width="3.34035" stroke-linecap="round" stroke-linejoin="round"/>
<path d="M109.449 54.0051L107.155 57.9793" stroke="#263238" stroke-width="3.34035" stroke-linecap="round" stroke-linejoin="round"/>
<path d="M85.6353 95.2506L83.3413 99.2279" stroke="#263238" stroke-width="3.34035" stroke-linecap="round" stroke-linejoin="round"/>
<path d="M97.7096 43.7007H95.0808V46.0257H97.7096V43.7007Z" stroke="#263238" stroke-width="0.835087" stroke-linecap="round" stroke-linejoin="round"/>
<path d="M98.4661 37.4883H94.3245V43.5674H98.4661V37.4883Z" stroke="#263238" stroke-width="0.835087" stroke-linecap="round" stroke-linejoin="round"/>
<path d="M99.3279 33.2103H93.3325V37.3519H99.3279V33.2103Z" fill="#F58634"/>
<path d="M99.3931 33.2103H93.3977V37.3519H99.3931V33.2103Z" stroke="#263238" stroke-width="0.835087" stroke-linecap="round" stroke-linejoin="round"/>
<path d="M94.0642 35.7864V33.3033" stroke="#263238" stroke-width="0.835087" stroke-linecap="round" stroke-linejoin="round"/>
<path d="M94.0642 37.4294V36.3599" stroke="#263238" stroke-width="0.835087" stroke-linecap="round" stroke-linejoin="round"/>
<path d="M94.8267 37.4294V33.3033" stroke="#263238" stroke-width="0.835087" stroke-linecap="round" stroke-linejoin="round"/>
<path d="M95.5894 34.3356V33.3033" stroke="#263238" stroke-width="0.835087" stroke-linecap="round" stroke-linejoin="round"/>
<path d="M95.5894 37.4293V34.8315" stroke="#263238" stroke-width="0.835087" stroke-linecap="round" stroke-linejoin="round"/>
<path d="M96.8511 37.4294V33.3033" stroke="#263238" stroke-width="0.835087" stroke-linecap="round" stroke-linejoin="round"/>
</g>
<g style="mix-blend-mode:multiply" opacity="0.3">
<path d="M52.6204 66.0734L54.8493 66.2284L54.7749 65.3821C54.7749 65.3821 52.7754 65.2271 52.6204 66.0734Z" fill="#F58634"/>
</g>
<mask id="mask3_125_2870" style="mask-type:luminance" maskUnits="userSpaceOnUse" x="43" y="65" width="9" height="21">
<path d="M47.7347 65.627C47.7347 65.627 44.1108 68.5627 44.1108 69.347C44.1108 70.1313 43.8504 84.7074 44.024 85.0515C44.1976 85.3956 51.03 80.6434 51.03 80.6434L50.3387 74.3442" fill="white"/>
</mask>
<g mask="url(#mask3_125_2870)">
<g style="mix-blend-mode:multiply" opacity="0.3">
<path d="M46.4793 83.6597L51.0301 80.6434L45.2176 82.8599C45.2176 82.8599 44.6906 71.0024 45.0874 70.0817C45.4842 69.161 47.9858 67.4467 47.9858 67.4467C47.9858 67.4467 47.8371 66.4919 48.6431 66.1292C49.1958 65.9226 49.8046 65.9226 50.3574 66.1292L50.9308 66.3462C50.2705 65.9742 49.2042 65.2209 47.5643 63.6895H47.5271L47.9239 64.0708L47.7503 65.6208L46.0081 67.0437C45.6144 67.4405 44.1264 69.3315 44.1264 69.3315L44.0396 85.0361L46.4049 83.514L46.4793 83.6597Z" fill="#F58634"/>
</g>
</g>
<path d="M47.7347 65.627C47.7347 65.627 44.1108 68.5627 44.1108 69.347C44.1108 70.1313 43.8504 84.7074 44.024 85.0515C44.1976 85.3956 51.03 80.6434 51.03 80.6434L50.3387 74.3442" stroke="#263238" stroke-width="0.835087" stroke-linecap="round" stroke-linejoin="round"/>
<path d="M48.426 72.791L55.7606 78.6593" stroke="#263238" stroke-width="0.835087" stroke-linecap="round" stroke-linejoin="round"/>
<mask id="mask4_125_2870" style="mask-type:luminance" maskUnits="userSpaceOnUse" x="53" y="52" width="28" height="12">
<path d="M53.3923 59.52C53.3923 59.52 60.5068 52.7589 61.3686 52.7589C62.2304 52.7589 76.4687 55.6047 77.5041 55.7783C78.5395 55.9519 80.2662 56.296 80.2662 56.296C80.2662 56.296 77.2468 60.0935 76.2114 61.3862C75.176 62.6789 74.6614 63.457 74.6614 63.457L63.0116 58.1095" fill="white"/>
</mask>
<g mask="url(#mask4_125_2870)">
<g style="mix-blend-mode:multiply" opacity="0.3">
<path d="M80.1857 56.5378L75.7682 55.18L61.3687 52.7589L57.72 56.761C57.72 56.761 60.882 54.7863 61.8027 54.7863C62.7234 54.7863 76.6114 58.7357 77.9227 59.1046L80.1857 56.5378Z" fill="#F58634"/>
</g>
</g>
<path d="M53.3923 59.52C53.3923 59.52 60.5068 52.7589 61.3686 52.7589C62.2304 52.7589 76.4687 55.6047 77.5041 55.7783C78.5395 55.9519 80.2662 56.296 80.2662 56.296C80.2662 56.296 77.2468 60.0935 76.2114 61.3862C75.176 62.6789 74.6614 63.457 74.6614 63.457L63.0116 58.1095" stroke="#263238" stroke-width="0.835087" stroke-linecap="round" stroke-linejoin="round"/>
<path d="M64.9924 59.4146L67.9281 67.1801" stroke="#263238" stroke-width="0.835087" stroke-linecap="round" stroke-linejoin="round"/>
<path d="M56.0179 71.0643L55.3266 71.7556L51.9631 67.4404" stroke="#263238" stroke-width="0.835087" stroke-linecap="round" stroke-linejoin="round"/>
<path d="M61.6848 59.7215L65.0979 59.1232L62.1963 61.1692" stroke="#263238" stroke-width="0.417543" stroke-linecap="round" stroke-linejoin="round"/>
<path d="M50.3233 74.3441L45.9895 73.7086" stroke="#263238" stroke-width="0.417543" stroke-linecap="round" stroke-linejoin="round"/>
<path d="M47.9084 64.0739C47.5969 64.8448 47.5662 65.7006 47.8216 66.4919C48.2525 67.7846 49.7188 70.0289 49.7188 70.0289L51.616 67.3537" stroke="#263238" stroke-width="0.835087" stroke-linecap="round" stroke-linejoin="round"/>
<path d="M52.2205 66.3183C52.2205 66.3183 53.1722 65.4565 54.034 65.4565H55.5003C55.5003 65.4565 55.243 62.0899 54.034 60.2764C52.825 58.4629 51.1851 59.4146 51.1851 59.4146" stroke="#263238" stroke-width="0.835087" stroke-linecap="round" stroke-linejoin="round"/>
<path d="M50.6673 81.1611L61.0244 76.3282L61.8862 73.3088L65.4233 72.54C65.4233 72.54 66.1146 71.8487 66.0278 72.54C65.941 73.2313 64.9924 73.4886 64.6483 74.1799C64.3042 74.8712 64.3011 76.2507 63.8702 76.8552C63.4393 77.4597 61.8862 78.151 61.8862 78.151C61.8862 78.151 50.2364 87.9005 49.3746 88.4182C48.5128 88.9359 46.7861 84.0162 46.7861 84.0162" fill="white"/>
<mask id="mask5_125_2870" style="mask-type:luminance" maskUnits="userSpaceOnUse" x="46" y="72" width="21" height="17">
<path d="M50.6673 81.1611L61.0244 76.3282L61.8862 73.3088L65.4233 72.54C65.4233 72.54 66.1146 71.8487 66.0278 72.54C65.941 73.2313 64.9924 73.4886 64.6483 74.1799C64.3042 74.8712 64.3011 76.2507 63.8702 76.8552C63.4393 77.4597 61.8862 78.151 61.8862 78.151C61.8862 78.151 50.2364 87.9005 49.3746 88.4182C48.5128 88.9359 46.7861 84.0162 46.7861 84.0162" fill="white"/>
</mask>
<g mask="url(#mask5_125_2870)">
<g style="mix-blend-mode:multiply" opacity="0.3">
<path d="M46.4792 83.6597C46.8791 84.3014 48.5128 86.9581 48.6275 87.9997C48.7608 89.187 49.8148 87.9997 49.8148 87.9997L59.3008 80.0978C59.3008 80.0978 49.945 86.0219 49.17 85.7584C48.395 85.4949 48.24 83.5202 48.24 83.5202L51.03 80.6434L46.4792 83.6597Z" fill="#F58634"/>
</g>
</g>
<path d="M50.6673 81.1611L61.0244 76.3282L61.8862 73.3088L65.4233 72.54C65.4233 72.54 66.1146 71.8487 66.0278 72.54C65.941 73.2313 64.9924 73.4886 64.6483 74.1799C64.3042 74.8712 64.3011 76.2507 63.8702 76.8552C63.4393 77.4597 61.8862 78.151 61.8862 78.151C61.8862 78.151 50.2364 87.9005 49.3746 88.4182C48.5128 88.9359 46.7861 84.0162 46.7861 84.0162" stroke="#263238" stroke-width="0.835087" stroke-linecap="round" stroke-linejoin="round"/>
<path d="M65.4234 72.5399C65.4234 72.5399 63.7339 73.5474 63.9044 73.8884" stroke="#263238" stroke-width="0.417543" stroke-linecap="round" stroke-linejoin="round"/>
<path d="M64.075 72.8562L62.7947 73.5382" stroke="#263238" stroke-width="0.417543" stroke-linecap="round" stroke-linejoin="round"/>
</svg>
