<svg width="155" height="155" viewBox="0 0 155 155" fill="none" xmlns="http://www.w3.org/2000/svg">
<path d="M29.9243 121.142C56.2743 134.906 98.9768 134.906 125.321 121.142C151.664 107.378 151.671 85.0702 125.321 71.3062C98.9706 57.5422 56.2681 57.5453 29.9243 71.3062C3.58049 85.0671 3.58359 107.381 29.9243 121.142Z" fill="#F5F5F5"/>
<path d="M22.1093 99.2001H23.2191C23.7277 97.5016 24.0612 95.7555 24.2142 93.989C24.456 90.7185 22.8719 85.712 19.9703 84.0349C17.0687 82.3578 15.497 84.4317 16.4704 86.2049C17.4438 87.9781 20.7267 93.0218 20.7701 97.3618L22.1093 99.2001Z" fill="#F58634"/>
<path d="M21.8426 99.2H22.1526C22.4555 97.0582 22.4555 94.8845 22.1526 92.7427C21.6504 88.4988 20.2554 86.5272 18.9596 85.157C18.9313 85.127 18.8922 85.1095 18.8509 85.1083C18.8096 85.1072 18.7696 85.1225 18.7395 85.1508C18.7095 85.1792 18.692 85.2183 18.6909 85.2596C18.6897 85.3009 18.705 85.3409 18.7333 85.3709C19.995 86.7008 21.3528 88.6228 21.8333 92.7768C22.1404 94.9067 22.1436 97.0693 21.8426 99.2Z" fill="white"/>
<path d="M22.1991 99.2001C21.6287 96.5093 19.0371 93.3101 16.5912 92.7583C13.7547 92.1383 12.3752 93.6356 12.7813 94.9283C13.1874 96.221 15.4287 96.8224 17.6049 97.8361C18.3377 98.1753 19.0075 98.6365 19.5858 99.2001H22.1991Z" fill="#F58634"/>
<path d="M21.1668 99.2001H21.4985C20.2988 96.1838 17.5708 94.0324 15.3388 93.834C15.3186 93.8318 15.2981 93.8338 15.2787 93.8397C15.2592 93.8456 15.2412 93.8553 15.2256 93.8683C15.21 93.8813 15.1971 93.8973 15.1878 93.9154C15.1785 93.9335 15.1729 93.9532 15.1714 93.9735C15.1688 93.9938 15.1704 94.0143 15.1761 94.034C15.1819 94.0536 15.1916 94.0718 15.2047 94.0875C15.2177 94.1033 15.2339 94.1161 15.2522 94.1253C15.2705 94.1344 15.2904 94.1398 15.3109 94.1409C17.4189 94.33 19.995 96.3512 21.1668 99.2001Z" fill="white"/>
<path d="M122.27 70.8382L124.592 72.0565L124.787 70.6026C123.637 67.36 124.583 63.6834 125.826 62.152C127.069 60.6206 126.83 59.4953 126.381 58.9931C125.931 58.4909 124.226 58.1096 122.54 60.0812C120.853 62.0528 120.466 64.446 120.748 66.8609C120.928 68.3706 121.721 69.9206 122.27 70.8382Z" fill="#F58634"/>
<path opacity="0.2" d="M122.27 70.8382L124.592 72.0565L124.787 70.6026C123.637 67.36 124.583 63.6834 125.826 62.152C127.069 60.6206 126.83 59.4953 126.381 58.9931C125.931 58.4909 124.226 58.1096 122.54 60.0812C120.853 62.0528 120.466 64.446 120.748 66.8609C120.928 68.3706 121.721 69.9206 122.27 70.8382Z" fill="black"/>
<path d="M123.228 71.3404L123.687 71.5822C123.682 71.5735 123.677 71.5652 123.671 71.5574C123.014 70.7762 122.165 66.9508 122.521 64.7095C122.962 61.9412 124.381 60.1339 125.597 59.3682C125.611 59.3591 125.624 59.347 125.634 59.3328C125.645 59.3185 125.652 59.3024 125.655 59.2853C125.659 59.2682 125.66 59.2506 125.656 59.2334C125.653 59.2162 125.646 59.1999 125.637 59.1853C125.617 59.1557 125.587 59.1349 125.552 59.1274C125.517 59.1198 125.481 59.1262 125.451 59.145C124.211 59.9417 122.71 61.811 122.255 64.6692C121.926 66.7555 122.583 70.0601 123.228 71.3404Z" fill="white"/>
<path d="M124.639 65.3047C125.318 66.9694 125.314 67.7847 124.208 67.9552C123.21 68.104 121.997 69.3161 123.123 71.2846L129.707 74.738C129.724 74.3699 129.815 74.0091 129.975 73.6771C130.134 73.3452 130.36 73.0491 130.637 72.8067C131.719 71.7248 132.717 70.9095 132.562 69.7067C132.407 68.5039 131.363 67.3445 131.189 66.2967C131.015 65.2489 131.549 64.6506 132.686 63.4757C133.824 62.3008 134.856 60.478 133.337 59.6472C131.818 58.8164 130.079 60.2393 129.354 61.1972C128.628 62.1551 127.965 62.5767 126.536 62.4961C125.107 62.4155 123.96 63.64 124.639 65.3047Z" fill="#F58634"/>
<path d="M126.502 73.0577C126.471 67.9489 130.132 61.9659 132.169 60.7569C132.199 60.7377 132.22 60.7077 132.229 60.6732C132.237 60.6386 132.232 60.602 132.215 60.5709C132.196 60.5411 132.167 60.5196 132.133 60.5109C132.099 60.5023 132.063 60.5071 132.032 60.5244C129.968 61.7644 126.275 67.7505 126.235 72.9244L126.502 73.0577Z" fill="white"/>
<path d="M127.481 67.7474C127.453 67.7538 127.424 67.7506 127.398 67.7382C127.372 67.7258 127.351 67.705 127.339 67.6792C126.747 66.5759 126.25 65.4248 125.851 64.2382C125.845 64.2215 125.843 64.204 125.845 64.1865C125.846 64.1691 125.851 64.1521 125.859 64.1365C125.868 64.121 125.879 64.1072 125.892 64.0959C125.905 64.0846 125.921 64.0761 125.938 64.0708C125.954 64.0655 125.972 64.0636 125.989 64.0651C126.007 64.0666 126.024 64.0715 126.039 64.0795C126.055 64.0876 126.069 64.0986 126.08 64.112C126.091 64.1254 126.1 64.1409 126.105 64.1576C126.5 65.3278 126.992 66.4632 127.574 67.5521C127.591 67.5838 127.594 67.6208 127.584 67.655C127.573 67.6892 127.55 67.7179 127.519 67.735L127.481 67.7474Z" fill="white"/>
<path d="M126.601 70.8785C126.576 70.8832 126.549 70.8807 126.525 70.8714C126.501 70.8621 126.48 70.8463 126.464 70.8258C126.444 70.7962 126.436 70.7596 126.443 70.7242C126.449 70.6888 126.469 70.6573 126.499 70.6367C127.834 69.7021 129.453 69.2635 131.077 69.3967C131.113 69.4012 131.145 69.4196 131.167 69.4478C131.188 69.476 131.198 69.5117 131.194 69.547C131.189 69.5824 131.171 69.6145 131.142 69.6363C131.114 69.6581 131.079 69.6678 131.043 69.6633C129.488 69.5449 127.939 69.9617 126.654 70.8444C126.638 70.8592 126.621 70.8708 126.601 70.8785Z" fill="white"/>
<path d="M87.6959 39.6707L80.1412 35.309L72.5896 39.6707L80.1412 44.0324L87.6959 39.6707Z" fill="#F5F5F5"/>
<path d="M80.1411 52.7589L87.6958 48.3972V39.6707L80.1411 44.0324V52.7589Z" fill="#EBEBEB"/>
<path d="M81.5982 49.8635C81.5582 49.8642 81.5187 49.8546 81.4835 49.8356C81.4353 49.8003 81.3969 49.7534 81.3719 49.6991C81.3469 49.6448 81.3363 49.5851 81.3409 49.5256V48.5956V48.5274H81.3874L82.1128 48.1027V49.135C82.1118 49.2679 82.0789 49.3987 82.0168 49.5163C81.9548 49.6339 81.8655 49.7349 81.7563 49.8108C81.7094 49.8424 81.6547 49.8607 81.5982 49.8635ZM81.4587 48.6638V49.5194C81.4535 49.5592 81.4585 49.5997 81.4731 49.637C81.4878 49.6744 81.5116 49.7075 81.5424 49.7333C81.5675 49.7445 81.5952 49.7487 81.6225 49.7454C81.6498 49.7421 81.6757 49.7315 81.6974 49.7147C81.7902 49.6499 81.8666 49.5643 81.9204 49.4647C81.9743 49.3651 82.0041 49.2543 82.0074 49.1412V49.0668H81.7377L81.685 48.7041L81.4587 48.6638ZM81.8307 48.949H81.9981V48.3135L81.5641 48.5646L81.778 48.6049L81.8307 48.949Z" fill="white"/>
<path d="M81.7284 50.6013C81.7128 50.6013 81.6978 50.5951 81.6868 50.584C81.6757 50.573 81.6695 50.558 81.6695 50.5424V49.7674C81.6691 49.7595 81.6703 49.7517 81.6731 49.7443C81.6759 49.737 81.6802 49.7303 81.6858 49.7247C81.6913 49.7192 81.698 49.7148 81.7054 49.712C81.7127 49.7092 81.7206 49.708 81.7284 49.7085C81.744 49.7085 81.759 49.7147 81.7701 49.7257C81.7811 49.7368 81.7873 49.7517 81.7873 49.7674V50.53C81.7886 50.5386 81.7881 50.5474 81.7858 50.5558C81.7835 50.5642 81.7794 50.5721 81.7738 50.5788C81.7683 50.5855 81.7613 50.591 81.7535 50.5949C81.7457 50.5988 81.7371 50.6009 81.7284 50.6013Z" fill="white"/>
<path d="M81.3905 50.7966C81.3801 50.7965 81.37 50.7936 81.3613 50.7881C81.3525 50.7826 81.3455 50.7748 81.3409 50.7656C81.3366 50.7592 81.3337 50.752 81.3325 50.7445C81.3312 50.7369 81.3317 50.7292 81.3337 50.7218C81.3358 50.7144 81.3395 50.7076 81.3444 50.7017C81.3494 50.6959 81.3556 50.6913 81.3626 50.6881L82.0353 50.2975C82.042 50.2936 82.0494 50.2911 82.0571 50.2901C82.0648 50.289 82.0726 50.2896 82.0801 50.2916C82.0876 50.2936 82.0946 50.2971 82.1007 50.3018C82.1069 50.3065 82.112 50.3124 82.1159 50.3192C82.1229 50.3329 82.1246 50.3488 82.1206 50.3637C82.1166 50.3786 82.1072 50.3914 82.0942 50.3998L81.4184 50.7873L81.3905 50.7966Z" fill="white"/>
<path d="M83.796 49.4573C83.7748 49.4638 83.7522 49.4638 83.7309 49.4573C83.7083 49.4421 83.6901 49.4212 83.6781 49.3967C83.6661 49.3722 83.6608 49.345 83.6627 49.3178V49.1597C83.6623 49.1521 83.6634 49.1445 83.6661 49.1374C83.6687 49.1303 83.6727 49.1237 83.6779 49.1182C83.6832 49.1127 83.6895 49.1083 83.6964 49.1053C83.7034 49.1023 83.7109 49.1008 83.7185 49.1008C83.7264 49.1004 83.7342 49.1016 83.7416 49.1044C83.7489 49.1072 83.7556 49.1115 83.7612 49.1171C83.7667 49.1226 83.7711 49.1293 83.7739 49.1366C83.7767 49.144 83.7779 49.1519 83.7774 49.1597V49.2899C83.7774 49.3147 83.7774 49.3271 83.7774 49.3271C83.7774 49.3271 83.796 49.3271 83.8146 49.3271C83.8507 49.2943 83.8792 49.254 83.8979 49.209C83.9167 49.164 83.9253 49.1154 83.9231 49.0667V48.0499C83.9231 48.0423 83.9247 48.0348 83.9277 48.0278C83.9306 48.0208 83.935 48.0145 83.9406 48.0093C83.9461 48.0041 83.9526 48 83.9597 47.9974C83.9669 47.9948 83.9744 47.9937 83.982 47.9941C83.9968 47.9941 84.011 48 84.0215 48.0104C84.032 48.0209 84.0378 48.0351 84.0378 48.0499V49.0853C84.0401 49.1543 84.0265 49.2229 83.998 49.2858C83.9695 49.3487 83.9269 49.4042 83.8735 49.448C83.8485 49.456 83.8222 49.4591 83.796 49.4573Z" fill="white"/>
<path d="M83.1823 48.5552V48.456C83.1967 48.1978 83.2716 47.9466 83.4008 47.7227C83.53 47.4987 83.71 47.3081 83.9263 47.1664C84.0036 47.1013 84.0992 47.0616 84.1999 47.0526C84.3007 47.0436 84.4017 47.0659 84.4894 47.1163C84.577 47.1667 84.6471 47.2429 84.69 47.3345C84.7329 47.4261 84.7465 47.5287 84.7292 47.6283V47.6624L83.1823 48.5552ZM84.2735 47.1788C84.171 47.182 84.0713 47.2131 83.9852 47.2687C83.8011 47.3901 83.645 47.5495 83.5274 47.736C83.4098 47.9226 83.3333 48.1321 83.3032 48.3506L84.6114 47.5973C84.6163 47.5241 84.6024 47.4509 84.5709 47.3847C84.5394 47.3185 84.4914 47.2615 84.4316 47.2191C84.3834 47.1918 84.3288 47.1779 84.2735 47.1788Z" fill="white"/>
<path d="M85.8699 48.2669C85.8548 48.267 85.8403 48.2612 85.8294 48.2508C85.8184 48.2404 85.8118 48.2262 85.811 48.2111V46.2333C85.811 46.2177 85.8172 46.2027 85.8283 46.1917C85.8393 46.1806 85.8543 46.1744 85.8699 46.1744C85.8856 46.1744 85.9005 46.1806 85.9116 46.1917C85.9226 46.2027 85.9288 46.2177 85.9288 46.2333V48.2111C85.928 48.2262 85.9215 48.2404 85.9105 48.2508C85.8996 48.2612 85.885 48.267 85.8699 48.2669Z" fill="white"/>
<path d="M85.7118 46.6828H85.6901C85.683 46.6798 85.6765 46.6754 85.6711 46.6698C85.6657 46.6643 85.6614 46.6577 85.6585 46.6505C85.6556 46.6433 85.6542 46.6356 85.6543 46.6279C85.6544 46.6201 85.656 46.6124 85.6591 46.6053L85.8668 46.1279L86.0962 46.3945C86.1011 46.4002 86.1048 46.4068 86.1071 46.414C86.1095 46.4211 86.1104 46.4286 86.1098 46.4361C86.1092 46.4436 86.1072 46.4509 86.1038 46.4576C86.1004 46.4643 86.0957 46.4702 86.09 46.4751C86.0843 46.48 86.0777 46.4837 86.0706 46.4861C86.0634 46.4884 86.0559 46.4893 86.0484 46.4887C86.0409 46.4881 86.0336 46.4861 86.0269 46.4827C86.0203 46.4793 86.0143 46.4746 86.0094 46.4689L85.8978 46.3449L85.7645 46.6549C85.7593 46.6641 85.7515 46.6716 85.7422 46.6765C85.7329 46.6814 85.7223 46.6836 85.7118 46.6828Z" fill="white"/>
<path d="M86.4187 47.9631C86.4036 47.9624 86.3894 47.9558 86.379 47.9448C86.3686 47.9339 86.3629 47.9193 86.3629 47.9042V45.9264C86.3609 45.9178 86.3608 45.9088 86.3628 45.9002C86.3647 45.8915 86.3686 45.8834 86.3741 45.8764C86.3796 45.8695 86.3866 45.8639 86.3946 45.86C86.4026 45.8561 86.4113 45.8541 86.4202 45.8541C86.4291 45.8541 86.4379 45.8561 86.4459 45.86C86.4538 45.8639 86.4609 45.8695 86.4664 45.8764C86.4719 45.8834 86.4758 45.8915 86.4777 45.9002C86.4796 45.9088 86.4796 45.9178 86.4776 45.9264V47.9042C86.4776 47.9199 86.4714 47.9349 86.4603 47.9459C86.4493 47.9569 86.4343 47.9631 86.4187 47.9631Z" fill="white"/>
<path d="M86.2482 46.3759H86.2265C86.2194 46.3729 86.2129 46.3685 86.2075 46.3629C86.202 46.3574 86.1978 46.3508 86.1949 46.3436C86.192 46.3364 86.1906 46.3287 86.1907 46.321C86.1908 46.3132 86.1924 46.3056 86.1955 46.2984L86.4032 45.821L86.6326 46.0876C86.6428 46.0986 86.6485 46.113 86.6485 46.1279C86.6485 46.1429 86.6428 46.1573 86.6326 46.1682C86.6212 46.1787 86.6062 46.1845 86.5907 46.1845C86.5753 46.1845 86.5603 46.1787 86.5489 46.1682L86.4404 46.0411L86.3071 46.3511C86.3007 46.3605 86.2917 46.3678 86.2813 46.3722C86.2708 46.3766 86.2594 46.3779 86.2482 46.3759Z" fill="white"/>
<path d="M80.1411 52.7589L72.5864 48.3972L72.5895 39.6707L80.1411 44.0324V52.7589Z" fill="#235EAC"/>
<path d="M76.7745 42.0887L84.3231 37.7239L83.4706 37.231L75.9189 41.5958L76.7745 42.0887Z" fill="white"/>
<path d="M73.7334 44.674L76.4397 46.224C76.5954 46.3266 76.7249 46.4641 76.818 46.6255C76.9112 46.787 76.9653 46.968 76.976 47.154V48.8218C76.976 49.1659 76.7342 49.3054 76.4397 49.1318L73.7334 47.5818C73.5776 47.4795 73.448 47.342 73.3548 47.1805C73.2617 47.019 73.2077 46.838 73.1971 46.6518V44.984C73.1971 44.6399 73.4389 44.5035 73.7334 44.674Z" fill="#F58634"/>
<path d="M73.5258 45.0895L73.6281 45.1515V47.0022L73.5258 46.9433V45.0895Z" fill="#F58634"/>
<path d="M73.9443 45.3313L74.121 45.4367V47.2874L73.9443 47.1851V45.3313Z" fill="#F58634"/>
<path d="M74.3628 45.573L74.4651 45.6319V47.4857L74.3628 47.4268V45.573Z" fill="#F58634"/>
<path d="M74.6759 45.7528L74.8836 45.8737V47.7275L74.6759 47.6035V45.7528Z" fill="#F58634"/>
<path d="M75.1967 46.0566L75.3021 46.1155V47.9693L75.1967 47.9073V46.0566Z" fill="#F58634"/>
<path d="M75.5004 46.2272L75.7174 46.3574V48.2081L75.4973 48.0779L75.5004 46.2272Z" fill="#F58634"/>
<path d="M76.0337 46.5403L76.136 46.5992V48.4499L76.0337 48.391V46.5403Z" fill="#F58634"/>
<path d="M76.2723 46.6736L76.325 46.7046V48.5553L76.2723 48.5274V46.6736Z" fill="#F58634"/>
<path d="M75.8446 46.438L75.8942 46.469V48.3197L75.8446 48.2918V46.438Z" fill="#F58634"/>
<path d="M75.0013 45.9451L75.0509 45.973V47.8268L75.0013 47.7958V45.9451Z" fill="#F58634"/>
<path d="M74.5394 45.6785L74.5921 45.7095V47.5633L74.5394 47.5323V45.6785Z" fill="#F58634"/>
<path d="M74.2078 45.4955L74.2605 45.5265V47.3803L74.2078 47.3493V45.4955Z" fill="#F58634"/>
<path d="M73.7583 45.2228L73.811 45.2538V47.1076L73.7583 47.0766V45.2228Z" fill="#F58634"/>
<path d="M76.4521 46.7789L76.5544 46.8378V48.6916L76.4521 48.6327V46.7789Z" fill="#F58634"/>
<path d="M77.624 38.2167L68.8076 33.1296L59.9943 38.2167L68.8076 43.3069L77.624 38.2167Z" fill="#F5F5F5"/>
<path d="M65.0286 41.1246L73.845 36.0375L72.9894 35.5446L64.1761 40.6317L65.0286 41.1246Z" fill="white"/>
<path d="M68.8076 59.2999L77.624 54.2128V38.2168L68.8076 43.307V59.2999Z" fill="#EBEBEB"/>
<path d="M70.2646 56.4199C70.2242 56.4206 70.1845 56.4099 70.1499 56.3889C70.101 56.3543 70.0621 56.3074 70.0371 56.253C70.012 56.1986 70.0018 56.1385 70.0073 56.0789V55.1489V55.0807H70.0569L70.7792 54.656V55.6883C70.7777 55.8212 70.7446 55.9517 70.6826 56.0693C70.6206 56.1868 70.5315 56.2878 70.4227 56.3641C70.3762 56.3969 70.3215 56.4162 70.2646 56.4199ZM70.1251 55.2202V56.0758C70.12 56.1156 70.1249 56.1561 70.1396 56.1935C70.1542 56.2309 70.178 56.264 70.2088 56.2897C70.2339 56.3009 70.2616 56.3051 70.2889 56.3018C70.3162 56.2986 70.3421 56.2879 70.3638 56.2711C70.4567 56.2063 70.5331 56.1207 70.5869 56.0211C70.6407 55.9216 70.6705 55.8108 70.6738 55.6976V55.6232H70.4041L70.3514 55.2605L70.1251 55.2202ZM70.4971 55.5054H70.68V54.8699L70.246 55.1241L70.4599 55.1613L70.4971 55.5054Z" fill="white"/>
<path d="M70.3948 57.1453C70.3792 57.1453 70.3642 57.1391 70.3532 57.1281C70.3421 57.117 70.3359 57.102 70.3359 57.0864V56.3083C70.3359 56.3007 70.3375 56.2932 70.3405 56.2862C70.3435 56.2793 70.3478 56.273 70.3534 56.2677C70.3589 56.2625 70.3654 56.2585 70.3725 56.2558C70.3797 56.2532 70.3873 56.2521 70.3948 56.2525C70.4099 56.2525 70.4245 56.2583 70.4354 56.2687C70.4464 56.2791 70.4529 56.2932 70.4537 56.3083V57.0864C70.453 57.1018 70.4465 57.1164 70.4357 57.1272C70.4248 57.1381 70.4102 57.1446 70.3948 57.1453Z" fill="white"/>
<path d="M70.06 57.35C70.05 57.3502 70.0401 57.3477 70.0314 57.3428C70.0227 57.3379 70.0154 57.3308 70.0104 57.3221C70.0034 57.3084 70.0017 57.2925 70.0057 57.2776C70.0097 57.2627 70.0191 57.2498 70.0321 57.2415L70.7048 56.854C70.7115 56.8501 70.7189 56.8476 70.7266 56.8466C70.7343 56.8456 70.7421 56.8461 70.7496 56.8481C70.7571 56.8501 70.7641 56.8536 70.7703 56.8583C70.7764 56.8631 70.7816 56.869 70.7854 56.8757C70.7892 56.8822 70.7917 56.8893 70.7927 56.8968C70.7936 56.9042 70.7931 56.9118 70.7911 56.9191C70.789 56.9263 70.7856 56.9331 70.7809 56.9389C70.7762 56.9448 70.7703 56.9496 70.7637 56.9532L70.0879 57.3438C70.0795 57.3487 70.0697 57.3509 70.06 57.35Z" fill="white"/>
<path d="M72.4625 56.0014C72.4399 56.0015 72.4176 55.9962 72.3974 55.9859C72.3748 55.9707 72.3566 55.9498 72.3446 55.9253C72.3326 55.9008 72.3273 55.8736 72.3292 55.8464V55.6852C72.3292 55.6776 72.3308 55.6701 72.3338 55.6631C72.3368 55.6562 72.3411 55.6499 72.3467 55.6446C72.3522 55.6394 72.3587 55.6354 72.3658 55.6328C72.373 55.6301 72.3805 55.629 72.3881 55.6294C72.3955 55.6294 72.4027 55.6309 72.4095 55.6337C72.4163 55.6365 72.4224 55.6406 72.4276 55.6458C72.4328 55.651 72.4369 55.6571 72.4397 55.6639C72.4425 55.6706 72.4439 55.6779 72.4439 55.6852V55.8464C72.4439 55.8681 72.4439 55.8805 72.4439 55.8836C72.4439 55.8867 72.4625 55.8836 72.4811 55.8836C72.5173 55.8503 72.5458 55.8094 72.5645 55.7639C72.5833 55.7184 72.5918 55.6693 72.5896 55.6201V54.5878C72.5896 54.5722 72.5958 54.5572 72.6069 54.5462C72.6179 54.5351 72.6329 54.5289 72.6485 54.5289C72.6639 54.5297 72.6785 54.5361 72.6893 54.547C72.7002 54.5579 72.7067 54.5725 72.7074 54.5878V55.6201C72.7104 55.6895 72.6967 55.7586 72.6676 55.8217C72.6385 55.8848 72.5948 55.94 72.54 55.9828C72.516 55.9949 72.4894 56.0012 72.4625 56.0014Z" fill="white"/>
<path d="M71.8486 55.0994V54.9971C71.8633 54.7394 71.9383 54.4887 72.0675 54.2653C72.1967 54.0418 72.3766 53.8518 72.5926 53.7106C72.67 53.6455 72.7656 53.6057 72.8663 53.5968C72.967 53.5878 73.0681 53.6101 73.1558 53.6605C73.2434 53.7109 73.3135 53.7871 73.3563 53.8787C73.3992 53.9703 73.4129 54.0729 73.3955 54.1725V54.2066L71.8486 55.0994ZM72.9398 53.7199C72.8376 53.7246 72.7383 53.7555 72.6515 53.8098C72.4671 53.9316 72.3108 54.0914 72.1931 54.2785C72.0755 54.4656 71.9993 54.6758 71.9695 54.8948L73.2777 54.1415C73.2823 54.0679 73.2683 53.9944 73.2368 53.9277C73.2054 53.8611 73.1576 53.8034 73.0979 53.7602C73.0494 53.7338 72.9951 53.72 72.9398 53.7199Z" fill="white"/>
<path d="M74.5488 54.8111C74.5331 54.8111 74.5182 54.8048 74.5071 54.7938C74.4961 54.7828 74.4899 54.7678 74.4899 54.7522V52.7744C74.4899 52.7587 74.4961 52.7438 74.5071 52.7327C74.5182 52.7217 74.5331 52.7155 74.5488 52.7155C74.5644 52.7155 74.5794 52.7217 74.5904 52.7327C74.6015 52.7438 74.6077 52.7587 74.6077 52.7744V54.7522C74.6077 54.7678 74.6015 54.7828 74.5904 54.7938C74.5794 54.8048 74.5644 54.8111 74.5488 54.8111Z" fill="white"/>
<path d="M74.3783 53.227H74.3566C74.3496 53.2243 74.3432 53.2201 74.3378 53.2149C74.3324 53.2096 74.3281 53.2033 74.3252 53.1964C74.3223 53.1894 74.3209 53.182 74.3209 53.1744C74.321 53.1669 74.3226 53.1595 74.3256 53.1526L74.5333 52.6752L74.7627 52.9418C74.7726 52.9533 74.7775 52.9682 74.7763 52.9834C74.7751 52.9985 74.768 53.0125 74.7565 53.0224C74.745 53.0322 74.73 53.0371 74.7149 53.036C74.6998 53.0348 74.6858 53.0277 74.6759 53.0162L74.5643 52.8891L74.431 53.1991C74.4258 53.2082 74.418 53.2157 74.4087 53.2207C74.3994 53.2256 74.3888 53.2278 74.3783 53.227Z" fill="white"/>
<path d="M75.0851 54.5041C75.0703 54.5041 75.0561 54.4982 75.0456 54.4877C75.0351 54.4773 75.0293 54.4631 75.0293 54.4483V52.4705C75.0288 52.4629 75.03 52.4553 75.0326 52.4482C75.0352 52.4411 75.0392 52.4345 75.0445 52.429C75.0497 52.4235 75.056 52.4191 75.063 52.4161C75.0699 52.4131 75.0775 52.4116 75.0851 52.4116C75.0929 52.4111 75.1008 52.4124 75.1081 52.4152C75.1155 52.418 75.1221 52.4223 75.1277 52.4278C75.1333 52.4334 75.1376 52.4401 75.1404 52.4474C75.1432 52.4548 75.1444 52.4626 75.144 52.4705V54.4483C75.144 54.4559 75.1424 54.4634 75.1394 54.4704C75.1364 54.4774 75.1321 54.4837 75.1265 54.4889C75.121 54.4941 75.1145 54.4982 75.1074 54.5008C75.1002 54.5034 75.0926 54.5045 75.0851 54.5041Z" fill="white"/>
<path d="M74.9176 52.92H74.8928C74.879 52.9133 74.8681 52.9016 74.8623 52.8873C74.8566 52.8729 74.8564 52.857 74.8618 52.8425L75.0695 52.3651L75.302 52.6317C75.3116 52.6429 75.3169 52.6572 75.3169 52.672C75.3169 52.6868 75.3116 52.7011 75.302 52.7123C75.2966 52.7178 75.29 52.7222 75.2829 52.7252C75.2757 52.7282 75.268 52.7298 75.2602 52.7298C75.2524 52.7298 75.2447 52.7282 75.2375 52.7252C75.2303 52.7222 75.2238 52.7178 75.2183 52.7123L75.1098 52.5852L74.9765 52.8952C74.9704 52.9049 74.9615 52.9124 74.951 52.9169C74.9405 52.9213 74.9288 52.9224 74.9176 52.92Z" fill="white"/>
<path d="M68.8076 59.2999L59.9943 54.2128V38.2168L68.8076 43.307V59.2999Z" fill="#235EAC"/>
<path d="M61.7861 50.8864L64.4893 52.4364C64.6456 52.5385 64.7759 52.6757 64.8696 52.8373C64.9633 52.9988 65.0178 53.18 65.0287 53.3664V55.0373C65.0287 55.3783 64.7869 55.5178 64.4893 55.3473L61.7861 53.7973C61.6297 53.6955 61.4997 53.5582 61.4065 53.3966C61.3133 53.235 61.2596 53.0536 61.2498 52.8673V51.1995C61.2498 50.8399 61.4916 50.7159 61.7861 50.8864Z" fill="#F5F5F5"/>
<path d="M61.5784 51.3019L61.6807 51.3639V53.2146L61.5784 53.1557V51.3019Z" fill="#235EAC"/>
<path d="M61.9968 51.5437L62.1735 51.6491V53.5029L61.9968 53.3975V51.5437Z" fill="#235EAC"/>
<path d="M62.4122 51.7854L62.5176 51.8443L62.5145 53.6981L62.4122 53.6392V51.7854Z" fill="#235EAC"/>
<path d="M62.7285 51.9652L62.9331 52.0861V53.9399L62.7285 53.8159V51.9652Z" fill="#235EAC"/>
<path d="M63.2493 52.269L63.3516 52.3279V54.1817L63.2493 54.1197V52.269Z" fill="#235EAC"/>
<path d="M63.5499 52.4396L63.77 52.5698V54.4205L63.5499 54.2903V52.4396Z" fill="#235EAC"/>
<path d="M64.0863 52.7495L64.1886 52.8115V54.6622L64.0863 54.6033V52.7495Z" fill="#235EAC"/>
<path d="M64.325 52.886L64.3777 52.917V54.7708L64.325 54.7398V52.886Z" fill="#235EAC"/>
<path d="M63.8972 52.6504L63.9468 52.6814V54.5321L63.8972 54.5042V52.6504Z" fill="#235EAC"/>
<path d="M63.054 52.1575L63.1036 52.1854V54.0392L63.054 54.0082V52.1575Z" fill="#235EAC"/>
<path d="M62.592 51.8909L62.6416 51.9219V53.7757L62.592 53.7447V51.8909Z" fill="#235EAC"/>
<path d="M62.2604 51.7079L62.3131 51.7389V53.5927L62.2604 53.5617V51.7079Z" fill="#235EAC"/>
<path d="M61.8109 51.4352L61.8636 51.4662V53.32L61.8109 53.289V51.4352Z" fill="#235EAC"/>
<path d="M64.5048 52.9913L64.6071 53.0502V54.904L64.5048 54.8451V52.9913Z" fill="#235EAC"/>
<path d="M64.1761 42.6962L65.0286 43.1891V41.1245L64.1761 40.6316V42.6962Z" fill="#F0F0F0"/>
<path d="M51.1779 54.9381L44.8818 51.3049L36.0685 56.392L42.3646 60.0283L51.1779 54.9381Z" fill="#F5F5F5"/>
<path d="M42.3646 74.5673L51.1779 69.4802V54.9381L42.3646 60.0283V74.5673Z" fill="#EBEBEB"/>
<path d="M43.8185 71.675C43.7791 71.6758 43.7403 71.6651 43.7069 71.644C43.6582 71.6092 43.6195 71.5623 43.5945 71.508C43.5695 71.4536 43.5591 71.3936 43.5643 71.334V70.404V70.3358H43.6108L44.3362 69.9111V70.9434C44.3347 71.0763 44.3016 71.2069 44.2396 71.3244C44.1776 71.4419 44.0885 71.543 43.9797 71.6192C43.9318 71.6517 43.8762 71.6709 43.8185 71.675ZM43.6821 70.4753V71.3309C43.6763 71.3708 43.681 71.4114 43.6957 71.4489C43.7104 71.4864 43.7345 71.5195 43.7658 71.5448C43.7912 71.5548 43.8186 71.5584 43.8457 71.5551C43.8727 71.5519 43.8985 71.5419 43.9208 71.5262C44.0136 71.4615 44.09 71.3759 44.1439 71.2763C44.1977 71.1767 44.2275 71.0659 44.2308 70.9527V70.8783H43.9611L43.9084 70.5156L43.6821 70.4753ZM44.0541 70.7605H44.2215V70.1219L43.7875 70.3761L44.0014 70.4133L44.0541 70.7605Z" fill="white"/>
<path d="M43.9517 72.4128C43.9361 72.4128 43.9211 72.4066 43.9101 72.3955C43.899 72.3845 43.8928 72.3695 43.8928 72.3539V71.5758C43.8928 71.5682 43.8944 71.5607 43.8973 71.5537C43.9003 71.5467 43.9047 71.5404 43.9102 71.5352C43.9158 71.53 43.9223 71.5259 43.9294 71.5233C43.9365 71.5207 43.9441 71.5196 43.9517 71.52C43.9665 71.52 43.9807 71.5259 43.9912 71.5363C44.0016 71.5468 44.0075 71.561 44.0075 71.5758V72.3539C44.0075 72.369 44.0018 72.3835 43.9914 72.3945C43.981 72.4054 43.9668 72.412 43.9517 72.4128Z" fill="white"/>
<path d="M43.6139 72.605C43.6039 72.6056 43.5938 72.6033 43.585 72.5983C43.5762 72.5934 43.5691 72.586 43.5643 72.5771C43.5599 72.5707 43.5568 72.5634 43.5553 72.5558C43.5539 72.5481 43.554 72.5403 43.5558 72.5327C43.5575 72.5251 43.5608 72.5179 43.5655 72.5117C43.5702 72.5055 43.5761 72.5003 43.5829 72.4965L44.2587 72.109C44.2654 72.1051 44.2729 72.1026 44.2805 72.1016C44.2882 72.1006 44.296 72.1011 44.3035 72.1031C44.311 72.1051 44.318 72.1086 44.3242 72.1133C44.3303 72.1181 44.3355 72.124 44.3393 72.1307C44.3431 72.1372 44.3456 72.1443 44.3466 72.1518C44.3476 72.1593 44.347 72.1668 44.345 72.1741C44.343 72.1813 44.3395 72.1881 44.3348 72.1939C44.3301 72.1998 44.3242 72.2046 44.3176 72.2082L43.6418 72.5988C43.6334 72.6037 43.6236 72.6059 43.6139 72.605Z" fill="white"/>
<path d="M46.0194 71.2689C45.9968 71.2689 45.9745 71.2636 45.9543 71.2534C45.9317 71.2382 45.9135 71.2173 45.9015 71.1928C45.8895 71.1683 45.8842 71.1411 45.8861 71.1139V70.9527C45.8861 70.9379 45.892 70.9237 45.9025 70.9132C45.9129 70.9028 45.9271 70.8969 45.9419 70.8969C45.9495 70.8965 45.9571 70.8976 45.9642 70.9002C45.9714 70.9028 45.9779 70.9069 45.9834 70.9121C45.9889 70.9173 45.9933 70.9236 45.9963 70.9306C45.9993 70.9376 46.0008 70.9451 46.0008 70.9527V71.1139C46.0008 71.1356 46.0008 71.148 46.0008 71.1511C46.0008 71.1542 46.0194 71.1511 46.038 71.1511C46.0736 71.1172 46.1016 71.0763 46.1203 71.0309C46.139 70.9855 46.1479 70.9367 46.1465 70.8876V69.8553C46.1445 69.8466 46.1445 69.8377 46.1464 69.829C46.1483 69.8203 46.1522 69.8122 46.1577 69.8053C46.1632 69.7983 46.1702 69.7927 46.1782 69.7888C46.1862 69.785 46.195 69.783 46.2039 69.783C46.2127 69.783 46.2215 69.785 46.2295 69.7888C46.2375 69.7927 46.2445 69.7983 46.25 69.8053C46.2555 69.8122 46.2594 69.8203 46.2613 69.829C46.2633 69.8377 46.2632 69.8466 46.2612 69.8553V70.8876C46.2638 70.9566 46.2503 71.0253 46.2217 71.0883C46.1932 71.1512 46.1505 71.2067 46.0969 71.2503C46.0728 71.2623 46.0463 71.2687 46.0194 71.2689Z" fill="white"/>
<path d="M45.4056 70.3699V70.2676C45.4203 70.0099 45.4953 69.7593 45.6245 69.5358C45.7537 69.3124 45.9336 69.1224 46.1496 68.9811C46.2266 68.9153 46.3221 68.875 46.423 68.8657C46.5239 68.8564 46.6251 68.8786 46.7129 68.9293C46.8006 68.98 46.8704 69.0566 46.9128 69.1486C46.9552 69.2406 46.968 69.3435 46.9494 69.443V69.4771L45.4056 70.3699ZM46.4968 68.9904C46.3946 68.9951 46.2953 69.0261 46.2085 69.0803C46.0241 69.2021 45.8678 69.3619 45.7502 69.5491C45.6325 69.7362 45.5563 69.9463 45.5265 70.1653L46.8347 69.4089C46.8391 69.3358 46.8249 69.2628 46.7935 69.1967C46.762 69.1306 46.7144 69.0735 46.6549 69.0307C46.6076 69.0038 46.5544 68.9889 46.4999 68.9873L46.4968 68.9904Z" fill="white"/>
<path d="M48.1058 70.0785C48.0901 70.0785 48.0752 70.0723 48.0641 70.0613C48.0531 70.0502 48.0469 70.0352 48.0469 70.0196V68.0418C48.0469 68.0262 48.0531 68.0112 48.0641 68.0002C48.0752 67.9891 48.0901 67.9829 48.1058 67.9829C48.1214 67.9829 48.1364 67.9891 48.1474 68.0002C48.1585 68.0112 48.1647 68.0262 48.1647 68.0418V70.0196C48.1647 70.0352 48.1585 70.0502 48.1474 70.0613C48.1364 70.0723 48.1214 70.0785 48.1058 70.0785Z" fill="white"/>
<path d="M47.9353 68.5099H47.9136C47.9066 68.5072 47.9002 68.5031 47.8948 68.4978C47.8894 68.4926 47.8851 68.4863 47.8822 68.4793C47.8793 68.4724 47.8779 68.4649 47.8779 68.4574C47.878 68.4499 47.8796 68.4424 47.8826 68.4355L48.0903 67.9581L48.3197 68.2247C48.3296 68.2362 48.3345 68.2512 48.3333 68.2663C48.3321 68.2814 48.325 68.2955 48.3135 68.3053C48.3078 68.3102 48.3012 68.3139 48.2941 68.3163C48.2869 68.3186 48.2794 68.3195 48.2719 68.3189C48.2568 68.3178 48.2428 68.3106 48.2329 68.2991L48.1213 68.172L47.988 68.482C47.9828 68.4912 47.975 68.4987 47.9657 68.5036C47.9564 68.5085 47.9458 68.5107 47.9353 68.5099Z" fill="white"/>
<path d="M48.642 69.7717C48.6269 69.7717 48.6124 69.7659 48.6014 69.7555C48.5905 69.7451 48.5839 69.7309 48.5831 69.7159V67.7381C48.5831 67.7224 48.5893 67.7075 48.6004 67.6964C48.6114 67.6854 48.6264 67.6792 48.642 67.6792C48.6499 67.6787 48.6577 67.6799 48.6651 67.6827C48.6724 67.6855 48.6791 67.6899 48.6847 67.6954C48.6902 67.701 48.6946 67.7077 48.6974 67.715C48.7002 67.7224 48.7014 67.7302 48.7009 67.7381V69.7159C48.7009 69.7235 48.6994 69.731 48.6964 69.738C48.6934 69.7449 48.689 69.7512 48.6835 69.7565C48.678 69.7617 48.6715 69.7657 48.6643 69.7683C48.6572 69.771 48.6496 69.7721 48.642 69.7717Z" fill="white"/>
<path d="M48.4716 68.2C48.4646 68.2026 48.4569 68.2026 48.4499 68.2C48.4428 68.1973 48.4364 68.1932 48.431 68.1879C48.4256 68.1827 48.4214 68.1764 48.4185 68.1694C48.4156 68.1625 48.4141 68.155 48.4142 68.1475C48.4143 68.1399 48.4158 68.1325 48.4189 68.1256L48.6266 67.6482L48.856 67.9148C48.8662 67.9257 48.8719 67.9401 48.8719 67.9551C48.8719 67.9701 48.8662 67.9845 48.856 67.9954C48.8505 68.0009 48.844 68.0053 48.8368 68.0083C48.8296 68.0113 48.8219 68.0128 48.8141 68.0128C48.8063 68.0128 48.7986 68.0113 48.7914 68.0083C48.7843 68.0053 48.7777 68.0009 48.7723 67.9954L48.6638 67.8683L48.5305 68.1783C48.5237 68.1871 48.5146 68.1938 48.5041 68.1976C48.4937 68.2015 48.4824 68.2023 48.4716 68.2Z" fill="white"/>
<path d="M42.3646 74.5674L36.0685 70.9342V56.3921L42.3646 60.0284V74.5674Z" fill="#235EAC"/>
<path d="M38.9918 60.1461L39.8443 60.639V58.5744L38.9918 58.0815V60.1461Z" fill="#F5F5F5"/>
<path d="M39.8443 58.5744L48.6607 53.4842L47.8051 52.9913L38.9918 58.0815L39.8443 58.5744Z" fill="white"/>
<path d="M39.8443 67.2978L28.5138 60.7568L17.1802 67.2978L28.5138 73.8419L39.8443 67.2978Z" fill="#F5F5F5"/>
<path d="M28.5138 82.5654L39.8443 76.0244V67.2979L28.5138 73.842V82.5654Z" fill="#EBEBEB"/>
<path d="M29.9677 79.67C29.9284 79.6692 29.8901 79.6585 29.8561 79.639C29.8076 79.6039 29.769 79.557 29.7441 79.5027C29.7191 79.4484 29.7085 79.3885 29.7135 79.329V78.399V78.3308H29.76L30.4854 77.903V78.9384C30.4834 79.0707 30.45 79.2006 30.388 79.3176C30.3261 79.4345 30.2372 79.5351 30.1289 79.6111C30.0812 79.6444 30.0256 79.6647 29.9677 79.67ZM29.8282 78.4703V79.3259C29.8226 79.3652 29.8275 79.4054 29.8421 79.4423C29.8568 79.4793 29.8808 79.5118 29.9119 79.5367C29.9372 79.5483 29.9652 79.5529 29.993 79.5502C30.0208 79.5475 30.0473 79.5375 30.07 79.5211C30.1625 79.456 30.2386 79.3703 30.2924 79.2708C30.3462 79.1713 30.3761 79.0607 30.38 78.9477V78.8702H30.101L30.0483 78.5075L29.8282 78.4703ZM30.2002 78.7555H30.38V78.12L29.9491 78.3742L30.163 78.4114L30.2002 78.7555Z" fill="white"/>
<path d="M30.0979 80.4077C30.0905 80.4077 30.0833 80.4062 30.0765 80.4034C30.0698 80.4006 30.0636 80.3965 30.0584 80.3913C30.0532 80.3862 30.0491 80.38 30.0463 80.3732C30.0435 80.3665 30.0421 80.3592 30.0421 80.3519V79.5738C30.0401 79.5651 30.04 79.5562 30.0419 79.5475C30.0439 79.5388 30.0478 79.5307 30.0533 79.5238C30.0588 79.5168 30.0658 79.5112 30.0738 79.5073C30.0818 79.5035 30.0906 79.5015 30.0994 79.5015C30.1083 79.5015 30.1171 79.5035 30.1251 79.5073C30.133 79.5112 30.1401 79.5168 30.1456 79.5238C30.1511 79.5307 30.155 79.5388 30.1569 79.5475C30.1588 79.5562 30.1588 79.5651 30.1568 79.5738V80.3519C30.1568 80.3595 30.1553 80.367 30.1523 80.374C30.1493 80.381 30.1449 80.3873 30.1394 80.3925C30.1338 80.3977 30.1273 80.4018 30.1202 80.4044C30.1131 80.407 30.1055 80.4081 30.0979 80.4077Z" fill="white"/>
<path d="M29.7599 80.6C29.7475 80.5992 29.7357 80.5945 29.7261 80.5866C29.7165 80.5787 29.7097 80.5679 29.7066 80.5559C29.7035 80.5438 29.7043 80.5311 29.7088 80.5195C29.7134 80.508 29.7215 80.4981 29.732 80.4915L30.4078 80.104C30.414 80.0996 30.421 80.0965 30.4284 80.0951C30.4358 80.0936 30.4435 80.0938 30.4508 80.0956C30.4582 80.0973 30.4651 80.1007 30.471 80.1053C30.477 80.11 30.4818 80.1159 30.4853 80.1226C30.4898 80.129 30.4928 80.1362 30.4943 80.1439C30.4958 80.1515 30.4957 80.1594 30.4939 80.167C30.4921 80.1746 30.4888 80.1817 30.4841 80.188C30.4795 80.1942 30.4735 80.1994 30.4667 80.2032L29.7909 80.6H29.7599Z" fill="white"/>
<path d="M32.1656 79.2669C32.1452 79.2715 32.124 79.2715 32.1036 79.2669C32.0799 79.2519 32.0608 79.2306 32.0482 79.2055C32.0357 79.1804 32.0302 79.1523 32.0323 79.1243V78.9662C32.0323 78.9506 32.0385 78.9356 32.0496 78.9246C32.0606 78.9135 32.0756 78.9073 32.0912 78.9073C32.1068 78.9073 32.1218 78.9135 32.1329 78.9246C32.1439 78.9356 32.1501 78.9506 32.1501 78.9662V79.1243C32.1459 79.1374 32.1459 79.1515 32.1501 79.1646C32.1501 79.1646 32.1687 79.1646 32.1904 79.1646C32.2254 79.1305 32.2528 79.0894 32.271 79.044C32.2891 78.9987 32.2976 78.95 32.2958 78.9011V77.8688C32.2966 77.8535 32.303 77.8389 32.3139 77.828C32.3248 77.8171 32.3393 77.8107 32.3547 77.8099C32.3703 77.8099 32.3853 77.8161 32.3964 77.8272C32.4074 77.8382 32.4136 77.8532 32.4136 77.8688V78.9011C32.4162 78.9702 32.4027 79.0389 32.3741 79.1018C32.3456 79.1648 32.3029 79.2202 32.2493 79.2638C32.222 79.2714 32.1934 79.2725 32.1656 79.2669Z" fill="white"/>
<path d="M31.5549 78.3648V78.2625C31.5684 78.0045 31.6428 77.7534 31.7722 77.5298C31.9015 77.3061 32.082 77.1164 32.2989 76.976C32.3759 76.9102 32.4714 76.8699 32.5723 76.8606C32.6732 76.8513 32.7744 76.8735 32.8621 76.9242C32.9499 76.9748 33.0197 77.0514 33.0621 77.1434C33.1045 77.2355 33.1173 77.3383 33.0987 77.4379V77.472L31.5549 78.3648ZM32.6461 76.9853C32.543 76.9906 32.4429 77.0215 32.3547 77.0752C32.1708 77.1973 32.0151 77.3573 31.8981 77.5444C31.781 77.7315 31.7052 77.9415 31.6758 78.1602L32.9809 77.4038C32.9859 77.331 32.9723 77.258 32.9414 77.1919C32.9105 77.1257 32.8633 77.0685 32.8042 77.0256C32.7561 76.9983 32.7015 76.9844 32.6461 76.9853Z" fill="white"/>
<path d="M34.255 78.0766C34.2472 78.077 34.2393 78.0758 34.232 78.073C34.2246 78.0702 34.2179 78.0659 34.2124 78.0603C34.2068 78.0547 34.2025 78.0481 34.1997 78.0407C34.1969 78.0334 34.1957 78.0255 34.1961 78.0177V76.0398C34.1941 76.0312 34.1941 76.0222 34.196 76.0136C34.1979 76.0049 34.2018 75.9968 34.2073 75.9898C34.2128 75.9829 34.2199 75.9773 34.2279 75.9734C34.2358 75.9695 34.2446 75.9675 34.2535 75.9675C34.2624 75.9675 34.2711 75.9695 34.2791 75.9734C34.2871 75.9773 34.2941 75.9829 34.2996 75.9898C34.3051 75.9968 34.309 76.0049 34.311 76.0136C34.3129 76.0222 34.3129 76.0312 34.3108 76.0398V78.0177C34.3113 78.0252 34.3101 78.0328 34.3075 78.04C34.3049 78.0471 34.3008 78.0536 34.2956 78.0591C34.2904 78.0646 34.2841 78.069 34.2771 78.072C34.2701 78.075 34.2626 78.0766 34.255 78.0766Z" fill="white"/>
<path d="M34.1 76.4924H34.0752C34.0681 76.4894 34.0616 76.485 34.0563 76.4794C34.0509 76.4738 34.0468 76.4671 34.0442 76.4598C34.0416 76.4525 34.0405 76.4447 34.041 76.437C34.0416 76.4293 34.0437 76.4218 34.0473 76.4149L34.2519 75.9375L34.4844 76.2041C34.4947 76.216 34.4998 76.2315 34.4987 76.2472C34.4975 76.2629 34.4901 76.2775 34.4782 76.2878C34.4663 76.2981 34.4508 76.3032 34.4351 76.302C34.4194 76.3009 34.4048 76.2935 34.3945 76.2816L34.286 76.1545L34.1527 76.4645C34.1472 76.4734 34.1394 76.4807 34.1302 76.4856C34.1209 76.4905 34.1105 76.4929 34.1 76.4924Z" fill="white"/>
<path d="M34.7913 77.7697C34.7757 77.7697 34.7607 77.7635 34.7497 77.7524C34.7386 77.7414 34.7324 77.7264 34.7324 77.7108V75.733C34.7324 75.7174 34.7386 75.7024 34.7497 75.6913C34.7607 75.6803 34.7757 75.6741 34.7913 75.6741C34.8069 75.6741 34.8219 75.6803 34.833 75.6913C34.844 75.7024 34.8502 75.7174 34.8502 75.733V77.7108C34.8502 77.7264 34.844 77.7414 34.833 77.7524C34.8219 77.7635 34.8069 77.7697 34.7913 77.7697Z" fill="white"/>
<path d="M34.6207 76.1855H34.599C34.592 76.1828 34.5856 76.1787 34.5802 76.1734C34.5748 76.1682 34.5705 76.1619 34.5676 76.1549C34.5648 76.148 34.5633 76.1405 34.5634 76.133C34.5634 76.1255 34.565 76.118 34.568 76.1111L34.7757 75.6306L35.0051 75.8972C35.0107 75.9027 35.015 75.9092 35.018 75.9164C35.021 75.9236 35.0226 75.9313 35.0226 75.9391C35.0226 75.9468 35.021 75.9546 35.018 75.9617C35.015 75.9689 35.0107 75.9754 35.0051 75.9809C34.9999 75.9864 34.9937 75.9907 34.9867 75.9936C34.9798 75.9966 34.9724 75.9981 34.9648 75.9981C34.9573 75.9981 34.9498 75.9966 34.9429 75.9936C34.936 75.9907 34.9297 75.9864 34.9245 75.9809L34.8129 75.8538L34.6796 76.1638C34.6731 76.1729 34.664 76.1799 34.6535 76.1837C34.643 76.1876 34.6316 76.1882 34.6207 76.1855Z" fill="white"/>
<path d="M28.5138 82.5654L17.1802 76.0244V67.2979L28.5138 73.842V82.5654Z" fill="#235EAC"/>
<path d="M22.4192 72.3881L23.2717 72.881V70.8164L22.4192 70.3235V72.3881Z" fill="#F5F5F5"/>
<path d="M23.2717 70.8163L34.6053 64.2753L33.7528 63.7793L22.4192 70.3234L23.2717 70.8163Z" fill="white"/>
<path d="M18.975 72.6981L21.6782 74.2481C21.8346 74.3501 21.9649 74.4874 22.0586 74.6489C22.1523 74.8104 22.2067 74.9917 22.2176 75.1781V76.849C22.2176 77.19 21.9758 77.3295 21.6782 77.159L18.975 75.609C18.8187 75.5071 18.6886 75.3698 18.5954 75.2082C18.5022 75.0466 18.4485 74.8653 18.4387 74.679V73.0112C18.4387 72.664 18.6805 72.54 18.975 72.6981Z" fill="#F5F5F5"/>
<path d="M18.7673 73.1134L18.8696 73.1723V75.0261L18.7673 74.9672V73.1134Z" fill="#235EAC"/>
<path d="M19.1827 73.3552L19.3625 73.4606V75.3113L19.1827 75.209V73.3552Z" fill="#235EAC"/>
<path d="M19.6013 73.597L19.7067 73.6559L19.7036 75.5097L19.6013 75.4508V73.597Z" fill="#235EAC"/>
<path d="M19.9175 73.7769L20.1252 73.8978L20.1221 75.7516L19.9175 75.6276V73.7769Z" fill="#235EAC"/>
<path d="M20.4382 74.0807L20.5405 74.1396V75.9934L20.4382 75.9314V74.0807Z" fill="#235EAC"/>
<path d="M20.739 74.2511L20.9591 74.3813V76.232L20.739 76.1018V74.2511Z" fill="#235EAC"/>
<path d="M21.2753 74.5642L21.3776 74.6231V76.4738L21.2753 76.4149V74.5642Z" fill="#235EAC"/>
<path d="M21.514 74.6975L21.5667 74.7285V76.5792L21.514 76.5513V74.6975Z" fill="#235EAC"/>
<path d="M21.0862 74.4619L21.1358 74.4898V76.3436L21.0862 76.3157V74.4619Z" fill="#235EAC"/>
<path d="M20.2429 73.969L20.2925 73.9969V75.8507L20.2429 75.8197V73.969Z" fill="#235EAC"/>
<path d="M19.7811 73.7024L19.8338 73.7334V75.5841L19.7811 75.5562V73.7024Z" fill="#235EAC"/>
<path d="M19.4493 73.5195L19.502 73.5505V75.4043L19.4493 75.3733V73.5195Z" fill="#235EAC"/>
<path d="M18.9999 73.2467L19.0526 73.2777V75.1284L18.9999 75.1005V73.2467Z" fill="#235EAC"/>
<path d="M21.6937 74.803L21.796 74.865V76.7157L21.6937 76.6568V74.803Z" fill="#235EAC"/>
<path d="M37.3271 49.8511L28.5138 44.7609L19.6974 49.8511L28.5138 54.9382L37.3271 49.8511Z" fill="#F5F5F5"/>
<path d="M28.5138 72.3881L37.3271 67.2979V49.8511L28.5138 54.9382V72.3881Z" fill="#EBEBEB"/>
<path d="M29.9677 69.4926C29.9287 69.4929 29.8903 69.4833 29.8561 69.4647C29.8076 69.4297 29.769 69.3827 29.7441 69.3284C29.7191 69.2741 29.7085 69.2143 29.7135 69.1547V68.2247V68.1565H29.76L30.4854 67.7318V68.7641C30.4836 68.8969 30.4504 69.0274 30.3884 69.1449C30.3264 69.2624 30.2375 69.3635 30.1289 69.4399C30.0807 69.4713 30.0251 69.4895 29.9677 69.4926ZM29.8282 68.2929V69.1516C29.8233 69.191 29.8283 69.2309 29.843 69.2677C29.8576 69.3046 29.8813 69.3372 29.9119 69.3624C29.9372 69.374 29.9652 69.3787 29.993 69.376C30.0208 69.3732 30.0473 69.3632 30.07 69.3469C30.1625 69.2811 30.2386 69.1949 30.2924 69.0949C30.3462 68.9949 30.3761 68.8838 30.38 68.7703V68.6959H30.101L30.0483 68.3332L29.8282 68.2929ZM30.2002 68.5781H30.38V67.9426L29.9491 68.1968L30.163 68.234L30.2002 68.5781Z" fill="white"/>
<path d="M30.0979 70.2304C30.0903 70.2304 30.0828 70.2289 30.0758 70.2259C30.0688 70.2229 30.0625 70.2185 30.0573 70.213C30.0521 70.2075 30.048 70.201 30.0454 70.1938C30.0428 70.1867 30.0417 70.1791 30.0421 70.1715V69.3965C30.0417 69.3889 30.0428 69.3813 30.0454 69.3742C30.048 69.3671 30.0521 69.3606 30.0573 69.355C30.0625 69.3495 30.0688 69.3451 30.0758 69.3421C30.0828 69.3391 30.0903 69.3376 30.0979 69.3376C30.1057 69.3372 30.1136 69.3384 30.1209 69.3412C30.1283 69.344 30.135 69.3483 30.1405 69.3539C30.1461 69.3594 30.1504 69.3661 30.1532 69.3735C30.156 69.3808 30.1572 69.3887 30.1568 69.3965V70.1715C30.1572 70.1794 30.156 70.1872 30.1532 70.1946C30.1504 70.2019 30.1461 70.2086 30.1405 70.2142C30.135 70.2197 30.1283 70.224 30.1209 70.2269C30.1136 70.2297 30.1057 70.2309 30.0979 70.2304Z" fill="white"/>
<path d="M29.7599 70.4258C29.7475 70.425 29.7357 70.4203 29.7261 70.4124C29.7165 70.4045 29.7097 70.3937 29.7066 70.3817C29.7035 70.3696 29.7043 70.3569 29.7088 70.3454C29.7134 70.3338 29.7215 70.324 29.732 70.3173L30.4078 69.9267C30.4214 69.9189 30.4375 69.9168 30.4526 69.9209C30.4677 69.9249 30.4806 69.9348 30.4884 69.9484C30.4962 69.962 30.4983 69.9781 30.4943 69.9932C30.4902 70.0083 30.4803 70.0212 30.4667 70.029L29.7909 70.4165C29.7818 70.4228 29.771 70.426 29.7599 70.4258Z" fill="white"/>
<path d="M32.1655 69.0896C32.1435 69.0897 32.1219 69.0832 32.1035 69.071C32.0799 69.0567 32.0606 69.036 32.048 69.0114C32.0354 68.9868 32.03 68.9591 32.0322 68.9315V68.7734C32.0322 68.7578 32.0384 68.7428 32.0495 68.7318C32.0605 68.7207 32.0755 68.7145 32.0911 68.7145C32.1068 68.7145 32.1217 68.7207 32.1328 68.7318C32.1438 68.7428 32.15 68.7578 32.15 68.7734V68.9315C32.1458 68.9446 32.1458 68.9587 32.15 68.9718C32.1632 68.9755 32.1772 68.9755 32.1903 68.9718C32.2257 68.9386 32.2535 68.8982 32.2717 68.8532C32.2899 68.8082 32.2981 68.7599 32.2957 68.7114V67.6791C32.2957 67.6635 32.3019 67.6485 32.313 67.6375C32.324 67.6264 32.339 67.6202 32.3546 67.6202C32.3625 67.6198 32.3703 67.621 32.3777 67.6238C32.385 67.6266 32.3917 67.6309 32.3973 67.6365C32.4028 67.642 32.4072 67.6487 32.41 67.656C32.4128 67.6634 32.414 67.6713 32.4135 67.6791V68.7114C32.4161 68.7805 32.4026 68.8492 32.3741 68.9121C32.3456 68.975 32.3028 69.0305 32.2492 69.0741C32.223 69.0859 32.1943 69.0912 32.1655 69.0896Z" fill="white"/>
<path d="M31.5549 68.1999V68.1007C31.5689 67.8424 31.6435 67.5911 31.7728 67.367C31.9021 67.1429 32.0823 66.9525 32.2989 66.8111C32.3766 66.7468 32.4722 66.7079 32.5727 66.6996C32.6732 66.6912 32.7738 66.714 32.861 66.7647C32.9482 66.8154 33.0177 66.8916 33.0603 66.983C33.1028 67.0745 33.1162 67.1768 33.0987 67.2761V67.3071L31.5549 68.1999ZM32.6461 66.8235C32.543 66.8288 32.4429 66.8597 32.3547 66.9134C32.1712 67.0352 32.0157 67.1946 31.8987 67.3812C31.7816 67.5677 31.7056 67.7771 31.6758 67.9953L32.9809 67.242C32.9865 67.1691 32.9732 67.096 32.9423 67.0297C32.9113 66.9635 32.8638 66.9063 32.8042 66.8638C32.7577 66.8311 32.703 66.8117 32.6461 66.808V66.8235Z" fill="white"/>
<path d="M34.255 67.8899C34.2394 67.8899 34.2244 67.8837 34.2134 67.8727C34.2023 67.8616 34.1961 67.8466 34.1961 67.831V65.8532C34.1941 65.8446 34.1941 65.8356 34.196 65.8269C34.1979 65.8183 34.2018 65.8101 34.2073 65.8032C34.2128 65.7962 34.2199 65.7906 34.2279 65.7867C34.2358 65.7829 34.2446 65.7809 34.2535 65.7809C34.2624 65.7809 34.2711 65.7829 34.2791 65.7867C34.2871 65.7906 34.2941 65.7962 34.2996 65.8032C34.3051 65.8101 34.309 65.8183 34.311 65.8269C34.3129 65.8356 34.3129 65.8446 34.3108 65.8532V67.831C34.3109 67.8461 34.3051 67.8606 34.2947 67.8716C34.2843 67.8826 34.2701 67.8891 34.255 67.8899Z" fill="white"/>
<path d="M34.1 66.312H34.0752C34.0681 66.309 34.0616 66.3046 34.0563 66.2989C34.0509 66.2933 34.0468 66.2867 34.0442 66.2794C34.0416 66.2721 34.0405 66.2643 34.041 66.2566C34.0416 66.2489 34.0437 66.2413 34.0473 66.2345L34.2519 65.7571L34.4844 66.0237C34.4947 66.0346 34.5004 66.049 34.5004 66.064C34.5004 66.079 34.4947 66.0934 34.4844 66.1043C34.473 66.1147 34.4581 66.1205 34.4426 66.1205C34.4271 66.1205 34.4121 66.1147 34.4007 66.1043L34.2922 65.9772L34.1589 66.2872C34.1528 66.2969 34.1439 66.3044 34.1334 66.3088C34.1228 66.3133 34.1112 66.3144 34.1 66.312Z" fill="white"/>
<path d="M34.7913 67.58C34.7759 67.5792 34.7614 67.5728 34.7505 67.5619C34.7396 67.551 34.7332 67.5365 34.7324 67.5211V65.5433C34.7324 65.5276 34.7386 65.5127 34.7497 65.5016C34.7607 65.4906 34.7757 65.4844 34.7913 65.4844C34.8069 65.4844 34.8219 65.4906 34.833 65.5016C34.844 65.5127 34.8502 65.5276 34.8502 65.5433V67.5211C34.8495 67.5365 34.843 67.551 34.8321 67.5619C34.8212 67.5728 34.8067 67.5792 34.7913 67.58Z" fill="white"/>
<path d="M34.6207 66.0083H34.599C34.5919 66.0052 34.5854 66.0008 34.58 65.9953C34.5746 65.9897 34.5703 65.9832 34.5674 65.976C34.5646 65.9688 34.5631 65.9611 34.5632 65.9533C34.5633 65.9456 34.565 65.9379 34.568 65.9308L34.7757 65.4534L35.0051 65.72C35.0107 65.7254 35.0151 65.732 35.0181 65.7391C35.0211 65.7463 35.0226 65.754 35.0226 65.7618C35.0226 65.7696 35.0211 65.7773 35.0181 65.7845C35.0151 65.7917 35.0107 65.7982 35.0051 65.8037C34.9939 65.8133 34.9796 65.8186 34.9648 65.8186C34.9501 65.8186 34.9358 65.8133 34.9245 65.8037L34.8129 65.6766L34.6796 65.9866C34.6729 65.9954 34.6637 66.0021 34.6533 66.0059C34.6429 66.0098 34.6316 66.0106 34.6207 66.0083Z" fill="white"/>
<path d="M28.5138 72.3881L19.6974 67.2979V49.8511L28.5138 54.9382V72.3881Z" fill="#235EAC"/>
<path d="M23.8793 54.3274L24.7349 54.8203V52.7588L23.8793 52.2628V54.3274Z" fill="#F5F5F5"/>
<path d="M24.7349 52.7589L33.5482 47.6687L32.6957 47.1758L23.8793 52.2629L24.7349 52.7589Z" fill="white"/>
<path d="M21.4923 63.9716L24.1955 65.5216C24.352 65.6232 24.4822 65.7605 24.5754 65.9221C24.6686 66.0838 24.7222 66.2652 24.7318 66.4516V68.1194C24.7318 68.4604 24.4931 68.5999 24.1955 68.4294L21.4923 66.8794C21.3354 66.7779 21.2047 66.6407 21.111 66.4791C21.0172 66.3175 20.963 66.136 20.9529 65.9494V64.2816C20.956 63.9406 21.1947 63.8011 21.4923 63.9716Z" fill="#F5F5F5"/>
<path d="M21.2815 64.39L21.3838 64.4489V66.3027L21.2815 66.2407V64.39Z" fill="#235EAC"/>
<path d="M21.7 64.6318L21.8767 64.7341V66.5879L21.7 66.4825V64.6318Z" fill="#235EAC"/>
<path d="M22.1185 64.8705L22.2208 64.9325V66.7832L22.1185 66.7243V64.8705Z" fill="#235EAC"/>
<path d="M22.4347 65.0503L22.6393 65.1743V67.025L22.4347 66.9041V65.0503Z" fill="#235EAC"/>
<path d="M22.9554 65.3541L23.0577 65.413V67.2668L22.9554 67.2079V65.3541Z" fill="#235EAC"/>
<path d="M23.2562 65.5247L23.4763 65.6549V67.5087L23.2562 67.3785V65.5247Z" fill="#235EAC"/>
<path d="M23.7925 65.8378L23.8948 65.8967V67.7505L23.7925 67.6885V65.8378Z" fill="#235EAC"/>
<path d="M24.0311 65.9741L24.0807 66.002V67.8558L24.0311 67.8248V65.9741Z" fill="#235EAC"/>
<path d="M23.6002 65.7355L23.6529 65.7665V67.6203L23.6002 67.5893V65.7355Z" fill="#235EAC"/>
<path d="M22.7571 65.2426L22.8098 65.2736V67.1243L22.7571 67.0964V65.2426Z" fill="#235EAC"/>
<path d="M22.2952 64.979L22.3479 65.0069V66.8607L22.2952 66.8297V64.979Z" fill="#235EAC"/>
<path d="M21.9666 64.7961L22.0162 64.824V66.6778L21.9666 66.6468V64.7961Z" fill="#235EAC"/>
<path d="M21.5171 64.5233L21.5667 64.5512V66.405L21.5171 66.374V64.5233Z" fill="#235EAC"/>
<path d="M24.2079 66.0796L24.3133 66.1385V67.9892L24.2079 67.9303V66.0796Z" fill="#235EAC"/>
<path d="M19.7811 97.8826L53.6145 117.413C54.0305 117.624 54.4904 117.734 54.9568 117.734C55.4233 117.734 55.8832 117.624 56.2991 117.413L130.429 74.6326C131.17 74.2048 131.17 73.5104 130.429 73.0826L96.596 53.5526C96.1805 53.3401 95.7205 53.2292 95.2537 53.2292C94.787 53.2292 94.327 53.3401 93.9114 53.5526L19.7811 96.3326C19.0402 96.7604 19.0402 97.4548 19.7811 97.8826Z" fill="#455A64"/>
<path d="M38.068 106.95C38.6449 107.241 39.282 107.393 39.928 107.393C40.5741 107.393 41.2112 107.241 41.788 106.95C42.8203 106.355 42.8203 105.4 41.788 104.796C41.2116 104.503 40.5744 104.351 39.928 104.351C39.2817 104.351 38.6444 104.503 38.068 104.796C37.0357 105.4 37.0357 106.361 38.068 106.95Z" fill="#263238"/>
<path d="M54.25 117.413L20.4166 97.8825C19.7532 97.4981 19.685 96.9029 20.2089 96.4751C19.878 96.7368 19.606 97.0654 19.4105 97.4392C19.215 97.8131 19.1005 98.224 19.0743 98.6451V99.9068C19.0998 100.373 19.2346 100.826 19.4678 101.23C19.701 101.634 20.026 101.977 20.4166 102.232L54.25 121.762C54.6637 121.978 55.1258 122.085 55.5923 122.072V117.735C55.1247 117.744 54.6626 117.633 54.25 117.413Z" fill="#37474F"/>
<path d="M130.426 78.9787C130.818 78.7246 131.144 78.3815 131.378 77.9774C131.611 77.5734 131.746 77.1199 131.772 76.6537V75.392C131.747 74.9704 131.632 74.5589 131.436 74.1848C131.24 73.8107 130.966 73.4825 130.634 73.222C131.161 73.6498 131.093 74.245 130.429 74.6263L56.2991 117.413C55.8851 117.628 55.4232 117.735 54.9568 117.723V122.084C55.4232 122.096 55.8851 121.99 56.2991 121.774L130.426 78.9787Z" fill="#263238"/>
<path d="M59.1883 113.367L26.8057 94.6616C26.3593 94.4043 26.3593 93.9858 26.8057 93.7316L89.401 57.5825C89.6507 57.4557 89.9268 57.3895 90.2069 57.3895C90.4871 57.3895 90.7632 57.4557 91.0129 57.5825L123.408 76.2848C123.851 76.5421 123.851 76.9575 123.408 77.2148L60.7879 113.367C60.5398 113.492 60.2659 113.557 59.9881 113.557C59.7104 113.557 59.4365 113.492 59.1883 113.367Z" fill="white"/>
<path d="M46.1404 102.923L49.9193 100.741L48.6607 100.015L44.8818 102.195L46.1404 102.923Z" fill="#F58634"/>
<path d="M91.4749 76.7498L95.2538 74.5674L93.9921 73.842L90.2163 76.0244L91.4749 76.7498Z" fill="#F58634"/>
<path d="M99.0296 72.3881L102.808 70.2057L101.55 69.4803L97.771 71.6596L99.0296 72.3881Z" fill="#F58634"/>
<path d="M111.157 64.7466C111.304 64.82 111.465 64.8582 111.629 64.8582C111.794 64.8582 111.955 64.82 112.102 64.7466C112.159 64.7272 112.209 64.6904 112.243 64.6415C112.278 64.5926 112.297 64.5339 112.297 64.4738C112.297 64.4137 112.278 64.355 112.243 64.3061C112.209 64.2572 112.159 64.2205 112.102 64.201C111.956 64.1262 111.794 64.0872 111.629 64.0872C111.465 64.0872 111.303 64.1262 111.157 64.201C111.1 64.2205 111.05 64.2572 111.015 64.3061C110.98 64.355 110.962 64.4137 110.962 64.4738C110.962 64.5339 110.98 64.5926 111.015 64.6415C111.05 64.6904 111.1 64.7272 111.157 64.7466Z" fill="#263238"/>
<path d="M112.666 69.0278C112.959 69.1759 113.282 69.2532 113.61 69.2532C113.938 69.2532 114.262 69.1759 114.554 69.0278C115.075 68.7178 115.075 68.2373 114.554 67.9366C114.262 67.7884 113.938 67.7112 113.61 67.7112C113.282 67.7112 112.959 67.7884 112.666 67.9366C112.146 68.2373 112.146 68.7271 112.666 69.0278Z" fill="#263238"/>
<path d="M111.333 67.1305C111.681 66.929 111.662 66.5942 111.293 66.3803L105.093 62.7936C104.894 62.6866 104.671 62.6286 104.445 62.6243C104.219 62.62 103.995 62.6695 103.791 62.7688C103.444 62.9703 103.462 63.3051 103.831 63.519L110.05 67.1057C110.247 67.2094 110.466 67.2656 110.689 67.2699C110.912 67.2742 111.132 67.2265 111.333 67.1305Z" fill="#263238"/>
<path d="M100.75 52.5852L100.961 52.4612C100.815 52.9902 100.744 53.537 100.75 54.0856V54.842C100.75 57.5576 104.008 64.4954 105.208 66.9506C105.332 67.2079 103.686 68.9594 103.686 68.9594L105.642 67.831C105.642 67.831 110.531 63.801 110.531 60.4902V59.7338C110.531 56.4075 108.342 52.4488 105.642 50.8895C104.278 50.1052 103.047 50.0773 102.161 50.6725L100.301 51.7389L100.75 52.5852ZM103.196 55.1241C103.196 53.5741 104.29 52.9324 105.642 53.7136C105.53 54.7149 107.359 57.8335 108.085 57.9482C108.085 59.4982 106.99 60.1399 105.642 59.3587C104.932 58.8937 104.342 58.268 103.919 57.5323C103.496 56.7965 103.253 55.9715 103.208 55.1241H103.196Z" fill="#F58634"/>
<path d="M98.7381 56.0541C98.7939 59.3773 103.841 68.9594 103.841 68.9594C103.841 68.9594 108.664 64.8612 108.612 61.538V60.7816C108.556 57.4584 106.302 53.5338 103.574 52.021C100.846 50.5082 98.6823 51.9714 98.7381 55.2977V56.0541ZM101.187 56.2959C101.162 54.7459 102.247 54.0856 103.608 54.842C104.328 55.2942 104.93 55.9097 105.367 56.6385C105.804 57.3673 106.063 58.1888 106.122 59.0363C106.15 60.5863 105.065 61.2466 103.701 60.4902C102.983 60.0371 102.381 59.4214 101.944 58.6928C101.507 57.9642 101.248 57.1432 101.187 56.2959Z" fill="#F58634"/>
<path opacity="0.1" d="M98.7381 56.0541C98.7939 59.3773 103.841 68.9594 103.841 68.9594C103.841 68.9594 108.664 64.8612 108.612 61.538V60.7816C108.556 57.4584 106.302 53.5338 103.574 52.021C100.846 50.5082 98.6823 51.9714 98.7381 55.2977V56.0541ZM101.187 56.2959C101.162 54.7459 102.247 54.0856 103.608 54.842C104.328 55.2942 104.93 55.9097 105.367 56.6385C105.804 57.3673 106.063 58.1888 106.122 59.0363C106.15 60.5863 105.065 61.2466 103.701 60.4902C102.983 60.0371 102.381 59.4214 101.944 58.6928C101.507 57.9642 101.248 57.1432 101.187 56.2959Z" fill="black"/>
<path d="M51.46 100.375C54.5941 102.179 61.9411 100.868 67.8714 97.4423L84.1619 88.04C90.0922 84.6145 92.3552 80.3799 89.2149 78.5788C86.0746 76.7777 78.7214 78.0952 72.7849 81.5176L56.5254 90.9075C50.5982 94.3299 48.329 98.58 51.46 100.375Z" fill="#F0F0F0"/>
<path d="M98.8901 21.5512H98.9056L101.587 20.0012H101.609C103.298 19.1456 105.555 19.3812 107.985 20.9622C112.871 24.1056 116.6 31.3596 116.318 37.1597C116.176 40.052 115.078 42.036 113.383 42.9102H113.367L110.682 44.4602H110.664C108.974 45.3189 106.714 45.0802 104.281 43.5023C99.3985 40.3558 95.6692 33.1049 95.9513 27.3048C96.1001 24.4094 97.213 22.4254 98.8901 21.5512Z" fill="#37474F"/>
<path d="M110.819 44.3796L113.376 42.8916H113.395C115.075 42.0143 116.185 40.0303 116.328 37.1411C116.452 34.5557 115.779 31.682 114.564 29.0129L111.879 30.5629C113.097 33.232 113.77 36.1057 113.643 38.6942C113.51 41.5152 112.443 43.4775 110.819 44.3796Z" fill="#263238"/>
<path d="M104.293 43.4992C99.4109 40.3527 95.6816 33.1018 95.9637 27.3017C96.2458 21.5016 100.44 19.3471 105.313 22.4905C110.187 25.6339 113.928 32.8879 113.646 38.688C113.364 44.4881 109.176 46.6426 104.293 43.4992Z" fill="#455A64"/>
<path d="M108.385 43.09C111.265 43.2295 111.733 39.99 111.795 38.595C112.043 33.48 108.615 26.815 104.309 24.0405C103.391 23.3979 102.324 23.0028 101.209 22.8935C98.332 22.754 97.8639 25.9935 97.7988 27.3885C97.5508 32.5035 100.976 39.1685 105.285 41.9585C106.203 42.6012 107.27 42.9963 108.385 43.1055V43.09Z" fill="#FAFAFA"/>
<path d="M104.241 33.9544C104.275 33.9545 104.308 33.9482 104.34 33.9358C104.405 33.9147 104.461 33.873 104.499 33.817C104.538 33.7609 104.557 33.6938 104.554 33.6258V26.2385C104.554 26.1562 104.521 26.0774 104.463 26.0193C104.405 25.9611 104.326 25.9285 104.244 25.9285C104.161 25.9285 104.083 25.9611 104.024 26.0193C103.966 26.0774 103.934 26.1562 103.934 26.2385V32.7268L100.483 28.2938C100.432 28.228 100.357 28.1852 100.275 28.1747C100.192 28.1642 100.109 28.187 100.043 28.238C99.9774 28.2889 99.9346 28.364 99.9241 28.4465C99.9137 28.5291 99.9364 28.6124 99.9874 28.6782L104.002 33.8335C104.03 33.8702 104.066 33.9001 104.108 33.921C104.149 33.9419 104.194 33.9533 104.241 33.9544Z" fill="#37474F"/>
<path d="M106.02 39.4197C106.034 39.4225 106.049 39.4225 106.063 39.4197C106.096 39.4096 106.124 39.3872 106.141 39.3572C106.158 39.3271 106.162 39.2918 106.153 39.2585L104.414 33.4026C104.404 33.3693 104.382 33.3413 104.351 33.3247C104.321 33.3081 104.285 33.3044 104.251 33.3142C104.218 33.3241 104.19 33.3468 104.174 33.3773C104.157 33.4078 104.153 33.4437 104.163 33.477L105.899 39.3329C105.908 39.358 105.924 39.3797 105.946 39.3953C105.968 39.4108 105.993 39.4193 106.02 39.4197Z" fill="#F58634"/>
<path d="M104.34 32.1595C103.763 31.7906 103.271 32.0448 103.24 32.7268C103.241 33.0988 103.331 33.4651 103.501 33.7958C103.672 34.1266 103.917 34.4125 104.219 34.6302C104.793 35.0022 105.285 34.748 105.32 34.066C105.317 33.6937 105.227 33.3272 105.057 32.9961C104.887 32.665 104.641 32.3784 104.34 32.1595Z" fill="#F58634"/>
<path d="M53.6982 98.5614L57.474 96.379L56.2154 95.6536L52.4396 97.8329L53.6982 98.5614Z" fill="#F58634"/>
<path d="M61.2529 94.1997L65.0318 92.0173L63.7701 91.2919L59.9943 93.4712L61.2529 94.1997Z" fill="#F58634"/>
<path d="M59.6997 93.31C59.6997 95.1328 58.4225 97.34 56.8446 98.27C56.0045 98.7567 55.2481 98.7722 54.7273 98.4064C54.5174 98.2414 54.3449 98.0336 54.2214 97.7968C54.098 97.56 54.0263 97.2997 54.0112 97.0331C54.1173 96.9835 54.2207 96.9287 54.3212 96.8688C55.8991 95.9605 57.1763 93.744 57.1763 91.9088C57.1778 91.773 57.1695 91.6373 57.1515 91.5027C57.388 91.3775 57.6479 91.303 57.9148 91.2838C58.1816 91.2646 58.4496 91.3011 58.7015 91.391C59.3215 91.6514 59.6997 92.3242 59.6997 93.31Z" fill="#263238"/>
<path d="M59.957 89.5651L59.9043 89.5341C59.1107 89.1125 58.0443 89.19 56.8446 89.8782C54.4111 91.2825 52.4364 94.6987 52.4364 97.5104C52.4364 98.924 52.9355 99.9129 53.7415 100.372C54.5475 100.831 55.6356 100.753 56.8415 100.062C59.275 98.6574 61.2466 95.2381 61.2466 92.4264C61.2497 91.0128 60.7599 90.0239 59.957 89.5651ZM56.857 98.2637C56.0138 98.7504 55.2574 98.7659 54.7366 98.397C54.2778 98.087 53.9988 97.467 53.9988 96.6145C53.9988 94.7948 55.2791 92.5845 56.857 91.6545C57.5762 91.2391 58.2303 91.1678 58.717 91.3817C59.3184 91.639 59.6966 92.3117 59.6966 93.3037C59.6997 95.1389 58.4225 97.3554 56.8446 98.2699L56.857 98.2637Z" fill="#37474F"/>
<path d="M58.8628 91.4655L58.8287 91.4469C58.3141 91.171 57.6166 91.2237 56.8447 91.667C55.2668 92.5784 53.9865 94.7949 53.9865 96.627C53.9865 97.557 54.2965 98.177 54.8328 98.487C55.3691 98.797 56.0728 98.735 56.8447 98.2824C58.4226 97.371 59.6998 95.1545 59.6998 93.3224C59.6998 92.4048 59.3805 91.76 58.8628 91.4655ZM56.8447 97.619C56.1689 98.0096 55.5613 98.022 55.1397 97.7244C54.7739 97.4671 54.5476 96.9742 54.5476 96.2922C54.591 95.4953 54.8216 94.72 55.2207 94.029C55.6198 93.3379 56.1762 92.7507 56.8447 92.3149C57.0618 92.1632 57.3114 92.0644 57.5735 92.0262C57.8355 91.988 58.1029 92.0114 58.3544 92.0948C58.838 92.3025 59.1418 92.8419 59.1418 93.6448C59.0986 94.4412 58.868 95.2162 58.4689 95.9068C58.0697 96.5974 57.5132 97.184 56.8447 97.619Z" fill="#F58634"/>
<path d="M68.8076 89.8348L72.5865 87.6555L71.3279 86.927L67.549 89.1094L68.8076 89.8348Z" fill="#F58634"/>
<path d="M76.3653 85.4731L80.1411 83.2938L78.8825 82.5653L75.1036 84.7477L76.3653 85.4731Z" fill="#F58634"/>
<path d="M83.92 81.1114L87.6958 78.9321L86.4372 78.2036L82.6583 80.386L83.92 81.1114Z" fill="#F58634"/>
<path d="M65.1186 60.8282C65.1581 60.7754 65.2133 60.7366 65.2764 60.7174C65.3394 60.6982 65.4069 60.6996 65.4691 60.7214C65.5313 60.7432 65.585 60.7842 65.6223 60.8385C65.6596 60.8928 65.6786 60.9576 65.6766 61.0235C65.7008 61.1999 65.6828 61.3796 65.6241 61.5478C65.5653 61.7159 65.4675 61.8677 65.3387 61.9907C65.0907 62.2046 64.8396 62.1178 64.7807 61.7954C64.7567 61.6189 64.7748 61.4393 64.8335 61.2712C64.8922 61.1031 64.9899 60.9513 65.1186 60.8282Z" fill="#F58634"/>
<path d="M68.0263 62.1984L65.4998 60.7383L64.9449 62.0744L67.4807 63.5376L68.0263 62.1984Z" fill="#F58634"/>
<path d="M67.6389 62.282C67.8869 62.0712 68.1349 62.158 68.1969 62.4804C68.2198 62.6566 68.2008 62.8357 68.1415 63.0032C68.0823 63.1707 67.9845 63.3219 67.8559 63.4445C67.6079 63.6584 67.3568 63.5716 67.2979 63.2492C67.2753 63.0726 67.2944 62.8931 67.3536 62.7251C67.4128 62.5572 67.5105 62.4054 67.6389 62.282Z" fill="#F58634"/>
<path d="M87.0572 74.5085C87.0572 74.5705 87.0572 74.6263 87.0572 74.6883C87.0572 74.8123 87.0572 74.9394 87.0572 75.0665C86.555 74.8526 85.9009 74.9239 85.1817 75.3393C83.6038 76.2507 82.3235 78.4672 82.3235 80.2993C82.3235 81.1487 82.6025 81.7625 83.0613 82.0818C82.9325 82.1734 82.7991 82.2582 82.6614 82.336L82.5157 82.4104L82.0786 84.0565L79.549 82.646C78.7492 82.1841 78.2563 81.1983 78.2563 79.7909C78.2563 76.9792 80.2279 73.563 82.6614 72.1556C83.8642 71.4612 84.9523 71.3899 85.7614 71.8456L88.2414 73.2344L88.2941 73.2654L87.0572 74.5085Z" fill="#455A64"/>
<path d="M88.2911 73.2375L88.2384 73.2065C87.4448 72.7849 86.3784 72.8624 85.1787 73.5506C82.7452 74.9549 80.7705 78.3711 80.7705 81.1828C80.7705 82.5964 81.2696 83.5853 82.0756 84.0441C82.8816 84.5029 83.9697 84.4254 85.1756 83.7341C87.6091 82.3298 89.5807 78.9105 89.5807 76.0988C89.59 74.6852 89.0909 73.6963 88.2911 73.2375ZM85.1911 81.9361C84.3479 82.4228 83.5915 82.4383 83.0707 82.0694C82.6119 81.7594 82.3329 81.1394 82.3329 80.2869C82.3329 78.4672 83.6132 76.2569 85.1911 75.3269C85.9103 74.9115 86.5644 74.8402 87.0666 75.0541C87.668 75.3114 88.0462 75.9841 88.0462 76.9761C88.04 78.8113 86.7566 81.0278 85.1787 81.9361H85.1911Z" fill="#37474F"/>
<path d="M88.0399 76.9884C88.0399 78.8112 86.7627 81.0184 85.1848 81.9484C84.3447 82.4351 83.5883 82.4506 83.0675 82.0848C82.8576 81.9198 82.6851 81.712 82.5617 81.4753C82.4382 81.2385 82.3665 80.9781 82.3514 80.7115C82.4575 80.662 82.5609 80.6072 82.6614 80.5472C84.2393 79.6389 85.5165 77.4224 85.5165 75.5872C85.518 75.4514 85.5097 75.3157 85.4917 75.1811C85.7282 75.056 85.9882 74.9815 86.255 74.9623C86.5219 74.943 86.7898 74.9796 87.0417 75.0695C87.6555 75.3299 88.0399 75.9964 88.0399 76.9884Z" fill="#263238"/>
<path d="M87.1967 75.1377L87.1626 75.116C86.648 74.8432 85.9474 74.8928 85.1786 75.3392C83.6007 76.2506 82.3204 78.464 82.3204 80.2992C82.3204 81.2292 82.6304 81.8492 83.1667 82.1592C83.703 82.4692 84.4067 82.4041 85.1786 81.9515C86.7565 81.0432 88.0337 78.8267 88.0337 76.9915C88.0399 76.077 87.7299 75.4353 87.1967 75.1377ZM85.1786 81.2881C84.4997 81.6818 83.8921 81.6942 83.4736 81.3966C83.1047 81.1393 82.8815 80.6464 82.8815 79.9644C82.925 79.1676 83.1556 78.3922 83.5547 77.7012C83.9538 77.0101 84.5102 76.4229 85.1786 75.9871C85.7552 75.6523 86.2822 75.5934 86.6852 75.767C87.1688 75.9747 87.4726 76.5141 87.4726 77.317C87.4296 78.1127 87.1994 78.887 86.8008 79.577C86.4022 80.267 85.8464 80.8533 85.1786 81.2881Z" fill="#F58634"/>
<path d="M82.6584 77.9153L89.7884 73.7985C90.6161 73.318 87.9284 70.5125 85.9289 70.3234C84.8281 70.1904 83.7115 70.2962 82.6553 70.6334C82.6553 70.6334 84.1774 72.5833 83.917 73.69C83.6566 74.7967 82.6584 77.9153 82.6584 77.9153Z" fill="#F58634"/>
<path d="M72.5865 66.281C72.5865 66.281 82.9219 71.4952 83.3683 71.8083C83.8147 72.1214 83.3683 75.7577 82.6584 77.9153C81.9485 80.0729 80.8573 83.3899 80.4202 84.3199C79.9831 85.2499 79.4127 85.5971 78.3649 86.2016L70.9249 90.5013L60.853 91.7289L56.854 89.5589L57.8956 83.0148C57.8956 83.0148 68.5999 77.3201 70.0662 76.4738C71.5325 75.6275 75.8694 71.6564 72.5865 66.281Z" fill="#F58634"/>
<path opacity="0.2" d="M72.5865 66.281C72.5865 66.281 82.9219 71.4952 83.3683 71.8083C83.8147 72.1214 83.3683 75.7577 82.6584 77.9153C81.9485 80.0729 80.8573 83.3899 80.4202 84.3199C79.9831 85.2499 79.4127 85.5971 78.3649 86.2016L70.9249 90.5013L60.853 91.7289L56.854 89.5589L57.8956 83.0148C57.8956 83.0148 68.5999 77.3201 70.0662 76.4738C71.5325 75.6275 75.8694 71.6564 72.5865 66.281Z" fill="black"/>
<path d="M83.5666 76.6723C84.4966 74.1737 85.191 72.1029 85.0732 70.7048C84.9306 69.0463 84.3106 67.6916 81.5764 67.0096C78.8422 66.3276 75.0199 66.34 75.0199 66.34L73.8574 67.0127C73.8574 67.0127 81.719 71.5697 82.6118 72.0657C83.1574 72.3757 83.7402 73.7428 82.6707 77.9185L82.8536 78.0239C82.9435 78.0797 83.269 77.4752 83.5666 76.6723Z" fill="#F58634"/>
<path opacity="0.3" d="M83.5666 76.6723C84.4966 74.1737 85.191 72.1029 85.0732 70.7048C84.9306 69.0463 84.3106 67.6916 81.5764 67.0096C78.8422 66.3276 75.0199 66.34 75.0199 66.34L73.8574 67.0127C73.8574 67.0127 81.719 71.5697 82.6118 72.0657C83.1574 72.3757 83.7402 73.7428 82.6707 77.9185L82.8536 78.0239C82.9435 78.0797 83.269 77.4752 83.5666 76.6723Z" fill="white"/>
<path d="M77.6116 69.1888L78.8826 68.4634C78.8826 68.4634 78.8082 64.0583 76.9544 62.9888C75.1006 61.9193 68.8076 62.6478 68.8076 62.6478L67.549 63.3732L77.6116 69.1888Z" fill="#F58634"/>
<path d="M73.4885 63.9964C72.884 64.3467 72.884 64.9109 73.4885 65.2581C73.8275 65.4307 74.2025 65.5206 74.5828 65.5206C74.9632 65.5206 75.3382 65.4307 75.6771 65.2581C76.2785 64.9109 76.2785 64.3436 75.6771 63.9964C75.3377 63.8252 74.9629 63.7361 74.5828 63.7361C74.2027 63.7361 73.8279 63.8252 73.4885 63.9964Z" fill="#F0F0F0"/>
<path d="M75.423 66.1013C74.9983 66.3493 74.9983 66.7492 75.423 66.9941C75.6629 67.1168 75.9285 67.1808 76.198 67.1808C76.4675 67.1808 76.7331 67.1168 76.973 66.9941C77.4008 66.7492 77.4008 66.3493 76.973 66.1013C76.7327 65.98 76.4672 65.9169 76.198 65.9169C75.9288 65.9169 75.6634 65.98 75.423 66.1013Z" fill="#F0F0F0"/>
<path d="M70.5529 63.4352C70.1251 63.6801 70.1251 64.08 70.5529 64.328C70.7933 64.4493 71.0587 64.5125 71.3279 64.5125C71.5971 64.5125 71.8626 64.4493 72.1029 64.328C72.5307 64.08 72.5307 63.6801 72.1029 63.4352C71.863 63.3125 71.5974 63.2485 71.3279 63.2485C71.0584 63.2485 70.7928 63.3125 70.5529 63.4352Z" fill="#F0F0F0"/>
<path d="M77.81 67.9117C78.058 67.6978 78.306 67.7846 78.368 68.107C78.3908 68.2836 78.3719 68.4632 78.3126 68.6312C78.2534 68.7992 78.1556 68.9509 78.027 69.0742C77.9875 69.1269 77.9322 69.1657 77.8692 69.1849C77.8061 69.2041 77.7386 69.2027 77.6764 69.181C77.6142 69.1592 77.5606 69.1182 77.5233 69.0638C77.486 69.0095 77.467 68.9447 77.469 68.8789C77.4451 68.7022 77.4636 68.5223 77.5229 68.3542C77.5822 68.186 77.6806 68.0343 77.81 67.9117Z" fill="#F58634"/>
<path d="M80.7022 69.2819L78.1726 67.8218L77.6208 69.1579L80.1535 70.618L80.7022 69.2819Z" fill="#F58634"/>
<path d="M80.3116 69.3655C80.3511 69.3128 80.4064 69.274 80.4694 69.2548C80.5325 69.2356 80.6 69.237 80.6622 69.2587C80.7244 69.2805 80.778 69.3215 80.8153 69.3758C80.8526 69.4302 80.8716 69.495 80.8696 69.5608C80.8932 69.7375 80.8746 69.9173 80.8154 70.0854C80.7561 70.2535 80.6578 70.4052 80.5286 70.528C80.2806 70.7419 80.0326 70.652 79.9706 70.3327C79.9475 70.1561 79.9664 69.9764 80.0256 69.8084C80.0849 69.6404 80.1828 69.4886 80.3116 69.3655Z" fill="#F58634"/>
<path d="M80.3116 69.3655C80.3511 69.3128 80.4064 69.274 80.4694 69.2548C80.5325 69.2356 80.6 69.237 80.6622 69.2587C80.7244 69.2805 80.778 69.3215 80.8153 69.3758C80.8526 69.4302 80.8716 69.495 80.8696 69.5608C80.8932 69.7375 80.8746 69.9173 80.8154 70.0854C80.7561 70.2535 80.6578 70.4052 80.5286 70.528C80.2806 70.7419 80.0326 70.652 79.9706 70.3327C79.9475 70.1561 79.9664 69.9764 80.0256 69.8084C80.0849 69.6404 80.1828 69.4886 80.3116 69.3655Z" fill="black"/>
<path d="M58.7233 90.83C58.7233 90.892 58.7233 90.9478 58.7233 91.0098C58.7233 91.1338 58.7233 91.2609 58.7233 91.388C58.2211 91.1741 57.567 91.2454 56.8633 91.6608C55.2854 92.5722 54.0051 94.7887 54.0051 96.6208C54.0051 97.4702 54.2841 98.084 54.7429 98.4033C54.6141 98.4949 54.4806 98.5797 54.343 98.6575L54.1973 98.7319L53.7602 100.378L51.2306 98.9675C50.4308 98.5056 49.9379 97.5198 49.9379 96.1124C49.9379 93.3007 51.9095 89.8845 54.343 88.4771C55.5458 87.7827 56.6339 87.7114 57.443 88.1671L59.923 89.5559L59.9757 89.5869L58.7233 90.83Z" fill="#455A64"/>
<path d="M51.1778 85.9103L49.2899 92.4544L53.0688 94.6368L55.0249 88.133L51.1778 85.9103Z" fill="#F58634"/>
<path opacity="0.2" d="M51.1778 85.9103L49.2899 92.4544L53.0688 94.6368L55.0249 88.133L51.1778 85.9103Z" fill="black"/>
<path d="M51.1779 85.9103C51.1779 85.9103 53.32 87.73 55.025 88.133C57.2632 88.6755 60.822 88.7344 62.0837 88.8212C64.0119 88.9545 65.4689 88.9514 66.1509 88.7065C67.0344 88.3965 69.409 87.017 70.0662 86.6388C71.3248 85.9134 71.8611 83.0583 68.3922 82.2771C66.0466 81.7911 63.6575 81.547 61.2622 81.5486L51.1779 85.9103Z" fill="#F58634"/>
<path d="M72.54 85.0733C72.4322 85.3429 72.3593 85.6252 72.323 85.9134C72.2231 86.2128 72.1997 86.5325 72.2548 86.8434C72.4911 87.2342 72.863 87.5244 73.2995 87.6587C73.614 87.7286 73.9395 87.733 74.2558 87.6717C74.572 87.6104 74.8723 87.4846 75.1378 87.3022C75.7795 86.9178 76.2631 86.4528 77.1745 86.1924C77.826 86.0545 78.4395 85.7762 78.9725 85.3771C79.4778 84.971 80.1536 83.8488 79.1864 83.5884C78.2192 83.328 76.1174 84.2456 74.2016 84.3293L72.54 85.0733Z" fill="#37474F"/>
<path d="M72.5399 83.8767V85.3089C72.5986 85.4698 72.7005 85.6114 72.8345 85.7181C72.9686 85.8248 73.1294 85.8924 73.2994 85.9134C73.4551 85.9362 73.614 85.9192 73.7613 85.8638C73.9935 85.7751 74.1948 85.6205 74.3402 85.4189C74.4856 85.2173 74.5689 84.9775 74.5797 84.7292L74.6355 83.8767H72.5399Z" fill="#954F1B"/>
<path d="M75.2679 75.0199C75.2679 76.8024 74.7657 84.509 74.7657 84.509C74.7657 84.509 74.0372 85.439 72.4531 84.509L71.9199 75.8972L75.2679 75.0199Z" fill="#37474F"/>
<path d="M66.96 82.615L71.92 79.7568C72.1233 79.6501 72.2935 79.4899 72.4122 79.2935C72.531 79.097 72.5937 78.8719 72.5937 78.6423C72.5937 78.4128 72.531 78.1876 72.4122 77.9912C72.2935 77.7948 72.1233 77.6345 71.92 77.5279L68.2248 75.3951C68.0168 75.2897 67.7869 75.2347 67.5537 75.2347C67.3205 75.2347 67.0905 75.2897 66.8825 75.3951L61.9225 78.2533C61.7201 78.3607 61.5508 78.5212 61.4328 78.7175C61.3147 78.9138 61.2523 79.1386 61.2523 79.3677C61.2523 79.5968 61.3147 79.8216 61.4328 80.0179C61.5508 80.2143 61.7201 80.3748 61.9225 80.4822L65.6177 82.615C65.8257 82.7204 66.0557 82.7753 66.2889 82.7753C66.5221 82.7753 66.752 82.7204 66.96 82.615Z" fill="#F58634"/>
<path d="M66.96 82.615L71.92 79.7568C72.1233 79.6501 72.2935 79.4899 72.4122 79.2935C72.531 79.097 72.5937 78.8719 72.5937 78.6423C72.5937 78.4128 72.531 78.1876 72.4122 77.9912C72.2935 77.7948 72.1233 77.6345 71.92 77.5279L68.2248 75.3951C68.0168 75.2897 67.7869 75.2347 67.5537 75.2347C67.3205 75.2347 67.0905 75.2897 66.8825 75.3951L61.9225 78.2533C61.7201 78.3607 61.5508 78.5212 61.4328 78.7175C61.3147 78.9138 61.2523 79.1386 61.2523 79.3677C61.2523 79.5968 61.3147 79.8216 61.4328 80.0179C61.5508 80.2143 61.7201 80.3748 61.9225 80.4822L65.6177 82.615C65.8257 82.7204 66.0557 82.7753 66.2889 82.7753C66.5221 82.7753 66.752 82.7204 66.96 82.615Z" fill="white"/>
<path d="M61.9225 79.0283L65.6177 81.1611C65.8257 81.2665 66.0556 81.3214 66.2888 81.3214C66.522 81.3214 66.752 81.2665 66.96 81.1611L71.92 78.3029C72.001 78.2754 72.0713 78.2232 72.1211 78.1537C72.1709 78.0842 72.1977 78.0009 72.1977 77.9154C72.1977 77.8299 72.1709 77.7465 72.1211 77.677C72.0713 77.6075 72.001 77.5553 71.92 77.5279L68.2248 75.3951C68.0168 75.2897 67.7868 75.2347 67.5536 75.2347C67.3204 75.2347 67.0905 75.2897 66.8825 75.3951L61.9225 78.2533C61.8415 78.2807 61.7712 78.3329 61.7214 78.4024C61.6716 78.4719 61.6448 78.5553 61.6448 78.6408C61.6448 78.7263 61.6716 78.8096 61.7214 78.8791C61.7712 78.9486 61.8415 79.0008 61.9225 79.0283Z" fill="#F58634"/>
<path d="M64.9449 60.0562L64.3156 62.6509L61.6124 62.8152L62.1952 59.2192L64.9449 60.0562Z" fill="#954F1B"/>
<path d="M67.5799 58.1033C67.5799 58.1033 67.8899 59.2007 67.7628 59.2627C67.5676 59.2924 67.369 59.2924 67.1738 59.2627L67.5799 58.1033Z" fill="#F28F8F"/>
<path d="M67.0623 54.6002C67.4963 55.1117 67.8931 55.9518 67.5862 58.0102C67.2514 60.2608 66.836 60.5212 66.5012 60.7382C66.0641 61.0234 64.3157 60.8715 63.8228 60.5119C63.2307 60.081 62.3162 58.7139 62.0992 57.3654C61.845 55.7813 62.3751 54.0236 63.5407 53.7229C65.1806 53.2982 66.6934 54.1662 67.0623 54.6002Z" fill="#954F1B"/>
<path d="M61.9224 59.9477C62.3409 60.3817 63.1996 60.4995 63.739 60.5987C64.2784 60.6979 65.9369 60.8064 66.4267 59.6253C66.9165 58.4442 66.5817 57.5948 67.1831 57.3096C67.7845 57.0244 68.3859 56.8384 68.544 56.6896C68.7021 56.5408 68.7052 54.5971 67.0901 53.5896C65.475 52.5821 63.0012 52.3496 61.3737 54.3925C60.1399 55.9704 60.6452 58.6147 61.9224 59.9477Z" fill="#455A64"/>
<path d="M63.5499 60.6142C63.9684 60.6514 65.2921 60.4437 65.692 59.8981C66.0919 59.3525 66.2531 58.376 66.312 57.8645C66.3174 57.6631 66.3913 57.4695 66.5215 57.3157C66.6517 57.1618 66.8304 57.0569 67.0281 57.0182C67.428 56.8911 68.3115 56.4571 68.3115 56.4571V56.2153C68.5964 56.1974 68.8822 56.1974 69.1671 56.2153C69.3531 56.2494 69.2508 56.5253 68.7796 56.764C68.3084 57.0027 67.0157 57.4646 66.8173 57.6227C66.6189 57.7808 66.5259 58.4473 66.3678 59.1572C66.2097 59.8671 65.7199 60.9273 63.5499 60.6142Z" fill="#37474F"/>
<path d="M67.27 63.55L68.82 62.6603C68.9688 62.2108 68.7301 61.9845 68.3085 62.0124C67.8869 62.0403 68.0171 61.6311 67.7598 61.5164C67.4219 61.3614 67.2297 61.4482 67.0778 61.3769C66.9259 61.3056 66.8608 61.1258 66.6624 61.1041C65.7758 61.0204 65.1713 62.2852 65.1713 62.2852L67.27 63.55Z" fill="#F28F8F"/>
<path d="M56.7485 74.9331C56.7485 74.9331 63.5964 71.5386 64.7899 70.9899C65.9834 70.4412 67.8558 69.6445 68.8509 69.6445C69.2398 69.6767 69.604 69.848 69.8768 70.127C70.1496 70.406 70.3125 70.774 70.3358 71.1635C70.3487 71.7615 70.3145 72.3596 70.2335 72.9522C68.3521 73.5694 66.4294 74.0532 64.4799 74.3999C61.631 74.8959 56.7485 74.9331 56.7485 74.9331Z" fill="#37474F"/>
<path d="M57.4925 72.9708C57.4925 74.3782 57.3592 75.8414 57.9451 76.8706C58.531 77.8998 61.7054 80.2806 64.6938 79.7815C66.6468 79.4529 72.4438 76.7838 72.4438 76.7838C72.4438 76.7838 75.2555 75.7515 75.2679 75.0168C75.2865 73.9349 75.2121 72.4097 72.76 72.4748C70.5249 72.5337 63.9312 73.9101 63.9312 73.9101L57.4925 72.9708Z" fill="#455A64"/>
<path d="M59.4052 61.8202C60.4654 60.7135 61.1815 60.6205 61.6899 60.7569C62.8583 61.0913 63.9895 61.5442 65.0658 62.1085C65.0658 62.1085 64.6566 66.0703 66.5941 67.2111V73.3863C66.5941 73.3863 66.5352 74.0559 65.692 74.7224C64.948 75.3083 63.2647 75.9004 61.2559 75.733C58.8689 75.5346 57.4925 72.9709 57.4925 72.9709C57.4925 72.9709 57.4305 67.921 57.7684 65.9153C58.1652 63.5748 59.0394 62.2046 59.4052 61.8202Z" fill="#455A64"/>
<path d="M66.5942 67.5118C66.5942 67.5118 65.4224 66.5818 65.0659 65.3728C65.0659 65.3728 65.2054 67.27 66.5942 68.231V67.5118Z" fill="#37474F"/>
<path d="M77.4411 70.4257C77.9977 70.4486 78.5451 70.2789 78.9911 69.9452C78.9911 69.9452 79.5305 68.8974 80.1939 68.9873C80.1939 68.9873 80.3117 68.5409 80.0389 68.3952C79.7661 68.2495 79.6483 68.2898 79.5367 68.1348C79.4251 67.9798 79.4127 67.6915 78.9167 67.6915C78.7121 67.6915 78.74 67.5458 78.244 67.4869C77.748 67.428 77.2582 68.5719 76.8955 68.5719L77.4411 70.4257Z" fill="#954F1B"/>
<path d="M65.0659 62.1084C66.7678 62.3719 67.3847 62.8772 68.0047 63.4507C68.6247 64.0242 72.4191 67.831 72.4191 67.831L77.0133 68.4913C77.2547 68.6868 77.4319 68.9503 77.5217 69.2477C77.7077 69.7871 77.5403 70.3761 77.3636 70.5156C77.3636 70.5156 72.8066 70.7884 71.9107 70.6179C71.0148 70.4474 66.5787 67.5024 66.5787 67.5024C66.1547 67.1826 65.7991 66.7812 65.5329 66.3217C65.2666 65.8622 65.0952 65.354 65.0287 64.8271C64.7404 62.9578 65.0659 62.1084 65.0659 62.1084Z" fill="#455A64"/>
<path d="M60.9801 78.4826L53.94 87.0758C53.8618 87.0857 53.7831 87.0909 53.7044 87.0913C53.4252 87.0957 53.1493 87.0308 52.9015 86.9022L46.9557 83.4674L46.5527 83.2349C46.3326 83.1078 46.1497 82.587 46.1497 82.0724V80.6247C46.1494 79.1376 46.5406 77.6766 47.2839 76.3886C48.0273 75.1006 49.0965 74.0309 50.3843 73.287L57.4833 69.1888L65.038 73.5505L60.9801 78.4826Z" fill="#F58634"/>
<g opacity="0.1">
<path d="M60.9801 78.4826L53.94 87.0758C53.8618 87.0857 53.7831 87.0909 53.7044 87.0913C53.4252 87.0957 53.1493 87.0308 52.9015 86.9022L46.9557 83.4674L46.5527 83.2349C46.3326 83.1078 46.1497 82.587 46.1497 82.0724V80.6247C46.1494 79.1376 46.5406 77.6766 47.2839 76.3886C48.0273 75.1006 49.0965 74.0309 50.3843 73.287L57.4833 69.1888L65.038 73.5505L60.9801 78.4826Z" fill="black"/>
</g>
<path d="M58.5528 81.4462L65.0287 73.5536L57.474 69.1919L50.3781 73.287C49.4602 73.8184 48.6504 74.5177 47.9911 75.3485L58.5528 81.4462Z" fill="#F58634"/>
<path d="M65.0287 79.89C65.0287 80.4046 64.8489 80.9254 64.6257 81.0525L64.2227 81.285L54.5011 86.8991C54.3242 86.9945 54.1305 87.0545 53.9307 87.0758C53.8525 87.0857 53.7738 87.0909 53.6951 87.0913V84.9864C53.6948 83.4989 54.0864 82.0376 54.8303 80.7495C55.5742 79.4614 56.6442 78.3919 57.9328 77.6487L58.7357 77.1868L65.0287 73.5505V79.89Z" fill="#F58634"/>
<g opacity="0.2">
<path d="M65.0287 79.89C65.0287 80.4046 64.8489 80.9254 64.6257 81.0525L64.2227 81.285L54.5011 86.8991C54.3242 86.9945 54.1305 87.0545 53.9307 87.0758C53.8525 87.0857 53.7738 87.0909 53.6951 87.0913V84.9864C53.6948 83.4989 54.0864 82.0376 54.8303 80.7495C55.5742 79.4614 56.6442 78.3919 57.9328 77.6487L58.7357 77.1868L65.0287 73.5505V79.89Z" fill="black"/>
</g>
<path d="M67.1149 90.523L70.9187 90.5106L76.3623 87.3672L71.0303 91.2205L67.0157 91.2763L67.1149 90.523Z" fill="#235EAC"/>
<path d="M57.8801 95.9357C57.8801 95.9357 64.7373 93.3503 65.3201 93.0465C66.0041 92.6273 66.6531 92.1535 67.2607 91.6298C67.3847 91.4658 67.443 91.2613 67.424 91.0566C67.4051 90.8519 67.3104 90.6616 67.1584 90.5231C67.1584 90.5231 64.3684 90.396 63.6523 90.6161C63.2524 90.737 56.7982 92.8078 56.7982 92.8078L57.8801 95.9357Z" fill="#235EAC"/>
<path d="M57.5731 93.0465C57.0058 92.5598 56.4354 92.7613 56.2959 93.4929C56.2427 93.8965 56.2854 94.3071 56.4206 94.6911C56.5558 95.0752 56.7796 95.4219 57.074 95.7032C57.6413 96.1899 58.2117 95.9915 58.3512 95.2568C58.4043 94.8531 58.3614 94.4427 58.2263 94.0587C58.0911 93.6747 57.8673 93.3279 57.5731 93.0465Z" fill="#455A64"/>
</svg>
