<svg width="217" height="445" viewBox="0 0 217 445" fill="none" xmlns="http://www.w3.org/2000/svg">
<path d="M184.032 444.369L33.2538 444.276C28.9378 444.28 24.6633 443.433 20.6749 441.783C16.6865 440.134 13.0625 437.714 10.0101 434.663C6.95776 431.612 4.53698 427.988 2.88627 424C1.23555 420.013 0.387289 415.738 0.390021 411.422L0.462713 33.4633C0.462711 29.1491 1.31298 24.8771 2.96492 20.8917C4.61686 16.9062 7.03807 13.2854 10.0902 10.2362C13.1423 7.18698 16.7654 4.7692 20.7524 3.12104C24.7394 1.47288 29.0122 0.626659 33.3265 0.630752L184.178 0.661901C192.885 0.672905 201.232 4.13876 207.385 10.2985C213.539 16.4582 216.997 24.8082 217 33.5153L216.927 411.474C216.933 415.796 216.086 420.076 214.434 424.069C212.783 428.063 210.36 431.691 207.305 434.747C204.249 437.802 200.621 440.225 196.627 441.876C192.634 443.528 188.354 444.375 184.032 444.369Z" fill="#235EAC"/>
<path d="M185.081 11.9175L155.748 11.7825C154.791 11.7974 153.846 12.0012 152.967 12.3822C152.089 12.7633 151.295 13.3141 150.63 14.0029C149.965 14.6918 149.443 15.5052 149.094 16.3965C148.744 17.2877 148.574 18.2392 148.594 19.1964V24.5231C148.613 25.4802 148.443 26.4317 148.093 27.323C147.744 28.2142 147.222 29.0276 146.557 29.7165C145.892 30.4054 145.098 30.9562 144.22 31.3372C143.341 31.7183 142.397 31.9221 141.439 31.9369L84.2574 31.6669C83.3001 31.6441 82.3568 31.4323 81.4816 31.0437C80.6064 30.6552 79.8167 30.0976 79.1576 29.4029C78.4986 28.7081 77.9834 27.8901 77.6415 26.9956C77.2996 26.1012 77.1379 25.148 77.1655 24.1908V18.8745C77.1945 17.9156 77.0334 16.9605 76.6915 16.0642C76.3496 15.1678 75.8337 14.3481 75.1735 13.6521C74.5132 12.9562 73.7217 12.3978 72.8447 12.0092C71.9676 11.6206 71.0223 11.4095 70.0632 11.388H59.7524L34.074 11.2634C27.9512 11.2385 22.0691 13.6463 17.7211 17.9573C13.3731 22.2683 10.9151 28.1296 10.8877 34.2524L9.31977 404.486C9.29493 410.607 11.7013 416.488 16.01 420.835C20.3188 425.183 26.1774 427.642 32.2984 427.673L183.295 428.368C189.418 428.393 195.3 425.985 199.648 421.674C203.996 417.363 206.454 411.502 206.481 405.379L208.06 35.1039C208.073 32.0726 207.49 29.0684 206.343 26.2626C205.195 23.4569 203.506 20.9047 201.373 18.7516C199.239 16.5985 196.702 14.8869 193.906 13.7143C191.111 12.5417 188.112 11.9311 185.081 11.9175Z" fill="#F5F5F5"/>
<rect x="26.3489" y="397.28" width="164.059" height="21.8053" rx="10.9027" fill="#235EAC"/>
<path d="M93.6124 410.139H95.4047V410.683H92.944V405.563H93.6124V410.139ZM96.4598 406.004C96.3325 406.004 96.2248 405.96 96.1366 405.872C96.0485 405.783 96.0044 405.676 96.0044 405.548C96.0044 405.421 96.0485 405.313 96.1366 405.225C96.2248 405.137 96.3325 405.093 96.4598 405.093C96.5823 405.093 96.6851 405.137 96.7683 405.225C96.8565 405.313 96.9006 405.421 96.9006 405.548C96.9006 405.676 96.8565 405.783 96.7683 405.872C96.6851 405.96 96.5823 406.004 96.4598 406.004ZM96.783 406.658V410.683H96.1146V406.658H96.783ZM99.4207 410.066L100.669 406.658H101.382L99.8027 410.683H99.0241L97.4448 406.658H98.1647L99.4207 410.066ZM102.708 407.311C102.826 407.081 102.992 406.902 103.208 406.775C103.428 406.648 103.695 406.584 104.008 406.584V407.275H103.832C103.083 407.275 102.708 407.681 102.708 408.494V410.683H102.04V406.658H102.708V407.311ZM104.53 408.656C104.53 408.244 104.613 407.884 104.78 407.576C104.946 407.262 105.174 407.02 105.463 406.849C105.757 406.677 106.082 406.591 106.44 406.591C106.793 406.591 107.099 406.667 107.358 406.819C107.618 406.971 107.811 407.162 107.938 407.392V406.658H108.614V410.683H107.938V409.934C107.806 410.169 107.608 410.365 107.343 410.521C107.084 410.673 106.78 410.749 106.433 410.749C106.075 410.749 105.752 410.661 105.463 410.485C105.174 410.308 104.946 410.061 104.78 409.743C104.613 409.424 104.53 409.062 104.53 408.656ZM107.938 408.663C107.938 408.359 107.877 408.095 107.755 407.87C107.632 407.644 107.466 407.473 107.255 407.355C107.05 407.233 106.822 407.172 106.572 407.172C106.322 407.172 106.095 407.231 105.889 407.348C105.683 407.466 105.519 407.637 105.397 407.862C105.274 408.087 105.213 408.352 105.213 408.656C105.213 408.964 105.274 409.233 105.397 409.464C105.519 409.689 105.683 409.863 105.889 409.985C106.095 410.103 106.322 410.161 106.572 410.161C106.822 410.161 107.05 410.103 107.255 409.985C107.466 409.863 107.632 409.689 107.755 409.464C107.877 409.233 107.938 408.966 107.938 408.663ZM110.089 406.004C109.962 406.004 109.854 405.96 109.766 405.872C109.678 405.783 109.634 405.676 109.634 405.548C109.634 405.421 109.678 405.313 109.766 405.225C109.854 405.137 109.962 405.093 110.089 405.093C110.211 405.093 110.314 405.137 110.398 405.225C110.486 405.313 110.53 405.421 110.53 405.548C110.53 405.676 110.486 405.783 110.398 405.872C110.314 405.96 110.211 406.004 110.089 406.004ZM110.412 406.658V410.683H109.744V406.658H110.412ZM112.976 410.749C112.668 410.749 112.391 410.698 112.146 410.595C111.902 410.487 111.708 410.34 111.566 410.154C111.424 409.963 111.346 409.745 111.331 409.5H112.022C112.041 409.701 112.134 409.865 112.301 409.992C112.472 410.12 112.695 410.183 112.969 410.183C113.224 410.183 113.425 410.127 113.571 410.014C113.718 409.902 113.792 409.76 113.792 409.588C113.792 409.412 113.713 409.282 113.557 409.199C113.4 409.111 113.158 409.025 112.83 408.942C112.531 408.864 112.286 408.785 112.095 408.707C111.909 408.624 111.747 408.504 111.61 408.347C111.478 408.185 111.412 407.975 111.412 407.715C111.412 407.51 111.473 407.321 111.596 407.15C111.718 406.978 111.892 406.844 112.117 406.746C112.342 406.643 112.599 406.591 112.888 406.591C113.334 406.591 113.694 406.704 113.968 406.929C114.242 407.155 114.389 407.463 114.409 407.855H113.74C113.726 407.644 113.64 407.475 113.483 407.348C113.331 407.221 113.126 407.157 112.866 407.157C112.626 407.157 112.435 407.208 112.293 407.311C112.151 407.414 112.08 407.549 112.08 407.715C112.08 407.848 112.122 407.958 112.205 408.046C112.293 408.129 112.401 408.198 112.528 408.252C112.661 408.3 112.842 408.357 113.072 408.42C113.361 408.499 113.596 408.577 113.777 408.656C113.958 408.729 114.113 408.842 114.24 408.993C114.372 409.145 114.441 409.344 114.446 409.588C114.446 409.809 114.384 410.007 114.262 410.183C114.139 410.36 113.966 410.499 113.74 410.602C113.52 410.7 113.265 410.749 112.976 410.749ZM117.145 410.749C116.768 410.749 116.425 410.663 116.116 410.492C115.813 410.32 115.573 410.078 115.396 409.765C115.225 409.446 115.139 409.079 115.139 408.663C115.139 408.252 115.228 407.889 115.404 407.576C115.585 407.257 115.83 407.015 116.138 406.849C116.447 406.677 116.792 406.591 117.174 406.591C117.556 406.591 117.901 406.677 118.21 406.849C118.518 407.015 118.761 407.255 118.937 407.568C119.118 407.882 119.209 408.247 119.209 408.663C119.209 409.079 119.116 409.446 118.93 409.765C118.748 410.078 118.501 410.32 118.188 410.492C117.874 410.663 117.527 410.749 117.145 410.749ZM117.145 410.161C117.385 410.161 117.61 410.105 117.82 409.992C118.031 409.88 118.2 409.711 118.327 409.486C118.46 409.26 118.526 408.986 118.526 408.663C118.526 408.34 118.462 408.065 118.335 407.84C118.207 407.615 118.041 407.448 117.835 407.341C117.629 407.228 117.407 407.172 117.167 407.172C116.922 407.172 116.697 407.228 116.491 407.341C116.29 407.448 116.129 407.615 116.006 407.84C115.884 408.065 115.823 408.34 115.823 408.663C115.823 408.991 115.881 409.268 115.999 409.493C116.121 409.718 116.283 409.887 116.484 410C116.684 410.107 116.905 410.161 117.145 410.161ZM122.049 406.584C122.539 406.584 122.935 406.733 123.239 407.032C123.542 407.326 123.694 407.752 123.694 408.31V410.683H123.033V408.406C123.033 408.004 122.933 407.698 122.732 407.488C122.531 407.272 122.257 407.164 121.909 407.164C121.557 407.164 121.275 407.275 121.065 407.495C120.859 407.715 120.756 408.036 120.756 408.457V410.683H120.088V406.658H120.756V407.231C120.888 407.025 121.067 406.866 121.292 406.753C121.522 406.64 121.775 406.584 122.049 406.584Z" fill="white"/>
<path d="M121.004 358.996C120.828 363.461 120.662 367.656 120.527 371.145H142.218L139.529 357.823L121.004 358.996Z" fill="#F5F5F5"/>
<path d="M32.8489 364.302L33.0358 370.875H118.357C118.502 367.179 118.668 363.087 118.824 358.861L32.8489 364.302Z" fill="#F5F5F5"/>
<path d="M140.65 357.377L143.319 370.771H183.305L182.828 354.708L140.65 357.377Z" fill="#F5F5F5"/>
<path d="M123.164 170.536L130.724 126.697L110.922 125.233V170.536H123.164Z" fill="#EBEBEB"/>
<path d="M31.063 340.171L9.56913 348.592L9.50684 363.814L31.7067 362.412L31.063 340.171Z" fill="#F5F5F5"/>
<path d="M30.9692 336.215L29.7959 295.387H29.7751V280.985L9.84919 283.093L9.5896 344.563L30.9588 336.194L30.9692 336.215Z" fill="#EBEBEB"/>
<path d="M29.7754 249.326L10.0052 246.719L9.85986 280.32L29.7754 278.213V249.326Z" fill="#F5F5F5"/>
<path d="M177.148 281.577L176.317 293.279L152.965 295.792L154.772 305.054L181.281 303.05L180.886 289.78L183.004 280.985L177.148 281.577Z" fill="#F5F5F5"/>
<path d="M135.064 307.328L153.682 305.926L149.632 285.139L133.372 286.779L135.064 307.328Z" fill="#F5F5F5"/>
<path d="M135.241 309.384L136.663 326.714L139.186 350.482L140.225 355.684L182.766 352.994L181.343 305.905L135.241 309.384Z" fill="#EBEBEB"/>
<path d="M62.0265 227.739L63.6671 230.542L30.8553 249.71V295.096L65.4842 292.646L132.26 285.886L129.82 256.127L66.0657 247.82L66.4915 244.601L129.499 252.825L125.345 202.465L62.9403 208.467L62.7326 206.317L125.169 200.316L123.019 174.035H62.9922L10.2752 183.63L10.0156 243.802L29.9831 246.429L62.0265 227.739ZM34.2195 290.735C34.2195 290.735 34.4687 253.355 34.2195 251.911L60.9882 237.676L64.4563 288.825L34.2195 290.735Z" fill="#F5F5F5"/>
<path d="M174.968 282.023L150.712 284.474L152.55 293.892L174.293 291.545L174.968 282.023Z" fill="#F5F5F5"/>
<path d="M121.306 350.554C121.233 352.517 121.161 354.469 121.088 356.39L139.134 355.248L138.21 350.596L121.306 350.554Z" fill="#F5F5F5"/>
<path d="M82.43 170.006L85.6074 155.583H109.842V124.62L34.0637 119.002V148.087L10.3894 153.434L10.2855 179.538L62.7014 170.006H82.43Z" fill="#EBEBEB"/>
<path d="M132.987 84.737L132.344 82.0789L161.282 70.657L142.457 32.8196C142.113 32.8735 141.766 32.9012 141.419 32.9026L109.417 32.8196L110.289 85.6923L132.987 84.737Z" fill="#F5F5F5"/>
<path d="M176.847 63.7417V12.1566L155.789 12.0527C154.832 12.0676 153.887 12.2714 153.009 12.6524C152.131 13.0335 151.336 13.5842 150.672 14.2731C150.007 14.962 149.485 15.7754 149.135 16.6667C148.786 17.5579 148.616 18.5094 148.635 19.4665V24.7933C148.635 25.9847 148.353 27.1592 147.812 28.2205C147.27 29.2818 146.485 30.1997 145.52 30.8988L164.356 68.7051L176.847 63.7417Z" fill="#EBEBEB"/>
<path d="M68.0592 66.483L65.6191 12.1566H59.7627L36.9191 12.0527L27.1274 60.6371L68.0592 66.483ZM62.8674 17.6806L63.6462 61.9143L33.2225 57.4597L39.8472 17.6702L62.8674 17.6806Z" fill="#F5F5F5"/>
<path d="M69.1703 66.483V66.9399C69.2222 71.1867 69.3156 78.8082 69.3779 86.9696L109.23 85.3394L108.378 32.4459L84.2575 32.3317C83.3002 32.3088 82.3568 32.0971 81.4817 31.7085C80.6065 31.32 79.8167 30.7623 79.1577 30.0676C78.4987 29.3729 77.9834 28.5548 77.6416 27.6604C77.2997 26.7659 77.1379 25.8127 77.1656 24.8556V19.5392C77.1946 18.5804 77.0335 17.6252 76.6916 16.7289C76.3497 15.8326 75.8338 15.0128 75.1735 14.3169C74.5133 13.6209 73.7218 13.0625 72.8447 12.6739C71.9676 12.2853 71.0223 12.0742 70.0632 12.0527H66.699L69.1391 66.5245L69.1703 66.483Z" fill="#F5F5F5"/>
<path d="M23.9087 60.1491L33.6172 12.0527C27.5875 12.1559 21.838 14.6168 17.6009 18.9082C13.3638 23.1996 10.9764 28.98 10.9501 35.0106L10.7736 58.9861L10.8774 58.28L23.9087 60.1491Z" fill="#F5F5F5"/>
<path d="M30.8136 119.46L10.545 117.964L10.41 150.797L30.8136 146.187V119.46Z" fill="#F5F5F5"/>
<path d="M23.6906 60.637L10.7943 58.7783L10.5763 111.963L13.3487 112.17L23.6906 60.637Z" fill="#F5F5F5"/>
<path d="M64.6325 336.142L64.9751 293.445L30.8757 295.865L32.0802 337.689L64.6325 336.142Z" fill="#F5F5F5"/>
<path d="M70.9043 325.759L119.198 348.893C119.779 333.775 120.288 319.643 120.236 318.781H121.275L121.794 317.743C122.479 318.085 122.479 318.085 122.116 328.386C121.918 334.138 121.628 341.791 121.337 349.443H138.044L135.573 326.236L132.26 286.177L69.2014 292.531L70.9043 325.759Z" fill="#F5F5F5"/>
<path d="M189.286 255.462L188.736 249.834L130.848 255.847L133.288 285.512L183.264 280.476L189.286 255.462Z" fill="#F5F5F5"/>
<path d="M109.842 159.498H88.2136L85.7527 170.671H109.842V159.498Z" fill="#F5F5F5"/>
<path d="M180.346 163.246L126.186 159.498L123.954 172.301L126.228 200.066L183.337 194.573L180.346 163.246ZM128.18 172.27L131.087 164.202L178.124 167.171L180.845 190.275L129.768 196.328L128.18 172.27Z" fill="#F5F5F5"/>
<path d="M185.964 221.446L183.586 196.879L126.435 202.382L128.585 228.517L185.964 221.446Z" fill="#F5F5F5"/>
<path d="M31.7689 364.095L9.60018 365.496L9.50674 364.053L9.47559 370.605H31.9558L31.7689 364.095Z" fill="#F5F5F5"/>
<path d="M207.665 51.4165L207.987 52.2368L208.06 35.2391C208.073 32.2078 207.49 29.2036 206.343 26.3978C205.195 23.5921 203.506 21.0399 201.373 18.8868C199.239 16.7337 196.702 15.022 193.907 13.8495C191.111 12.6769 188.112 12.0663 185.081 12.0527H177.896V63.2122L207.665 51.4165Z" fill="#EBEBEB"/>
<path d="M119.156 350.908L69.8557 327.296L68.1217 293.445L66.045 293.653L65.6919 337.482L32.1013 339.07V340.046L32.7555 362.641L118.887 357.2C118.99 355.123 119.073 353.005 119.156 350.908ZM34.2195 341.864L81.2464 338.562L111.847 352.756L34.2195 356.909V341.864Z" fill="#F5F5F5"/>
<path d="M193.648 108.328L195.724 96.3667C178.072 90.0535 176.816 71.6228 176.868 66.0469L165.332 70.6052L182.703 105.483L193.648 108.328Z" fill="#F5F5F5"/>
<path d="M130.589 252.794L154.616 250.291L149.881 229.068L128.854 231.653L130.589 252.794Z" fill="#F5F5F5"/>
<path d="M182.434 129.666H137.546L133.818 129.386L128.751 158.782L182.029 162.468L180.793 149.686L186.037 130.809L182.434 129.666Z" fill="#F5F5F5"/>
<path d="M179.329 121.723L179.889 107.695L162.237 72.2769L134.887 83.0965L144.284 121.723H179.329ZM161.189 76.586L177.356 107.342L175.019 116.926L147.347 115.888L140.432 86.8137L161.189 76.586Z" fill="#F5F5F5"/>
<path d="M186.317 290.693L187.148 318.251L206.596 317.151L206.648 318.241L187.179 319.331L188.165 352.32L206.554 351.157L206.689 353.316L188.227 354.479L188.726 370.885H206.637L207.032 278.908L188.705 280.756L186.317 290.693Z" fill="#F5F5F5"/>
<path d="M68.1009 67.7914L26.9096 61.8936L16.6091 113.209L68.2774 117.04C68.4851 109.128 68.3085 84.893 68.1009 67.7914Z" fill="#EBEBEB"/>
<path d="M135.843 121.993H142.073L133.247 85.7754L110.33 86.7099L110.881 120.145L135.843 121.993Z" fill="#F5F5F5"/>
<path d="M69.3364 117.102L109.832 120.103L109.251 86.8137L69.3884 88.4439C69.4714 99.6893 69.5026 111.734 69.3364 117.102Z" fill="#F5F5F5"/>
<path d="M186.275 223.876L150.961 228.227L155.706 249.471L188.425 246.065L186.275 223.876Z" fill="#F5F5F5"/>
<path d="M195.849 95.131L198.112 81.7363L207.863 82.4943L207.987 53.5867L177.875 65.4861C177.304 85.8066 190.076 92.9609 195.849 95.131Z" fill="#EBEBEB"/>
<path d="M184.271 147.121L185.497 159.799L207.53 161.326L207.634 135.211L189.193 129.386L184.271 147.121Z" fill="#F5F5F5"/>
<path d="M194.759 255.95L188.975 279.999L207.022 278.181L207.136 252.95C201.591 251.496 196.752 250.302 194.146 249.834L194.759 255.95Z" fill="#F5F5F5"/>
<path d="M182.568 122.367L207.665 130.3L207.717 116.023L183.067 109.657L182.568 122.367Z" fill="#F5F5F5"/>
<path d="M193.845 245.795C195.922 246.096 199.701 246.917 207.157 248.91L207.385 193.764L188.975 195.529L193.845 245.795Z" fill="#F5F5F5"/>
<path d="M188.757 194.075L207.395 192.279L207.51 165.147L185.819 163.652L188.757 194.075Z" fill="#F5F5F5"/>
<path d="M197.926 96.5327C201.466 97.5711 204.747 98.4433 207.79 99.0559L207.852 85.3601L199.919 84.7371L197.926 96.5327Z" fill="#F5F5F5"/>
<path d="M195.755 109.014L207.738 112.129V99.7516C204.623 99.1286 201.29 98.2875 197.697 97.1973L195.755 109.014Z" fill="#F5F5F5"/>
<path d="M206.689 353.721L206.554 351.562L188.165 352.725L187.127 319.736L206.596 318.646V317.608L187.137 318.698L186.317 291.14L188.705 281.203L207.022 279.313V278.275L188.965 280.092L194.748 256.044L194.146 249.897C196.752 250.395 201.591 251.589 207.136 253.012V249.606C199.68 247.654 195.849 246.834 193.824 246.491L188.954 196.183L207.364 194.418V192.237L188.736 194.034L185.787 163.61L207.478 165.105V161.855L185.445 160.329L184.219 147.651L189.141 129.916L207.582 135.741V130.082L182.485 122.149L182.994 109.439L207.634 115.805V112.461L195.652 109.346L197.645 97.5192C201.238 98.6095 204.581 99.4506 207.686 100.074V99.0456C204.644 98.433 201.363 97.6023 197.822 96.5224L199.815 84.7268L207.748 85.3498V83.1796L197.998 82.4217L195.735 95.8371C189.961 93.667 177.19 86.492 177.802 66.1715L207.915 54.272V52.8806L207.593 52.0603L177.948 63.8248V12.6654H176.806V64.2505L164.273 69.2139L145.479 31.4076C144.579 32.0359 143.544 32.4416 142.457 32.5913L161.334 70.4183L132.395 81.8402L133.039 84.4984L110.362 85.4225L109.417 32.5913H108.378L109.251 85.5471L69.3988 87.1773C69.3365 79.0159 69.243 71.3944 69.1911 67.1475V66.6907L66.751 12.2189H65.6607L68.1008 66.5453L27.1276 60.6267L36.8777 12.0527H34.0845C33.908 12.0527 33.7419 12.0527 33.5654 12.0527L23.9087 60.1491L10.8982 58.28L10.7943 58.9861V59.3599L23.6906 61.2186L13.3072 112.752L10.5244 112.544V117.964L30.793 119.47V146.197L10.3894 150.807V154.078L34.0534 148.731V119.657L109.853 125.274V156.238H85.6074L82.4197 170.692H62.691L10.2752 180.224V183.526L62.9922 173.931H123.029L125.179 200.212L62.7429 206.214L62.9506 208.363L125.355 202.361L129.509 252.721L66.4499 244.477L66.0241 247.696L129.779 256.002L132.26 285.782L65.5361 292.511L30.9072 294.961V249.606L63.719 230.469L62.0784 227.666L30.0349 246.356L10.0675 243.729V247L29.7961 249.606V278.493L9.88062 280.57V283.872L29.8065 281.795V296.124L30.9798 336.952L9.61064 345.321V348.82L31.1044 340.4L31.7482 362.641L9.54834 364.043V364.759L9.64179 366.202L31.8105 364.801L31.9974 371.311H33.0358L32.8489 364.738L118.824 359.297C118.668 363.524 118.502 367.604 118.357 371.311H120.527C120.662 367.822 120.828 363.627 121.005 359.162L139.529 357.968L142.187 371.29H143.288L140.619 357.896L182.797 355.227L183.275 371.29H188.695M121.057 356.961C121.129 355.04 121.202 353.088 121.275 351.126H138.179L139.103 355.777L121.057 356.961ZM140.193 355.757L139.155 350.565L136.632 326.797L135.209 309.467L181.322 305.989L182.735 353.078L140.193 355.757ZM150.681 285.004L174.937 282.553L174.262 292.075L152.519 294.421L150.681 285.004ZM149.642 285.107L153.692 305.874L135.074 307.276L133.382 286.727L149.642 285.107ZM181.291 303.798L154.782 305.802L152.975 296.54L176.328 294.027L177.159 282.325L183.015 281.733L180.938 290.528L181.291 303.798ZM149.912 229.047L154.647 250.271L130.62 252.773L128.875 231.632L149.912 229.047ZM155.737 250.157L150.951 228.912L186.255 224.561L188.404 246.751L155.737 250.157ZM180.024 160.017L126.747 156.331L131.814 126.936L135.542 127.206H180.429L184.032 128.337L178.789 147.225L180.024 160.017ZM176.816 66.5661C176.816 72.142 177.989 90.5727 195.672 96.8859L193.596 108.848L182.6 106.003L165.28 71.1556L176.816 66.5661ZM162.279 72.3289L179.931 107.747L179.37 121.775H144.295L134.898 83.1485L162.279 72.3289ZM133.299 85.5471L142.125 121.765H135.895L110.974 119.916L110.424 86.4816L133.299 85.5471ZM109.303 86.5335L109.853 119.833L69.3573 116.833C69.5234 111.433 69.4922 99.4194 69.4092 88.1637L109.303 86.5335ZM26.9614 61.6131L68.1528 67.5213C68.3604 84.623 68.5369 108.858 68.3293 116.76L16.661 112.928L26.9614 61.6131ZM130.796 126.811L123.164 170.692H110.922V125.389L130.796 126.811ZM88.2863 159.478H109.915V170.692H85.8254L88.2863 159.478ZM123.954 172.343L126.155 159.54L180.315 163.288L183.378 194.574L126.269 200.067L123.954 172.343ZM183.555 196.765L185.933 221.332L128.554 228.403L126.404 202.268L183.555 196.765ZM130.817 256.002L188.705 249.99L189.255 255.618L183.233 280.632L133.299 285.668L130.817 256.002ZM135.552 326.88L138.023 350.087H121.347C121.638 342.435 121.929 334.782 122.126 329.03C122.49 318.729 122.49 318.729 121.804 318.386L121.285 319.425H120.247C120.299 320.328 119.79 334.46 119.208 349.537L70.9044 326.444L69.2015 293.217L132.26 286.862L135.552 326.88ZM64.9443 293.653L64.6016 336.35L32.0805 337.866L30.876 296.041L64.9443 293.653ZM32.1324 339.943V338.967L65.723 337.378L66.0761 293.549L68.1528 293.342L69.8868 327.192L119.188 350.804C119.105 352.88 119.021 355.019 118.949 357.117L32.8177 362.558L32.1324 339.943Z" fill="white"/>
<path d="M81.2463 338.094L34.2195 341.396V356.483L111.847 352.288L81.2463 338.094Z" fill="#E0E0E0"/>
<path d="M178.124 166.621L131.087 163.652L128.18 171.72L129.768 195.778L180.845 189.725L178.124 166.621Z" fill="#E0E0E0"/>
<path d="M64.5496 64.5931L63.7709 20.3594H40.7922L34.126 60.1385L64.5496 64.5931Z" fill="#E0E0E0"/>
<path d="M175.019 116.77L177.345 107.186L161.189 76.4302L140.442 86.6371L147.347 115.721L175.019 116.77Z" fill="#EBEBEB"/>
<path d="M34.2195 251.61C34.4687 253.012 34.2195 290.434 34.2195 290.434L64.4562 288.524L60.9881 237.375L34.2195 251.61Z" fill="#E0E0E0"/>
<path d="M135.074 281.774L133.465 258.578L185.33 251.911V255.919L179.059 277.247L135.074 281.774Z" fill="#E0E0E0"/>
<path d="M183.42 341.064L182.766 325.935L137.182 328.147C135.989 328.211 134.8 327.961 133.735 327.42L69.0665 294.764C68.3309 294.388 67.7067 293.826 67.2566 293.134C66.8065 292.441 66.5462 291.643 66.5018 290.818L57.707 120.124C57.6826 119.719 57.746 119.313 57.893 118.935C58.0399 118.557 58.2669 118.215 58.5584 117.933C58.8487 117.653 59.1948 117.437 59.574 117.299C59.9533 117.161 60.3573 117.105 60.7598 117.133L88.4733 119.21V88.8904H91.7648V119.584C91.7629 119.976 91.6807 120.363 91.5233 120.722C91.3658 121.081 91.1365 121.403 90.8494 121.67C90.5623 121.936 90.2236 122.141 89.8542 122.272C89.4848 122.403 89.0926 122.456 88.7017 122.429L61.0089 120.352L69.7934 290.642C69.8041 290.895 69.8819 291.141 70.0187 291.354C70.1555 291.568 70.3465 291.741 70.5721 291.856L135.241 324.513C135.802 324.799 136.429 324.931 137.058 324.897L183.025 322.664C183.403 322.646 183.781 322.703 184.137 322.831C184.493 322.959 184.82 323.156 185.1 323.41C185.379 323.665 185.606 323.972 185.767 324.315C185.928 324.657 186.019 325.028 186.037 325.406L186.701 340.908L183.42 341.064Z" fill="#F58634"/>
<path d="M119.056 307.722L143.638 308.129L143.344 325.876L118.762 325.468L119.056 307.722Z" fill="#235EAC"/>
<path opacity="0.3" d="M128.8 307.881L143.662 308.127L143.368 325.874L128.506 325.627L128.8 307.881Z" fill="white"/>
<path opacity="0.3" d="M126.56 309.077L130.841 309.162L130.817 310.355L126.537 310.27L126.56 309.077Z" fill="white"/>
<path opacity="0.3" d="M126.434 322.877L130.713 322.948L130.693 324.141L126.414 324.07L126.434 322.877Z" fill="white"/>
<path d="M123.58 319.081C122.193 319.081 121.069 317.809 121.069 316.239C121.069 314.669 122.193 313.397 123.58 313.397C124.968 313.397 126.092 314.669 126.092 316.239C126.092 317.809 124.968 319.081 123.58 319.081Z" stroke="white" stroke-width="0.213046" stroke-miterlimit="10"/>
<path d="M123.476 313.829V314.307" stroke="white" stroke-width="0.213046" stroke-linecap="round" stroke-linejoin="round"/>
<path d="M123.367 318.201V318.679" stroke="white" stroke-width="0.213046" stroke-linecap="round" stroke-linejoin="round"/>
<path d="M125.698 316.146H125.219" stroke="white" stroke-width="0.213046" stroke-linecap="round" stroke-linejoin="round"/>
<path d="M121.85 316.147H121.371" stroke="white" stroke-width="0.213046" stroke-linecap="round" stroke-linejoin="round"/>
<path d="M123.478 316.145L123.476 314.675" stroke="white" stroke-width="0.106523" stroke-linecap="round" stroke-linejoin="round"/>
<path d="M123.385 316.241L122.345 317.281" stroke="white" stroke-width="0.106523" stroke-linecap="round" stroke-linejoin="round"/>
<path d="M123.246 316.147C123.246 316.193 123.26 316.238 123.285 316.276C123.311 316.314 123.347 316.344 123.389 316.362C123.432 316.379 123.478 316.384 123.524 316.375C123.569 316.366 123.61 316.344 123.642 316.311C123.675 316.279 123.697 316.238 123.706 316.193C123.715 316.148 123.71 316.101 123.693 316.058C123.675 316.016 123.645 315.98 123.607 315.954C123.569 315.929 123.524 315.915 123.478 315.915C123.448 315.915 123.417 315.921 123.389 315.932C123.361 315.944 123.335 315.961 123.313 315.982C123.292 316.004 123.275 316.03 123.263 316.058C123.252 316.086 123.246 316.117 123.246 316.147Z" fill="white"/>
<path opacity="0.3" d="M123.58 319.833C121.744 319.833 120.255 318.224 120.255 316.239C120.255 314.254 121.744 312.645 123.58 312.645C125.417 312.645 126.906 314.254 126.906 316.239C126.906 318.224 125.417 319.833 123.58 319.833Z" fill="white"/>
<path d="M151.2 347.408C150.829 347.691 143.387 346.89 145.311 333.688C145.311 333.688 141.781 334.584 141.402 334.525C141.402 334.525 136.223 342.465 139.993 346.398C143.764 350.331 149.385 350.571 149.385 350.571L151.2 347.408Z" fill="#235EAC"/>
<path opacity="0.3" d="M151.2 347.408C150.829 347.691 143.387 346.89 145.311 333.688C145.311 333.688 141.781 334.584 141.402 334.525C141.402 334.525 136.223 342.465 139.993 346.398C143.764 350.331 149.385 350.571 149.385 350.571L151.2 347.408Z" fill="black"/>
<path d="M142.953 335.731C142.933 335.731 145.032 335.771 145.735 334.898C146.438 334.024 146.913 332.463 145.635 331.397C144.356 330.332 136.851 325.73 133.316 325.368C129.782 325.006 125.998 327.286 125.998 327.286L130.626 330.707L140.59 333.119L142.953 335.731Z" fill="#555555"/>
<path d="M149.738 345.328L149.544 347.237L147.252 347.043L147.597 345.081L149.738 345.328Z" fill="#954F1B"/>
<path d="M150.184 347.099L146.858 347.052L146.621 348.731C146.621 348.731 149.736 348.773 151.017 348.603C152.297 348.433 152.097 347.766 152.097 347.766C152.097 347.766 150.597 347.802 150.184 347.099Z" fill="#555555"/>
<path d="M121.161 351.931C120.664 347.05 123.61 342.754 127.741 342.333C131.872 341.913 135.624 345.528 136.12 350.408C136.617 355.288 133.67 359.585 129.54 360.006C125.409 360.426 121.657 356.811 121.161 351.931Z" fill="#555555"/>
<path d="M133.866 324.002C133.866 324.002 133.521 331.921 138.127 332.147C142.733 332.373 147.682 331.868 147.682 331.868L146.231 346.097L150.55 346.364C150.55 346.364 153.65 334.292 154.137 331.259C154.625 328.225 154.201 326.08 150.999 324.733C147.797 323.387 133.866 324.002 133.866 324.002Z" fill="#235EAC"/>
<path d="M159.643 349.127L153.906 332.463L146.236 323.996C146.236 323.996 152.93 324.022 156.147 325.871C159.364 327.72 159.483 329.942 160.073 332.586C160.663 335.23 163.03 347.744 163.03 347.744L159.643 349.127Z" fill="#235EAC"/>
<path opacity="0.7" d="M133.866 324.002C133.866 324.002 140.995 323.685 146.223 324.002C146.223 324.002 152.917 324.028 156.134 325.877C159.351 327.726 159.483 329.942 160.073 332.586C160.663 335.23 163.03 347.744 163.03 347.744L159.643 349.127L153.906 332.462C152.94 337.081 150.55 346.355 150.55 346.355L146.232 346.097L147.685 331.877C147.685 331.877 142.738 332.382 138.129 332.156C133.521 331.93 133.866 324.002 133.866 324.002Z" fill="black"/>
<path d="M145.635 311.158L148.283 311.48C148.283 311.48 148.743 316.348 149.172 317.294C149.172 317.294 157.316 318.412 160.653 318.316L162.346 319.467L162.406 321.467L160.746 321.516L160.212 320.249C160.212 320.249 159.091 320.2 158.831 319.569C158.831 319.569 150.177 321.659 146.99 319.273C146.986 319.275 145.064 316.452 145.635 311.158Z" fill="#954F1B"/>
<path d="M138.046 298.122C138.046 298.122 137.217 299.187 137.533 300.109C137.62 300.372 137.773 300.609 137.978 300.795C138.183 300.982 138.432 301.112 138.702 301.175C138.702 301.175 138.858 302.651 139.729 302.694C140.6 302.736 140.308 299.44 140.308 299.44L138.046 298.122Z" fill="#555555"/>
<path d="M144.755 324.039L145.337 314.522L148.946 312.123C148.946 312.123 147.765 307.962 145.507 307.257C143.249 306.552 138.323 304.935 135.336 305.738C132.349 306.541 132.692 310.065 133.206 312.679L133.781 312.815C133.781 312.815 133.87 323.116 133.875 324.003L144.755 324.039Z" fill="#555555"/>
<path d="M138.261 306.326C139.444 307.47 141.856 308.152 142.522 307.583C143.189 307.014 142.348 306.492 141.721 305.849C141.383 305.495 141.393 304.832 141.472 304.304C141.514 304.038 141.575 303.775 141.655 303.518C143.869 303.396 144.787 302.361 144.879 300.535C144.97 298.709 144.144 296.59 144.144 296.59L142.58 295.256C142.58 295.256 140.449 295.575 138.745 296.747C137.731 297.437 138.031 298.797 138.451 299.8C138.629 300.227 138.843 300.639 139.09 301.029C139.329 303.528 138.261 306.326 138.261 306.326Z" fill="#954F1B"/>
<path d="M143.647 301.038C143.647 301.038 142.795 301.079 142.422 300.55" stroke="#555555" stroke-width="0.213046" stroke-linecap="round" stroke-linejoin="round"/>
<path d="M142.29 298.882C142.29 299.044 142.388 299.172 142.503 299.17C142.618 299.168 142.701 299.033 142.697 298.871C142.693 298.709 142.599 298.582 142.484 298.584C142.369 298.586 142.284 298.72 142.29 298.882Z" fill="#555555"/>
<path d="M144.233 298.933C144.233 299.095 144.331 299.223 144.446 299.221C144.561 299.219 144.644 299.084 144.64 298.922C144.636 298.76 144.542 298.633 144.427 298.635C144.312 298.637 144.227 298.773 144.233 298.933Z" fill="#555555"/>
<path d="M143.557 300.256L143.645 298.95L144.269 300.19C144.172 300.273 144.051 300.324 143.924 300.336C143.796 300.347 143.668 300.32 143.557 300.256Z" fill="#954F1B"/>
<path d="M142.392 297.86C142.229 297.815 142.055 297.829 141.901 297.901C141.747 297.972 141.624 298.096 141.553 298.249" stroke="#555555" stroke-width="0.213046" stroke-linecap="round" stroke-linejoin="round"/>
<path d="M144.834 298.1C144.834 298.1 144.442 297.674 143.982 297.783" stroke="#555555" stroke-width="0.213046" stroke-linecap="round" stroke-linejoin="round"/>
<path d="M138.436 299.8C140.873 299.888 141.176 297.124 141.176 297.124C142.382 297.764 144.135 296.592 144.135 296.592L142.571 295.254C142.571 295.254 140.441 295.578 138.736 296.745C137.716 297.438 138.016 298.801 138.436 299.8Z" fill="#555555"/>
<path d="M144.919 297.401C144.919 297.401 146.18 296.562 145.624 295.957C145.068 295.352 141.661 296.502 139.116 297.913C139.116 297.913 144.947 294.012 146.532 295.245C147.842 296.266 144.936 297.683 145.023 297.68L144.919 297.401Z" fill="#235EAC"/>
<path d="M137.805 297.116C137.809 297.558 137.893 297.995 138.053 298.407L143.779 295.637C143.542 295.363 143.258 295.134 142.94 294.96C142.601 294.766 142.232 294.629 141.849 294.555C141.443 294.477 141.026 294.463 140.616 294.512C138.521 294.753 137.795 296.364 137.805 297.116Z" fill="#235EAC"/>
<path d="M150.961 322.59C151.334 322.98 156.155 321.981 156.996 322.428C157.352 322.615 157.508 323.28 157.866 324.009C158.354 324.999 159.221 326.086 161.488 326.158C165.425 326.284 164.95 322.289 165.261 320.992C165.261 320.992 168.989 320.312 169.185 319.658C169.381 319.004 169.14 318.906 169.14 318.906C169.14 318.906 164.54 319.758 163.65 318.595C163.477 318.427 163.275 318.292 163.053 318.197C162.542 317.972 161.992 317.848 161.434 317.833C159.813 317.747 157.836 318.203 157.282 319.23C156.157 321.324 151.334 320.854 150.891 321.403C150.447 321.953 150.588 322.2 150.961 322.59Z" fill="#235EAC"/>
<path d="M163.167 325.319C163.167 325.319 169.635 334.267 164.309 348.04" stroke="#555555" stroke-width="0.213046" stroke-linecap="round" stroke-linejoin="round"/>
<path d="M154.63 329.968C154.63 329.968 154.63 329.985 154.63 330.019C154.63 330.053 154.63 330.072 154.63 330.111V330.132C154.707 330.994 154.849 331.848 155.056 332.688C155.35 333.93 155.74 335.113 156.061 336.063C157.425 340.1 157.267 344.451 157.267 344.451C157.719 343.888 158.545 343.488 159.579 343.207C163.341 342.173 169.728 342.727 169.728 342.727C170.981 338.332 170.534 331.453 169.287 327.601C168.041 323.749 164.585 324.618 164.585 324.618C164.585 324.618 160.938 324.725 160.48 324.676C159.642 324.574 158.793 324.591 157.96 324.727C155.143 325.242 154.466 327.469 154.63 329.968Z" fill="#235EAC"/>
<path d="M126.548 346.736C132.939 352.506 145.277 353.111 154.457 352.472L159.6 343.219L161.684 339.471L154.99 330.449L154.636 329.974C154.636 329.974 154.636 329.991 154.636 330.025C154.636 330.059 154.636 330.078 154.636 330.117V330.138C154.728 331.746 155.32 344.655 150.588 347.821L150.55 347.848C149.91 348.262 149.167 348.489 148.404 348.505C139.723 348.756 139.966 337.426 142.173 335L127.108 331.972C127.108 331.972 124.134 339.461 126.548 346.736Z" fill="#235EAC"/>
<path d="M143.304 332.544C143.304 332.544 144.717 333.715 143.988 335.288C143.259 336.86 136.235 333.807 133.47 333.251C130.705 332.695 127.505 332.152 126.128 331.868C124.752 331.585 124.871 327.637 125.996 327.288C127.121 326.938 138.14 328.886 139.968 329.955C141.175 330.688 142.294 331.557 143.304 332.544Z" fill="#555555"/>
<path d="M139.768 300.776C139.902 300.631 139.983 300.445 139.998 300.248C140.014 300.051 139.961 299.855 139.851 299.692C139.51 299.18 138.822 298.369 138.161 298.976C137.237 299.828 138.815 301.377 139.469 301.002C139.579 300.941 139.679 300.865 139.768 300.776Z" fill="#954F1B"/>
<path opacity="0.2" d="M144.919 297.401C144.919 297.401 146.18 296.562 145.624 295.957C145.377 295.688 144.638 295.744 143.639 296.029C142.996 296.202 142.367 296.421 141.755 296.683C140.878 297.065 139.944 297.553 139.116 297.913C139.116 297.913 144.947 294.012 146.532 295.245C147.842 296.266 145.117 297.589 145.021 297.678L144.974 297.506L144.919 297.401Z" fill="black"/>
<path d="M144.32 297.037C144.32 297.037 145.599 297.25 144.717 298.627L144.32 297.037Z" fill="#555555"/>
<path d="M143.095 296.198C143.095 296.198 145.024 295.52 145.56 295.904C146.097 296.287 145.535 297.018 144.921 297.395L144.429 297.459L144.139 296.585L143.389 296.494L143.095 296.198Z" fill="#555555"/>
<path opacity="0.3" d="M140.469 295.156L140.931 295.84L142.94 294.966C142.601 294.772 142.232 294.636 141.849 294.562L140.469 295.156Z" fill="white"/>
<path opacity="0.1" d="M140.916 303.331C141.049 303.684 141.24 304.013 141.481 304.304C141.522 304.038 141.583 303.775 141.664 303.518C141.405 303.5 141.152 303.437 140.916 303.331Z" fill="black"/>
<path d="M160.016 322.066C160.101 323.542 160.74 324.75 161.524 325.048C161.66 325.101 161.805 325.123 161.95 325.114C162.917 325.059 163.62 323.608 163.522 321.876C163.424 320.144 162.559 318.785 161.592 318.84C161.198 318.862 160.851 319.115 160.58 319.522C160.182 320.106 159.958 321.039 160.016 322.066Z" fill="#F5F5F5"/>
<path d="M160.015 322.066C160.101 323.542 160.74 324.75 161.524 325.049C162.419 324.997 163.068 323.657 162.977 322.066C162.885 320.474 162.088 319.211 161.194 319.262C160.963 319.279 160.745 319.373 160.574 319.529C160.182 320.106 159.958 321.039 160.015 322.066Z" fill="white"/>
<path d="M125.487 342.993C127.134 341.836 133.506 340.701 133.506 340.701C137.377 340.701 140.776 344.184 141.244 348.809C141.628 352.572 139.966 355.987 137.288 357.544C137.288 357.544 137.064 357.638 136.689 357.785C135.27 358.345 131.67 359.703 129.542 360.001" fill="#555555"/>
<path opacity="0.3" d="M121.161 351.931C120.664 347.05 123.61 342.754 127.741 342.333C131.872 341.913 135.624 345.528 136.12 350.408C136.617 355.288 133.67 359.585 129.54 360.006C125.409 360.426 121.657 356.811 121.161 351.931Z" fill="black"/>
<path d="M154.28 351.647C153.784 346.766 156.73 342.47 160.861 342.049C164.992 341.629 168.743 345.244 169.24 350.124C169.737 355.005 166.79 359.301 162.659 359.722C158.528 360.142 154.777 356.527 154.28 351.647Z" fill="#555555"/>
<path d="M157.165 343.677L160.974 359.671C161.53 359.761 162.095 359.777 162.655 359.72H162.698C163.429 359.532 163.103 359.734 163.836 359.492C165.7 358.876 168.408 357.787 168.408 357.787C171.277 356.392 172.899 352.998 172.504 349.12C172.027 344.423 168.657 340.914 164.69 341.202C164.69 341.202 162.807 341.549 160.868 342.054C160.016 342.267 159.163 342.52 158.463 342.784C157.998 343.033 157.563 343.333 157.165 343.677Z" fill="#555555"/>
<path opacity="0.3" d="M154.28 351.637C154.706 355.844 157.555 359.11 160.978 359.662C161.534 359.752 162.099 359.768 162.659 359.711H162.702C163.482 359.627 164.24 359.401 164.939 359.044C167.817 357.585 169.639 354.04 169.24 350.12C168.744 345.243 165.001 341.632 160.872 342.045H160.861C160.023 342.13 159.209 342.378 158.466 342.776C158.002 343.025 157.567 343.325 157.169 343.671C155.13 345.443 153.943 348.417 154.28 351.637Z" fill="black"/>
<path d="M155.318 346.034C155.443 345.834 155.585 345.647 155.744 345.473C156.696 344.174 158.874 343.688 160.299 343.803C161.391 343.91 162.44 344.286 163.352 344.898C164.391 345.571 165.135 346.602 166.166 347.31C168.122 348.66 171.09 348.622 173.054 347.231C173.165 347.152 173.27 347.066 173.369 346.973C173.569 346.765 173.703 346.501 173.753 346.217C173.828 345.861 173.801 345.492 173.674 345.152C173.248 343.954 171.827 342.902 170.93 342.261C169.111 340.978 166.973 340.225 164.751 340.085C158.418 339.649 155.716 345.058 155.318 346.034Z" fill="#235EAC"/>
<path opacity="0.3" d="M155.757 346.204C157.118 344.24 158.865 343.688 160.29 343.803C161.383 343.91 162.432 344.286 163.343 344.898C164.383 345.571 165.126 346.602 166.158 347.31C168.113 348.66 171.081 348.622 173.045 347.231C173.156 347.152 173.261 347.066 173.361 346.973C173.561 346.765 173.694 346.501 173.744 346.217C173.819 345.861 173.792 345.492 173.665 345.152C173.007 345.912 171.09 347.744 168.493 346.856C165.254 345.737 164.464 342.414 161.002 342.444C158.251 342.476 156.558 344.606 155.757 346.204Z" fill="black"/>
<g opacity="0.3">
<path d="M170.003 341.675C169.079 341.018 168.04 340.542 166.94 340.271C165.838 339.99 164.697 339.897 163.565 339.994C162.434 340.102 161.327 340.384 160.282 340.829L159.894 340.999L159.515 341.189C159.259 341.308 159.019 341.457 158.771 341.594C158.524 341.73 158.296 341.898 158.06 342.05C157.823 342.201 157.602 342.378 157.376 342.546C158.305 341.923 159.297 341.4 160.335 340.984C161.371 340.569 162.463 340.308 163.576 340.211C164.686 340.105 165.805 340.177 166.893 340.424C167.439 340.545 167.974 340.71 168.493 340.918C169.019 341.121 169.525 341.374 170.003 341.675Z" fill="black"/>
</g>
<g opacity="0.3">
<path d="M163.105 340.151C163.37 339.263 163.53 338.346 163.58 337.42C163.65 336.498 163.665 335.571 163.646 334.65C163.627 333.73 163.563 332.801 163.478 331.881L163.322 330.505C163.254 330.047 163.194 329.588 163.109 329.133L163.303 331.902L163.38 333.283C163.392 333.743 163.42 334.203 163.422 334.663C163.458 335.584 163.441 336.504 163.407 337.433C163.392 337.893 163.356 338.351 163.309 338.809C163.272 339.261 163.204 339.709 163.105 340.151Z" fill="black"/>
</g>
<path opacity="0.3" d="M150.599 347.802C155.047 344.941 155.224 337.559 155.073 332.688C155.045 331.851 155.011 331.091 154.986 330.437C154.939 329.782 154.939 329.125 154.986 328.47C155.435 325.125 157.992 324.723 157.992 324.723H157.981C155.15 325.242 154.472 327.469 154.636 329.968C154.636 329.968 154.636 329.985 154.636 330.019C154.636 330.053 154.636 330.072 154.636 330.111V330.132C154.732 331.74 155.324 344.649 150.599 347.802Z" fill="black"/>
<path opacity="0.2" d="M150.961 322.59C151.334 322.98 156.155 321.981 156.997 322.428C157.352 322.616 157.508 323.28 157.866 324.009C158.872 325.607 160.286 325.858 160.373 325.871C158.686 324.593 158.215 321.516 159.053 319.571C159.89 317.626 162.887 318.131 163.058 318.189C162.547 317.964 161.997 317.84 161.439 317.824C159.817 317.739 157.84 318.195 157.286 319.222C156.162 321.316 151.338 320.845 150.895 321.395C150.452 321.945 150.588 322.2 150.961 322.59Z" fill="black"/>
<path d="M154.736 320.73C155.029 321.271 155.146 321.89 155.071 322.5L150.987 322.961C150.778 322.719 150.623 322.435 150.534 322.129C150.445 321.822 150.423 321.5 150.469 321.184C150.469 321.184 154.515 320.777 154.736 320.73Z" fill="#555555"/>
<path d="M167.138 320.579C167.138 320.579 167.545 319.714 167.057 319.166C168.148 319.068 168.823 318.953 169.526 318.851C169.63 319.169 169.682 319.473 169.313 319.957C168.944 320.44 167.138 320.579 167.138 320.579Z" fill="#555555"/>
<path d="M169.407 325.992C170.114 327.145 170.719 328.99 170.772 331.936" stroke="#235EAC" stroke-width="0.213046" stroke-linecap="round" stroke-linejoin="round"/>
<path d="M167.078 324.092C167.593 324.211 168.066 324.466 168.448 324.831" stroke="#235EAC" stroke-width="0.213046" stroke-linecap="round" stroke-linejoin="round"/>
<path d="M135.306 312.986L137.995 313.314C137.995 313.314 138.464 318.254 138.898 319.215C138.898 319.215 147.167 320.353 150.556 320.253L152.276 321.42L152.335 323.453L150.65 323.502L150.107 322.224C150.107 322.224 148.969 322.175 148.707 321.533C148.707 321.533 139.921 323.664 136.685 321.235C136.687 321.226 134.733 318.361 135.306 312.986Z" fill="#954F1B"/>
<path opacity="0.2" d="M157.199 350.997C157.276 353.678 159.031 355.8 161.121 355.74C161.402 355.732 161.68 355.683 161.948 355.597C163.622 355.065 164.828 353.09 164.762 350.778C164.696 348.541 163.462 346.692 161.841 346.178C161.517 346.074 161.178 346.026 160.838 346.036C158.748 346.097 157.12 348.326 157.199 350.997Z" fill="#FAFAFA"/>
<path d="M159.123 350.998C159.189 353.286 160.401 355.167 161.948 355.604C163.622 355.071 164.828 353.096 164.762 350.784C164.696 348.547 163.462 346.698 161.841 346.185C160.231 346.622 159.057 348.628 159.123 350.998Z" fill="#555555"/>
<path opacity="0.2" d="M124.373 351.21C124.452 353.891 126.207 356.015 128.295 355.953C128.576 355.946 128.854 355.897 129.122 355.81C130.798 355.277 132.004 353.305 131.936 350.991C131.872 348.756 130.639 346.905 129.017 346.391C128.693 346.287 128.354 346.239 128.014 346.249C125.924 346.31 124.296 348.535 124.373 351.21Z" fill="#FAFAFA"/>
<path d="M126.297 351.21C126.365 353.496 127.575 355.378 129.122 355.814C130.798 355.282 132.004 353.309 131.936 350.995C131.872 348.76 130.639 346.909 129.017 346.396C127.404 346.832 126.228 348.839 126.297 351.21Z" fill="#555555"/>
<path d="M121.079 344.15C121.043 346.786 125.055 348.53 131.768 349.63C133.577 349.948 135.426 349.969 137.243 349.694C140.226 349.202 141.683 347.94 141.683 347.94C141.683 347.94 140.924 338.833 133.419 337.678C128.306 336.894 124.458 338.956 122.507 341.178C121.588 342.222 121.09 343.307 121.079 344.15Z" fill="#235EAC"/>
<path opacity="0.3" d="M121.079 344.15C121.043 346.786 125.055 348.531 131.768 349.63C133.577 349.948 135.426 349.97 137.243 349.694C136.921 347.22 135.477 340.733 129.198 340.06C126.35 339.753 124.151 340.328 122.507 341.178C121.588 342.222 121.09 343.307 121.079 344.15Z" fill="black"/>
<g opacity="0.3">
<path d="M141.248 347.981C141.11 346.741 140.814 345.524 140.368 344.359C139.93 343.182 139.324 342.074 138.57 341.069C138.189 340.57 137.761 340.108 137.292 339.691C136.827 339.267 136.314 338.898 135.764 338.592C134.67 337.975 133.457 337.596 132.206 337.482C132.819 337.584 133.422 337.74 134.009 337.946C134.305 338.036 134.584 338.174 134.861 338.291C135.139 338.424 135.41 338.572 135.673 338.732C135.941 338.886 136.188 339.071 136.442 339.244C136.695 339.416 136.93 339.621 137.153 339.836C137.608 340.249 138.023 340.705 138.391 341.197C139.139 342.183 139.749 343.266 140.204 344.416C140.44 344.99 140.644 345.576 140.813 346.172C140.994 346.766 141.139 347.37 141.248 347.981Z" fill="black"/>
</g>
<path d="M151.321 344.972L150.878 346.477L146.231 346.089L146.17 343.986L151.321 344.972Z" fill="#235EAC"/>
</svg>
