<svg width="155" height="155" viewBox="0 0 155 155" fill="none" xmlns="http://www.w3.org/2000/svg">
<path d="M77.4999 132.544C110.696 132.544 137.606 130.338 137.606 127.618C137.606 124.897 110.696 122.692 77.4999 122.692C44.3044 122.692 17.394 124.897 17.394 127.618C17.394 130.338 44.3044 132.544 77.4999 132.544Z" fill="#F5F5F5"/>
<path d="M92.2808 108.165H87.0108C84.2673 108.165 82.0508 112.142 82.0508 117.05C82.0508 121.957 84.2735 125.931 87.0108 125.931H92.2808C95.0243 125.931 97.2408 121.954 97.2408 117.05C97.2408 112.146 95.0243 108.165 92.2808 108.165Z" fill="#263238"/>
<mask id="mask0_123_4831" style="mask-type:luminance" maskUnits="userSpaceOnUse" x="82" y="108" width="16" height="18">
<path d="M92.2808 108.165H87.0108C84.2673 108.165 82.0508 112.142 82.0508 117.05C82.0508 121.957 84.2735 125.931 87.0108 125.931H92.2808C95.0243 125.931 97.2408 121.954 97.2408 117.05C97.2408 112.146 95.0243 108.165 92.2808 108.165Z" fill="white"/>
</mask>
<g mask="url(#mask0_123_4831)">
<path opacity="0.05" d="M98.4807 108.165H93.2107C90.4672 108.165 88.2507 112.142 88.2507 117.05C88.2507 121.957 90.4734 125.931 93.2107 125.931H98.4807C101.224 125.931 103.441 121.954 103.441 117.05C103.441 112.146 101.224 108.165 98.4807 108.165Z" fill="white"/>
</g>
<path d="M134.971 110.069L42.687 110.004V51.057H134.971V110.069Z" fill="#407BFF"/>
<path opacity="0.3" d="M134.971 51.057H72.4253V110.066H134.971V51.057Z" fill="#263238"/>
<path opacity="0.2" d="M72.4253 51.057H42.687V111.231H72.4253V51.057Z" fill="white"/>
<path opacity="0.1" d="M42.9102 53.7974H134.971" stroke="white" stroke-width="2" stroke-linecap="round" stroke-linejoin="round"/>
<path opacity="0.1" d="M42.9102 56.3488H134.971" stroke="white" stroke-width="2" stroke-linecap="round" stroke-linejoin="round"/>
<path opacity="0.1" d="M42.9102 58.8969H134.971" stroke="white" stroke-width="2" stroke-linecap="round" stroke-linejoin="round"/>
<path opacity="0.1" d="M42.9102 61.4451H134.971" stroke="white" stroke-width="2" stroke-linecap="round" stroke-linejoin="round"/>
<path opacity="0.1" d="M42.9102 63.9965H134.971" stroke="white" stroke-width="2" stroke-linecap="round" stroke-linejoin="round"/>
<path opacity="0.1" d="M42.9102 66.5446H134.971" stroke="white" stroke-width="2" stroke-linecap="round" stroke-linejoin="round"/>
<path opacity="0.1" d="M42.9102 69.0928H134.971" stroke="white" stroke-width="2" stroke-linecap="round" stroke-linejoin="round"/>
<path opacity="0.1" d="M42.9102 71.641H134.971" stroke="white" stroke-width="2" stroke-linecap="round" stroke-linejoin="round"/>
<path opacity="0.1" d="M42.9102 74.1923H134.971" stroke="white" stroke-width="2" stroke-linecap="round" stroke-linejoin="round"/>
<path opacity="0.1" d="M42.9102 76.7405H134.971" stroke="white" stroke-width="2" stroke-linecap="round" stroke-linejoin="round"/>
<path opacity="0.1" d="M42.9102 79.2887H134.971" stroke="white" stroke-width="2" stroke-linecap="round" stroke-linejoin="round"/>
<path opacity="0.1" d="M42.9102 81.84H134.971" stroke="white" stroke-width="2" stroke-linecap="round" stroke-linejoin="round"/>
<path opacity="0.1" d="M42.9102 84.3882H134.971" stroke="white" stroke-width="2" stroke-linecap="round" stroke-linejoin="round"/>
<path opacity="0.1" d="M42.9102 86.9364H134.971" stroke="white" stroke-width="2" stroke-linecap="round" stroke-linejoin="round"/>
<path opacity="0.1" d="M42.9102 89.4846H134.971" stroke="white" stroke-width="2" stroke-linecap="round" stroke-linejoin="round"/>
<path opacity="0.1" d="M42.9102 92.0359H134.971" stroke="white" stroke-width="2" stroke-linecap="round" stroke-linejoin="round"/>
<path opacity="0.1" d="M42.9102 94.5841H134.971" stroke="white" stroke-width="2" stroke-linecap="round" stroke-linejoin="round"/>
<path opacity="0.1" d="M42.9102 97.1323H134.971" stroke="white" stroke-width="2" stroke-linecap="round" stroke-linejoin="round"/>
<path opacity="0.1" d="M42.9102 99.6836H134.971" stroke="white" stroke-width="2" stroke-linecap="round" stroke-linejoin="round"/>
<path opacity="0.1" d="M42.9102 102.232H134.971" stroke="white" stroke-width="2" stroke-linecap="round" stroke-linejoin="round"/>
<path opacity="0.1" d="M42.9102 104.78H134.971" stroke="white" stroke-width="2" stroke-linecap="round" stroke-linejoin="round"/>
<path opacity="0.1" d="M42.9102 107.331H134.971" stroke="white" stroke-width="2" stroke-linecap="round" stroke-linejoin="round"/>
<path d="M25.7517 109.325H20.8754C18.3334 109.325 16.275 113.007 16.275 117.552C16.275 122.097 18.3334 125.776 20.8754 125.776H25.7517C28.2937 125.776 30.3521 122.093 30.3521 117.552C30.3521 113.01 28.2937 109.325 25.7517 109.325Z" fill="#263238"/>
<path opacity="0.05" d="M31.9548 109.325H27.0754C24.5334 109.325 22.475 113.007 22.475 117.552C22.475 122.097 24.5334 125.776 27.0754 125.776H31.9548C34.4937 125.776 36.5552 122.093 36.5552 117.552C36.5552 113.01 34.4937 109.325 31.9548 109.325Z" fill="white"/>
<path d="M23.0392 93.2573H20.7328C20.2802 93.2728 19.9082 92.7892 19.8989 92.1754C19.8927 92.1115 19.8927 92.0471 19.8989 91.9832L20.5189 85.0175C20.5964 84.3014 21.0397 83.7775 21.5729 83.7434H23.901C24.3505 83.7434 24.7225 84.2177 24.7318 84.8315C24.7318 84.8935 24.7318 84.9555 24.7318 85.0175L24.1118 91.9832C24.0188 92.69 23.56 93.2387 23.0392 93.2573Z" fill="#263238"/>
<path d="M25.3456 70.2491L20.8971 94.24L69.3284 113.212L68.9905 65.9308L58.3389 65.6208H29.1617C27.4071 65.6053 25.8602 67.4901 25.3456 70.2491Z" fill="#407BFF"/>
<path d="M61.38 74.1086C59.5727 74.028 57.9514 75.5098 57.4213 77.7201L53.7571 93.0713H46.7046L46.3202 113.324H69.5175" fill="#407BFF"/>
<path d="M26.04 91.7817C25.3301 91.7817 24.7566 90.8703 24.7566 89.7481C24.7563 89.5525 24.775 89.3573 24.8124 89.1653L27.4753 75.0789C27.6985 73.9102 28.3805 73.1104 29.1524 73.1135H54.6282C54.9041 73.1135 55.1304 73.4669 55.1304 73.9071C55.131 73.9852 55.1237 74.0631 55.1087 74.1396C54.5507 77.0412 52.7372 86.6543 52.0428 90.3309C51.8816 91.1927 51.3794 91.7817 50.8028 91.7817H26.04Z" fill="#263238"/>
<path d="M49.4822 98.0251C49.4818 98.2719 49.4641 98.5185 49.4295 98.7629L49.2962 99.6712L49.2187 100.207L48.6483 104.126L47.7183 110.496L47.461 112.266H11.4111V110.496L11.4359 104.126L11.47 100.316V98.766C11.16 96.72 12.1489 94.736 13.6555 94.3237C13.8323 94.2754 14.0148 94.2515 14.198 94.2524H46.7046C48.2391 94.24 49.4822 95.9388 49.4822 98.0251Z" fill="#407BFF"/>
<path d="M67.8063 75.02V90.1201C67.8063 91.0346 67.3382 91.7786 66.7585 91.7817H57.9483C57.3686 91.7817 56.9005 91.0377 56.9005 90.1201C56.9003 89.9705 56.9128 89.8212 56.9377 89.6737L59.6533 74.2357C59.7835 73.4948 60.2175 72.9957 60.7011 73.0236L66.7957 73.3584C67.3599 73.3925 67.8063 74.1272 67.8063 75.02Z" fill="#263238"/>
<path opacity="0.1" d="M40.9014 73.1135H36.0344L30.4451 91.7817H35.3152L40.9014 73.1135Z" fill="white"/>
<path opacity="0.1" d="M44.6896 73.1135H42.3646L36.7784 91.7817H39.1003L44.6896 73.1135Z" fill="white"/>
<path d="M58.8224 104.126V110.496H11.4172L11.442 104.126H58.8224Z" fill="black"/>
<path d="M52.2195 104.126H47.8361L39.9528 108.757V110.496H58.8225V104.126H52.2195Z" fill="white"/>
<path d="M19.5888 108.757V110.496H11.4172L11.442 104.126H11.7086L19.5888 108.757Z" fill="white"/>
<path opacity="0.3" d="M69.3501 113.324L68.9905 65.9308L62.4805 65.6208C60.8561 65.5402 58.9806 67.4281 58.5063 69.6167L53.7881 94.24H51.9498C49.8852 94.24 48.4716 95.7435 48.4747 97.34L48.5026 113.33H69.3501" fill="#263238"/>
<path d="M49.3613 99.8944C49.3606 99.9532 49.3476 100.011 49.323 100.065C49.2984 100.118 49.2629 100.166 49.2187 100.204C49.1429 100.275 49.0431 100.314 48.9397 100.313H11.47V99.4697H48.949C49.0203 99.4699 49.0905 99.4882 49.1528 99.5229C49.2152 99.5576 49.2677 99.6076 49.3055 99.6681C49.3447 99.7369 49.364 99.8153 49.3613 99.8944Z" fill="white"/>
<path d="M18.0792 99.4728V100.316H11.4576L11.4607 99.4728H18.0792Z" fill="#263238"/>
<path d="M49.3613 99.8944C49.3606 99.9532 49.3476 100.011 49.323 100.065C49.2984 100.118 49.2629 100.166 49.2187 100.204C49.1429 100.275 49.0431 100.314 48.9397 100.313H39.8505V99.4697H48.9397C49.011 99.4699 49.0812 99.4882 49.1435 99.5229C49.2059 99.5576 49.2584 99.6076 49.2962 99.6681C49.3386 99.736 49.3612 99.8144 49.3613 99.8944Z" fill="#263238"/>
<path d="M136.626 111.6V111.767C136.626 112.179 136.463 112.573 136.172 112.863C135.882 113.154 135.487 113.317 135.076 113.317H11.9443C11.5332 113.317 11.139 113.154 10.8483 112.863C10.5576 112.573 10.3943 112.179 10.3943 111.767V111.6C10.3943 111.189 10.5576 110.795 10.8483 110.504C11.139 110.213 11.5332 110.05 11.9443 110.05H135.076C135.487 110.05 135.882 110.213 136.172 110.504C136.463 110.795 136.626 111.189 136.626 111.6Z" fill="#263238"/>
<path d="M39.2491 111.324H20.8971V112.22H39.2491V111.324Z" fill="black"/>
<path d="M16.0146 111.771C16.0146 111.872 15.9847 111.97 15.9286 112.054C15.8725 112.138 15.7928 112.204 15.6995 112.243C15.6062 112.282 15.5036 112.292 15.4044 112.272C15.3053 112.253 15.2141 112.205 15.1425 112.133C15.0708 112.062 15.0219 111.971 15.0018 111.872C14.9817 111.773 14.9914 111.67 15.0296 111.577C15.0679 111.483 15.1329 111.403 15.2167 111.347C15.3004 111.29 15.3989 111.26 15.5 111.259C15.5674 111.259 15.6343 111.272 15.6967 111.297C15.7591 111.323 15.8158 111.36 15.8637 111.408C15.9115 111.455 15.9494 111.512 15.9753 111.574C16.0012 111.636 16.0146 111.703 16.0146 111.771Z" fill="white"/>
<path d="M43.6325 111.771C43.6325 111.872 43.6025 111.971 43.5463 112.055C43.4901 112.139 43.4102 112.204 43.3167 112.243C43.2233 112.282 43.1204 112.292 43.0212 112.272C42.922 112.252 42.8308 112.204 42.7593 112.132C42.6878 112.061 42.6391 111.97 42.6193 111.87C42.5996 111.771 42.6097 111.668 42.6484 111.575C42.6871 111.481 42.7527 111.401 42.8368 111.345C42.9209 111.289 43.0198 111.259 43.121 111.259C43.1882 111.259 43.2547 111.272 43.3167 111.298C43.3788 111.324 43.4352 111.361 43.4827 111.409C43.5302 111.456 43.5679 111.513 43.5936 111.575C43.6193 111.637 43.6325 111.703 43.6325 111.771Z" fill="white"/>
<path d="M58.4629 116.848C58.4629 111.916 60.698 107.917 63.457 107.917H58.1591C55.4032 107.917 53.1681 111.916 53.1681 116.848C53.1681 121.78 55.4032 125.776 58.1591 125.776H63.457C60.698 125.786 58.4629 121.79 58.4629 116.848Z" fill="black"/>
<path opacity="0.7" d="M58.4629 116.848C58.4629 111.916 60.698 107.917 63.457 107.917H58.1591C55.4032 107.917 53.1681 111.916 53.1681 116.848C53.1681 121.78 55.4032 125.776 58.1591 125.776H63.457C60.698 125.786 58.4629 121.79 58.4629 116.848Z" fill="#263238"/>
<path d="M63.457 125.789C66.2152 125.789 68.4511 121.79 68.4511 116.858C68.4511 111.925 66.2152 107.927 63.457 107.927C60.6988 107.927 58.4629 111.925 58.4629 116.858C58.4629 121.79 60.6988 125.789 63.457 125.789Z" fill="#263238"/>
<path d="M63.8568 123.82C65.812 123.82 67.397 120.703 67.397 116.858C67.397 113.012 65.812 109.895 63.8568 109.895C61.9017 109.895 60.3167 113.012 60.3167 116.858C60.3167 120.703 61.9017 123.82 63.8568 123.82Z" fill="white"/>
<path d="M63.5345 122.884C65.4058 122.884 66.9228 120.186 66.9228 116.858C66.9228 113.529 65.4058 110.831 63.5345 110.831C61.6632 110.831 60.1462 113.529 60.1462 116.858C60.1462 120.186 61.6632 122.884 63.5345 122.884Z" fill="#263238"/>
<path d="M62.7904 121.257C64.1567 121.257 65.2642 119.287 65.2642 116.858C65.2642 114.428 64.1567 112.459 62.7904 112.459C61.4242 112.459 60.3167 114.428 60.3167 116.858C60.3167 119.287 61.4242 121.257 62.7904 121.257Z" fill="black"/>
<path opacity="0.5" d="M136.626 111.6V111.767C136.626 112.179 136.463 112.573 136.172 112.863C135.882 113.154 135.487 113.317 135.076 113.317H72.4253V110.05H135.076C135.487 110.05 135.882 110.213 136.172 110.504C136.463 110.795 136.626 111.189 136.626 111.6Z" fill="black"/>
<path d="M117.155 116.848C117.155 111.916 119.39 107.917 122.146 107.917H116.851C114.092 107.917 111.857 111.916 111.857 116.848C111.857 121.78 114.092 125.776 116.851 125.776H122.14C119.39 125.786 117.155 121.79 117.155 116.848Z" fill="black"/>
<path opacity="0.7" d="M117.155 116.848C117.155 111.916 119.39 107.917 122.146 107.917H116.851C114.092 107.917 111.857 111.916 111.857 116.848C111.857 121.78 114.092 125.776 116.851 125.776H122.14C119.39 125.786 117.155 121.79 117.155 116.848Z" fill="#263238"/>
<path d="M122.146 125.789C124.904 125.789 127.14 121.79 127.14 116.858C127.14 111.925 124.904 107.927 122.146 107.927C119.388 107.927 117.152 111.925 117.152 116.858C117.152 121.79 119.388 125.789 122.146 125.789Z" fill="#263238"/>
<path d="M122.549 123.82C124.504 123.82 126.089 120.703 126.089 116.858C126.089 113.012 124.504 109.895 122.549 109.895C120.594 109.895 119.009 113.012 119.009 116.858C119.009 120.703 120.594 123.82 122.549 123.82Z" fill="white"/>
<path d="M122.224 122.884C124.095 122.884 125.612 120.186 125.612 116.858C125.612 113.529 124.095 110.831 122.224 110.831C120.352 110.831 118.835 113.529 118.835 116.858C118.835 120.186 120.352 122.884 122.224 122.884Z" fill="#263238"/>
<path d="M121.48 121.257C122.846 121.257 123.953 119.287 123.953 116.858C123.953 114.428 122.846 112.459 121.48 112.459C120.113 112.459 119.006 114.428 119.006 116.858C119.006 119.287 120.113 121.257 121.48 121.257Z" fill="black"/>
<path d="M101.947 73.1601C101.885 74.3536 101.776 75.5068 101.599 76.6817C101.447 77.8952 101.181 79.0918 100.806 80.256C100.687 80.595 100.539 80.9228 100.363 81.2356C100.24 81.4465 100.09 81.6403 99.9161 81.8122L99.8293 81.8928L99.7797 81.93L99.7549 81.9517L99.6495 82.023L99.4418 82.1687C98.9153 82.5065 98.3616 82.8 97.7864 83.046C96.6948 83.5257 95.5603 83.9015 94.3981 84.1682L93.9951 83.0646C94.9809 82.519 95.9915 81.961 96.9122 81.3813C97.3623 81.1052 97.795 80.8019 98.208 80.473L98.3444 80.3583L98.4126 80.2994C98.4126 80.2994 98.4405 80.2529 98.4746 80.1785C98.5652 79.978 98.6398 79.7707 98.6978 79.5585C98.838 79.0486 98.9487 78.531 99.0295 78.0085C99.1256 77.4691 99.2031 76.9204 99.2682 76.3624C99.3953 75.2557 99.5038 74.1211 99.5782 73.0175L101.947 73.1601Z" fill="#954F1B"/>
<path d="M94.7298 83.08L92.8264 82.491L93.1829 84.7943C93.1829 84.7943 94.4229 84.6393 95.0429 83.9449L94.7298 83.08Z" fill="#954F1B"/>
<path d="M90.5201 83.9728L90.6255 84.2828C90.685 84.454 90.7985 84.6012 90.9488 84.7024C91.0992 84.8036 91.2784 84.8532 91.4594 84.8439L92.4297 84.8005L92.0701 82.491L91.0037 82.9095C90.8014 82.99 90.6381 83.1456 90.5479 83.3438C90.4578 83.542 90.4478 83.7674 90.5201 83.9728Z" fill="#954F1B"/>
<path d="M104.197 70.9249C104.197 71.6441 103.85 73.0639 103.552 74.1303C103.332 74.896 103.149 75.4788 103.149 75.4788L102.712 75.3703L99.1101 74.4589C99.0543 72.5989 99.1256 70.5746 100.97 69.3594C102.123 68.5968 104.188 69.6446 104.197 70.9249Z" fill="#263238"/>
<path opacity="0.3" d="M104.194 71.0488C103.959 70.8008 103.425 70.7574 102.263 71.1263C100.598 71.6533 100.133 73.4761 100.111 74.713L102.712 75.3702L102.936 75.4291L103.149 75.4787C103.149 75.4787 103.239 75.1873 103.37 74.744C103.422 74.5642 103.487 74.3534 103.549 74.124C103.86 73.1213 104.075 72.0918 104.194 71.0488Z" fill="black"/>
<path d="M96.8037 128.796L94.6058 128.027L95.9884 123.265L98.1832 124.037L96.8037 128.796Z" fill="#954F1B"/>
<path d="M126.17 123.154L124.381 124.487L120.72 120.776L122.509 119.443L126.17 123.154Z" fill="#954F1B"/>
<path d="M123.65 123.944L125.581 122.348C125.614 122.319 125.656 122.304 125.699 122.304C125.742 122.304 125.784 122.319 125.817 122.348L127.298 123.693C127.332 123.726 127.358 123.766 127.376 123.809C127.394 123.852 127.403 123.899 127.403 123.946C127.403 123.993 127.394 124.039 127.376 124.083C127.358 124.126 127.332 124.165 127.298 124.198L127.267 124.226C126.585 124.772 126.226 125.001 125.376 125.702C124.856 126.133 123.761 127.165 123.039 127.76C122.317 128.355 121.691 127.677 121.939 127.363C123.045 125.962 123.303 125.038 123.433 124.282C123.464 124.148 123.541 124.028 123.65 123.944Z" fill="#263238"/>
<path d="M94.457 127.339L96.8998 128.359C96.9434 128.378 96.9796 128.41 97.0031 128.452C97.0265 128.493 97.036 128.541 97.03 128.588L96.7541 130.742C96.7433 130.829 96.6987 130.907 96.6301 130.961C96.5616 131.014 96.4746 131.038 96.3883 131.028C96.3562 131.024 96.3248 131.016 96.2953 131.003C95.4304 130.653 95.0243 130.479 93.9517 130.029L90.6595 128.65C89.7667 128.275 89.9589 127.295 90.3495 127.367C92.1568 127.695 93.3224 127.587 94.0354 127.317C94.1036 127.293 94.176 127.282 94.2484 127.286C94.3207 127.289 94.3917 127.307 94.457 127.339Z" fill="#263238"/>
<path opacity="0.2" d="M95.9885 123.268L95.2786 125.721L97.4176 126.688L98.1864 124.037L95.9885 123.268Z" fill="black"/>
<path opacity="0.2" d="M122.512 119.443L120.72 120.776L122.608 122.689L124.397 121.356L122.512 119.443Z" fill="black"/>
<path d="M110.955 82.5623L101.903 82.6925C100.663 75.6834 100.353 72.3385 100.353 70.7296C100.352 70.3283 100.49 69.9391 100.745 69.629C100.999 69.3189 101.354 69.1073 101.748 69.0308C102.3 68.9223 102.988 68.7983 103.68 68.7022C103.915 68.6712 104.154 68.6402 104.389 68.6154C105.757 68.4982 107.13 68.4785 108.5 68.5565C108.705 68.5565 108.906 68.5751 109.12 68.5875C110.05 68.6464 110.899 68.7642 111.504 68.8572C111.721 68.8922 111.916 69.0122 112.045 69.1906C112.174 69.3691 112.227 69.5915 112.192 69.8089C112.194 69.8244 112.194 69.84 112.192 69.8554C111.926 71.0954 111.709 72.1959 111.535 73.1755C111.259 74.7255 111.085 75.9903 110.983 77.0939C110.828 78.9131 110.819 80.7417 110.955 82.5623Z" fill="#263238"/>
<path opacity="0.1" d="M110.98 77.1033C110.524 75.7362 110.549 72.8997 111.039 71.9821L111.538 73.1818C111.256 74.7411 111.082 75.9997 110.98 77.1033Z" fill="black"/>
<path d="M101.903 82.6925C101.903 82.6925 100.353 95.8706 98.9551 104.083C97.8484 110.512 95.0522 123.895 95.0522 123.895L98.6823 125.181C98.6823 125.181 102.839 111.231 103.568 105.273C106.497 96.6828 108.605 82.6274 108.605 82.6274L101.903 82.6925Z" fill="#407BFF"/>
<path d="M94.4633 124.794L98.6638 126.272L99.2249 124.924L94.6679 123.182L94.4633 124.794Z" fill="#263238"/>
<path opacity="0.1" d="M106.491 86.6078L105.133 89.2087C104.637 91.1679 104.755 95.9357 105.385 98.9489C106.513 94.4074 107.415 89.6272 107.976 86.4187L106.491 86.6078Z" fill="black"/>
<path d="M103.869 82.6925C103.869 82.6925 105.49 97.4423 108.519 105.633C110.038 109.74 121.306 121.917 121.306 121.917L123.848 119.883C123.848 119.883 116.703 107.598 113.578 104.383C112.304 97.2532 113.906 86.5644 110.946 82.5654L103.869 82.6925Z" fill="#407BFF"/>
<path d="M121.52 122.788L124.502 120.345L123.696 119.021L120.432 121.864L121.52 122.788Z" fill="#263238"/>
<path d="M111.098 82.0321L111.516 82.835C111.547 82.897 111.476 82.9652 111.371 82.9652L101.872 83.1016C101.789 83.1016 101.723 83.0613 101.714 83.0117L101.624 82.2026C101.624 82.1468 101.689 82.0972 101.776 82.0972L110.946 81.9639C110.975 81.9622 111.004 81.9675 111.03 81.9794C111.057 81.9913 111.08 82.0094 111.098 82.0321Z" fill="#263238"/>
<path d="M109.867 83.08H110.118C110.165 83.08 110.202 83.0521 110.199 83.0242L110.066 81.9702C110.066 81.9392 110.022 81.9175 109.973 81.9175H109.74C109.69 81.9175 109.653 81.9454 109.659 81.9733L109.79 83.0242C109.774 83.049 109.821 83.08 109.867 83.08Z" fill="#407BFF"/>
<path d="M102.554 83.1792H102.802C102.852 83.1792 102.886 83.1513 102.883 83.1203L102.756 82.0693C102.756 82.0383 102.706 82.0135 102.657 82.0135H102.409C102.359 82.0135 102.322 82.0415 102.325 82.0725L102.455 83.1234C102.461 83.1544 102.505 83.1792 102.554 83.1792Z" fill="#407BFF"/>
<path d="M106.212 83.1203H106.46C106.51 83.1203 106.547 83.0924 106.544 83.0614L106.414 82.0105C106.414 81.9764 106.367 81.9516 106.318 81.9547H106.07C106.02 81.9547 105.986 81.9826 105.986 82.0136L106.116 83.0645C106.113 83.1017 106.163 83.1203 106.212 83.1203Z" fill="#407BFF"/>
<path d="M89.7885 73.4142L103.224 71.5697L105.084 84.7602L91.8903 86.5706L89.7885 73.4142Z" fill="#407BFF"/>
<path opacity="0.8" d="M89.7885 73.4142L103.224 71.5697L105.084 84.7602L91.8903 86.5706L89.7885 73.4142Z" fill="white"/>
<path opacity="0.2" d="M103.408 70.9327L99.8206 71.4401L101.745 85.048L105.333 84.5407L103.408 70.9327Z" fill="#407BFF"/>
<path d="M107.034 83.0986L105.174 82.3701L105.357 84.6951C105.357 84.6951 106.597 84.6331 107.263 83.9852L107.034 83.0986Z" fill="#954F1B"/>
<path d="M112.883 71.5232C113.383 72.9182 113.813 74.3132 114.179 75.7392C114.365 76.4553 114.539 77.1745 114.678 77.9092C114.747 78.2812 114.805 78.6594 114.849 79.0531C114.899 79.4644 114.916 79.879 114.902 80.2931C114.893 80.5627 114.851 80.8303 114.778 81.0898C114.676 81.409 114.505 81.702 114.278 81.9485C113.947 82.3036 113.553 82.5947 113.116 82.8072C112.401 83.1543 111.647 83.4174 110.872 83.5915C109.421 83.9279 107.942 84.1262 106.454 84.1836L106.308 83.0149C106.987 82.8537 107.682 82.6739 108.357 82.4848C109.033 82.2957 109.706 82.0849 110.351 81.8493C110.967 81.6376 111.56 81.3667 112.124 81.0402C112.329 80.9205 112.511 80.7663 112.663 80.5845C112.704 80.5225 112.704 80.507 112.697 80.507C112.704 80.4151 112.704 80.323 112.697 80.2311C112.686 79.9306 112.654 79.6313 112.601 79.3352C112.552 79.0252 112.484 78.678 112.409 78.337C112.254 77.6736 112.081 76.9947 111.885 76.3158C111.498 74.9704 111.061 73.6033 110.624 72.2858L112.883 71.5232Z" fill="#954F1B"/>
<path d="M103.459 83.517L103.605 84.0564C103.649 84.2297 103.748 84.3839 103.887 84.4958C104.026 84.6077 104.198 84.6711 104.377 84.6764L105.375 84.7043L105.192 82.3824L104.176 82.4971C104.068 82.508 103.963 82.54 103.867 82.5914C103.772 82.6428 103.687 82.7126 103.619 82.7966C103.55 82.8807 103.499 82.9775 103.468 83.0815C103.437 83.1854 103.427 83.2944 103.438 83.4023C103.442 83.441 103.45 83.4794 103.459 83.517Z" fill="#954F1B"/>
<path d="M111.826 68.9254C112.868 69.3501 113.72 72.7725 113.72 72.7725L110.844 75.02C110.844 75.02 108.804 71.827 109.219 70.4413C109.573 69.2695 110.5 68.3891 111.826 68.9254Z" fill="#263238"/>
<path d="M122.946 124.911H122.909C122.857 124.908 122.807 124.891 122.763 124.863C122.719 124.835 122.683 124.796 122.658 124.75C122.639 124.724 122.628 124.693 122.625 124.661C122.623 124.629 122.629 124.596 122.642 124.567C122.769 124.319 123.572 124.22 123.659 124.211C123.669 124.209 123.68 124.21 123.689 124.215C123.699 124.219 123.707 124.226 123.712 124.236C123.718 124.244 123.721 124.255 123.721 124.265C123.721 124.276 123.718 124.286 123.712 124.295C123.544 124.521 123.219 124.893 122.946 124.911ZM123.551 124.332C123.241 124.378 122.803 124.481 122.741 124.617C122.734 124.628 122.73 124.642 122.73 124.656C122.73 124.669 122.734 124.683 122.741 124.694C122.756 124.726 122.779 124.753 122.808 124.773C122.837 124.793 122.871 124.804 122.906 124.806C123.061 124.806 123.309 124.639 123.557 124.332H123.551Z" fill="#263238"/>
<path d="M123.622 124.31C123.352 124.31 122.813 124.214 122.692 124C122.673 123.963 122.666 123.92 122.674 123.879C122.682 123.838 122.704 123.801 122.735 123.774C122.763 123.744 122.796 123.72 122.834 123.704C122.871 123.689 122.912 123.682 122.952 123.684C123.278 123.684 123.69 124.183 123.702 124.211C123.707 124.218 123.71 124.227 123.71 124.236C123.71 124.244 123.707 124.253 123.702 124.26C123.7 124.269 123.695 124.278 123.688 124.284C123.68 124.29 123.671 124.294 123.662 124.294L123.622 124.31ZM122.934 123.795C122.89 123.8 122.849 123.819 122.819 123.851C122.772 123.901 122.782 123.932 122.794 123.957C122.865 124.093 123.29 124.205 123.563 124.205C123.407 124.009 123.197 123.866 122.958 123.792L122.934 123.795Z" fill="#263238"/>
<path d="M93.2078 127.289C93.0355 127.233 92.8849 127.125 92.7769 126.979C92.7523 126.936 92.7374 126.888 92.7331 126.839C92.7288 126.79 92.7353 126.74 92.7521 126.694C92.7606 126.667 92.7759 126.643 92.7965 126.624C92.8172 126.605 92.8425 126.592 92.8699 126.585C93.1551 126.533 93.8278 127.255 93.958 127.401C93.9641 127.41 93.9674 127.421 93.9674 127.432C93.9674 127.443 93.9641 127.454 93.958 127.463C93.9528 127.472 93.9444 127.48 93.9343 127.485C93.9242 127.489 93.9129 127.49 93.9022 127.487C93.6646 127.445 93.4319 127.379 93.2078 127.289ZM92.9939 126.706C92.9621 126.691 92.9267 126.685 92.8916 126.688C92.8916 126.688 92.8637 126.688 92.8513 126.725C92.8388 126.757 92.834 126.792 92.8372 126.826C92.8404 126.861 92.8516 126.894 92.8699 126.923C92.966 127.091 93.2977 127.249 93.7689 127.351C93.5478 127.097 93.2884 126.88 93.0001 126.706H92.9939Z" fill="#263238"/>
<path d="M93.899 127.481H93.8804C93.6541 127.255 93.2852 126.576 93.4123 126.359C93.4402 126.313 93.4991 126.263 93.6324 126.3C94.1315 126.446 93.9796 127.413 93.9703 127.453C93.9704 127.464 93.9665 127.473 93.9596 127.481C93.9527 127.488 93.9433 127.493 93.9331 127.494C93.9269 127.495 93.9203 127.495 93.9143 127.492C93.9083 127.49 93.903 127.486 93.899 127.481ZM93.651 126.399H93.62C93.5704 126.384 93.5332 126.399 93.5208 126.399C93.4464 126.526 93.6851 127.038 93.9021 127.311C93.899 127.072 93.93 126.523 93.651 126.399Z" fill="#263238"/>
<path d="M103.255 59.2812C103.255 59.2812 102.015 61.3552 102.945 62.2635C103.875 63.1718 104.148 59.9509 104.148 59.9509L103.255 59.2812Z" fill="#263238"/>
<path d="M109.015 64.1483C109.015 64.1483 110.565 61.7241 109.92 59.3154C109.275 56.9067 106.262 58.4629 104.991 57.8026C104.525 57.5196 104.029 57.2897 103.512 57.1175C103.429 57.0929 103.341 57.0876 103.256 57.1021C103.171 57.1166 103.09 57.1505 103.019 57.2012C102.709 57.474 103.249 57.9855 103.416 58.1777C103.313 58.0586 103.194 57.9543 103.063 57.8677C102.898 57.7592 102.678 57.7499 102.753 58.0258C102.88 58.3222 103.109 58.5639 103.397 58.7078C103.277 58.6396 102.56 58.2769 102.511 58.5032C102.505 58.5581 102.519 58.6133 102.551 58.6582C103.016 59.5262 103.952 60.6174 105.031 60.6391C106.33 60.6577 107.57 64.3126 109.015 64.1483Z" fill="#263238"/>
<path d="M109.563 64.2568C109.483 65.0752 108.268 65.0845 108.268 65.0845C108.069 65.5529 107.738 65.9535 107.316 66.2377C107.278 66.7319 107.295 67.2288 107.365 67.7195C107.57 68.4914 107.83 68.758 108.156 68.9316L107.896 69.1889C107.397 69.4764 106.834 69.6332 106.259 69.6446L105.918 69.4462L105.471 69.5175C104.231 69.1114 104.541 68.2775 104.541 68.2775C104.767 67.7112 104.78 67.0819 104.575 66.5074C103.385 66.1354 102.898 65.1 102.731 63.3578C102.564 61.6156 103.543 59.9478 103.543 59.9478C104.889 61.2467 107.555 60.4128 107.555 60.4128C107.44 62.8556 108.581 63.7577 108.581 63.7577C108.956 63.4229 109.641 63.4415 109.563 64.2568Z" fill="#954F1B"/>
<path d="M105.236 64.48C105.556 64.3905 105.832 64.1878 106.014 63.9096C106.029 63.8876 106.034 63.8609 106.03 63.8349C106.025 63.8089 106.01 63.7856 105.989 63.7701C105.979 63.7623 105.967 63.7566 105.954 63.7535C105.941 63.7503 105.928 63.7498 105.915 63.7518C105.902 63.7538 105.889 63.7584 105.878 63.7652C105.867 63.7721 105.857 63.7811 105.85 63.7918C105.745 63.9798 105.583 64.1294 105.387 64.2187C105.191 64.3079 104.972 64.3322 104.761 64.2878C104.736 64.28 104.709 64.2825 104.686 64.2947C104.663 64.3069 104.645 64.3278 104.637 64.3529C104.63 64.3784 104.632 64.4059 104.644 64.4297C104.656 64.4534 104.677 64.4715 104.703 64.48C104.877 64.5257 105.061 64.5257 105.236 64.48Z" fill="#263238"/>
<path d="M105.589 62.3473C105.589 62.5054 105.527 62.6418 105.422 62.6573C105.316 62.6728 105.22 62.5426 105.208 62.3845C105.195 62.2264 105.273 62.0745 105.378 62.0745C105.484 62.0745 105.577 62.1861 105.589 62.3473Z" fill="#263238"/>
<path d="M103.692 62.2666C103.692 62.4247 103.63 62.5611 103.525 62.5766C103.419 62.5921 103.326 62.4619 103.314 62.3038C103.301 62.1457 103.376 62.0093 103.481 61.9938C103.587 61.9783 103.683 62.1054 103.692 62.2666Z" fill="#263238"/>
<path d="M104.194 63.8011L104.172 62.6541L103.602 63.6213C103.681 63.6938 103.775 63.7476 103.878 63.7787C103.98 63.8099 104.088 63.8175 104.194 63.8011Z" fill="#BA4D3C"/>
<path d="M106.454 61.38C106.468 61.3763 106.48 61.37 106.491 61.3614C106.506 61.3525 106.52 61.3406 106.53 61.3265C106.54 61.3124 106.548 61.2963 106.552 61.2792C106.556 61.2621 106.557 61.2444 106.554 61.2271C106.551 61.2098 106.544 61.1932 106.535 61.1785C106.431 61.0055 106.282 60.8649 106.102 60.7728C105.923 60.6807 105.722 60.6409 105.521 60.6577C105.503 60.6596 105.487 60.665 105.471 60.6736C105.456 60.6822 105.443 60.6937 105.432 60.7076C105.421 60.7215 105.413 60.7375 105.409 60.7545C105.405 60.7714 105.404 60.7891 105.406 60.8065C105.411 60.8414 105.429 60.873 105.457 60.8945C105.485 60.916 105.52 60.9256 105.555 60.9212C105.705 60.9119 105.854 60.9439 105.987 61.0139C106.12 61.0839 106.231 61.1891 106.308 61.318C106.323 61.3425 106.345 61.3618 106.371 61.373C106.397 61.3841 106.426 61.3866 106.454 61.38Z" fill="#263238"/>
<path d="M103.091 61.2528C103.125 61.2438 103.155 61.2215 103.174 61.1908C103.23 61.1068 103.309 61.0406 103.401 61.0005C103.494 60.9603 103.596 60.9478 103.695 60.9645C103.712 60.9681 103.73 60.9682 103.747 60.9648C103.764 60.9614 103.78 60.9546 103.795 60.9448C103.809 60.9349 103.822 60.9223 103.831 60.9076C103.841 60.8929 103.847 60.8764 103.85 60.8591C103.856 60.8246 103.849 60.789 103.829 60.76C103.809 60.731 103.779 60.7109 103.745 60.7041C103.591 60.6757 103.433 60.6942 103.29 60.7573C103.147 60.8203 103.027 60.925 102.945 61.0575C102.927 61.0882 102.923 61.1243 102.931 61.1583C102.94 61.1924 102.961 61.2218 102.991 61.2404C103.022 61.2567 103.057 61.2611 103.091 61.2528Z" fill="#263238"/>
<path d="M108.661 69.0401L107.995 69.6911L106.807 70.8567L106.361 70.1468L105.918 69.4462L107.468 67.5986L108.596 68.9626L108.661 69.0401Z" fill="white"/>
<path d="M105.918 69.4462L105.574 70.0197L105.068 70.8567L103.909 68.7642L104.65 67.8931L105.918 69.4462Z" fill="white"/>
</svg>
