<svg width="156" height="155" viewBox="0 0 156 155" fill="none" xmlns="http://www.w3.org/2000/svg">
<path d="M131.05 40.4829C131.05 40.4829 123.26 24.6202 106.083 22.2704C88.9057 19.9206 76.8963 31.3782 64.2514 37.2527C57.6267 40.3279 50.0627 39.1344 43.0319 40.6224C20.5507 45.384 12.0815 75.2153 21.4466 92.1816C29.5531 106.866 43.8224 114.502 65.5472 116.266C87.272 118.029 102.515 120.085 121.967 105.691C141.42 91.2981 140.13 61.3366 131.05 40.4829Z" fill="#F58634"/>
<path opacity="0.7" d="M131.05 40.4829C131.05 40.4829 123.26 24.6202 106.083 22.2704C88.9057 19.9206 76.8963 31.3782 64.2514 37.2527C57.6267 40.3279 50.0627 39.1344 43.0319 40.6224C20.5507 45.384 12.0815 75.2153 21.4466 92.1816C29.5531 106.866 43.8224 114.502 65.5472 116.266C87.272 118.029 102.515 120.085 121.967 105.691C141.42 91.2981 140.13 61.3366 131.05 40.4829Z" fill="white"/>
<path d="M77.3893 139.286C107.772 139.286 132.402 133.905 132.402 127.267C132.402 120.63 107.772 115.249 77.3893 115.249C47.0067 115.249 22.3767 120.63 22.3767 127.267C22.3767 133.905 47.0067 139.286 77.3893 139.286Z" fill="#F58634"/>
<path opacity="0.5" d="M77.3893 139.286C107.772 139.286 132.402 133.905 132.402 127.267C132.402 120.63 107.772 115.249 77.3893 115.249C47.0067 115.249 22.3767 120.63 22.3767 127.267C22.3767 133.905 47.0067 139.286 77.3893 139.286Z" fill="white"/>
<path d="M120.69 90.9013L119.038 90.179C119.161 90.4823 119.335 90.7623 119.552 91.0067C119.797 91.2894 120.006 91.6019 120.172 91.9367C120.172 91.9367 118.622 90.799 117.59 90.5913C116.874 90.4623 116.148 90.3939 115.42 90.3867L116.97 91.109L115.73 91.419L116.04 91.8344H113.87L115.318 92.8667L114.698 93.6944L114.078 94.7267L115.73 94.2121L115.318 95.2444L116.146 94.8321L115.628 95.7621H114.58L115.922 96.4844H114.992L115.405 96.7944L114.785 97.3121L116.13 97.5198L115.284 98.1119L117.37 97.8298L116.648 98.8621L118.402 98.4498V98.9675H128.121L128.397 98.1119L128.741 97.7244L129.776 97.0021L128.639 96.8998L129.156 96.5898L128.741 96.1744L129.466 95.6567L128.949 94.9344L129.674 93.4867L128.124 93.279L128.434 92.5567V91.2113L126.986 91.109L127.194 89.6613L126.056 89.9713L125.436 90.0767L124.609 89.249L124.299 90.6967L123.059 89.559L122.439 89.1436L122.231 90.3836L121.199 90.1759L120.69 90.9013Z" fill="#F58634"/>
<path opacity="0.4" d="M120.69 90.9013L119.038 90.179C119.161 90.4823 119.335 90.7623 119.552 91.0067C119.797 91.2894 120.006 91.6019 120.172 91.9367C120.172 91.9367 118.622 90.799 117.59 90.5913C116.874 90.4623 116.148 90.3939 115.42 90.3867L116.97 91.109L115.73 91.419L116.04 91.8344H113.87L115.318 92.8667L114.698 93.6944L114.078 94.7267L115.73 94.2121L115.318 95.2444L116.146 94.8321L115.628 95.7621H114.58L115.922 96.4844H114.992L115.405 96.7944L114.785 97.3121L116.13 97.5198L115.284 98.1119L117.37 97.8298L116.648 98.8621L118.402 98.4498V98.9675H128.121L128.397 98.1119L128.741 97.7244L129.776 97.0021L128.639 96.8998L129.156 96.5898L128.741 96.1744L129.466 95.6567L128.949 94.9344L129.674 93.4867L128.124 93.279L128.434 92.5567V91.2113L126.986 91.109L127.194 89.6613L126.056 89.9713L125.436 90.0767L124.609 89.249L124.299 90.6967L123.059 89.559L122.439 89.1436L122.231 90.3836L121.199 90.1759L120.69 90.9013Z" fill="white"/>
<path opacity="0.2" d="M119.038 98.9674H128.133L128.356 98.2761L128.133 98.2451L128.443 97.5228V96.1774L126.996 96.0751L127.203 94.6274L126.066 94.9374L125.446 95.0428L124.618 94.2151L124.308 95.6628L123.068 94.5251L122.448 94.1097L122.24 95.3497L121.208 95.142L120.69 95.8643L119.038 95.142C119.161 95.4454 119.335 95.7253 119.552 95.9697C119.797 96.2525 120.006 96.565 120.172 96.8997C120.172 96.8997 118.622 95.762 117.59 95.5543C117.014 95.4473 116.431 95.3821 115.845 95.359L115.764 95.5109L116.97 96.072L115.73 96.382L115.922 96.4843H115.789L116.025 96.7943H115.405L114.785 97.3058L116.13 97.5135L115.284 98.1056L117.37 97.8235L116.648 98.8558L118.402 98.4435V98.9612L119.038 98.9674Z" fill="#263238"/>
<path d="M124.24 118.482H119.187C118.765 118.48 118.356 118.342 118.021 118.088C117.685 117.833 117.442 117.476 117.327 117.071C115.786 111.672 115.082 106.068 115.24 100.455L115.305 98.1118H128.418L128.483 100.282C128.654 105.864 127.972 111.44 126.462 116.817C126.324 117.299 126.032 117.722 125.63 118.023C125.229 118.323 124.741 118.485 124.24 118.482Z" fill="#263238" stroke="#263238" stroke-linecap="round" stroke-linejoin="round"/>
<path d="M127.671 31.7688H89.8328V86.0808H127.671V31.7688Z" stroke="#263238" stroke-linecap="round" stroke-linejoin="round"/>
<path d="M125.703 33.9139H91.8013V83.9355H125.703V33.9139Z" stroke="#263238" stroke-linecap="round" stroke-linejoin="round"/>
<path d="M109.819 33.9139H107.686V83.9355H109.819V33.9139Z" stroke="#263238" stroke-linecap="round" stroke-linejoin="round"/>
<path d="M39.712 113.441H78.0125L78.0125 33.7156H39.712L39.712 113.441Z" stroke="#263238" stroke-miterlimit="10"/>
<path d="M79.4076 31.7688V115.249H77.1074V34.2054H40.1213V115.249H37.5669V31.7688H79.4076Z" stroke="#263238" stroke-miterlimit="10"/>
<path d="M44.3929 110.152H73.3252L73.3252 37.4945H44.3929L44.3929 110.152Z" stroke="#263238" stroke-miterlimit="10"/>
<path d="M47.5984 105.059H70.1199V82.3732H47.5984V105.059Z" stroke="#263238" stroke-miterlimit="10"/>
<path d="M70.1199 42.9196H61.5732V78.9199H70.1199V42.9196Z" stroke="#263238" stroke-linecap="round" stroke-linejoin="round"/>
<path d="M56.1483 42.9196H47.6016V78.9199H56.1483V42.9196Z" stroke="#263238" stroke-linecap="round" stroke-linejoin="round"/>
<path d="M40.7289 69.8926H43.7173V68.7797H40.7289V69.8926Z" fill="#263238" stroke="#263238" stroke-linecap="round" stroke-linejoin="round"/>
<path d="M40.7289 85.5228H43.7173V84.4099H40.7289V85.5228Z" fill="#263238" stroke="#263238" stroke-linecap="round" stroke-linejoin="round"/>
<path d="M44.1481 89.4412C44.2788 89.4412 44.4042 89.3892 44.4966 89.2968C44.5891 89.2044 44.641 89.079 44.641 88.9483V65.6053C44.6426 65.5395 44.6311 65.4741 44.6071 65.4128C44.5831 65.3516 44.547 65.2958 44.5011 65.2487C44.4551 65.2016 44.4002 65.1642 44.3396 65.1386C44.279 65.1131 44.2139 65.1 44.1481 65.1C44.0174 65.1 43.892 65.1519 43.7996 65.2443C43.7071 65.3368 43.6552 65.4621 43.6552 65.5929V88.9359C43.6535 89.0016 43.6651 89.0671 43.6891 89.1283C43.7131 89.1896 43.7492 89.2454 43.7951 89.2925C43.841 89.3395 43.8959 89.377 43.9565 89.4025C44.0172 89.428 44.0823 89.4412 44.1481 89.4412Z" fill="#263238" stroke="#263238" stroke-linecap="round" stroke-linejoin="round"/>
<path d="M40.8963 79.4778H42.4958V76.4212H40.8963V79.4778Z" stroke="#263238" stroke-linecap="round" stroke-linejoin="round"/>
<path d="M35.5796 123.867H81.7076L76.3849 115.68H40.9023L35.5796 123.867Z" stroke="#263238" stroke-miterlimit="10"/>
<path d="M132.83 115.249H77.3181" stroke="#263238" stroke-linecap="round" stroke-linejoin="round"/>
<path d="M37.8768 115.249H19.0381" stroke="#263238" stroke-linecap="round" stroke-linejoin="round"/>
<path d="M86.0353 103.41H57.9741V127.264H86.0353V103.41Z" fill="#F58634" stroke="#263238" stroke-linecap="round" stroke-linejoin="round"/>
<path d="M74.4816 103.41H69.5278V107.626H74.4816V103.41Z" fill="white" stroke="#263238" stroke-width="0.5" stroke-linecap="round" stroke-linejoin="round"/>
<path d="M74.4816 123.048H69.5278V127.264H74.4816V123.048Z" fill="white" stroke="#263238" stroke-width="0.5" stroke-linecap="round" stroke-linejoin="round"/>
<path d="M86.0354 103.41L90.5118 102.17V123.082L86.0354 127.264V103.41Z" fill="#F58634" stroke="#263238" stroke-linecap="round" stroke-linejoin="round"/>
<path d="M90.5117 102.17H61.3717L57.9741 103.41H86.0353L90.5117 102.17Z" fill="#F58634" stroke="#263238" stroke-linecap="round" stroke-linejoin="round"/>
<path d="M60.0913 102.625H89.315" stroke="#263238" stroke-width="0.5" stroke-linecap="round" stroke-linejoin="round"/>
<path d="M74.4816 103.41L78.6852 102.185H72.9006L69.5278 103.41H74.4816Z" fill="white" stroke="#263238" stroke-width="0.5" stroke-linecap="round" stroke-linejoin="round"/>
<path d="M72.7023 92.4885C72.7023 92.4885 72.2652 101.68 71.5181 103.959C70.771 106.237 70.2099 122.977 70.1758 123.799C70.1417 124.62 72.3985 127.14 73.4184 127.643C74.4383 128.145 74.0012 128.334 72.9348 128.486C71.8684 128.638 70.6067 128.557 70.0115 127.705C69.4163 126.852 68.1515 126.691 68.1515 126.691L68.0988 128.641L67.7423 128.662L67.3145 126.26C67.1865 125.712 67.2443 125.137 67.4788 124.626C67.8663 123.696 67.3889 122.918 67.1843 119.787C66.9797 116.656 65.9784 111.656 66.152 109.21C66.3256 106.764 67.5501 103.32 67.4168 101.293C67.2835 99.2651 67.1967 94.0695 67.1967 94.0695L72.7023 92.4885Z" fill="white"/>
<mask id="mask0_125_3691" style="mask-type:luminance" maskUnits="userSpaceOnUse" x="66" y="92" width="8" height="37">
<path d="M72.7023 92.4885C72.7023 92.4885 72.2652 101.68 71.5181 103.959C70.771 106.237 70.2099 122.977 70.1758 123.799C70.1417 124.62 72.3985 127.14 73.4184 127.643C74.4383 128.145 74.0012 128.334 72.9348 128.486C71.8684 128.638 70.6067 128.557 70.0115 127.705C69.4163 126.852 68.1515 126.691 68.1515 126.691L68.0988 128.641L67.7423 128.662L67.3145 126.26C67.1865 125.712 67.2443 125.137 67.4788 124.626C67.8663 123.696 67.3889 122.918 67.1843 119.787C66.9797 116.656 65.9784 111.656 66.152 109.21C66.3256 106.764 67.5501 103.32 67.4168 101.293C67.2835 99.2651 67.1967 94.0695 67.1967 94.0695L72.7023 92.4885Z" fill="white"/>
</mask>
<g mask="url(#mask0_125_3691)">
<path d="M69.6611 104.442C70.2811 104.222 71.025 103.971 71.5675 103.794C72.2836 101.274 72.7022 92.4885 72.7022 92.4885L67.1965 94.0664C67.1965 94.0664 67.2833 99.2713 67.4166 101.289C67.5499 103.308 66.3285 106.764 66.1518 109.207C65.9751 111.65 66.9795 116.647 67.1841 119.784C67.3887 122.921 67.8661 123.706 67.4786 124.623C67.4267 124.74 67.3842 124.862 67.3515 124.986C67.5888 124.792 67.7839 124.551 67.925 124.279C68.39 123.278 68.697 118.017 68.1204 114.743C67.5438 111.47 68.6008 104.823 68.6008 104.823L69.6611 104.442Z" fill="#F58634"/>
<path opacity="0.5" d="M69.6611 104.442C70.2811 104.222 71.025 103.971 71.5675 103.794C72.2836 101.274 72.7022 92.4885 72.7022 92.4885L67.1965 94.0664C67.1965 94.0664 67.2833 99.2713 67.4166 101.289C67.5499 103.308 66.3285 106.764 66.1518 109.207C65.9751 111.65 66.9795 116.647 67.1841 119.784C67.3887 122.921 67.8661 123.706 67.4786 124.623C67.4267 124.74 67.3842 124.862 67.3515 124.986C67.5888 124.792 67.7839 124.551 67.925 124.279C68.39 123.278 68.697 118.017 68.1204 114.743C67.5438 111.47 68.6008 104.823 68.6008 104.823L69.6611 104.442Z" fill="white"/>
</g>
<path d="M72.7023 92.4885C72.7023 92.4885 72.2652 101.68 71.5181 103.959C70.771 106.237 70.2099 122.977 70.1758 123.799C70.1417 124.62 72.3985 127.14 73.4184 127.643C74.4383 128.145 74.0012 128.334 72.9348 128.486C71.8684 128.638 70.6067 128.557 70.0115 127.705C69.4163 126.852 68.1515 126.691 68.1515 126.691L68.0988 128.641L67.7423 128.662L67.3145 126.26C67.1865 125.712 67.2443 125.137 67.4788 124.626C67.8663 123.696 67.3889 122.918 67.1843 119.787C66.9797 116.656 65.9784 111.656 66.152 109.21C66.3256 106.764 67.5501 103.32 67.4168 101.293C67.2835 99.2651 67.1967 94.0695 67.1967 94.0695L72.7023 92.4885Z" stroke="#263238" stroke-linecap="round" stroke-linejoin="round"/>
<path d="M67.3143 126.254C67.2189 125.844 67.2306 125.417 67.3484 125.014C67.9684 125.826 69.6176 126.874 70.8793 127.246C71.567 127.463 72.2943 127.525 73.009 127.429C73.1609 127.515 73.3004 127.59 73.4182 127.649C74.4381 128.148 74.001 128.34 72.9346 128.492C71.8682 128.644 70.6065 128.563 70.0113 127.711C69.4161 126.858 68.1513 126.697 68.1513 126.697L68.0986 128.647L67.7421 128.669L67.3143 126.254Z" fill="#263238" stroke="#263238" stroke-linecap="round" stroke-linejoin="round"/>
<path d="M68.9078 92.1072C68.9078 92.1072 68.4335 101.903 67.6213 104.38C66.8091 106.857 66.1023 124.995 66.0713 125.879C66.0403 126.762 68.4149 130.014 69.5216 130.556C70.6283 131.099 70.1416 131.307 68.9977 131.486C67.8538 131.666 66.4681 131.564 65.8233 130.637C65.3072 129.984 64.677 129.429 63.9633 129L63.9075 131.118L63.52 131.142L63.0581 128.529C62.9173 127.935 62.9784 127.311 63.2317 126.756C63.6533 125.761 63.1573 124.846 62.9217 121.446C62.6861 118.045 61.1516 111.836 61.3438 109.194C61.536 106.553 62.8566 103.67 62.7109 101.478C62.5652 99.2868 61.6383 92.7985 61.6383 92.7985L68.9078 92.1072Z" fill="white"/>
<mask id="mask1_125_3691" style="mask-type:luminance" maskUnits="userSpaceOnUse" x="61" y="92" width="10" height="40">
<path d="M68.9078 92.1072C68.9078 92.1072 68.4335 101.903 67.6213 104.38C66.8091 106.857 66.1023 124.995 66.0713 125.879C66.0403 126.762 68.4149 130.014 69.5216 130.556C70.6283 131.099 70.1416 131.307 68.9977 131.486C67.8538 131.666 66.4681 131.564 65.8233 130.637C65.3072 129.984 64.677 129.429 63.9633 129L63.9075 131.118L63.52 131.142L63.0581 128.529C62.9173 127.935 62.9784 127.311 63.2317 126.756C63.6533 125.761 63.1573 124.846 62.9217 121.446C62.6861 118.045 61.1516 111.836 61.3438 109.194C61.536 106.553 62.8566 103.67 62.7109 101.478C62.5652 99.2868 61.6383 92.7985 61.6383 92.7985L68.9078 92.1072Z" fill="white"/>
</mask>
<g mask="url(#mask1_125_3691)">
<path d="M67.5253 104.74C67.5563 104.6 67.5904 104.476 67.6214 104.38C67.8849 103.571 68.1143 101.987 68.3034 100.217L67.5408 97.4268C67.5408 97.4268 63.9107 97.2222 62.2708 97.3896C62.4723 98.9799 62.6614 100.586 62.7203 101.478C62.866 103.67 61.5423 106.541 61.3532 109.194C61.1641 111.848 62.7079 118.048 62.9311 121.446C63.1543 124.843 63.6503 125.761 63.2411 126.756C63.0291 127.243 62.953 127.779 63.021 128.306C63.2597 126.818 63.7185 125.565 63.7185 123.702C63.7185 121.489 63.0427 115.422 62.7544 112.232C62.4661 109.042 63.7185 105.012 63.7185 105.012C64.6174 105.066 65.5195 105.034 66.4124 104.916C66.7863 104.878 67.1578 104.819 67.5253 104.74Z" fill="#F58634"/>
<path opacity="0.5" d="M67.5253 104.74C67.5563 104.6 67.5904 104.476 67.6214 104.38C67.8849 103.571 68.1143 101.987 68.3034 100.217L67.5408 97.4268C67.5408 97.4268 63.9107 97.2222 62.2708 97.3896C62.4723 98.9799 62.6614 100.586 62.7203 101.478C62.866 103.67 61.5423 106.541 61.3532 109.194C61.1641 111.848 62.7079 118.048 62.9311 121.446C63.1543 124.843 63.6503 125.761 63.2411 126.756C63.0291 127.243 62.953 127.779 63.021 128.306C63.2597 126.818 63.7185 125.565 63.7185 123.702C63.7185 121.489 63.0427 115.422 62.7544 112.232C62.4661 109.042 63.7185 105.012 63.7185 105.012C64.6174 105.066 65.5195 105.034 66.4124 104.916C66.7863 104.878 67.1578 104.819 67.5253 104.74Z" fill="white"/>
</g>
<path d="M68.9078 92.1072C68.9078 92.1072 68.4335 101.903 67.6213 104.38C66.8091 106.857 66.1023 124.995 66.0713 125.879C66.0403 126.762 68.4149 130.014 69.5216 130.556C70.6283 131.099 70.1416 131.307 68.9977 131.486C67.8538 131.666 66.4681 131.564 65.8233 130.637C65.3072 129.984 64.677 129.429 63.9633 129L63.9075 131.118L63.52 131.142L63.0581 128.529C62.9173 127.935 62.9784 127.311 63.2317 126.756C63.6533 125.761 63.1573 124.846 62.9217 121.446C62.6861 118.045 61.1516 111.836 61.3438 109.194C61.536 106.553 62.8566 103.67 62.7109 101.478C62.5652 99.2868 61.6383 92.7985 61.6383 92.7985L68.9078 92.1072Z" stroke="#263238" stroke-linecap="round" stroke-linejoin="round"/>
<path d="M63.0395 128.514C62.9311 128.066 62.9429 127.597 63.0736 127.156C63.737 128.039 65.3831 129.71 66.7533 130.119C67.5 130.356 68.2898 130.423 69.0659 130.318C69.2333 130.411 69.3759 130.494 69.5123 130.556C70.619 131.099 70.1323 131.307 68.9884 131.486C67.8445 131.666 66.4588 131.564 65.814 130.637C65.2979 129.984 64.6677 129.429 63.954 129L63.8982 131.118L63.5107 131.142L63.0395 128.514Z" fill="#263238" stroke="#263238" stroke-linecap="round" stroke-linejoin="round"/>
<path d="M77.5568 57.1113C77.5568 57.1113 78.5891 58.6613 80.3654 56.8168C82.1417 54.9723 80.3654 51.9374 77.7025 49.569C75.0396 47.2006 70.7523 46.159 68.3126 50.2355C65.8729 54.312 66.2418 56.8168 64.9026 58.962C63.5634 61.1072 57.8842 66.8732 55.6801 71.9014C53.476 76.9296 55.3701 82.7731 61.226 83.7341C67.0819 84.6951 70.836 76.8583 70.5415 73.3832C70.247 69.9081 72.3178 62.5115 73.3532 60.7352C74.3886 58.9589 77.5568 57.1113 77.5568 57.1113Z" fill="#263238" stroke="#263238" stroke-linecap="round" stroke-linejoin="round"/>
<path d="M78.0341 51.9126C78.0341 51.9126 76.0687 53.0379 71.9953 53.7385C67.9219 54.4391 65.3923 57.66 65.3923 57.66" stroke="white" stroke-linecap="round" stroke-linejoin="round"/>
<path d="M58.2282 82.5344C58.2282 82.5344 54.5764 80.4296 57.106 75.3704C60.516 68.5504 71.2916 56.9688 71.2916 56.9688" stroke="white" stroke-linecap="round" stroke-linejoin="round"/>
<path d="M85.1888 89.28C84.8788 88.4833 83.5644 87.1348 83.3505 86.8372C83.1366 86.5396 79.3019 77.2272 79.3019 77.2272C79.3019 77.2272 79.026 71.6689 78.9299 68.8944C78.8648 66.9197 78.7439 64.4676 78.3285 63.5624C78.2584 63.367 78.167 63.1798 78.0557 63.0044V62.9796C77.2962 61.7985 75.678 61.0049 74.3171 60.667C72.5501 60.2237 71.5426 60.4779 71.5426 60.4779C71.5426 60.4779 68.4426 60.7879 65.8665 62.1798C63.2904 63.5717 63.2811 66.7182 63.6593 68.9998C64.0375 71.2814 65.1101 75.9965 65.1101 76.1856C65.1101 76.3747 61.6412 79.7816 59.8773 84.0038C58.1134 88.226 60.6337 101.813 60.6337 101.813C60.6337 101.813 62.2736 102.886 66.9391 102.886C71.6046 102.886 74.19 100.942 74.19 100.942C74.19 100.942 75.8299 88.4182 75.5137 83.6907C75.3837 81.3027 75.1312 78.9229 74.7573 76.5607C74.7573 76.5607 74.9557 76.2817 75.2316 75.8539C75.3604 77.0094 75.789 78.1112 76.4747 79.05C77.3179 80.1195 82.1632 87.0015 82.1632 87.0015C82.2807 87.4729 82.3605 87.9528 82.4019 88.4368C82.4639 89.1901 83.1614 90.0209 83.1614 90.0209C83.1614 90.0209 82.9723 91.6143 83.1614 91.7259C83.3505 91.8375 83.6171 91.1214 83.6171 91.1214C83.6171 91.1214 83.3784 92.0886 83.8186 92.0514C84.2588 92.0142 84.296 91.698 84.296 91.698C84.296 91.698 84.172 92.5288 84.482 92.442C84.7074 92.344 84.8939 92.1739 85.0121 91.9584C85.0121 91.9584 85.4585 92.8078 85.6011 92.2281C85.7437 91.6484 85.505 90.0829 85.1888 89.28Z" fill="white" stroke="#263238" stroke-linecap="round" stroke-linejoin="round"/>
<path d="M79.3019 77.2427C79.3019 77.2427 79.026 71.6844 78.9299 68.9099C78.8648 66.9352 78.7439 64.4831 78.3285 63.5779C78.2584 63.3825 78.167 63.1953 78.0557 63.0199V62.9951C77.2962 61.814 75.678 61.0204 74.3171 60.6825C72.5501 60.2392 71.5426 60.4934 71.5426 60.4934C71.5426 60.4934 68.4426 60.8034 65.8665 62.1953C63.2904 63.5872 63.2811 66.7337 63.6593 69.0153C64.0375 71.2969 65.1101 76.012 65.1101 76.2011C65.1101 76.3902 61.6412 79.7971 59.8773 84.0193C58.1134 88.2415 60.6337 101.829 60.6337 101.829C60.6337 101.829 62.2736 102.901 66.9391 102.901C71.6046 102.901 74.19 100.958 74.19 100.958C74.19 100.958 75.8299 88.4337 75.5137 83.7062C75.3837 81.3182 75.1312 78.9384 74.7573 76.5762C74.7573 76.5762 74.9557 76.2972 75.2316 75.8694C75.363 77.0195 75.7914 78.1156 76.4747 79.05C76.6855 79.3166 77.1412 79.9428 77.7147 80.7333C78.3984 80.068 79.2452 79.5944 80.1699 79.36L79.3019 77.2427Z" fill="white"/>
<mask id="mask2_125_3691" style="mask-type:luminance" maskUnits="userSpaceOnUse" x="59" y="60" width="22" height="43">
<path d="M79.3019 77.2427C79.3019 77.2427 79.026 71.6844 78.9299 68.9099C78.8648 66.9352 78.7439 64.4831 78.3285 63.5779C78.2584 63.3825 78.167 63.1953 78.0557 63.0199V62.9951C77.2962 61.814 75.678 61.0204 74.3171 60.6825C72.5501 60.2392 71.5426 60.4934 71.5426 60.4934C71.5426 60.4934 68.4426 60.8034 65.8665 62.1953C63.2904 63.5872 63.2811 66.7337 63.6593 69.0153C64.0375 71.2969 65.1101 76.012 65.1101 76.2011C65.1101 76.3902 61.6412 79.7971 59.8773 84.0193C58.1134 88.2415 60.6337 101.829 60.6337 101.829C60.6337 101.829 62.2736 102.901 66.9391 102.901C71.6046 102.901 74.19 100.958 74.19 100.958C74.19 100.958 75.8299 88.4337 75.5137 83.7062C75.3837 81.3182 75.1312 78.9384 74.7573 76.5762C74.7573 76.5762 74.9557 76.2972 75.2316 75.8694C75.363 77.0195 75.7914 78.1156 76.4747 79.05C76.6855 79.3166 77.1412 79.9428 77.7147 80.7333C78.3984 80.068 79.2452 79.5944 80.1699 79.36L79.3019 77.2427Z" fill="white"/>
</mask>
<g mask="url(#mask2_125_3691)">
<path d="M70.0207 62.651L72.9285 60.4469C72.4617 60.3924 71.9894 60.4081 71.5273 60.4934C71.5273 60.4934 68.4273 60.8034 65.8512 62.1953C63.2751 63.5872 63.2658 66.7337 63.644 69.0153C64.0222 71.2969 65.0948 76.012 65.0948 76.2011C65.0948 76.3902 61.6259 79.7971 59.862 84.0193C58.0981 88.2415 60.6184 101.829 60.6184 101.829C60.6184 101.829 61.4833 102.393 63.737 102.7C63.1976 99.4821 61.567 89.311 61.9948 86.1118C62.5001 82.2864 67.1191 77.7666 67.1191 76.26C67.1191 74.7534 64.9088 67.2204 65.6125 65.41C66.3162 63.5996 70.0207 62.651 70.0207 62.651Z" fill="#F58634"/>
<path opacity="0.5" d="M70.0207 62.651L72.9285 60.4469C72.4617 60.3924 71.9894 60.4081 71.5273 60.4934C71.5273 60.4934 68.4273 60.8034 65.8512 62.1953C63.2751 63.5872 63.2658 66.7337 63.644 69.0153C64.0222 71.2969 65.0948 76.012 65.0948 76.2011C65.0948 76.3902 61.6259 79.7971 59.862 84.0193C58.0981 88.2415 60.6184 101.829 60.6184 101.829C60.6184 101.829 61.4833 102.393 63.737 102.7C63.1976 99.4821 61.567 89.311 61.9948 86.1118C62.5001 82.2864 67.1191 77.7666 67.1191 76.26C67.1191 74.7534 64.9088 67.2204 65.6125 65.41C66.3162 63.5996 70.0207 62.651 70.0207 62.651Z" fill="white"/>
<path d="M73.1485 86.5645C73.1485 86.5645 72.1131 92.4855 69.8904 95.446" stroke="#263238" stroke-linecap="round" stroke-linejoin="round"/>
</g>
<path d="M79.3019 77.2427C79.3019 77.2427 79.026 71.6844 78.9299 68.9099C78.8648 66.9352 78.7439 64.4831 78.3285 63.5779C78.2584 63.3825 78.167 63.1953 78.0557 63.0199V62.9951C77.2962 61.814 75.678 61.0204 74.3171 60.6825C72.5501 60.2392 71.5426 60.4934 71.5426 60.4934C71.5426 60.4934 68.4426 60.8034 65.8665 62.1953C63.2904 63.5872 63.2811 66.7337 63.6593 69.0153C64.0375 71.2969 65.1101 76.012 65.1101 76.2011C65.1101 76.3902 61.6412 79.7971 59.8773 84.0193C58.1134 88.2415 60.6337 101.829 60.6337 101.829C60.6337 101.829 62.2736 102.901 66.9391 102.901C71.6046 102.901 74.19 100.958 74.19 100.958C74.19 100.958 75.8299 88.4337 75.5137 83.7062C75.3837 81.3182 75.1312 78.9384 74.7573 76.5762C74.7573 76.5762 74.9557 76.2972 75.2316 75.8694C75.363 77.0195 75.7914 78.1156 76.4747 79.05C76.6855 79.3166 77.1412 79.9428 77.7147 80.7333C78.3984 80.068 79.2452 79.5944 80.1699 79.36L79.3019 77.2427Z" stroke="#263238" stroke-linecap="round" stroke-linejoin="round"/>
<path d="M83.6265 91.1183L83.7691 90.3092" stroke="#263238" stroke-linecap="round" stroke-linejoin="round"/>
<path d="M84.3054 91.6949L84.3767 90.7711" stroke="#263238" stroke-linecap="round" stroke-linejoin="round"/>
<path d="M85.0216 91.9553L84.9968 90.8796" stroke="#263238" stroke-linecap="round" stroke-linejoin="round"/>
<path d="M83.177 88.626C83.1922 88.8149 83.2463 88.9986 83.3359 89.1656C83.4255 89.3326 83.5487 89.4792 83.6978 89.5963L84.1597 89.8753C84.1597 89.8753 84.5007 91.7353 84.9812 91.4532C85.4617 91.1711 85.2075 89.5374 84.6309 88.6353" fill="white"/>
<path d="M83.177 88.626C83.1922 88.8149 83.2463 88.9986 83.3359 89.1656C83.4255 89.3326 83.5487 89.4792 83.6978 89.5963L84.1597 89.8753C84.1597 89.8753 84.5007 91.7353 84.9812 91.4532C85.4617 91.1711 85.2075 89.5374 84.6309 88.6353" stroke="#263238" stroke-linecap="round" stroke-linejoin="round"/>
<path d="M71.273 57.8429C71.273 57.8429 71.3381 59.5479 70.7708 60.4283C70.2035 61.3087 70.0144 61.69 70.0144 63.0137C70.0144 64.3374 72.141 69.2137 73.1485 68.6526C74.156 68.0915 73.4802 64.7807 73.6073 63.6461C73.7344 62.5115 73.7344 61.9411 73.7344 61.9411C73.7344 61.9411 71.9054 57.04 71.273 57.8429Z" fill="white"/>
<mask id="mask3_125_3691" style="mask-type:luminance" maskUnits="userSpaceOnUse" x="70" y="57" width="4" height="12">
<path d="M71.273 57.8429C71.273 57.8429 71.3381 59.5479 70.7708 60.4283C70.2035 61.3087 70.0144 61.69 70.0144 63.0137C70.0144 64.3374 72.141 69.2137 73.1485 68.6526C74.156 68.0915 73.4802 64.7807 73.6073 63.6461C73.7344 62.5115 73.7344 61.9411 73.7344 61.9411C73.7344 61.9411 71.9054 57.04 71.273 57.8429Z" fill="white"/>
</mask>
<g mask="url(#mask3_125_3691)">
<path d="M70.0205 62.651L73.7157 62.4154C73.7157 62.1054 73.7343 61.9411 73.7343 61.9411C73.7343 61.9411 71.9053 57.0245 71.2729 57.8429C71.2729 57.8429 71.338 59.5479 70.7707 60.4283C70.2499 61.225 70.0546 61.6125 70.0205 62.651Z" fill="#F58634"/>
<path opacity="0.5" d="M70.0205 62.651L73.7157 62.4154C73.7157 62.1054 73.7343 61.9411 73.7343 61.9411C73.7343 61.9411 71.9053 57.0245 71.2729 57.8429C71.2729 57.8429 71.338 59.5479 70.7707 60.4283C70.2499 61.225 70.0546 61.6125 70.0205 62.651Z" fill="white"/>
</g>
<path d="M71.273 57.8429C71.273 57.8429 71.3381 59.5479 70.7708 60.4283C70.2035 61.3087 70.0144 61.69 70.0144 63.0137C70.0144 64.3374 72.141 69.2137 73.1485 68.6526C74.156 68.0915 73.4802 64.7807 73.6073 63.6461C73.7344 62.5115 73.7344 61.9411 73.7344 61.9411C73.7344 61.9411 71.9054 57.04 71.273 57.8429Z" stroke="#263238" stroke-linecap="round" stroke-linejoin="round"/>
<path d="M82.7337 70.1499L85.1083 74.2481L85.7283 74.5581L85.6012 73.8637L83.2111 69.8554C83.1737 69.7943 83.1148 69.7494 83.046 69.7293C82.9773 69.7092 82.9035 69.7155 82.8391 69.7469C82.8048 69.7655 82.7746 69.7909 82.7505 69.8216C82.7264 69.8524 82.7089 69.8877 82.699 69.9255C82.6891 69.9633 82.6871 70.0027 82.6931 70.0413C82.699 70.0799 82.7129 70.1168 82.7337 70.1499Z" fill="white" stroke="#263238" stroke-linecap="round" stroke-linejoin="round"/>
<path d="M65.3459 62.7006C65.3459 62.7006 62.8845 63.5345 63.303 66.5601C63.5138 68.0698 64.0873 71.9696 64.6546 74.2388C65.2219 76.508 66.1674 79.5336 67.0509 79.6607C67.9344 79.7878 81.6767 74.679 81.6767 74.679C81.6767 74.679 83.949 74.9332 84.5163 74.617C85.0742 74.228 85.5286 73.7087 85.84 73.1042C86.0291 72.726 84.011 72.2827 83.5057 72.2827C83.0004 72.2827 81.1001 73.3553 80.7901 73.47C80.4801 73.5847 69.7541 74.9828 69.503 74.9828C69.2519 74.9828 68.5513 68.8045 67.9902 66.7864C67.2338 64.0739 66.2852 63.5066 66.2852 63.5066" fill="white"/>
<mask id="mask4_125_3691" style="mask-type:luminance" maskUnits="userSpaceOnUse" x="63" y="62" width="23" height="18">
<path d="M65.3459 62.7006C65.3459 62.7006 62.8845 63.5345 63.303 66.5601C63.5138 68.0698 64.0873 71.9696 64.6546 74.2388C65.2219 76.508 66.1674 79.5336 67.0509 79.6607C67.9344 79.7878 81.6767 74.679 81.6767 74.679C81.6767 74.679 83.949 74.9332 84.5163 74.617C85.0742 74.228 85.5286 73.7087 85.84 73.1042C86.0291 72.726 84.011 72.2827 83.5057 72.2827C83.0004 72.2827 81.1001 73.3553 80.7901 73.47C80.4801 73.5847 69.7541 74.9828 69.503 74.9828C69.2519 74.9828 68.5513 68.8045 67.9902 66.7864C67.2338 64.0739 66.2852 63.5066 66.2852 63.5066" fill="white"/>
</mask>
<g mask="url(#mask4_125_3691)">
<path d="M68.4242 78.0673C66.8184 77.7573 67.6213 76.5607 68.0212 75.8601C68.4211 75.1595 66.5301 76.57 66.5301 76.26C66.5301 75.95 65.1258 69.3315 65.0235 67.2204C65.0011 66.6092 65.149 66.0038 65.4506 65.4718C65.7522 64.9397 66.1957 64.5019 66.7316 64.2072L66.6138 63.8042C66.5236 63.6957 66.4193 63.5998 66.3038 63.519L65.3738 62.7006C65.3738 62.7006 62.9124 63.5345 63.3309 66.5601C63.5417 68.0698 64.1152 71.9696 64.6825 74.2388C65.2498 76.508 66.1953 79.5336 67.0788 79.6607C67.488 79.7196 70.6934 78.6408 74.0011 77.4721C71.9613 77.841 69.3604 78.244 68.4242 78.0673Z" fill="#F58634"/>
<path opacity="0.5" d="M68.4242 78.0673C66.8184 77.7573 67.6213 76.5607 68.0212 75.8601C68.4211 75.1595 66.5301 76.57 66.5301 76.26C66.5301 75.95 65.1258 69.3315 65.0235 67.2204C65.0011 66.6092 65.149 66.0038 65.4506 65.4718C65.7522 64.9397 66.1957 64.5019 66.7316 64.2072L66.6138 63.8042C66.5236 63.6957 66.4193 63.5998 66.3038 63.519L65.3738 62.7006C65.3738 62.7006 62.9124 63.5345 63.3309 66.5601C63.5417 68.0698 64.1152 71.9696 64.6825 74.2388C65.2498 76.508 66.1953 79.5336 67.0788 79.6607C67.488 79.7196 70.6934 78.6408 74.0011 77.4721C71.9613 77.841 69.3604 78.244 68.4242 78.0673Z" fill="white"/>
</g>
<path d="M65.3459 62.7006C65.3459 62.7006 62.8845 63.5345 63.303 66.5601C63.5138 68.0698 64.0873 71.9696 64.6546 74.2388C65.2219 76.508 66.1674 79.5336 67.0509 79.6607C67.9344 79.7878 81.6767 74.679 81.6767 74.679C81.6767 74.679 83.949 74.9332 84.5163 74.617C85.0742 74.228 85.5286 73.7087 85.84 73.1042C86.0291 72.726 84.011 72.2827 83.5057 72.2827C83.0004 72.2827 81.1001 73.3553 80.7901 73.47C80.4801 73.5847 69.7541 74.9828 69.503 74.9828C69.2519 74.9828 68.5513 68.8045 67.9902 66.7864C67.2338 64.0739 66.2852 63.5066 66.2852 63.5066" stroke="#263238" stroke-linecap="round" stroke-linejoin="round"/>
<path d="M83.5056 72.2827C83.0034 72.2827 81.1093 73.3553 80.7962 73.4824C80.6071 73.5568 76.7662 74.0745 73.598 74.4868C73.474 75.2742 73.4647 76.4739 74.28 77.3636C77.969 76.0585 81.6766 74.679 81.6766 74.679C81.6766 74.679 83.9489 74.9332 84.5162 74.617C85.074 74.2281 85.5285 73.7087 85.8399 73.1042C86.029 72.726 84.0109 72.2827 83.5056 72.2827Z" fill="white" stroke="#263238" stroke-linecap="round" stroke-linejoin="round"/>
<path d="M75.2659 74.1551C76.2027 73.3242 76.8264 72.1972 77.0329 70.9621C77.2044 69.3882 77.2769 67.8051 77.2499 66.2222" stroke="#263238" stroke-linecap="round" stroke-linejoin="round"/>
<path d="M71.3598 55.8496C71.3598 55.8496 71.2327 54.4732 70.4298 54.8483C69.6269 55.2234 69.6176 56.9129 70.0547 57.35C70.3008 57.6045 70.6316 57.76 70.9847 57.7871C71.0354 58.6208 71.2705 59.4329 71.6729 60.1648C72.2929 61.163 73.3593 63.1656 74.6117 62.7905C75.8641 62.4154 78.1116 59.1635 78.6138 57.6011C78.9726 56.2898 79.2235 54.9513 79.364 53.599C79.364 53.599 76.6112 54.839 74.6737 55.0994C73.547 55.2396 72.437 55.4909 71.3598 55.8496Z" fill="white"/>
<mask id="mask5_125_3691" style="mask-type:luminance" maskUnits="userSpaceOnUse" x="69" y="53" width="11" height="10">
<path d="M71.3598 55.8496C71.3598 55.8496 71.2327 54.4732 70.4298 54.8483C69.6269 55.2234 69.6176 56.9129 70.0547 57.35C70.3008 57.6045 70.6316 57.76 70.9847 57.7871C71.0354 58.6208 71.2705 59.4329 71.6729 60.1648C72.2929 61.163 73.3593 63.1656 74.6117 62.7905C75.8641 62.4154 78.1116 59.1635 78.6138 57.6011C78.9726 56.2898 79.2235 54.9513 79.364 53.599C79.364 53.599 76.6112 54.839 74.6737 55.0994C73.547 55.2396 72.437 55.4909 71.3598 55.8496Z" fill="white"/>
</mask>
<g mask="url(#mask5_125_3691)">
<path d="M71.3598 55.8496C71.3598 55.8496 71.2327 54.4732 70.4298 54.8483C69.6269 55.2234 69.6176 56.9129 70.0547 57.35C70.3008 57.6045 70.6316 57.76 70.9847 57.7871C71.0354 58.6208 71.2705 59.4329 71.6729 60.1648C72.0573 60.7848 72.6029 61.7706 73.2632 62.3565C72.4076 61.2901 72.0635 58.7078 72.3332 57.4957C72.6029 56.2836 72.9532 56.3611 74.7791 55.924C76.605 55.4869 79.3733 53.599 79.3733 53.599C79.3733 53.599 76.6205 54.839 74.683 55.0994C73.5531 55.239 72.44 55.4903 71.3598 55.8496Z" fill="#F58634"/>
<path opacity="0.5" d="M71.3598 55.8496C71.3598 55.8496 71.2327 54.4732 70.4298 54.8483C69.6269 55.2234 69.6176 56.9129 70.0547 57.35C70.3008 57.6045 70.6316 57.76 70.9847 57.7871C71.0354 58.6208 71.2705 59.4329 71.6729 60.1648C72.0573 60.7848 72.6029 61.7706 73.2632 62.3565C72.4076 61.2901 72.0635 58.7078 72.3332 57.4957C72.6029 56.2836 72.9532 56.3611 74.7791 55.924C76.605 55.4869 79.3733 53.599 79.3733 53.599C79.3733 53.599 76.6205 54.839 74.683 55.0994C73.5531 55.239 72.44 55.4903 71.3598 55.8496Z" fill="white"/>
</g>
<path d="M71.3598 55.8496C71.3598 55.8496 71.2327 54.4732 70.4298 54.8483C69.6269 55.2234 69.6176 56.9129 70.0547 57.35C70.3008 57.6045 70.6316 57.76 70.9847 57.7871C71.0354 58.6208 71.2705 59.4329 71.6729 60.1648C72.2929 61.163 73.3593 63.1656 74.6117 62.7905C75.8641 62.4154 78.1116 59.1635 78.6138 57.6011C78.9726 56.2898 79.2235 54.9513 79.364 53.599C79.364 53.599 76.6112 54.839 74.6737 55.0994C73.547 55.2396 72.437 55.4909 71.3598 55.8496Z" stroke="#263238" stroke-linecap="round" stroke-linejoin="round"/>
<path d="M75.4551 59.7463C75.4551 59.7463 76.4192 60.1338 76.6517 59.9788C76.8842 59.8238 76.6517 59.4487 76.7633 58.7543C76.7886 58.5604 76.8534 58.3737 76.9536 58.2058C77.0538 58.0378 77.1874 57.8922 77.3461 57.7778" stroke="#263238" stroke-linecap="round" stroke-linejoin="round"/>
<path d="M75.1637 57.5887L75.018 58.0723C74.8747 58.1397 74.7117 58.1524 74.5598 58.1078C74.4079 58.0633 74.2775 57.9646 74.1934 57.8305" stroke="#263238" stroke-linecap="round" stroke-linejoin="round"/>
<path d="M77.8761 58.4908L77.7304 58.9775C77.5866 59.044 77.4236 59.0558 77.2719 59.0107C77.1201 58.9656 76.9899 58.8668 76.9058 58.7326" stroke="#263238" stroke-linecap="round" stroke-linejoin="round"/>
<path d="M74.1934 60.3043C74.3209 60.4664 74.4826 60.5984 74.6669 60.6911C74.8512 60.7838 75.0536 60.8348 75.2598 60.8406" stroke="#263238" stroke-linecap="round" stroke-linejoin="round"/>
<path d="M75.9881 56.8603C75.793 56.6013 75.5336 56.3978 75.2356 56.2701C74.9376 56.1423 74.6114 56.0946 74.2893 56.1318" stroke="#263238" stroke-linecap="round" stroke-linejoin="round"/>
<path d="M77.6375 57.6384C77.7915 57.6025 77.9533 57.6217 78.0948 57.6924C78.2363 57.7632 78.3487 57.8811 78.4125 58.0259" stroke="#263238" stroke-linecap="round" stroke-linejoin="round"/>
<path d="M88.7663 75.1998C88.7663 75.1998 88.4563 82.2275 88.4563 82.5375C88.4563 82.8475 87.9417 91.2175 88.2517 92.9721C88.5617 94.7267 89.0763 96.7975 89.3863 97.4175C89.6963 98.0375 90.524 98.5521 90.524 97.8298C90.524 97.1075 90.6263 94.4198 90.4217 93.6975C90.1673 92.9975 89.8563 92.3194 89.4917 91.6701C89.4917 91.6701 91.0417 85.0175 91.454 83.1575C91.8663 81.2975 92.7963 74.6821 92.7963 73.9598C92.7963 73.2375 88.7663 73.5475 88.7663 73.5475V75.1998Z" fill="white"/>
<mask id="mask6_125_3691" style="mask-type:luminance" maskUnits="userSpaceOnUse" x="88" y="73" width="5" height="26">
<path d="M88.7663 75.1998C88.7663 75.1998 88.4563 82.2275 88.4563 82.5375C88.4563 82.8475 87.9417 91.2175 88.2517 92.9721C88.5617 94.7267 89.0763 96.7975 89.3863 97.4175C89.6963 98.0375 90.524 98.5521 90.524 97.8298C90.524 97.1075 90.6263 94.4198 90.4217 93.6975C90.1673 92.9975 89.8563 92.3194 89.4917 91.6701C89.4917 91.6701 91.0417 85.0175 91.454 83.1575C91.8663 81.2975 92.7963 74.6821 92.7963 73.9598C92.7963 73.2375 88.7663 73.5475 88.7663 73.5475V75.1998Z" fill="white"/>
</mask>
<g mask="url(#mask6_125_3691)">
<path d="M88.7663 75.1998C88.7663 75.1998 88.4563 82.2275 88.4563 82.5375C88.4563 82.8475 87.9417 91.2175 88.2517 92.9721C88.5617 94.7267 89.0763 96.7975 89.3863 97.4175C89.6963 98.0375 90.524 98.5521 90.524 97.8298C90.524 97.1075 90.6263 94.4198 90.4217 93.6975C90.1673 92.9975 89.8563 92.3194 89.4917 91.6701C89.4917 91.6701 91.0417 85.0175 91.454 83.1575C91.8663 81.2975 92.7963 74.6821 92.7963 73.9598C92.7963 73.2375 88.7663 73.5475 88.7663 73.5475V75.1998Z" fill="#F58634"/>
<path opacity="0.5" d="M88.7663 75.1998C88.7663 75.1998 88.4563 82.2275 88.4563 82.5375C88.4563 82.8475 87.9417 91.2175 88.2517 92.9721C88.5617 94.7267 89.0763 96.7975 89.3863 97.4175C89.6963 98.0375 90.524 98.5521 90.524 97.8298C90.524 97.1075 90.6263 94.4198 90.4217 93.6975C90.1673 92.9975 89.8563 92.3194 89.4917 91.6701C89.4917 91.6701 91.0417 85.0175 91.454 83.1575C91.8663 81.2975 92.7963 74.6821 92.7963 73.9598C92.7963 73.2375 88.7663 73.5475 88.7663 73.5475V75.1998Z" fill="white"/>
</g>
<path d="M88.7663 75.1998C88.7663 75.1998 88.4563 82.2275 88.4563 82.5375C88.4563 82.8475 87.9417 91.2175 88.2517 92.9721C88.5617 94.7267 89.0763 96.7975 89.3863 97.4175C89.6963 98.0375 90.524 98.5521 90.524 97.8298C90.524 97.1075 90.6263 94.4198 90.4217 93.6975C90.1673 92.9975 89.8563 92.3194 89.4917 91.6701C89.4917 91.6701 91.0417 85.0175 91.454 83.1575C91.8663 81.2975 92.7963 74.6821 92.7963 73.9598C92.7963 73.2375 88.7663 73.5475 88.7663 73.5475V75.1998Z" stroke="#263238" stroke-linecap="round" stroke-linejoin="round"/>
<path d="M89.5537 94.7886C89.5537 94.7886 90.1272 96.1247 90.3163 96.5711C90.5054 97.0175 91.3362 97.5879 91.3362 97.0795C91.3362 96.5711 90.7162 95.4272 90.7162 95.4272C90.7332 94.6721 90.5572 93.9252 90.2047 93.2572" stroke="#263238" stroke-linecap="round" stroke-linejoin="round"/>
<path d="M92.0151 49.8138C92.0151 49.8138 91.3486 50.2137 92.818 50.6136C94.2874 51.0135 97.158 50.8802 97.4277 50.6136C97.6974 50.347 97.4277 49.9471 96.3582 49.6836C95.2887 49.4201 92.6165 49.479 92.0151 49.8138Z" fill="#263238" stroke="#263238" stroke-linecap="round" stroke-linejoin="round"/>
<path d="M93.6333 126.635C93.6333 126.635 90.7163 127.565 89.5693 128.303C88.4223 129.041 89.5693 129.344 91.1193 129.344C92.6693 129.344 94.1945 128.824 94.8207 128.771C95.4469 128.718 96.6961 128.665 96.3303 127.103C95.9645 125.541 93.6333 126.635 93.6333 126.635Z" fill="white" stroke="#263238" stroke-linecap="round" stroke-linejoin="round"/>
<path d="M103.42 128.563C103.42 128.563 100.345 131.53 100.084 132.522C99.8239 133.514 101.634 133.405 103.054 132.364C104.474 131.322 105.398 129.813 105.556 129.084C105.714 128.356 104.365 127.677 103.42 128.563Z" fill="white" stroke="#263238" stroke-linecap="round" stroke-linejoin="round"/>
<path d="M91.8261 60.8715C91.8261 60.8715 90.5241 61.972 90.3164 62.6974C90.1087 63.4228 87.4241 74.682 87.4241 74.682L93.8318 77.162L95.2764 64.142C95.2764 64.142 94.7804 59.6687 91.8261 60.8715Z" fill="white"/>
<mask id="mask7_125_3691" style="mask-type:luminance" maskUnits="userSpaceOnUse" x="87" y="60" width="9" height="18">
<path d="M91.8261 60.8715C91.8261 60.8715 90.5241 61.972 90.3164 62.6974C90.1087 63.4228 87.4241 74.682 87.4241 74.682L93.8318 77.162L95.2764 64.142C95.2764 64.142 94.7804 59.6687 91.8261 60.8715Z" fill="white"/>
</mask>
<g mask="url(#mask7_125_3691)">
<path d="M91.8261 60.8715C91.8261 60.8715 90.5241 61.972 90.3164 62.6974C90.1087 63.4228 87.4241 74.682 87.4241 74.682L93.8318 77.162L95.2764 64.142C95.2764 64.142 94.7804 59.6687 91.8261 60.8715Z" fill="#F58634"/>
<path opacity="0.5" d="M91.8261 60.8715C91.8261 60.8715 90.5241 61.972 90.3164 62.6974C90.1087 63.4228 87.4241 74.682 87.4241 74.682L93.8318 77.162L95.2764 64.142C95.2764 64.142 94.7804 59.6687 91.8261 60.8715Z" fill="white"/>
</g>
<path d="M91.8261 60.8715C91.8261 60.8715 90.5241 61.972 90.3164 62.6974C90.1087 63.4228 87.4241 74.682 87.4241 74.682L93.8318 77.162L95.2764 64.142C95.2764 64.142 94.7804 59.6687 91.8261 60.8715Z" stroke="#263238" stroke-linecap="round" stroke-linejoin="round"/>
<path d="M91.8664 81.7097C91.8664 81.7097 90.9364 88.632 90.7318 93.0774C90.5272 97.5228 90.9364 103.512 91.1441 106.612C91.3518 109.712 93.5714 124.477 93.5714 124.725C93.5714 124.973 93.0754 125.469 93.0754 125.801C93.12 126.166 93.2031 126.526 93.3234 126.874C93.8576 126.97 94.3832 127.108 94.8951 127.289C95.4268 127.494 96.0156 127.494 96.5474 127.289C96.5474 127.289 96.5474 123.898 96.9628 122.245C97.3782 120.593 98.4818 102.377 98.4818 102.377V100.207C98.4818 100.207 100.032 110.85 100.546 114.26C101.061 117.67 102.406 123.972 102.716 124.902C102.902 125.433 102.972 125.997 102.924 126.557V127.692L103.234 129.14C103.234 129.14 103.646 129.862 104.372 129.862C104.89 129.822 105.389 129.644 105.816 129.347C105.816 129.347 106.542 123.352 106.746 121.492C106.951 119.632 107.056 112.297 106.852 111.572C106.662 110.65 106.524 109.719 106.436 108.782C106.436 108.782 107.264 96.382 106.852 93.4897C106.439 90.5974 106.232 83.1574 106.232 83.1574C106.232 83.1574 97.1364 85.3274 91.8664 81.7097Z" fill="#263238" stroke="#263238" stroke-linecap="round" stroke-linejoin="round"/>
<path d="M98.4817 100.207L97.4463 92.2498L96.0017 90.8052" stroke="white" stroke-linecap="round" stroke-linejoin="round"/>
<path d="M98.181 58.9C98.181 58.9 94.461 59.1945 91.826 60.884C91.2773 61.2374 91.6276 73.1321 91.6276 75.6462C91.6276 78.1603 91.2277 81.6044 91.2959 82.0694C91.3641 82.5344 93.7449 84.2394 97.7811 84.7168C101.817 85.1942 106.322 84.1185 106.585 83.5233C106.849 82.9281 106.718 82.0694 106.718 81.8028C106.718 81.5362 111.17 66.8484 110.829 65.193C110.488 63.5376 110.172 61.69 107.183 60.2764C105.255 59.3681 102.549 58.6892 101.157 58.6892C100.162 58.7069 99.1686 58.7773 98.181 58.9Z" fill="white"/>
<mask id="mask8_125_3691" style="mask-type:luminance" maskUnits="userSpaceOnUse" x="91" y="58" width="20" height="27">
<path d="M98.181 58.9C98.181 58.9 94.461 59.1945 91.826 60.884C91.2773 61.2374 91.6276 73.1321 91.6276 75.6462C91.6276 78.1603 91.2277 81.6044 91.2959 82.0694C91.3641 82.5344 93.7449 84.2394 97.7811 84.7168C101.817 85.1942 106.322 84.1185 106.585 83.5233C106.849 82.9281 106.718 82.0694 106.718 81.8028C106.718 81.5362 111.17 66.8484 110.829 65.193C110.488 63.5376 110.172 61.69 107.183 60.2764C105.255 59.3681 102.549 58.6892 101.157 58.6892C100.162 58.7069 99.1686 58.7773 98.181 58.9Z" fill="white"/>
</mask>
<g mask="url(#mask8_125_3691)">
<path d="M99.9883 82.5158C95.3972 82.305 92.8366 80.5969 92.5142 80.1691C92.1918 79.7413 92.7281 65.968 92.7281 64.6877C92.7281 63.4074 97.4277 61.4823 97.4277 61.4823L98.2058 58.8845H98.181C98.181 58.8845 94.461 59.179 91.826 60.8685C91.2773 61.2219 91.6276 73.1166 91.6276 75.6307C91.6276 78.1448 91.2277 81.5889 91.2959 82.0539C91.3641 82.5189 93.7449 84.2239 97.7811 84.7013C101.817 85.1787 106.322 84.103 106.585 83.5078C106.849 82.9126 106.718 82.0539 106.718 81.7873C106.718 81.7439 106.836 81.3161 107.028 80.6217C105.649 80.5752 103.752 82.6925 99.9883 82.5158Z" fill="#F58634"/>
<path opacity="0.5" d="M99.9883 82.5158C95.3972 82.305 92.8366 80.5969 92.5142 80.1691C92.1918 79.7413 92.7281 65.968 92.7281 64.6877C92.7281 63.4074 97.4277 61.4823 97.4277 61.4823L98.2058 58.8845H98.181C98.181 58.8845 94.461 59.179 91.826 60.8685C91.2773 61.2219 91.6276 73.1166 91.6276 75.6307C91.6276 78.1448 91.2277 81.5889 91.2959 82.0539C91.3641 82.5189 93.7449 84.2239 97.7811 84.7013C101.817 85.1787 106.322 84.103 106.585 83.5078C106.849 82.9126 106.718 82.0539 106.718 81.7873C106.718 81.7439 106.836 81.3161 107.028 80.6217C105.649 80.5752 103.752 82.6925 99.9883 82.5158Z" fill="white"/>
</g>
<path d="M98.181 58.9C98.181 58.9 94.461 59.1945 91.826 60.884C91.2773 61.2374 91.6276 73.1321 91.6276 75.6462C91.6276 78.1603 91.2277 81.6044 91.2959 82.0694C91.3641 82.5344 93.7449 84.2394 97.7811 84.7168C101.817 85.1942 106.322 84.1185 106.585 83.5233C106.849 82.9281 106.718 82.0694 106.718 81.8028C106.718 81.5362 111.17 66.8484 110.829 65.193C110.488 63.5376 110.172 61.69 107.183 60.2764C105.255 59.3681 102.549 58.6892 101.157 58.6892C100.162 58.7069 99.1686 58.7773 98.181 58.9Z" stroke="#263238" stroke-linecap="round" stroke-linejoin="round"/>
<path d="M97.3718 63.4012C97.3718 63.4012 97.0432 62.4712 96.4418 62.4712C95.917 62.5242 95.4035 62.658 94.9197 62.868C94.9197 62.868 95.7815 60.419 97.0401 58.7636C98.2987 57.1082 101.74 56.5936 102.598 57.505C103.411 58.4213 103.879 59.5919 103.922 60.8158C103.922 61.8078 100.878 64.0584 100.679 64.1266C100.481 64.1948 100.084 63.2648 99.2225 63.2648C98.6874 63.2679 98.1546 63.3345 97.6353 63.4632L97.3718 63.4012Z" fill="white" stroke="#263238" stroke-linecap="round" stroke-linejoin="round"/>
<path d="M97.4402 57.1112C97.4402 57.1112 96.7768 62.8059 97.372 63.4011C97.9672 63.9963 99.1607 62.2076 100.162 61.414C101.163 60.6204 102.481 58.624 102.611 57.508C102.692 56.6508 102.714 55.7891 102.679 54.9288C102.679 54.9288 100.627 57.7746 99.5792 57.7746C98.8228 57.7311 98.0885 57.5033 97.4402 57.1112Z" fill="white"/>
<mask id="mask9_125_3691" style="mask-type:luminance" maskUnits="userSpaceOnUse" x="97" y="54" width="6" height="10">
<path d="M97.4402 57.1112C97.4402 57.1112 96.7768 62.8059 97.372 63.4011C97.9672 63.9963 99.1607 62.2076 100.162 61.414C101.163 60.6204 102.481 58.624 102.611 57.508C102.692 56.6508 102.714 55.7891 102.679 54.9288C102.679 54.9288 100.627 57.7746 99.5792 57.7746C98.8228 57.7311 98.0885 57.5033 97.4402 57.1112Z" fill="white"/>
</mask>
<g mask="url(#mask9_125_3691)">
<path d="M99.5575 57.7746C98.8085 57.7275 98.0821 57.4999 97.4402 57.1112C97.4402 57.1112 96.7768 62.8059 97.372 63.4011C97.4286 63.4552 97.4996 63.4918 97.5766 63.5065C98.0354 62.0681 98.5283 60.2918 98.5283 60.2918L100.624 58.6302L102.282 55.9239L102.149 55.6139C101.467 56.4447 100.283 57.7746 99.5575 57.7746Z" fill="#F58634"/>
<path opacity="0.5" d="M99.5575 57.7746C98.8085 57.7275 98.0821 57.4999 97.4402 57.1112C97.4402 57.1112 96.7768 62.8059 97.372 63.4011C97.4286 63.4552 97.4996 63.4918 97.5766 63.5065C98.0354 62.0681 98.5283 60.2918 98.5283 60.2918L100.624 58.6302L102.282 55.9239L102.149 55.6139C101.467 56.4447 100.283 57.7746 99.5575 57.7746Z" fill="white"/>
</g>
<path d="M97.4402 57.1112C97.4402 57.1112 96.7768 62.8059 97.372 63.4011C97.9672 63.9963 99.1607 62.2076 100.162 61.414C101.163 60.6204 102.481 58.624 102.611 57.508C102.692 56.6508 102.714 55.7891 102.679 54.9288C102.679 54.9288 100.627 57.7746 99.5792 57.7746C98.8228 57.7311 98.0885 57.5033 97.4402 57.1112Z" stroke="#263238" stroke-linecap="round" stroke-linejoin="round"/>
<path d="M95.6916 49.9472C95.6916 49.9472 95.5583 53.8873 96.0915 55.4249C96.6247 56.9625 98.029 59.2999 99.9014 58.7667C101.774 58.2335 103.175 54.4267 103.175 54.4267C103.175 54.4267 104.911 53.6238 105.246 52.421C105.437 51.6274 105.415 50.7974 105.181 50.0154C105.181 50.0154 101.504 48.8808 99.5666 49.0141C98.3264 49.1169 97.1094 49.4096 95.9582 49.8821L95.6916 49.9472Z" fill="white"/>
<mask id="mask10_125_3691" style="mask-type:luminance" maskUnits="userSpaceOnUse" x="95" y="49" width="11" height="10">
<path d="M95.6916 49.9472C95.6916 49.9472 95.5583 53.8873 96.0915 55.4249C96.6247 56.9625 98.029 59.2999 99.9014 58.7667C101.774 58.2335 103.175 54.4267 103.175 54.4267C103.175 54.4267 104.911 53.6238 105.246 52.421C105.437 51.6274 105.415 50.7974 105.181 50.0154C105.181 50.0154 101.504 48.8808 99.5666 49.0141C98.3264 49.1169 97.1094 49.4096 95.9582 49.8821L95.6916 49.9472Z" fill="white"/>
</mask>
<g mask="url(#mask10_125_3691)">
<path d="M105.32 50.6447C105.32 50.5579 105.292 50.4773 105.277 50.4029C105.178 50.2789 105.041 50.0929 104.889 49.9255C103.984 49.6651 101.169 48.8994 99.5666 48.9955C98.3264 49.0983 97.1094 49.391 95.9582 49.8635L95.6916 49.9317C95.6916 49.9317 95.5583 53.8718 96.0915 55.4094C96.6247 56.947 98.029 59.2844 99.9014 58.7512C100.535 58.5111 101.082 58.0854 101.47 57.5298C101.541 57.3407 101.585 57.2198 101.585 57.2198C101.585 57.2198 99.2256 58.9682 98.3514 57.3965C97.8214 56.3737 97.5803 55.2259 97.6539 54.0764C96.6061 53.6393 96.4325 53.7261 97.2168 53.2921C98.0011 52.8581 97.9174 52.3311 97.9174 52.3311C100.45 52.3311 103.767 51.3701 103.767 51.3701L105.32 50.6447Z" fill="#F58634"/>
<path opacity="0.5" d="M105.32 50.6447C105.32 50.5579 105.292 50.4773 105.277 50.4029C105.178 50.2789 105.041 50.0929 104.889 49.9255C103.984 49.6651 101.169 48.8994 99.5666 48.9955C98.3264 49.0983 97.1094 49.391 95.9582 49.8635L95.6916 49.9317C95.6916 49.9317 95.5583 53.8718 96.0915 55.4094C96.6247 56.947 98.029 59.2844 99.9014 58.7512C100.535 58.5111 101.082 58.0854 101.47 57.5298C101.541 57.3407 101.585 57.2198 101.585 57.2198C101.585 57.2198 99.2256 58.9682 98.3514 57.3965C97.8214 56.3737 97.5803 55.2259 97.6539 54.0764C96.6061 53.6393 96.4325 53.7261 97.2168 53.2921C98.0011 52.8581 97.9174 52.3311 97.9174 52.3311C100.45 52.3311 103.767 51.3701 103.767 51.3701L105.32 50.6447Z" fill="white"/>
</g>
<path d="M95.6916 49.9472C95.6916 49.9472 95.5583 53.8873 96.0915 55.4249C96.6247 56.9625 98.029 59.2999 99.9014 58.7667C101.774 58.2335 103.175 54.4267 103.175 54.4267C103.175 54.4267 104.911 53.6238 105.246 52.421C105.437 51.6274 105.415 50.7974 105.181 50.0154C105.181 50.0154 101.504 48.8808 99.5666 49.0141C98.3264 49.1169 97.1094 49.4096 95.9582 49.8821L95.6916 49.9472Z" stroke="#263238" stroke-linecap="round" stroke-linejoin="round"/>
<path d="M98.1934 51.8196C98.1195 52.1955 97.9844 52.5568 97.7935 52.8891C97.4587 53.4905 96.6558 53.6238 96.9255 53.9586C97.1952 54.2934 98.3949 54.4267 98.3949 54.4267" stroke="#263238" stroke-linecap="round" stroke-linejoin="round"/>
<path d="M100.05 52.3435C100.05 52.6752 99.9293 52.9449 99.7836 52.9449C99.6379 52.9449 99.5139 52.6752 99.5139 52.3435C99.5139 52.0118 99.6348 51.7421 99.7836 51.7421C99.9324 51.7421 100.05 52.0118 100.05 52.3435Z" fill="#263238"/>
<path d="M97.375 52.0799C97.375 52.4147 97.2572 52.6813 97.1084 52.6813C96.9596 52.6813 96.8418 52.4147 96.8418 52.0799C96.8418 51.7451 96.9596 51.4785 97.1084 51.4785C97.2572 51.4785 97.375 51.7358 97.375 52.0799Z" fill="#263238"/>
<path d="M98.0972 55.4249C98.0972 55.4249 99.3651 55.7597 100.236 54.9568" stroke="#263238" stroke-linecap="round" stroke-linejoin="round"/>
<path d="M99.4333 50.6323C99.4333 50.6323 100.053 50.0123 100.528 51.1128" stroke="#263238" stroke-linecap="round" stroke-linejoin="round"/>
<path d="M97.4278 50.6136C97.4278 50.6136 96.3552 50.564 96.2188 51.1809" stroke="#263238" stroke-linecap="round" stroke-linejoin="round"/>
<path d="M102.908 49.479C102.908 49.479 102.307 51.8164 103.243 51.959C104.179 52.1016 104.579 49.8882 104.579 49.8882L102.908 49.479Z" fill="#263238" stroke="#263238" stroke-linecap="round" stroke-linejoin="round"/>
<path d="M95.7568 49.29C95.7568 49.29 95.8932 46.4845 96.0265 45.2817C96.1598 44.0789 98.5065 43.0776 100.838 43.1427C103.169 43.2078 105.292 45.2042 105.559 46.0071C105.826 46.81 105.559 49.91 105.559 49.91L105.454 51.2089C105.454 51.2089 102.372 49.9689 99.6349 49.8263C96.8976 49.6837 95.9583 49.8914 95.9583 49.8914L95.7568 49.29Z" fill="#263238" stroke="#263238" stroke-linecap="round" stroke-linejoin="round"/>
<path d="M97.8337 46.1869L96.7921 46.0071L96.7549 46.2427L97.3532 46.3388L97.3129 46.81L97.7531 46.9433L97.7934 47.3246L98.3514 47.5137L97.8337 46.1869Z" fill="white"/>
<path d="M99.1915 46.2984L100.23 46.286L100.27 46.5278H99.672L99.7123 47.0052L99.2721 47.0641L99.2318 47.4423L98.6738 47.5384L99.1915 46.2984Z" fill="white"/>
<path d="M101.56 50.0123C100.598 50.2607 99.611 50.3959 98.618 50.4153C97.1486 50.4153 94.278 49.7457 93.348 49.7457C92.9005 49.7357 92.4529 49.7585 92.0088 49.8139C93.2799 49.3428 94.6043 49.0304 95.952 48.8839C98.029 48.67 100.971 49.6775 101.56 50.0123Z" fill="white" stroke="#263238" stroke-linecap="round" stroke-linejoin="round"/>
<path d="M93.4162 74.8774C93.4162 74.8774 92.6753 73.656 92.5575 73.6157C92.4397 73.5754 91.457 73.0701 91.2958 73.0174C91.1346 72.9647 90.7533 72.9213 90.8587 73.2685C90.9641 73.6157 91.6678 74.0249 91.6678 74.0249L91.9437 74.7813L93.4162 74.8774Z" fill="white" stroke="#263238" stroke-linecap="round" stroke-linejoin="round"/>
<path d="M97.372 63.4011L96.4141 69.5174L97.4216 69.6724L97.9641 66.1849" stroke="#263238" stroke-linecap="round" stroke-linejoin="round"/>
<path d="M95.0097 68.7797L89.9133 80.166L80.1824 80.5628L85.4772 69.1114L95.0097 68.7797Z" fill="#263238" stroke="#263238" stroke-linecap="round" stroke-linejoin="round"/>
<path d="M91.1749 68.8572L91.7143 67.8776L90.5146 67.9303L90.0062 68.9502L89.0576 68.9905L88.4624 70.2491H91.5066L92.2351 68.8572H91.1749Z" fill="white" stroke="#263238" stroke-linecap="round" stroke-linejoin="round"/>
<path d="M94.1882 75.0881C94.1882 75.0881 92.2631 74.1891 92.0182 74.1891L88.4191 74.1488C88.234 74.3115 88.1049 74.5285 88.0502 74.7688C88.0099 75.0943 87.8053 75.6678 88.0099 75.9561C88.2145 76.2444 90.3411 77.3883 91.1998 77.8378C92.0585 78.2873 94.6098 77.9184 94.6098 77.9184C94.6098 77.9184 100.704 80.5782 102.75 81.6012C104.796 82.6242 106.554 83.1977 107.416 83.1977C108.278 83.1977 109.378 78.1633 109.378 78.1633L104.756 76.9233L104.387 78.1633C104.387 78.1633 101.687 77.4286 98.4135 76.8148C95.4561 76.2599 94.1882 75.0881 94.1882 75.0881Z" fill="white" stroke="#263238" stroke-linecap="round" stroke-linejoin="round"/>
<path d="M88.1741 74.5984C88.1741 74.5984 91.1191 75.1719 91.5686 75.2525" stroke="#263238" stroke-linecap="round" stroke-linejoin="round"/>
<path d="M87.9695 75.1719C87.9695 75.1719 90.9951 76.1949 91.1594 76.2352" stroke="#263238" stroke-linecap="round" stroke-linejoin="round"/>
<path d="M88.2549 75.9902C88.2549 75.9902 90.5055 76.9729 90.8341 77.0132" stroke="#263238" stroke-linecap="round" stroke-linejoin="round"/>
<path d="M104.7 66.309L103.46 77.655C103.46 77.655 105.878 78.7059 107.428 78.9725C108.312 79.1289 109.209 79.2067 110.107 79.205C110.107 79.205 111.278 70.06 111.204 67.673C111.13 65.286 110.807 63.0571 109.515 62.713" fill="white"/>
<mask id="mask11_125_3691" style="mask-type:luminance" maskUnits="userSpaceOnUse" x="103" y="62" width="9" height="18">
<path d="M104.7 66.309L103.46 77.655C103.46 77.655 105.878 78.7059 107.428 78.9725C108.312 79.1289 109.209 79.2067 110.107 79.205C110.107 79.205 111.278 70.06 111.204 67.673C111.13 65.286 110.807 63.0571 109.515 62.713" fill="white"/>
</mask>
<g mask="url(#mask11_125_3691)">
<path d="M106.715 77.1901C106.405 77.0847 107.89 67.5801 106.824 65.5527C106.669 65.2644 106.514 65.1187 106.356 65.0784L105.534 65.6984C104.936 66.6749 104.474 68.4388 104.474 68.4388V68.4729L103.451 77.6551C103.451 77.6551 104.818 78.2503 106.154 78.6564C106.238 78.5386 106.287 78.4611 106.287 78.4611C106.287 78.4611 107.89 78.0333 108.746 77.9248C109.601 77.8163 107.038 77.2862 106.715 77.1901Z" fill="#F58634"/>
<path opacity="0.5" d="M106.715 77.1901C106.405 77.0847 107.89 67.5801 106.824 65.5527C106.669 65.2644 106.514 65.1187 106.356 65.0784L105.534 65.6984C104.936 66.6749 104.474 68.4388 104.474 68.4388V68.4729L103.451 77.6551C103.451 77.6551 104.818 78.2503 106.154 78.6564C106.238 78.5386 106.287 78.4611 106.287 78.4611C106.287 78.4611 107.89 78.0333 108.746 77.9248C109.601 77.8163 107.038 77.2862 106.715 77.1901Z" fill="white"/>
</g>
<path d="M104.7 66.309L103.46 77.655C103.46 77.655 105.878 78.7059 107.428 78.9725C108.312 79.1289 109.209 79.2067 110.107 79.205C110.107 79.205 111.278 70.06 111.204 67.673C111.13 65.286 110.807 63.0571 109.515 62.713" stroke="#263238" stroke-linecap="round" stroke-linejoin="round"/>
</svg>
