<svg width="156" height="155" viewBox="0 0 156 155" fill="none" xmlns="http://www.w3.org/2000/svg">
<path d="M31.2645 124.019C35.5549 120.506 36.1098 114.604 35.5022 109.39C35.3999 108.519 35.4216 107.592 34.938 106.86C34.4544 106.128 33.4314 105.685 32.6688 106.119C32.0488 106.479 31.8132 107.257 31.497 107.911C31.0718 108.79 30.4079 109.531 29.5812 110.05C29.0418 110.385 28.3598 110.617 27.777 110.36C26.9803 110.007 26.8067 108.974 26.7416 108.106C26.6176 106.488 26.4956 104.869 26.3758 103.249C26.3554 102.376 26.1941 101.512 25.8984 100.691C25.5574 99.8913 24.8909 99.1752 24.0384 99.014C23.1859 98.8528 22.1784 99.4108 22.0792 100.276C22.0752 100.638 22.0959 101.001 22.1412 101.361C22.1588 101.541 22.1236 101.722 22.0399 101.882C21.9562 102.042 21.8277 102.174 21.67 102.263C21.329 102.393 20.957 102.176 20.6718 101.953C19.6922 101.153 18.9823 100.074 18.3158 98.9985C17.6493 97.9228 16.9952 96.8285 16.0931 95.9295C15.191 95.0305 13.9882 94.3795 12.7234 94.4105C11.4586 94.4415 10.1783 95.325 9.96126 96.5805C9.74426 97.836 10.5658 99.014 11.4338 99.9378C12.7265 101.302 14.2091 102.474 15.8358 103.416C16.1475 103.555 16.407 103.789 16.5767 104.086C16.8154 104.65 16.307 105.27 15.7459 105.508C15.1073 105.778 14.3881 105.769 13.7092 105.905C13.0303 106.042 12.3111 106.401 12.1034 107.062C11.8182 107.992 12.6459 108.847 13.4333 109.396C15.0201 110.495 16.7823 111.315 18.6444 111.823C19.3109 112.003 20.0084 112.152 20.5664 112.558C21.1244 112.964 21.4964 113.717 21.2391 114.356C20.9818 114.994 20.182 115.255 19.4938 115.187C18.8056 115.118 18.1701 114.805 17.5036 114.619C16.2636 114.269 14.7136 114.48 14.013 115.574C13.8058 115.947 13.6892 116.364 13.6725 116.79C13.6558 117.217 13.7395 117.641 13.9169 118.029C14.2777 118.801 14.7901 119.493 15.4235 120.063C17.5335 122.182 20.1667 123.705 23.0557 124.477C25.9387 125.206 28.5582 125.252 31.2645 124.019Z" fill="#EBEBEB"/>
<path d="M31.6395 127.89C31.1938 125.486 30.5159 123.13 29.6152 120.857C28.5021 118.079 27.2279 115.369 25.7991 112.741L24.68 110.67C24.3142 109.988 23.9515 109.312 23.5547 108.674C22.7942 107.449 21.9663 106.269 21.0747 105.136C20.2284 104.048 19.3821 103.044 18.5947 102.114C17.8073 101.184 17.0447 100.331 16.31 99.5813C15.1667 98.3953 13.9322 97.3007 12.6179 96.3077C12.1529 95.9543 11.7809 95.6877 11.5298 95.5203L11.2415 95.3219C11.2085 95.2993 11.1744 95.2786 11.1392 95.2599C11.1392 95.2599 11.1702 95.2878 11.2322 95.3343L11.5143 95.542C11.7623 95.7218 12.1343 95.9884 12.5869 96.348C13.8862 97.3542 15.108 98.4567 16.2418 99.6464C16.9641 100.397 17.7205 101.252 18.5141 102.185C19.3077 103.118 20.1447 104.123 20.9941 105.211C21.8854 106.341 22.7133 107.52 23.4741 108.742C23.8678 109.377 24.2274 110.05 24.5932 110.732L25.703 112.806C27.1199 115.431 28.3888 118.133 29.5036 120.9C30.4054 123.165 31.0904 125.511 31.5496 127.906" fill="#E0E0E0"/>
<path d="M23.5299 108.658C23.559 108.534 23.5756 108.407 23.5795 108.28C23.6043 108.038 23.6291 107.682 23.6539 107.244C23.7066 106.37 23.7376 105.161 23.7686 103.834C23.7996 102.508 23.8492 101.292 23.9205 100.424C23.9515 99.9873 23.9856 99.637 24.0104 99.3921C24.0284 99.2669 24.0367 99.1404 24.0352 99.0139C23.9969 99.135 23.9709 99.2596 23.9577 99.3859C23.9174 99.6277 23.8709 99.9811 23.8275 100.415C23.7314 101.289 23.6663 102.498 23.6353 103.825C23.6043 105.152 23.5826 106.345 23.564 107.235C23.5485 107.654 23.5392 108.004 23.5299 108.271C23.5174 108.399 23.5174 108.529 23.5299 108.658Z" fill="#E0E0E0"/>
<path d="M12.0505 107.505H12.1683H12.5062C12.7976 107.505 13.2192 107.505 13.7462 107.52C14.7909 107.542 16.2262 107.623 17.8227 107.787C19.4192 107.951 20.839 108.162 21.8682 108.345C22.3828 108.435 22.7982 108.515 23.0865 108.571L23.4151 108.636C23.4926 108.636 23.5329 108.655 23.5329 108.636C23.4981 108.618 23.4603 108.605 23.4213 108.599L23.0958 108.509C22.8137 108.438 22.3983 108.342 21.8837 108.243C20.8576 108.035 19.4254 107.809 17.8351 107.641C16.2448 107.474 14.7971 107.412 13.7462 107.415C13.2223 107.415 12.8162 107.415 12.5062 107.443L12.1714 107.465C12.1293 107.471 12.0885 107.485 12.0505 107.505Z" fill="#E0E0E0"/>
<path d="M29.4727 120.658C29.497 120.611 29.5178 120.562 29.5347 120.512C29.5781 120.404 29.6277 120.264 29.6928 120.094C29.8292 119.728 30.0028 119.192 30.2322 118.544C30.6693 117.22 31.218 115.373 31.8008 113.323C32.3836 111.274 32.9137 109.427 33.3291 108.097C33.5368 107.446 33.7042 106.913 33.8282 106.522C33.884 106.348 33.9274 106.212 33.9615 106.094C33.9805 106.045 33.994 105.994 34.0018 105.942C33.9741 105.987 33.9522 106.035 33.9367 106.085C33.8964 106.197 33.8437 106.336 33.7786 106.507C33.6422 106.872 33.4686 107.406 33.2423 108.057C32.8021 109.38 32.2534 111.228 31.6737 113.277C31.094 115.326 30.5701 117.18 30.1423 118.504C29.9377 119.155 29.7672 119.688 29.6463 120.075C29.5905 120.252 29.5471 120.385 29.5099 120.506C29.4925 120.555 29.4801 120.606 29.4727 120.658Z" fill="#E0E0E0"/>
<path d="M14.0532 117.115C14.1012 117.138 14.1524 117.154 14.2051 117.161L14.6546 117.267L16.31 117.645C17.705 117.955 19.627 118.429 21.7505 118.95C23.874 119.471 25.7991 119.923 27.2003 120.221C27.9009 120.37 28.4682 120.485 28.8619 120.556L29.3145 120.636C29.3675 120.649 29.4214 120.656 29.4757 120.658C29.4265 120.636 29.3743 120.62 29.3207 120.612L28.8712 120.506L27.2189 120.128C25.8239 119.818 23.9019 119.344 21.7815 118.823C19.6611 118.302 17.7329 117.85 16.3317 117.552C15.6311 117.403 15.0638 117.288 14.6701 117.217L14.2144 117.133C14.1613 117.123 14.1074 117.117 14.0532 117.115Z" fill="#E0E0E0"/>
<path d="M71.9891 35.4373L49.5759 42.1786L54.1198 57.2859L76.533 50.5446L71.9891 35.4373Z" fill="white"/>
<path d="M76.5368 50.5299C76.5368 50.5299 76.5027 50.4338 76.4469 50.254C76.3911 50.0742 76.3074 49.8014 76.1989 49.4542C75.985 48.7536 75.6688 47.7275 75.2689 46.4193C74.4691 43.7936 73.3252 40.0271 71.9302 35.4422L72.0108 35.4856L49.604 42.2529L49.6598 42.1506L54.1982 57.26L54.1052 57.2104L70.25 52.3899L74.8721 51.0228L76.1121 50.6601L76.4221 50.5671L76.5337 50.5392L76.4345 50.5733L76.1245 50.6725L74.9093 51.0445L70.3151 52.4488L54.1455 57.3499L54.0742 57.3716L54.0525 57.3003C52.6668 52.6968 51.123 47.5787 49.5017 42.194L49.48 42.1165L49.5544 42.0948L71.9705 35.3678L72.0325 35.3492L72.0511 35.4112C73.4244 40.0209 74.5497 43.806 75.3371 46.4441C75.7215 47.7523 76.0253 48.7753 76.2299 49.479C76.3322 49.82 76.4066 50.0835 76.4624 50.2695C76.5182 50.4555 76.5368 50.5299 76.5368 50.5299Z" fill="#E0E0E0"/>
<path d="M71.9923 35.4329C71.9841 35.4565 71.9738 35.4794 71.9613 35.5011L71.8559 35.6933C71.7536 35.87 71.6141 36.1149 71.4405 36.4249L69.875 39.1126L64.6236 48.0189L64.5864 48.0778L64.5244 48.053L63.8393 47.7895L53.7426 43.8494L50.6891 42.6404L49.8645 42.3025L49.6506 42.2126C49.6251 42.2041 49.601 42.1915 49.5793 42.1754C49.6063 42.1777 49.6326 42.1851 49.6568 42.1971L49.8738 42.2715L50.7139 42.5815L53.7829 43.744L63.8951 47.6376L64.5833 47.9042L64.4841 47.9383C66.5611 44.4508 68.4273 41.326 69.7789 39.0537L71.3878 36.3939C71.5738 36.0839 71.7226 35.8514 71.828 35.6747L71.9489 35.4918C71.9737 35.4515 71.9892 35.4298 71.9923 35.4329Z" fill="#E0E0E0"/>
<path d="M137.21 95.7899C137.21 95.7899 135.756 94.3515 132.923 97.9444C131.437 99.7632 130.073 101.678 128.84 103.676C128.84 103.676 128.133 104.408 127.668 103.744C127.203 103.081 126.723 101.37 125.687 101.457C124.652 101.543 124.057 102.61 123.917 104.312C123.778 106.014 123.341 109.737 123.297 110.072C123.254 110.406 122.987 110.843 122.587 110.444C122.187 110.044 120.176 106.64 118.61 107.688C117.045 108.735 117.441 113.553 117.475 114.077C117.51 114.601 117.367 114.799 117.107 114.873C116.846 114.948 116.273 113.739 115.656 112.793C115.039 111.848 114.162 110.853 113.312 111.538C112.463 112.223 111.561 115.593 113.706 121.783L114.887 124.573L117.909 125.004C124.441 125.528 127.479 123.814 127.929 122.819C128.378 121.824 127.2 121.222 126.128 120.863C125.055 120.503 123.741 120.243 123.75 119.979C123.759 119.716 123.911 119.523 124.429 119.424C124.946 119.325 129.699 118.494 130.319 116.724C130.939 114.954 127.141 113.844 126.655 113.565C126.168 113.286 126.527 112.905 126.837 112.784C127.147 112.663 130.644 111.302 132.259 110.744C133.874 110.186 134.764 109.374 134.581 108.314C134.398 107.254 132.628 107.257 131.869 106.968C131.109 106.68 131.642 105.818 131.642 105.818C133.276 104.128 134.795 102.331 136.19 100.44C138.958 96.7943 137.154 95.731 137.154 95.731" fill="#EBEBEB"/>
<path d="M134.656 98.9892C134.642 99.0166 134.625 99.0425 134.606 99.0667L134.448 99.2899C134.299 99.4883 134.092 99.7703 133.828 100.13C133.286 100.858 132.495 101.906 131.509 103.196C129.541 105.775 126.788 109.315 123.731 113.209L115.913 123.194L113.554 126.229L112.909 127.05L112.739 127.261C112.698 127.308 112.68 127.332 112.677 127.329C112.691 127.302 112.707 127.276 112.726 127.252L112.884 127.032L113.504 126.189C114.044 125.46 114.837 124.412 115.82 123.123C117.789 120.543 120.545 117.003 123.604 113.11C126.664 109.216 129.414 105.688 131.419 103.125C132.408 101.85 133.214 100.818 133.778 100.093C134.051 99.7425 134.268 99.4727 134.42 99.2681L134.594 99.0574C134.631 99.0109 134.653 98.9861 134.656 98.9892Z" fill="#E0E0E0"/>
<path d="M126.264 103.878C126.331 104.144 126.37 104.416 126.379 104.69C126.425 105.192 126.466 105.89 126.493 106.662C126.521 107.434 126.534 108.072 126.549 108.633C126.572 108.906 126.572 109.179 126.549 109.452C126.482 109.186 126.445 108.913 126.438 108.639C126.397 108.134 126.363 107.437 126.335 106.668C126.307 105.899 126.289 105.257 126.267 104.696C126.242 104.424 126.241 104.15 126.264 103.878Z" fill="#E0E0E0"/>
<path d="M126.81 109.56C127.87 109.389 128.939 109.272 130.012 109.21C131.782 109.064 133.223 108.98 133.227 109.024C132.166 109.193 131.097 109.309 130.024 109.371C128.254 109.52 126.816 109.603 126.81 109.56Z" fill="#E0E0E0"/>
<path d="M121.667 115.537C121.945 115.558 122.221 115.603 122.491 115.67C123 115.766 123.697 115.9 124.472 116.024C125.247 116.148 125.951 116.241 126.462 116.306C126.741 116.328 127.018 116.373 127.29 116.439C127.011 116.463 126.731 116.457 126.453 116.42C125.935 116.383 125.213 116.309 124.447 116.182C123.682 116.055 122.969 115.906 122.467 115.782C122.192 115.729 121.924 115.647 121.667 115.537Z" fill="#E0E0E0"/>
<path d="M120.042 110.509C120.171 110.734 120.275 110.972 120.352 111.219C120.517 111.668 120.737 112.288 120.972 112.976C121.208 113.665 121.406 114.291 121.546 114.75C121.633 114.992 121.697 115.242 121.738 115.497C121.607 115.272 121.503 115.033 121.428 114.784C121.261 114.337 121.044 113.717 120.808 113.029C120.572 112.341 120.374 111.712 120.234 111.256C120.143 111.015 120.079 110.764 120.042 110.509Z" fill="#E0E0E0"/>
<path d="M114.831 115.208C114.98 115.503 115.107 115.809 115.209 116.123C115.423 116.696 115.708 117.49 116.015 118.37C116.322 119.251 116.589 120.051 116.778 120.63C116.894 120.94 116.985 121.26 117.048 121.585C116.896 121.286 116.769 120.975 116.669 120.655C116.455 120.085 116.17 119.291 115.863 118.411C115.556 117.53 115.287 116.73 115.101 116.148C114.985 115.843 114.894 115.528 114.831 115.208Z" fill="#E0E0E0"/>
<path d="M117.038 121.418C117.391 121.438 117.743 121.483 118.089 121.554C118.734 121.656 119.639 121.796 120.616 121.926C121.592 122.056 122.501 122.155 123.148 122.236C123.501 122.259 123.853 122.306 124.199 122.376C123.846 122.397 123.491 122.389 123.139 122.351C122.485 122.307 121.589 122.227 120.594 122.093C119.599 121.96 118.709 121.805 118.068 121.678C117.718 121.619 117.374 121.532 117.038 121.418Z" fill="#E0E0E0"/>
<path d="M123.527 65.2897L122.792 89.3314L140.361 89.8682L141.095 65.8265L123.527 65.2897Z" fill="#F5F5F5"/>
<path d="M120.292 68.4858L119.558 92.5275L137.126 93.0642L137.861 69.0226L120.292 68.4858Z" fill="white"/>
<path d="M137.123 93.0589C137.121 93.0197 137.121 92.9803 137.123 92.9411C137.123 92.8605 137.123 92.7489 137.123 92.6032C137.123 92.2932 137.139 91.8592 137.154 91.2888C137.185 90.1387 137.229 88.4678 137.284 86.3505C137.405 82.119 137.576 76.1205 137.777 69.0184L137.849 69.0928L120.281 68.5627L120.365 68.4852C120.082 77.4752 119.825 85.7801 119.614 92.5257L119.549 92.4575L132.309 92.8822L135.858 93.0062L136.788 93.0434L137.114 93.0589H136.804L135.874 93.0372L132.34 92.9473L119.54 92.5908H119.475V92.5257C119.676 85.777 119.924 77.4628 120.194 68.4821V68.4015H120.278L137.842 68.9471H137.917V69.0215C137.684 76.1515 137.489 82.1593 137.349 86.4001C137.278 88.5081 137.219 90.1759 137.182 91.3198C137.16 91.884 137.145 92.318 137.132 92.6187C137.132 92.7613 137.132 92.8729 137.117 92.9504C137.101 93.0279 137.123 93.0589 137.123 93.0589Z" fill="#E0E0E0"/>
<path d="M131.01 74.0465C131.01 74.093 129.097 74.0682 126.741 73.9969C124.385 73.9256 122.473 73.8295 122.473 73.7861C122.473 73.7427 124.388 73.7644 126.744 73.8357C129.1 73.907 131.01 74.0031 131.01 74.0465Z" fill="#E0E0E0"/>
<path d="M135.549 76.2786C135.549 76.322 132.604 76.2786 128.97 76.1577C125.337 76.0368 122.392 75.919 122.395 75.8756C122.398 75.8322 125.34 75.8756 128.977 75.9965C132.613 76.1174 135.552 76.2321 135.549 76.2786Z" fill="#E0E0E0"/>
<path d="M135.483 78.4579C135.483 78.5013 132.535 78.4579 128.902 78.337C125.269 78.2161 122.327 78.0983 122.327 78.0549C122.327 78.0115 125.275 78.0549 128.908 78.1758C132.541 78.2967 135.483 78.4114 135.483 78.4579Z" fill="#E0E0E0"/>
<path d="M135.415 80.6372C135.415 80.6806 132.47 80.6372 128.837 80.5163C125.204 80.3954 122.262 80.2776 122.262 80.2342C122.262 80.1908 125.21 80.2342 128.843 80.3551C132.476 80.476 135.418 80.6 135.415 80.6372Z" fill="#E0E0E0"/>
<path d="M135.35 82.8164C135.35 82.8598 132.402 82.8164 128.772 82.6955C125.142 82.5746 122.194 82.4568 122.194 82.4134C122.194 82.37 125.142 82.4134 128.775 82.5343C132.408 82.6552 135.35 82.7699 135.35 82.8164Z" fill="#E0E0E0"/>
<path d="M135.285 84.9957C135.285 85.0391 132.337 84.9957 128.704 84.8748C125.071 84.7539 122.129 84.6361 122.129 84.5927C122.129 84.5493 125.077 84.5927 128.71 84.7136C132.343 84.8345 135.285 84.9399 135.285 84.9957Z" fill="#E0E0E0"/>
<path d="M135.217 87.175C135.217 87.2184 132.269 87.175 128.639 87.0541C125.008 86.9332 122.06 86.8154 122.063 86.772C122.067 86.7286 125.008 86.772 128.642 86.8929C132.275 87.0138 135.22 87.1285 135.217 87.175Z" fill="#E0E0E0"/>
<path d="M129.066 89.1683C129.066 89.2117 127.482 89.1993 125.529 89.1404C123.576 89.0815 121.995 88.9947 121.995 88.9513C121.995 88.9079 123.579 88.9203 125.532 88.9792C127.485 89.0381 129.066 89.1218 129.066 89.1683Z" fill="#E0E0E0"/>
<path d="M85.0848 46.4896L79.5874 60.2969L96.8565 67.1726L102.354 53.3653L85.0848 46.4896Z" fill="white"/>
<path d="M102.351 53.3665L102.267 53.3355L102.025 53.2425L101.095 52.8705L97.5518 51.46L85.0712 46.5L85.1084 46.4845L79.6152 60.2888L79.5966 60.2454L96.8636 67.1274H96.8295C98.4911 62.9672 99.8706 59.52 100.832 57.1113C101.315 55.9085 101.693 54.963 101.951 54.3213L102.261 53.5866L102.363 53.3324L102.267 53.5835C102.202 53.7509 102.106 53.9958 101.979 54.3151C101.724 54.9599 101.359 55.9054 100.875 57.1051C99.9171 59.5169 98.5438 62.9734 96.8915 67.1429V67.1677H96.8667L79.5749 60.326H79.5439V60.295C81.531 55.3102 83.4065 50.5982 85.0433 46.4907V46.4628H85.0681L97.5797 51.46L101.104 52.8736L102.034 53.2456L102.273 53.3417L102.351 53.3665Z" fill="#E0E0E0"/>
<path d="M85.3209 47.6112L80.5161 59.6788L96.5727 66.0718L101.377 54.0041L85.3209 47.6112Z" fill="#EBEBEB"/>
<path d="M80.5793 59.7152L89.1756 54.4452L90.7814 60.5212L94.1356 58.9526L96.6373 66.1074L80.5793 59.7152Z" fill="#E0E0E0"/>
<path d="M94.4889 55.49C94.3893 55.7401 94.2178 55.9552 93.996 56.1078C93.7742 56.2604 93.5121 56.3439 93.2429 56.3475C92.9737 56.3512 92.7095 56.2749 92.4836 56.1283C92.2577 55.9818 92.0805 55.7715 91.9741 55.5242C91.8678 55.2768 91.8372 55.0035 91.8863 54.7387C91.9354 54.474 92.0619 54.2298 92.2498 54.037C92.4377 53.8441 92.6786 53.7114 92.9419 53.6555C93.2053 53.5996 93.4793 53.6231 93.7294 53.723C93.8954 53.7889 94.0469 53.887 94.175 54.0115C94.3031 54.1361 94.4053 54.2847 94.4759 54.4488C94.5465 54.613 94.5839 54.7895 94.5862 54.9681C94.5884 55.1468 94.5553 55.3241 94.4889 55.49Z" fill="#E0E0E0"/>
<path d="M40.6296 74.6665C40.7462 74.7147 40.8726 74.7349 40.9985 74.7254C41.1493 74.7081 41.2895 74.6391 41.3953 74.5301C41.5179 74.3604 41.6268 74.181 41.7208 73.9938L43.7327 70.4846L44.4023 69.3252L44.7588 68.7052C44.8208 68.6065 44.8747 68.5028 44.92 68.3952C44.9526 68.2881 44.9526 68.1738 44.92 68.0666C44.8921 67.9564 44.8303 67.8577 44.7433 67.7845C44.6439 67.7142 44.5404 67.6501 44.4333 67.5923L43.742 67.2079L42.3036 66.4019L35.899 62.809C35.7726 62.7415 35.6257 62.7231 35.4866 62.7574C35.3475 62.7918 35.226 62.8764 35.1457 62.995L34.6652 63.8196C34.3552 64.3652 34.0452 64.9077 33.7352 65.4378L31.9372 68.5099C31.8659 68.6308 31.7946 68.7517 31.7264 68.8726C31.6573 68.9774 31.6216 69.1006 31.6241 69.226C31.6289 69.3485 31.6736 69.466 31.7512 69.5608C31.8392 69.6521 31.9446 69.7248 32.0612 69.7747L33.4159 70.5435L35.8401 71.9199L39.3493 73.9256L40.301 74.4774L40.5459 74.6231C40.6017 74.6572 40.6296 74.6758 40.6265 74.6789L40.5397 74.6386L40.2855 74.5053L39.3214 73.9783L35.7843 72.0191L33.3601 70.6458L32.0023 69.8863C31.8707 69.8283 31.7517 69.7451 31.652 69.6414C31.5551 69.5217 31.4996 69.3738 31.4939 69.2198C31.4872 69.0665 31.5284 68.9148 31.6117 68.7858C31.6799 68.6649 31.7512 68.544 31.8225 68.4231L33.5988 65.3572L34.5288 63.739L35.0155 62.9051C35.1181 62.753 35.2735 62.6444 35.4516 62.6003C35.6297 62.5562 35.8178 62.5798 35.9796 62.6664L42.378 66.2717L43.8164 67.0839L44.5015 67.4745C44.6198 67.5347 44.7337 67.6031 44.8425 67.6791C44.9506 67.7714 45.0274 67.8948 45.0626 68.0325C45.0998 68.1643 45.0998 68.3038 45.0626 68.4355C45.0132 68.5529 44.954 68.6659 44.8859 68.7734L44.5232 69.3934L43.8474 70.5497C42.9825 72.0129 42.2819 73.2002 41.7921 74.0341C41.6904 74.2216 41.5743 74.4009 41.4449 74.5704C41.3295 74.6835 41.1781 74.7526 41.0171 74.7657C40.9197 74.7729 40.8219 74.757 40.7319 74.7192C40.6955 74.7065 40.6611 74.6887 40.6296 74.6665Z" fill="#E0E0E0"/>
<path d="M38.9928 68.3115L39.774 69.6972L38.162 69.7282L36.55 69.7561L37.3808 68.3394L38.2116 66.9227L38.9928 68.3115Z" fill="#E0E0E0"/>
<path d="M144.123 127.41C144.123 127.457 114.471 127.494 77.9069 127.494C41.3424 127.494 11.6816 127.463 11.6816 127.41C11.6816 127.357 41.3269 127.323 77.9069 127.323C114.487 127.323 144.123 127.37 144.123 127.41Z" fill="#263238"/>
<path d="M44.4609 107.722L35.1021 98.3196L39.8079 89.6768C44.5137 83.6504 54.477 84.0379 54.477 84.0379C59.3924 83.7038 64.3304 84.007 69.1679 84.94C77.0822 86.49 76.4436 91.7166 76.4436 91.7166L77.5039 111.113L78.6416 126.908L49.455 127.497L44.4609 107.734" fill="#F58634"/>
<path d="M60.1842 126.573L34.0419 126.883C32.6018 126.9 31.1811 126.55 29.9131 125.867C28.6452 125.184 27.5717 124.19 26.7934 122.978C26.0152 121.766 25.5577 120.376 25.464 118.939C25.3704 117.502 25.6435 116.065 26.2578 114.762L37.4364 94.0323L47.6199 100.914L40.6728 115.32L61.8334 115.698L60.1842 126.573Z" fill="#F58634"/>
<path d="M75.52 88.5546L96.4977 120.943L84.2589 121.743C84.2589 121.743 76.9491 110.227 77.1134 110.462C77.4048 110.896 75.52 88.5546 75.52 88.5546Z" fill="#F58634"/>
<path d="M47.093 102.777C47.0937 102.72 47.1031 102.664 47.1209 102.61C47.1519 102.486 47.186 102.331 47.2325 102.139C47.3286 101.733 47.4712 101.144 47.6169 100.412C47.7626 99.6805 47.9269 98.8001 48.0292 97.8205C48.1551 96.7588 48.1551 95.686 48.0292 94.6244C47.861 93.5717 47.4938 92.5606 46.9473 91.6453C46.5081 90.8917 45.9883 90.188 45.3973 89.5466C44.9989 89.1081 44.5744 88.694 44.1263 88.3066C43.9554 88.1729 43.7919 88.0301 43.6365 87.8788C43.6869 87.9038 43.7347 87.934 43.7791 87.9687C43.8659 88.0338 44.0054 88.1237 44.1666 88.257C44.6327 88.6251 45.072 89.026 45.481 89.4567C46.092 90.0934 46.6286 90.7974 47.0806 91.5554C47.6463 92.4849 48.0254 93.5157 48.1966 94.5903C48.3193 95.6651 48.311 96.7508 48.1718 97.8236C48.0671 98.6965 47.9181 99.5636 47.7254 100.421C47.5642 101.156 47.4154 101.742 47.2883 102.145C47.2325 102.346 47.1829 102.501 47.1488 102.607C47.1357 102.665 47.117 102.722 47.093 102.777Z" fill="#263238"/>
<path d="M46.2498 103.893C46.2051 104.055 46.1449 104.212 46.07 104.362C45.946 104.672 45.76 105.087 45.5213 105.602C45.047 106.652 44.3743 108.097 43.5993 109.678C42.8243 111.259 42.0927 112.676 41.5502 113.708C41.2774 114.216 41.0542 114.638 40.8961 114.908C40.8207 115.058 40.7336 115.202 40.6357 115.339C40.6914 115.18 40.7598 115.027 40.8403 114.88C40.9984 114.57 41.203 114.154 41.4603 113.655L43.466 109.625C44.2255 108.054 44.9168 106.634 45.4314 105.571C45.6732 105.071 45.8716 104.656 46.0266 104.331C46.0887 104.179 46.1633 104.033 46.2498 103.893Z" fill="#263238"/>
<path d="M60.1841 126.573C60.1841 126.573 60.1841 126.554 60.1841 126.52C60.1841 126.486 60.1841 126.424 60.1841 126.359C60.1996 126.21 60.2213 126.003 60.2461 125.739C60.3081 125.187 60.3949 124.403 60.5034 123.414C60.7328 121.408 61.0614 118.587 61.4334 115.261L61.5078 115.342H53.7857L40.2976 115.32L36.2056 115.295L35.0927 115.28H34.8013H34.7021C34.7351 115.276 34.7684 115.276 34.8013 115.28H35.0927L36.2056 115.264L40.2976 115.239L53.8075 115.218H61.5295H61.6132V115.298C61.204 118.622 60.8599 121.443 60.6119 123.445C60.4879 124.431 60.3856 125.215 60.3019 125.767C60.2689 126.027 60.241 126.234 60.2182 126.387L60.1934 126.545C60.1903 126.554 60.1872 126.573 60.1841 126.573Z" fill="#263238"/>
<path d="M40.8557 115.549C40.6684 115.343 40.4945 115.124 40.3349 114.895C39.4994 113.846 38.4649 112.973 37.2907 112.325C37.0399 112.204 36.7957 112.069 36.5591 111.922C36.8343 111.987 37.0985 112.091 37.3434 112.232C38.5663 112.837 39.6238 113.729 40.4248 114.833C40.6008 115.051 40.7458 115.292 40.8557 115.549Z" fill="#263238"/>
<path d="M77.938 117.602C77.9153 117.513 77.9008 117.423 77.8946 117.332C77.8729 117.143 77.845 116.885 77.8078 116.56C77.7365 115.89 77.6404 114.92 77.5381 113.72C77.3242 111.318 77.0793 107.995 76.8623 104.324C76.6453 100.654 76.4934 97.3245 76.4066 94.9158C76.3632 93.7099 76.3322 92.7458 76.3198 92.0607C76.3198 91.7352 76.3198 91.4779 76.3043 91.2857C76.2996 91.1959 76.2996 91.1058 76.3043 91.016C76.3215 91.1049 76.3308 91.1951 76.3322 91.2857C76.3322 91.4748 76.357 91.7352 76.3756 92.0607C76.4097 92.7489 76.4562 93.7192 76.5151 94.9096C76.6298 97.3183 76.8003 100.641 77.0173 104.315C77.2343 107.988 77.4637 111.305 77.6373 113.711C77.7303 114.898 77.8047 115.881 77.8574 116.557C77.8822 116.867 77.9008 117.14 77.9163 117.329C77.9318 117.419 77.9391 117.51 77.938 117.602Z" fill="#263238"/>
<path d="M54.6012 99.9781C54.6025 99.8359 54.6139 99.694 54.6353 99.5534C54.6725 99.2589 54.719 98.8652 54.7779 98.3816C54.9143 97.3586 55.0879 95.9574 55.3173 94.333L55.4351 94.4074L53.4294 95.8117L51.3896 97.2315L51.2439 97.3338L51.2687 97.1571C51.5167 95.5482 51.7275 94.1594 51.8887 93.1271C51.9693 92.6528 52.0313 92.2622 52.0809 91.9708C52.0975 91.831 52.1266 91.6931 52.1677 91.5585C52.1679 91.6998 52.1555 91.8409 52.1305 91.9801C52.0933 92.2715 52.0468 92.6621 51.9848 93.1426C51.8453 94.1594 51.65 95.5513 51.4268 97.1726L51.309 97.0982L53.3457 95.6722L55.3545 94.2741L55.5002 94.1718L55.4754 94.3485C55.2367 95.9667 55.029 97.3679 54.8802 98.3785C54.8027 98.859 54.7407 99.2527 54.6942 99.5441C54.6762 99.6912 54.6451 99.8365 54.6012 99.9781Z" fill="#E0E0E0"/>
<path d="M66.2696 101.234C66.1578 101.145 66.0541 101.046 65.9596 100.939C65.7581 100.722 65.4853 100.434 65.1505 100.08L62.3821 97.0796L62.5155 97.0331C62.4504 97.7926 62.3822 98.6172 62.3109 99.4728C62.2396 100.328 62.1652 101.178 62.1001 101.953L62.0846 102.133L61.9668 101.999L59.2728 98.9613L58.5041 98.0747C58.4062 97.9733 58.319 97.8622 58.2437 97.743C58.3551 97.8379 58.4588 97.9415 58.5537 98.053L59.3535 98.9086L62.0877 101.906L61.9544 101.953C62.0195 101.181 62.0877 100.344 62.1621 99.4728C62.2365 98.6017 62.3047 97.7926 62.3698 97.0331L62.3853 96.8564L62.503 96.9866L65.2311 100.028L66.0092 100.917C66.1041 101.016 66.1911 101.122 66.2696 101.234Z" fill="#E0E0E0"/>
<path d="M72.141 100.818C72.0832 100.949 72.0126 101.074 71.9302 101.19L71.3102 102.188L69.0968 105.623L69.0224 105.505L71.428 105.09L73.877 104.678L74.0537 104.647L73.97 104.78L71.707 108.147L71.025 109.12C70.9493 109.239 70.8643 109.352 70.7708 109.458C70.832 109.331 70.9024 109.209 70.9816 109.092L71.6016 108.1L73.8181 104.69L73.8956 104.808L71.4466 105.233L69.0317 105.642L68.855 105.67L68.9542 105.524L71.2141 102.114L71.8775 101.138C71.9588 101.026 72.0468 100.919 72.141 100.818Z" fill="#E0E0E0"/>
<path d="M64.332 106.826C64.2738 106.955 64.2032 107.079 64.1212 107.195L63.5012 108.196L61.2909 111.628L61.2134 111.51L63.6252 111.095L66.0773 110.679L66.254 110.651L66.1517 110.797L63.8887 114.167L63.2222 115.134C63.1482 115.253 63.0631 115.365 62.968 115.469C63.0301 115.342 63.1005 115.22 63.1788 115.103C63.34 114.855 63.5508 114.523 63.7988 114.114L66.0153 110.704L66.0928 110.822L63.6438 111.247L61.2289 111.653L61.0522 111.684L61.1514 111.535L63.4113 108.125C63.6841 107.722 63.9073 107.393 64.0778 107.148C64.1547 107.035 64.2396 106.927 64.332 106.826Z" fill="#E0E0E0"/>
<path d="M81.2052 100.75C81.1438 100.878 81.0733 101.001 80.9944 101.119L80.3744 102.12L78.1641 105.552L78.0866 105.434L80.4984 105.019L82.9505 104.603L83.1272 104.575L83.028 104.721L80.7619 108.091C80.4891 108.488 80.2659 108.813 80.0954 109.055C80.0221 109.176 79.9369 109.289 79.8412 109.393C79.9038 109.266 79.9753 109.144 80.0551 109.027L80.6751 108.038L82.8916 104.628L82.9691 104.746L80.5201 105.168L78.1052 105.577L77.9316 105.608L78.0277 105.459L80.2876 102.049L80.9541 101.072C81.0271 100.957 81.1112 100.849 81.2052 100.75Z" fill="#E0E0E0"/>
<path d="M90.9394 116.355C90.8286 116.271 90.7249 116.178 90.6294 116.076L89.78 115.258L86.8629 112.4L86.9931 112.347C86.9683 113.11 86.9435 113.934 86.9156 114.793C86.8877 115.652 86.8536 116.504 86.8257 117.273V117.453L86.6986 117.326L83.859 114.427L83.0468 113.581C82.9459 113.485 82.8527 113.381 82.7678 113.271C82.8782 113.356 82.9819 113.449 83.0778 113.55L83.921 114.365L86.804 117.223L86.6707 117.276C86.6955 116.501 86.7234 115.664 86.7513 114.796C86.7792 113.928 86.8133 113.113 86.8412 112.35V112.173L86.9652 112.297L89.8389 115.199L90.6604 116.048C90.7618 116.143 90.8552 116.245 90.9394 116.355Z" fill="#E0E0E0"/>
<path d="M41.696 95.7714C41.6353 95.8996 41.5648 96.0229 41.4852 96.1403L40.8652 97.1416L38.6549 100.576L38.5774 100.459L40.9892 100.04L43.4413 99.6278L43.618 99.5968L43.5188 99.7456L41.2527 103.112L40.5893 104.079C40.514 104.198 40.4289 104.31 40.3351 104.414C40.3945 104.287 40.465 104.166 40.5459 104.051L41.1659 103.059C41.727 102.201 42.4958 101.023 43.3824 99.6495L43.4599 99.7673L41.0109 100.192L38.596 100.601L38.4224 100.629L38.5185 100.483C39.4268 99.1194 40.208 97.9414 40.7784 97.0734L41.4449 96.0969C41.5199 95.9819 41.6038 95.8731 41.696 95.7714Z" fill="#E0E0E0"/>
<path d="M29.4385 118.953C29.5429 119.047 29.6384 119.151 29.7237 119.263L30.4801 120.172L33.05 123.343L32.9136 123.38C33.0252 122.627 33.143 121.808 33.2701 120.956C33.3972 120.103 33.5212 119.263 33.6359 118.498L33.6607 118.321L33.7723 118.463L36.2709 121.663L36.9808 122.593C37.071 122.7 37.1519 122.815 37.2226 122.937C37.1208 122.841 37.0265 122.737 36.9405 122.627L36.1965 121.722L33.67 118.556L33.8064 118.522C33.6948 119.288 33.5739 120.119 33.4468 120.981C33.3197 121.842 33.1988 122.648 33.0841 123.402L33.0593 123.578L32.9477 123.439L30.4181 120.234L29.6958 119.304C29.6022 119.193 29.5163 119.076 29.4385 118.953Z" fill="#E0E0E0"/>
<path d="M57.4315 103.943C57.2927 103.973 57.1517 103.991 57.0099 103.999L55.8319 104.101L51.7585 104.411L51.8081 104.281L53.5937 105.955L55.401 107.66L55.5312 107.784H55.3514L51.2997 108.007L50.1279 108.057C49.9876 108.069 49.8466 108.069 49.7063 108.057C49.8443 108.029 49.9842 108.011 50.1248 108.004L51.2935 107.911L55.3421 107.632L55.2956 107.762L53.4821 106.063L51.7027 104.383L51.5725 104.259H51.7492L55.8257 104.014L57.0037 103.955C57.1458 103.941 57.2888 103.936 57.4315 103.943Z" fill="#E0E0E0"/>
<path d="M50.5618 119.567C50.6652 119.664 50.7625 119.768 50.8532 119.877L51.6251 120.77L54.2632 123.888L54.1268 123.926C54.2229 123.169 54.3283 122.351 54.4368 121.498C54.5453 120.646 54.6569 119.8 54.7468 119.034L54.7716 118.854L54.8832 118.994L57.45 122.14L58.1785 123.07C58.2688 123.178 58.3516 123.292 58.4265 123.411C58.3219 123.316 58.2255 123.212 58.1382 123.101L57.3756 122.211L54.7716 119.111L54.9049 119.071C54.8088 119.84 54.7034 120.671 54.5949 121.536C54.4864 122.4 54.3779 123.21 54.2849 123.966L54.2601 124.143L54.1485 124.006L51.5538 120.85L50.816 119.92C50.7198 119.811 50.6346 119.693 50.5618 119.567Z" fill="#E0E0E0"/>
<path d="M38.2826 108.109C38.1439 108.14 38.0029 108.159 37.861 108.165L36.6861 108.264L32.6127 108.574L32.6592 108.441L34.4479 110.118L36.2552 111.823L36.3854 111.947H36.2056L32.1539 112.17L30.9821 112.22C30.8449 112.232 30.707 112.232 30.5698 112.22C30.7075 112.19 30.8476 112.173 30.9883 112.167L32.157 112.074L36.2056 111.792L36.1591 111.926L34.3456 110.227L32.5631 108.547L32.436 108.423H32.6127L36.6892 108.175L37.8672 108.119C38.0053 108.105 38.1441 108.102 38.2826 108.109Z" fill="#E0E0E0"/>
<path d="M48.8321 119.217C48.6933 119.246 48.5523 119.264 48.4105 119.269L47.2325 119.372L43.1591 119.682L43.2087 119.548L44.9943 121.225L46.8016 122.93L46.9318 123.054H46.7551L42.7003 123.275L41.5285 123.327C41.3883 123.339 41.2472 123.339 41.1069 123.327C41.2446 123.298 41.3847 123.28 41.5254 123.275L42.6941 123.182L46.7427 122.899L46.6962 123.033L44.8827 121.334L43.1033 119.66L42.9731 119.539H43.1498L47.2263 119.291L48.4074 119.235C48.5481 119.216 48.6903 119.21 48.8321 119.217Z" fill="#E0E0E0"/>
<path d="M72.6432 90.9571C72.5043 90.9869 72.3634 91.0055 72.2216 91.0129L71.0436 91.1121L66.9733 91.4221L67.0198 91.2919L68.8054 92.9659L70.6127 94.6709L70.7429 94.7949H70.5662L66.5114 95.0181L65.3396 95.0677C65.1993 95.0799 65.0582 95.0799 64.918 95.0677C65.0557 95.038 65.1957 95.0204 65.3365 95.015L66.5052 94.922L70.5569 94.643L70.5073 94.7732L68.7 93.0775L66.9206 91.3973L66.7904 91.2733H66.9671L71.0436 91.0253L72.2247 90.9695C72.3637 90.9549 72.5036 90.9508 72.6432 90.9571Z" fill="#E0E0E0"/>
<path d="M61.0617 119.217C61.0617 119.217 66.2759 117.713 68.0026 117.273C68.6753 117.103 71.5552 118.622 73.5454 119.886C73.5454 119.886 76.2858 121.511 76.0657 122.01C75.8208 122.562 74.8257 122.45 73.1982 121.7C73.1982 121.7 73.7624 123.334 72.6557 123.296C72.6557 123.296 73.2044 125.063 72.169 125.246C71.1336 125.429 70.8918 123.175 69.9804 123.055C69.069 122.934 67.1904 122.81 67.1904 122.81C67.1904 122.81 65.6187 125.414 64.4004 125.6C63.1821 125.786 60.3704 125.454 60.3704 125.454L61.0617 119.217Z" fill="#954F1B"/>
<path d="M69.9617 119.576C70.4721 119.804 70.96 120.079 71.4187 120.398C71.9054 120.673 72.3643 120.995 72.7889 121.359C71.7904 120.859 70.8434 120.262 69.9617 119.576Z" fill="#954F1B"/>
<path d="M69.6548 120.59C70.2504 120.777 70.829 121.015 71.3846 121.3C71.9588 121.533 72.5126 121.814 73.04 122.14C72.4441 121.955 71.8654 121.718 71.3102 121.433C70.7348 121.201 70.1809 120.919 69.6548 120.59Z" fill="#954F1B"/>
<path d="M70.2126 123.011C71.0002 123.008 71.7844 123.113 72.5438 123.321C71.7564 123.323 70.9722 123.219 70.2126 123.011Z" fill="#954F1B"/>
<path d="M54.2757 65.41C54.3371 65.6109 54.338 65.8254 54.2782 66.0268C54.2185 66.2282 54.1008 66.4075 53.9397 66.5424C53.7787 66.6773 53.5816 66.7618 53.3728 66.7853C53.1641 66.8089 52.9531 66.7704 52.766 66.6748C52.0592 66.3183 51.9693 65.3418 52.1088 64.5637C52.2483 63.7856 52.5118 62.9517 52.1863 62.2294C51.9352 61.6776 51.3927 61.3273 50.9711 60.8933C50.5991 60.5161 50.3195 60.0578 50.1544 59.5543C49.9893 59.0509 49.9431 58.516 50.0194 57.9917C50.1088 57.469 50.3407 56.9811 50.6897 56.5817C51.0387 56.1824 51.4912 55.8872 51.9972 55.7287C53.0357 55.4404 54.316 55.7597 55.0972 55.0064C55.6583 54.4608 55.6924 53.5711 56.1264 52.9201C56.7991 51.9095 58.222 51.7483 59.4248 51.9126C60.6276 52.0769 61.849 52.4644 63.027 52.1699C64.0097 51.925 64.8157 51.2399 65.7395 50.8183C66.7464 50.3581 67.8719 50.224 68.9586 50.4349C70.0454 50.6457 71.0391 51.1909 71.8008 51.9943C72.5625 52.7976 73.054 53.8189 73.2067 54.9154C73.3595 56.0118 73.1657 57.1286 72.6525 58.1095C72.3104 58.8274 71.7281 59.403 71.0064 59.737" fill="#263238"/>
<path d="M60.2587 91.0191C61.0492 91.0175 61.8316 90.859 62.5604 90.5529C63.2892 90.2467 63.9501 89.799 64.5046 89.2355C65.0591 88.6721 65.4962 88.0042 65.7907 87.2705C66.0851 86.5369 66.2311 85.7521 66.22 84.9617L66.1425 79.2639C66.1425 79.2639 70.9289 78.7834 71.2451 74.0404C71.5613 69.2974 71.335 58.3513 71.335 58.3513C68.7013 57.0447 65.7669 56.4642 62.8342 56.6697C59.9014 56.8751 57.0766 57.859 54.6508 59.52L53.9192 60.0253L54.2757 85.1167C54.2945 86.6902 54.9334 88.1928 56.0537 89.298C57.1739 90.4031 58.685 91.0216 60.2587 91.0191Z" fill="#954F1B"/>
<path d="M70.0826 66.96C69.9096 66.9401 69.7498 66.8572 69.6339 66.7271C69.5179 66.5971 69.4539 66.429 69.4539 66.2547C69.4539 66.0805 69.5179 65.9123 69.6339 65.7823C69.7498 65.6523 69.9096 65.5694 70.0826 65.5495C70.1203 65.5401 70.1597 65.5401 70.1973 65.5495C70.3704 65.5694 70.5302 65.6523 70.6461 65.7823C70.762 65.9123 70.8261 66.0805 70.8261 66.2547C70.8261 66.429 70.762 66.5971 70.6461 66.7271C70.5302 66.8572 70.3704 66.9401 70.1973 66.96C70.1594 66.9662 70.1206 66.9662 70.0826 66.96Z" fill="#263238"/>
<path d="M71.0126 65.4286C70.9351 65.5092 70.4887 65.1186 69.8346 65.0845C69.1805 65.0504 68.6876 65.3573 68.6225 65.2705C68.5574 65.1837 68.669 65.0876 68.886 64.9419C69.1759 64.7559 69.518 64.6678 69.8617 64.6907C70.2055 64.7136 70.5328 64.8462 70.7956 65.069C70.9909 65.2426 71.0529 65.41 71.0126 65.4286Z" fill="#263238"/>
<path d="M63.4518 65.5898C63.5642 65.6677 63.6511 65.7772 63.7013 65.9044C63.7515 66.0317 63.7628 66.171 63.7339 66.3046C63.7049 66.4383 63.6369 66.5604 63.5385 66.6555C63.4401 66.7505 63.3158 66.8142 63.1811 66.8385C63.0465 66.8628 62.9077 66.8467 62.7823 66.7921C62.6569 66.7375 62.5505 66.6469 62.4766 66.5318C62.4026 66.4167 62.3645 66.2822 62.3671 66.1455C62.3696 66.0087 62.4126 65.8757 62.4908 65.7634C62.5953 65.6132 62.7552 65.5105 62.9354 65.4779C63.1155 65.4454 63.3012 65.4856 63.4518 65.5898Z" fill="#263238"/>
<path d="M63.8825 65.6177C63.8019 65.6983 63.3555 65.3077 62.7045 65.2736C62.0535 65.2395 61.5575 65.5464 61.4893 65.4596C61.4552 65.4193 61.5389 65.2767 61.7528 65.131C62.0428 64.945 62.3848 64.8569 62.7286 64.8798C63.0723 64.9027 63.3997 65.0353 63.6624 65.2581C63.8577 65.4317 63.9197 65.5836 63.8825 65.6177Z" fill="#263238"/>
<path d="M66.22 71.1543C66.22 71.1047 66.6261 71.0427 67.2895 70.9869C67.46 70.9869 67.5995 70.9466 67.615 70.8567C67.6275 70.6858 67.5943 70.5146 67.5189 70.3607C67.3732 69.9174 67.2275 69.471 67.0725 69.0029C66.4525 67.0716 66.0464 65.4813 66.1425 65.4503C66.2386 65.4193 66.8152 66.96 67.4259 68.8913C67.5685 69.3625 67.708 69.8213 67.8413 70.2553C67.9397 70.481 67.9593 70.7332 67.8971 70.9714C67.8694 71.0357 67.8269 71.0926 67.773 71.1373C67.7191 71.182 67.6554 71.2133 67.5871 71.2287C67.4905 71.2503 67.3913 71.2576 67.2926 71.2504C66.623 71.238 66.22 71.207 66.22 71.1543Z" fill="#263238"/>
<path d="M64.0499 71.762C65.0463 72.2734 66.1081 72.6458 67.2057 72.8687C66.9651 73.1992 66.6196 73.4386 66.2256 73.5478C65.8316 73.657 65.4122 73.6296 65.0357 73.4701C63.6376 72.8718 64.0499 71.762 64.0499 71.762Z" fill="white"/>
<path d="M66.161 79.1957C63.9665 79.1174 61.845 78.388 60.0664 77.1001C60.0664 77.1001 61.3436 80.5938 66.1021 80.4264L66.161 79.1957Z" fill="#954F1B"/>
<path d="M71.3752 59.551C71.3752 59.551 68.5077 61.008 64.7102 59.2038C62.2302 58.0196 59.3255 57.4709 58.6993 57.9824C58.0731 58.4939 57.9894 61.0359 55.559 61.8264C55.559 61.8264 55.8225 66.681 53.8819 66.5446C51.9413 66.4082 53.0077 58.8659 53.0077 58.8659L57.698 56.4603L62.8471 55.3846L67.7296 55.9767L71.5178 56.9346L71.3752 59.551Z" fill="#263238"/>
<path d="M54.2353 64.9853C54.1578 64.945 51.0268 63.8414 50.9555 67.0933C50.8842 70.3452 54.1609 69.7469 54.1671 69.6539C54.1733 69.5609 54.2353 64.9853 54.2353 64.9853Z" fill="#954F1B"/>
<path d="M53.1999 68.3984C53.1999 68.3984 53.141 68.4387 53.0449 68.479C52.9088 68.5343 52.7564 68.5343 52.6202 68.479C52.2792 68.3457 52.0002 67.7939 52.0002 67.208C51.9998 66.9287 52.0601 66.6526 52.1769 66.3989C52.2103 66.2982 52.2675 66.207 52.3436 66.1331C52.4196 66.0591 52.5124 66.0046 52.614 65.9742C52.6796 65.9622 52.7473 65.9718 52.8071 66.0014C52.8668 66.031 52.9155 66.0791 52.9457 66.1385C52.986 66.2284 52.9643 66.2935 52.9798 66.2997C52.9953 66.3059 53.0511 66.247 53.0294 66.1137C53.0124 66.0326 52.9687 65.9595 52.9054 65.906C52.8176 65.837 52.7065 65.8047 52.5954 65.8161C52.4612 65.8392 52.3352 65.8964 52.2293 65.9822C52.1235 66.0679 52.0414 66.1794 51.9909 66.3059C51.8478 66.585 51.7734 66.8943 51.7739 67.208C51.7739 67.8621 52.1025 68.4852 52.5675 68.6309C52.6545 68.6574 52.7462 68.6645 52.8362 68.6516C52.9262 68.6388 53.0123 68.6063 53.0883 68.5565C53.1999 68.479 53.1999 68.4046 53.1999 68.3984Z" fill="#954F1B"/>
<path d="M52.5798 54.808C52.9508 54.6992 53.347 54.7135 53.7091 54.8488C54.0713 54.984 54.3798 55.2329 54.5886 55.5582C54.2996 55.3393 53.9878 55.1523 53.6586 55.0002C53.3067 54.8989 52.9451 54.8344 52.5798 54.808Z" fill="#263238"/>
<path d="M54.536 52.8612C54.5949 52.8612 54.505 53.5463 54.6166 54.3585C54.7131 54.8468 54.866 55.3222 55.0723 55.7752C55.0723 55.7752 54.9359 55.6605 54.7995 55.4187C54.6244 55.0969 54.5089 54.7461 54.4585 54.3833C54.3682 53.8766 54.3947 53.3561 54.536 52.8612Z" fill="#263238"/>
<path d="M67.894 63.86C67.8754 63.8228 68.0149 63.7081 68.2784 63.6027C68.9779 63.3322 69.7544 63.3399 70.4484 63.6244C70.7088 63.736 70.8483 63.8507 70.8297 63.8879C70.7894 63.9747 70.1632 63.7298 69.3603 63.7298C68.5574 63.7298 67.9312 63.9561 67.894 63.86Z" fill="#263238"/>
<path d="M60.6398 63.1842C60.6212 63.147 60.7607 63.0354 61.0242 62.9269C61.3711 62.7928 61.7405 62.7265 62.1123 62.7316C62.4858 62.7315 62.8556 62.8053 63.2004 62.9486C63.4608 63.0602 63.5972 63.1749 63.5817 63.2152C63.5662 63.2555 62.9152 63.0571 62.1092 63.054C61.3032 63.0509 60.6832 63.271 60.6398 63.1842Z" fill="#263238"/>
<path d="M67.333 64.3808C67.3399 64.4447 67.3399 64.5092 67.333 64.573C67.333 64.7094 67.333 64.8831 67.3485 65.097C67.364 65.3109 67.3485 65.5991 67.3671 65.9091C67.3554 66.2669 67.4079 66.6239 67.5221 66.9631C67.6716 67.4032 67.9303 67.7982 68.274 68.111C68.6178 68.4239 69.0353 68.6444 69.4875 68.7518C69.7469 68.8152 70.0146 68.8382 70.2811 68.82C70.5582 68.8076 70.8315 68.75 71.0902 68.6495C71.6416 68.4429 72.1114 68.0634 72.4294 67.5677C72.7303 67.0942 72.8815 66.5411 72.8634 65.9804C72.8634 65.4255 72.8634 64.8923 72.8634 64.3808L72.9378 64.4552L68.9078 64.418L67.7391 64.3963H67.4291H67.3144C67.4471 64.3816 67.5807 64.3754 67.7143 64.3777L68.8644 64.3561L72.9378 64.3188H73.0401V64.3963C73.0401 64.9078 73.0401 65.441 73.0401 65.9959C73.0609 66.5872 72.902 67.1708 72.5844 67.6699C72.2473 68.1948 71.7491 68.5962 71.1646 68.8138C70.8899 68.9193 70.5998 68.979 70.3059 68.9905C70.0256 69.0072 69.7444 68.9811 69.472 68.913C68.9977 68.7984 68.561 68.5637 68.2037 68.2314C67.8465 67.8992 67.5808 67.4805 67.4322 67.0158C67.3208 66.6613 67.2746 66.2895 67.2958 65.9184C67.2958 65.6084 67.2958 65.3201 67.3113 65.0845C67.3268 64.8489 67.3113 64.7032 67.3268 64.5668C67.3239 64.5048 67.3259 64.4426 67.333 64.3808Z" fill="#263238"/>
<path d="M59.7347 64.2196C59.7347 64.2196 59.7347 64.2909 59.7347 64.4118V64.9357C59.7347 65.1651 59.7347 65.4379 59.7502 65.751C59.7421 66.1086 59.7945 66.4649 59.9052 66.805C60.048 67.2132 60.2823 67.5833 60.5903 67.8869C60.9459 68.2325 61.3882 68.4756 61.8706 68.5906C62.4039 68.7191 62.9637 68.6835 63.4764 68.4883C64.0263 68.2819 64.4949 67.9036 64.8125 67.4095C65.1145 66.9365 65.2668 66.3833 65.2496 65.8223C65.2496 65.2674 65.2496 64.7311 65.2496 64.2196L65.324 64.294L61.294 64.2568L60.1284 64.2382H59.8184H59.7037C59.8354 64.2235 59.968 64.2173 60.1005 64.2196L61.2506 64.201L65.324 64.1638H65.3984V64.2382C65.3984 64.7497 65.3984 65.286 65.3984 65.8409C65.4171 66.4323 65.2572 67.0157 64.9396 67.5149C64.6027 68.0379 64.1057 68.4381 63.5229 68.6557C63.2482 68.761 62.9581 68.8206 62.6642 68.8324C62.3829 68.849 62.1007 68.8229 61.8272 68.7549C61.3206 68.6302 60.8576 68.3697 60.488 68.0016C60.1682 67.6803 59.9283 67.2886 59.7874 66.8577C59.676 66.5032 59.6298 66.1314 59.651 65.7603C59.651 65.4503 59.651 65.162 59.6696 64.9264C59.6882 64.6908 59.6696 64.5451 59.6696 64.4087C59.6809 64.3426 59.7029 64.2787 59.7347 64.2196Z" fill="#263238"/>
<path d="M67.401 64.6071C66.692 64.7147 65.9709 64.7147 65.262 64.6071C65.9706 64.4955 66.6923 64.4955 67.401 64.6071Z" fill="#263238"/>
<path d="M53.8198 64.6474C54.8054 64.5653 55.7947 64.5352 56.7834 64.5575C57.7729 64.5295 58.7631 64.5533 59.7501 64.6288C58.7648 64.7148 57.7753 64.7449 56.7865 64.7187C55.7971 64.7504 54.8066 64.7265 53.8198 64.6474Z" fill="#263238"/>
<path d="M85.7097 123.148C86.4063 124.44 87.4614 125.505 88.7482 126.212C90.035 126.92 91.4988 127.241 92.9637 127.137C94.6944 127.016 96.3321 126.308 97.6064 125.131C98.8807 123.954 99.7154 122.377 99.9728 120.661L101.771 100.08L94.5695 98.301L91.6276 114.421C91.6276 114.421 90.09 121.176 85.7097 123.148Z" fill="#954F1B"/>
<path d="M94.5044 99.7921L94.7431 96.1806C94.7431 96.1806 95.763 88.0772 95.763 87.2836C95.763 86.3722 96.2001 86.149 96.538 86.1738C97.0619 86.2079 97.4339 86.8558 97.468 87.6401C97.468 87.9098 97.4432 92.194 97.4432 92.194C97.6909 91.7892 97.9675 91.4027 98.2709 91.0377C98.8909 90.2348 100.391 89.776 101.92 89.8256C103.448 89.8752 103.866 90.024 103.876 90.6161C103.87 90.7292 103.84 90.8397 103.786 90.9395C103.732 91.0393 103.657 91.1258 103.566 91.1927C103.284 91.4278 102.925 91.5513 102.558 91.5399C100.112 91.4965 99.4582 92.8016 99.4582 92.8016L99.4272 93.2759C99.4272 93.2759 100.912 92.2126 102.096 92.6559C102.271 92.7206 102.431 92.8197 102.567 92.9473C102.901 92.9486 103.228 93.0371 103.517 93.204C103.806 93.3708 104.046 93.6102 104.213 93.8985C104.381 94.1867 104.47 94.5138 104.472 94.8472C104.475 95.1806 104.39 95.5088 104.226 95.7993C104.162 95.9483 104.054 96.0742 103.917 96.1601C103.78 96.246 103.619 96.2878 103.457 96.2798C103.293 96.2306 103.145 96.1398 103.026 96.0163C102.957 95.9574 102.883 95.9035 102.806 95.8551L102.533 97.1664C102.533 97.1664 101.761 100.08 101.569 101.389" fill="#954F1B"/>
<path d="M95.2079 99.51C95.6543 99.634 96.1162 99.3054 96.358 98.9086C96.5998 98.5118 96.7021 98.0437 96.9129 97.6283C97.5515 96.3883 99.0829 95.7993 99.6688 94.5283C99.7494 94.3516 99.7928 94.1098 99.6378 93.992C99.4828 93.8742 99.2906 93.9703 99.1325 94.0571L95.1025 96.2891" fill="#954F1B"/>
<path d="M95.0996 96.283C95.2251 96.1717 95.3635 96.0759 95.5119 95.9978C95.7847 95.8273 96.1846 95.5917 96.6806 95.3034L98.4321 94.3021L98.9374 94.0169C99.1257 93.8679 99.3655 93.7999 99.6039 93.8278C99.6776 93.8516 99.7422 93.8973 99.7893 93.9587C99.8364 94.0202 99.8636 94.0945 99.8674 94.1719C99.8755 94.2993 99.8532 94.4268 99.8023 94.5439C99.7091 94.7507 99.5926 94.9462 99.4551 95.1267C98.8971 95.8521 98.1748 96.3078 97.654 96.8379C97.4008 97.0778 97.1854 97.3548 97.0154 97.6594C96.8635 97.9446 96.7674 98.2422 96.6496 98.5119C96.5772 98.737 96.4565 98.9435 96.2958 99.117C96.1352 99.2905 95.9385 99.4268 95.7196 99.5163C95.3879 99.6155 95.2019 99.5163 95.2143 99.4977C95.3749 99.5026 95.5349 99.4763 95.6855 99.4202C95.8794 99.3212 96.0506 99.183 96.1883 99.0144C96.326 98.8457 96.4271 98.6503 96.4853 98.4406C96.5846 98.1403 96.6994 97.8454 96.8294 97.5571C97.0004 97.227 97.2234 96.9266 97.4897 96.6674C98.0229 96.1094 98.7297 95.6413 99.2505 94.9686C99.3732 94.8061 99.4772 94.6304 99.5605 94.4447C99.638 94.268 99.6256 94.0913 99.5264 94.0727C99.4272 94.0541 99.2319 94.1378 99.0614 94.2339L98.5468 94.5129L96.7705 95.4801C96.2621 95.7498 95.8405 95.9606 95.5615 96.1001C95.4169 96.1825 95.2614 96.2441 95.0996 96.283Z" fill="#954F1B"/>
<path d="M99.3713 93.31C99.3987 93.0167 99.4954 92.734 99.6534 92.4854C99.8371 92.2303 100.098 92.0412 100.397 91.946C100.773 91.8227 101.165 91.7599 101.56 91.76C101.965 91.764 102.37 91.7287 102.769 91.6546C103.103 91.5864 103.413 91.4314 103.668 91.2051C103.753 91.1269 103.818 91.0304 103.86 90.923C103.902 90.8156 103.919 90.7 103.91 90.5851C103.905 90.5006 103.877 90.419 103.829 90.3495C103.814 90.3495 103.829 90.4394 103.845 90.5882C103.843 90.6921 103.819 90.7944 103.774 90.8881C103.729 90.9818 103.664 91.0646 103.584 91.1307C103.336 91.3257 103.045 91.4576 102.735 91.5151C102.344 91.5792 101.949 91.6083 101.554 91.6019C101.144 91.5974 100.736 91.6613 100.348 91.791C100.023 91.9042 99.7447 92.1223 99.5573 92.411C99.4359 92.6053 99.3656 92.8271 99.3527 93.0558C99.3351 93.1406 99.3416 93.2286 99.3713 93.31Z" fill="#954F1B"/>
<path d="M97.4463 87.3363C97.4199 87.6199 97.4199 87.9052 97.4463 88.1888C97.4463 88.7716 97.4463 89.4691 97.468 90.2379C97.4897 91.0067 97.468 91.7042 97.468 92.287C97.4493 92.5712 97.4556 92.8564 97.4866 93.1395C97.5544 92.8615 97.5887 92.5763 97.5889 92.2901C97.6261 91.7662 97.6509 91.0501 97.6478 90.2379C97.6447 89.4257 97.6137 88.7065 97.5765 88.1826C97.5635 87.8966 97.5199 87.6129 97.4463 87.3363Z" fill="#954F1B"/>
<path d="M100.338 94.2618C100.425 94.2409 100.508 94.2086 100.586 94.1657C100.687 94.114 100.798 94.0845 100.912 94.0791C101.025 94.0738 101.138 94.0927 101.244 94.1347C101.308 94.1698 101.363 94.2211 101.402 94.2836C101.441 94.346 101.463 94.4175 101.467 94.4912C101.477 94.676 101.463 94.8615 101.427 95.043C101.375 95.2711 101.412 95.5101 101.529 95.7126C101.603 95.8166 101.7 95.9016 101.814 95.9609C101.927 96.0201 102.052 96.0519 102.18 96.0536C102.305 96.0527 102.429 96.0264 102.544 95.9763C102.66 95.9262 102.763 95.8534 102.849 95.7622C103.011 95.6 103.119 95.3923 103.159 95.1669C103.208 94.8024 103.203 94.4326 103.144 94.0696C103.112 93.824 103.037 93.5859 102.924 93.3658C102.837 93.2108 102.756 93.152 102.75 93.1582C102.744 93.1644 102.8 93.2418 102.865 93.3937C102.95 93.6166 103.003 93.8504 103.023 94.0882C103.064 94.4376 103.059 94.7909 103.008 95.139C102.968 95.3362 102.866 95.5153 102.716 95.6494C102.566 95.7835 102.377 95.8655 102.177 95.883C102.076 95.8824 101.977 95.8583 101.887 95.8126C101.797 95.7668 101.719 95.7007 101.659 95.6196C101.565 95.4495 101.536 95.2516 101.575 95.0615C101.61 94.8662 101.618 94.667 101.6 94.4694C101.591 94.3751 101.558 94.2846 101.504 94.2069C101.449 94.1293 101.376 94.067 101.29 94.0262C101.17 93.9802 101.04 93.9636 100.912 93.9776C100.783 93.9916 100.66 94.0359 100.552 94.1068C100.407 94.1936 100.32 94.2401 100.338 94.2618Z" fill="#954F1B"/>
<path d="M102.778 95.6319C102.756 95.7129 102.765 95.7989 102.803 95.8737C102.847 95.9801 102.914 96.0751 103 96.1514C103.086 96.2277 103.188 96.2833 103.299 96.3139C103.466 96.3498 103.639 96.3418 103.802 96.2908C103.965 96.2397 104.112 96.1473 104.229 96.0225C104.508 95.7155 104.658 95.3123 104.647 94.8972C104.647 94.4872 104.52 94.0873 104.282 93.7533C104.087 93.481 103.823 93.2666 103.516 93.1333C103.315 93.0426 103.098 92.991 102.877 92.9814C102.722 92.9814 102.639 92.9814 102.639 93.0062C102.925 93.0432 103.204 93.1226 103.466 93.2418C103.742 93.3786 103.978 93.5821 104.155 93.8339C104.361 94.1465 104.469 94.5136 104.465 94.8879C104.475 95.2597 104.347 95.6221 104.105 95.9047C104.007 96.016 103.882 96.1003 103.742 96.1497C103.602 96.1991 103.451 96.2119 103.305 96.1868C103.208 96.165 103.116 96.1224 103.036 96.062C102.956 96.0015 102.891 95.9246 102.843 95.8365C102.8 95.7187 102.8 95.6319 102.778 95.6319Z" fill="#954F1B"/>
<path d="M99.8332 98.4963C99.7 98.4542 99.5571 98.4542 99.424 98.4963C99.075 98.5726 98.7611 98.7623 98.5312 99.0357L98.6738 99.0791C98.6549 98.8872 98.6239 98.6966 98.5808 98.5087C98.4574 97.8422 98.1515 97.223 97.6973 96.72C98.0009 97.3015 98.2419 97.9135 98.4165 98.5459C98.4599 98.7381 98.4909 98.9241 98.5126 99.0977L98.5374 99.2899L98.6583 99.138C98.8639 98.8846 99.1384 98.6962 99.4488 98.5955C99.6813 98.5242 99.8332 98.518 99.8332 98.4963Z" fill="#954F1B"/>
<path d="M99.9107 91.2082C99.8704 91.2268 100.035 91.5182 100.413 91.6949C100.791 91.8716 101.126 91.7693 101.11 91.7259C101.095 91.6825 100.8 91.6856 100.49 91.5399C100.18 91.3942 99.951 91.1772 99.9107 91.2082Z" fill="#954F1B"/>
<path d="M93.2643 102.13L102.313 102.777C102.313 102.777 100.921 118.789 100.652 121.272C100.382 123.755 98.7916 127.5 93.2643 127.5C87.737 127.5 86.7078 125.618 84.2495 121.743C87.148 119.734 91.7515 113.736 91.7515 113.736L93.2643 102.13Z" fill="#F58634"/>
<path d="M97.5301 104.284C97.4835 104.419 97.4276 104.551 97.3627 104.678L96.8574 105.744L95.0718 109.43L94.9819 109.322L97.3286 108.624L99.7125 107.923L99.8861 107.874L99.8024 108.032L97.9424 111.643L97.3937 112.682C97.333 112.809 97.2614 112.93 97.1798 113.045C97.2272 112.912 97.2831 112.783 97.3472 112.657C97.4774 112.391 97.6572 112.037 97.8556 111.6L99.6567 107.964L99.7466 108.072L97.3658 108.779L95.016 109.467L94.8455 109.517L94.9261 109.359L96.7768 105.71C97.0031 105.279 97.186 104.926 97.3224 104.662C97.3808 104.531 97.4503 104.404 97.5301 104.284Z" fill="#E0E0E0"/>
<path d="M96.6744 119.685C96.5356 119.715 96.3946 119.733 96.2528 119.741L95.0748 119.843L91.0014 120.153L91.051 120.02L92.8366 121.694L94.6439 123.399L94.7741 123.523H94.5943L90.5426 123.746L89.3708 123.795C89.2305 123.808 89.0895 123.808 88.9492 123.795C89.0872 123.768 89.2271 123.752 89.3677 123.746L90.5364 123.65L94.585 123.371L94.5385 123.504L92.725 121.802L90.9456 120.122L90.8154 120.001H90.9921L95.0686 119.756L96.2497 119.697C96.3908 119.682 96.5327 119.678 96.6744 119.685Z" fill="#E0E0E0"/>
<path d="M112.785 62.4868L103.556 59.1729L94.4299 62.4433C93.2643 62.992 92.2413 63.3238 92.2413 64.4088V69.8213C92.2197 73.623 93.2578 77.3554 95.239 80.6001C97.2186 83.8744 100.152 86.4651 103.646 88.0246C107.366 86.8125 110.156 83.576 111.877 80.8108C113.863 77.5678 114.907 73.8353 114.89 70.0322V65.1652C114.89 63.6152 114.065 62.8588 112.785 62.4868Z" fill="#F58634"/>
<g opacity="0.3">
<path d="M103.646 84.8749C100.877 83.6262 98.5569 81.56 96.9967 78.9539C95.426 76.3898 94.6005 73.4389 94.6128 70.432V66.65C94.6128 65.7882 95.1336 64.9822 96.1628 64.5017L103.559 61.7365V59.1852L94.4299 62.4433C93.472 62.8618 92.2413 63.3237 92.2413 64.4087V69.8213C92.2197 73.6229 93.2578 77.3554 95.239 80.6C97.2186 83.8743 100.152 86.465 103.646 88.0245V84.8749Z" fill="black"/>
</g>
<g opacity="0.4">
<path d="M103.646 88.0152C104.272 87.8107 104.879 87.5514 105.46 87.2402C106.887 86.4326 108.185 85.4148 109.31 84.2208C110.327 83.1254 111.222 81.9228 111.979 80.6341C113.989 77.3672 115.001 73.5842 114.89 69.75V65.2829C114.89 63.0571 113.743 62.8928 112.782 62.4743L103.553 59.1604V61.7117L111.037 64.5234C112.066 65.0039 112.587 65.8099 112.587 66.6686V70.4661C112.599 73.472 111.773 76.422 110.203 78.9849C108.676 81.579 106.383 83.6366 103.64 84.8749L103.646 88.0152Z" fill="black"/>
</g>
<path opacity="0.5" d="M106.005 70.1902V69.4586C106.005 68.823 105.753 68.2135 105.304 67.7641C104.854 67.3147 104.245 67.0623 103.609 67.0623C102.974 67.0623 102.364 67.3147 101.915 67.7641C101.465 68.2135 101.213 68.823 101.213 69.4586V70.2026C100.896 70.2501 100.606 70.4098 100.397 70.6527C100.187 70.8956 100.072 71.2056 100.072 71.5263V75.8353C100.072 76.1904 100.213 76.5311 100.464 76.7822C100.715 77.0334 101.056 77.1745 101.411 77.1745H105.9C106.255 77.1745 106.596 77.0334 106.847 76.7822C107.098 76.5311 107.239 76.1904 107.239 75.8353V71.5263C107.239 71.1891 107.113 70.8643 106.884 70.6167C106.655 70.369 106.341 70.2167 106.005 70.1902ZM104.26 74.7596H103.088L103.271 73.9133C103.143 73.8297 103.045 73.707 102.992 73.5634C102.94 73.4198 102.935 73.263 102.978 73.1163C103.022 72.9697 103.112 72.841 103.234 72.7495C103.357 72.658 103.506 72.6085 103.659 72.6085C103.812 72.6085 103.961 72.658 104.083 72.7495C104.206 72.841 104.296 72.9697 104.339 73.1163C104.383 73.263 104.378 73.4198 104.325 73.5634C104.272 73.707 104.174 73.8297 104.046 73.9133C104.127 74.2295 104.26 74.7596 104.26 74.7596ZM105.5 70.184H101.731V69.4586C101.75 68.9731 101.957 68.5141 102.307 68.1776C102.658 67.8411 103.125 67.6532 103.611 67.6532C104.097 67.6532 104.564 67.8411 104.914 68.1776C105.264 68.5141 105.471 68.9731 105.491 69.4586L105.5 70.184Z" fill="white"/>
<path d="M96.1102 70.1375C96.0296 69.895 95.9826 69.6425 95.9707 69.3873C95.9017 68.7771 95.8768 68.1627 95.8963 67.549C95.8963 67.1894 95.9304 66.8484 95.9614 66.5384C95.9768 66.2556 96.0473 65.9787 96.1691 65.7231C96.2563 65.5479 96.3977 65.4056 96.5721 65.317C96.6992 65.2581 96.7767 65.2612 96.7767 65.2705C96.554 65.3726 96.3749 65.5506 96.2714 65.7727C96.1723 66.0205 96.1177 66.2839 96.1102 66.5508C96.0854 66.8608 96.0668 67.1987 96.0575 67.5552C96.0358 68.2651 96.0575 68.9099 96.0854 69.378C96.1135 69.6301 96.1218 69.884 96.1102 70.1375Z" fill="white"/>
<path d="M96.2435 72.4905C96.2001 72.4905 96.1598 72.2704 96.1536 71.9945C96.1474 71.7186 96.1815 71.4954 96.2249 71.4954C96.2683 71.4954 96.3086 71.7155 96.3148 71.9914C96.321 72.2673 96.29 72.4905 96.2435 72.4905Z" fill="white"/>
<path d="M87.0892 100.821L76.8003 126.266H58.2468V127.416H113.511L124.816 100.821H87.0892Z" fill="#263238"/>
<path d="M102.819 115.844C102.447 117.124 101.362 117.933 100.394 117.654C99.4272 117.375 98.9467 116.104 99.3187 114.824C99.6907 113.544 100.779 112.735 101.746 113.014C102.713 113.293 103.194 114.564 102.819 115.844Z" fill="#FAFAFA"/>
</svg>
