<svg width="155" height="155" viewBox="0 0 155 155" fill="none" xmlns="http://www.w3.org/2000/svg">
<path d="M155 118.544H0V118.621H155V118.544Z" fill="#EBEBEB"/>
<path d="M139.469 123.532H129.202V123.609H139.469V123.532Z" fill="#EBEBEB"/>
<path d="M102.678 124.375H99.9844V124.452H102.678V124.375Z" fill="#EBEBEB"/>
<path d="M128.892 120.655H122.943V120.732H128.892V120.655Z" fill="#EBEBEB"/>
<path d="M29.6515 121.176H16.2626V121.253H29.6515V121.176Z" fill="#EBEBEB"/>
<path d="M34.3759 121.176H32.4136V121.253H34.3759V121.176Z" fill="#EBEBEB"/>
<path d="M69.7965 122.484H40.7557V122.561H69.7965V122.484Z" fill="#EBEBEB"/>
<path d="M73.47 104.718H13.6121C13.1432 104.717 12.6937 104.53 12.3624 104.198C12.0312 103.866 11.8451 103.417 11.8451 102.948V18.8044C11.8492 18.3382 12.037 17.8924 12.3679 17.5639C12.6987 17.2353 13.1458 17.0506 13.6121 17.0498H73.47C73.9395 17.0498 74.3897 17.2363 74.7216 17.5683C75.0536 17.9002 75.2401 18.3504 75.2401 18.8199V102.948C75.2401 103.417 75.0536 103.867 74.7216 104.199C74.3897 104.531 73.9395 104.718 73.47 104.718ZM13.6121 17.1118C13.1637 17.1126 12.734 17.2913 12.4172 17.6086C12.1005 17.926 11.9226 18.356 11.9226 18.8044V102.948C11.9226 103.396 12.1005 103.826 12.4172 104.143C12.734 104.461 13.1637 104.639 13.6121 104.64H73.47C73.9186 104.639 74.3487 104.461 74.6659 104.144C74.9832 103.826 75.1618 103.396 75.1626 102.948V18.8044C75.1618 18.3558 74.9832 17.9257 74.6659 17.6085C74.3487 17.2912 73.9186 17.1126 73.47 17.1118H13.6121Z" fill="#EBEBEB"/>
<path d="M140.526 104.718H80.6651C80.1959 104.717 79.7462 104.53 79.4144 104.198C79.0826 103.867 78.8958 103.417 78.895 102.948V18.8044C78.8999 18.3379 79.0885 17.8921 79.4198 17.5637C79.7512 17.2352 80.1986 17.0506 80.6651 17.0498H140.526C140.992 17.0514 141.438 17.2365 141.768 17.5649C142.098 17.8934 142.286 18.3387 142.29 18.8044V102.948C142.29 103.416 142.104 103.865 141.774 104.197C141.443 104.529 140.994 104.716 140.526 104.718ZM80.6651 17.1118C80.2165 17.1126 79.7864 17.2912 79.4692 17.6085C79.1519 17.9257 78.9733 18.3558 78.9725 18.8044V102.948C78.9733 103.396 79.1519 103.826 79.4692 104.144C79.7864 104.461 80.2165 104.639 80.6651 104.64H140.526C140.975 104.639 141.405 104.461 141.722 104.144C142.039 103.826 142.218 103.396 142.219 102.948V18.8044C142.218 18.3558 142.039 17.9257 141.722 17.6085C141.405 17.2912 140.975 17.1126 140.526 17.1118H80.6651Z" fill="#EBEBEB"/>
<path d="M66.7647 23.3552L67.0251 23.8853C67.0403 23.9163 67.063 23.943 67.0912 23.9631C67.1193 23.9831 67.152 23.9958 67.1863 24L67.7722 24.0868C67.811 24.0928 67.8473 24.1094 67.8771 24.1349C67.9069 24.1604 67.929 24.1937 67.9409 24.2311C67.9529 24.2684 67.9541 24.3084 67.9446 24.3464C67.935 24.3845 67.9151 24.4191 67.8869 24.4464L67.4653 24.8618C67.4405 24.8853 67.4218 24.9146 67.411 24.947C67.4002 24.9795 67.3975 25.0141 67.4033 25.0478L67.5025 25.6306C67.51 25.67 67.506 25.7107 67.4912 25.748C67.4763 25.7852 67.4511 25.8174 67.4186 25.8409C67.386 25.8643 67.3475 25.878 67.3074 25.8803C67.2674 25.8826 67.2275 25.8734 67.1925 25.8538L66.6686 25.5779C66.6383 25.5626 66.6049 25.5547 66.571 25.5547C66.5371 25.5547 66.5036 25.5626 66.4733 25.5779L65.9463 25.8538C65.9113 25.8734 65.8715 25.8826 65.8314 25.8803C65.7914 25.878 65.7528 25.8643 65.7203 25.8409C65.6877 25.8174 65.6625 25.7852 65.6477 25.748C65.6328 25.7107 65.6289 25.67 65.6363 25.6306L65.7386 25.0478C65.7436 25.0141 65.7406 24.9797 65.7298 24.9474C65.7191 24.9151 65.7008 24.8858 65.6766 24.8618L65.2519 24.4464C65.2237 24.4189 65.2038 24.384 65.1944 24.3458C65.185 24.3075 65.1866 24.2674 65.1988 24.2299C65.2111 24.1925 65.2336 24.1592 65.2638 24.1339C65.294 24.1086 65.3307 24.0923 65.3697 24.0868L65.9556 24C65.9897 23.9953 66.0222 23.9824 66.0503 23.9624C66.0784 23.9424 66.1012 23.916 66.1168 23.8853L66.3772 23.3552C66.3945 23.3184 66.4218 23.2872 66.4562 23.2654C66.4905 23.2435 66.5303 23.2319 66.571 23.2319C66.6116 23.2319 66.6515 23.2435 66.6858 23.2654C66.7201 23.2872 66.7475 23.3184 66.7647 23.3552Z" fill="#F5F5F5"/>
<path d="M28.1666 67.0188L28.4301 67.552C28.4452 67.5825 28.4675 67.6088 28.4951 67.6288C28.5226 67.6488 28.5546 67.6618 28.5882 67.6667L29.1741 67.7535C29.2131 67.759 29.2498 67.7753 29.28 67.8006C29.3102 67.8259 29.3327 67.8592 29.345 67.8966C29.3573 67.9341 29.3588 67.9742 29.3494 68.0125C29.34 68.0507 29.3201 68.0856 29.2919 68.1131L28.8672 68.5254C28.8429 68.5498 28.8248 68.5798 28.8145 68.6127C28.8043 68.6457 28.8022 68.6806 28.8083 68.7145L28.9075 69.2973C28.915 69.3367 28.911 69.3774 28.8962 69.4147C28.8813 69.4519 28.8561 69.4842 28.8236 69.5076C28.791 69.531 28.7525 69.5447 28.7124 69.547C28.6724 69.5493 28.6325 69.5401 28.5975 69.5205L28.0736 69.2446C28.0428 69.2293 28.0088 69.2214 27.9744 69.2214C27.94 69.2214 27.906 69.2293 27.8752 69.2446L27.3513 69.5205C27.3163 69.5401 27.2764 69.5493 27.2364 69.547C27.1964 69.5447 27.1578 69.531 27.1253 69.5076C27.0927 69.4842 27.0675 69.4519 27.0527 69.4147C27.0378 69.3774 27.0338 69.3367 27.0413 69.2973L27.1405 68.7145C27.1467 68.6806 27.1445 68.6457 27.1343 68.6127C27.124 68.5798 27.1059 68.5498 27.0816 68.5254L26.66 68.1131C26.6318 68.0856 26.6119 68.0507 26.6025 68.0125C26.5931 67.9742 26.5946 67.9341 26.6069 67.8966C26.6192 67.8592 26.6417 67.8259 26.6719 67.8006C26.7021 67.7753 26.7388 67.759 26.7778 67.7535L27.3637 67.6667C27.3974 67.6618 27.4293 67.6488 27.4568 67.6288C27.4844 67.6088 27.5067 67.5825 27.5218 67.552L27.7853 67.0188C27.8024 66.9827 27.8293 66.9521 27.8631 66.9307C27.8968 66.9093 27.936 66.8979 27.976 66.8979C28.0159 66.8979 28.0551 66.9093 28.0888 66.9307C28.1226 66.9521 28.1496 66.9827 28.1666 67.0188Z" fill="#F0F0F0"/>
<path d="M23.2997 37.7237L23.5601 38.2538C23.5751 38.2847 23.5972 38.3115 23.6248 38.332C23.6523 38.3525 23.6843 38.3661 23.7182 38.3716L24.3041 38.4553C24.3431 38.4615 24.3796 38.4783 24.4097 38.5039C24.4397 38.5295 24.462 38.563 24.4742 38.6005C24.4864 38.6381 24.488 38.6783 24.4788 38.7167C24.4695 38.755 24.4498 38.7901 24.4219 38.818L23.9972 39.2303C23.9732 39.2544 23.9551 39.2837 23.9443 39.316C23.9336 39.3483 23.9304 39.3826 23.9352 39.4163L24.0375 40.0022C24.0449 40.0416 24.041 40.0823 24.0261 40.1196C24.0113 40.1568 23.9861 40.1891 23.9535 40.2125C23.921 40.2359 23.8824 40.2496 23.8424 40.2519C23.8024 40.2542 23.7625 40.245 23.7275 40.2254L23.2036 39.9495C23.1732 39.9327 23.1391 39.9238 23.1044 39.9238C23.0697 39.9238 23.0355 39.9327 23.0052 39.9495L22.4813 40.2254C22.4463 40.245 22.4064 40.2542 22.3664 40.2519C22.3263 40.2496 22.2878 40.2359 22.2552 40.2125C22.2227 40.1891 22.1975 40.1568 22.1826 40.1196C22.1678 40.0823 22.1638 40.0416 22.1713 40.0022L22.2705 39.4163C22.2768 39.3826 22.2745 39.3478 22.2636 39.3153C22.2528 39.2827 22.2338 39.2535 22.2085 39.2303L21.7869 38.818C21.7578 38.7908 21.7371 38.756 21.727 38.7175C21.7169 38.679 21.7179 38.6384 21.7299 38.6005C21.7419 38.5626 21.7644 38.5288 21.7948 38.5031C21.8252 38.4774 21.8622 38.4608 21.9016 38.4553L22.4875 38.3716C22.5217 38.3661 22.5542 38.3525 22.5822 38.332C22.6102 38.3116 22.633 38.2848 22.6487 38.2538L22.9091 37.7237C22.9259 37.686 22.9533 37.654 22.988 37.6315C23.0227 37.609 23.0631 37.597 23.1044 37.597C23.1457 37.597 23.1861 37.609 23.2208 37.6315C23.2554 37.654 23.2828 37.686 23.2997 37.7237Z" fill="#F0F0F0"/>
<path d="M46.7882 51.0475L46.9432 51.3575C46.9528 51.3756 46.9664 51.3913 46.9831 51.4031C46.9998 51.415 47.0191 51.4227 47.0393 51.4257L47.3896 51.4753C47.413 51.479 47.4348 51.4892 47.4527 51.5046C47.4706 51.5201 47.4838 51.5402 47.4909 51.5627C47.4979 51.5853 47.4986 51.6093 47.4928 51.6322C47.4869 51.6551 47.4748 51.6759 47.4578 51.6923L47.2067 51.9403C47.1918 51.9544 47.1806 51.9719 47.1741 51.9914C47.1676 52.0109 47.166 52.0317 47.1695 52.0519L47.2284 52.3991C47.2334 52.4225 47.2315 52.4469 47.2229 52.4692C47.2143 52.4915 47.1995 52.5109 47.1802 52.525C47.1608 52.5391 47.1378 52.5473 47.1139 52.5486C47.0901 52.5499 47.0663 52.5443 47.0455 52.5324L46.7355 52.3681C46.7173 52.3588 46.6971 52.354 46.6766 52.354C46.6562 52.354 46.636 52.3588 46.6177 52.3681L46.3077 52.5324C46.287 52.5443 46.2632 52.5499 46.2393 52.5486C46.2154 52.5473 46.1925 52.5391 46.1731 52.525C46.1538 52.5109 46.1389 52.4915 46.1304 52.4692C46.1218 52.4469 46.1199 52.4225 46.1248 52.3991L46.1837 52.0519C46.1873 52.0317 46.1857 52.0109 46.1792 51.9914C46.1727 51.9719 46.1615 51.9544 46.1465 51.9403L45.8923 51.6923C45.8753 51.6757 45.8632 51.6546 45.8575 51.6315C45.8519 51.6084 45.8528 51.5842 45.8602 51.5615C45.8677 51.5389 45.8813 51.5189 45.8996 51.5036C45.9179 51.4884 45.9401 51.4786 45.9636 51.4753L46.3139 51.4257C46.3342 51.4227 46.3534 51.415 46.3701 51.4031C46.3868 51.3913 46.4005 51.3756 46.41 51.3575L46.565 51.0475C46.5766 51.0283 46.593 51.0123 46.6125 51.0013C46.6321 50.9902 46.6542 50.9844 46.6766 50.9844C46.6991 50.9844 46.7212 50.9902 46.7408 51.0013C46.7603 51.0123 46.7767 51.0283 46.7882 51.0475Z" fill="#F0F0F0"/>
<path d="M37.2868 91.6669L37.4418 91.9769C37.4511 91.9955 37.4647 92.0116 37.4814 92.0239C37.4981 92.0363 37.5174 92.0446 37.5379 92.0482L37.8882 92.0978C37.9118 92.1011 37.934 92.1109 37.9522 92.1261C37.9705 92.1414 37.9842 92.1614 37.9916 92.184C37.999 92.2067 37.9999 92.2309 37.9943 92.254C37.9886 92.2771 37.9765 92.2982 37.9595 92.3148L37.7053 92.5597C37.6903 92.5744 37.6791 92.5925 37.6726 92.6125C37.6661 92.6325 37.6646 92.6537 37.6681 92.6744L37.7301 93.0216C37.7341 93.0451 37.7315 93.0694 37.7224 93.0915C37.7134 93.1136 37.6983 93.1327 37.6789 93.1466C37.6595 93.1605 37.6365 93.1687 37.6127 93.1701C37.5888 93.1716 37.5651 93.1663 37.5441 93.1549L37.2341 92.9906C37.2158 92.9813 37.1956 92.9765 37.1752 92.9765C37.1547 92.9765 37.1345 92.9813 37.1163 92.9906L36.8063 93.1549C36.7854 93.1655 36.762 93.1701 36.7387 93.1682C36.7153 93.1663 36.693 93.158 36.674 93.1442C36.6551 93.1304 36.6404 93.1117 36.6314 93.09C36.6225 93.0684 36.6197 93.0447 36.6234 93.0216L36.6823 92.6744C36.6862 92.654 36.6851 92.6329 36.6792 92.6129C36.6732 92.593 36.6626 92.5747 36.6482 92.5597L36.394 92.3148C36.377 92.2984 36.3649 92.2776 36.359 92.2547C36.3532 92.2318 36.3539 92.2077 36.3609 92.1852C36.368 92.1627 36.3813 92.1426 36.3991 92.1271C36.417 92.1117 36.4388 92.1015 36.4622 92.0978L36.8125 92.0482C36.8331 92.0451 36.8527 92.037 36.8694 92.0246C36.8862 92.0121 36.8996 91.9958 36.9086 91.9769L37.0667 91.6669C37.0778 91.6476 37.0939 91.6316 37.1132 91.6204C37.1325 91.6093 37.1544 91.6034 37.1767 91.6034C37.199 91.6034 37.2209 91.6093 37.2403 91.6204C37.2596 91.6316 37.2756 91.6476 37.2868 91.6669Z" fill="#F5F5F5"/>
<path d="M134.664 23.8388L134.819 24.1488C134.828 24.1675 134.841 24.1835 134.858 24.1954C134.875 24.2074 134.895 24.2148 134.915 24.217L135.265 24.2697C135.289 24.273 135.311 24.2828 135.329 24.298C135.348 24.3133 135.361 24.3334 135.369 24.356C135.376 24.3786 135.377 24.4028 135.371 24.426C135.366 24.4491 135.354 24.4701 135.337 24.4867L135.082 24.7316C135.068 24.7459 135.057 24.7634 135.05 24.7829C135.044 24.8023 135.042 24.823 135.045 24.8432L135.107 25.1935C135.111 25.2171 135.109 25.2413 135.1 25.2634C135.091 25.2855 135.075 25.3046 135.056 25.3185C135.037 25.3324 135.014 25.3406 134.99 25.3421C134.966 25.3435 134.942 25.3383 134.921 25.3268L134.611 25.1625C134.593 25.1533 134.573 25.1485 134.552 25.1485C134.532 25.1485 134.512 25.1533 134.493 25.1625L134.183 25.3268C134.163 25.3374 134.139 25.342 134.116 25.3401C134.092 25.3382 134.07 25.3299 134.051 25.3161C134.032 25.3024 134.018 25.2836 134.009 25.262C134 25.2403 133.997 25.2167 134.001 25.1935L134.059 24.8432C134.063 24.8233 134.062 24.8027 134.056 24.7833C134.05 24.7639 134.04 24.7462 134.025 24.7316L133.765 24.4898C133.748 24.4734 133.736 24.4526 133.73 24.4297C133.724 24.4068 133.725 24.3828 133.732 24.3602C133.739 24.3377 133.752 24.3176 133.77 24.3022C133.788 24.2867 133.81 24.2766 133.833 24.2728L134.183 24.2201C134.204 24.2182 134.224 24.2109 134.241 24.1989C134.258 24.1869 134.271 24.1707 134.28 24.1519L134.438 23.8419C134.447 23.82 134.463 23.8012 134.483 23.7879C134.503 23.7747 134.526 23.7674 134.55 23.7671C134.574 23.7668 134.597 23.7734 134.617 23.7861C134.638 23.7988 134.654 23.8171 134.664 23.8388Z" fill="#F5F5F5"/>
<path d="M131.97 82.3451L132.24 82.8938C132.255 82.9257 132.278 82.9531 132.307 82.9737C132.336 82.9943 132.369 83.0073 132.404 83.0116L133.024 83.1015C133.065 83.107 133.103 83.1238 133.134 83.1499C133.166 83.1761 133.189 83.2106 133.202 83.2495C133.214 83.2884 133.216 83.33 133.206 83.3697C133.196 83.4093 133.175 83.4453 133.145 83.4735L132.68 83.9013C132.655 83.9267 132.636 83.9576 132.626 83.9916C132.615 84.0255 132.612 84.0615 132.618 84.0966L132.723 84.7166C132.729 84.7557 132.723 84.7954 132.708 84.8317C132.693 84.868 132.668 84.8995 132.636 84.9229C132.605 84.9464 132.567 84.9609 132.528 84.9649C132.489 84.969 132.449 84.9625 132.413 84.946L131.871 84.6608C131.839 84.644 131.804 84.6352 131.769 84.6352C131.733 84.6352 131.698 84.644 131.666 84.6608L131.13 84.9398C131.094 84.9574 131.054 84.9648 131.015 84.9612C130.975 84.9577 130.937 84.9432 130.905 84.9195C130.873 84.8959 130.848 84.8638 130.833 84.8269C130.818 84.7901 130.814 84.7497 130.82 84.7104L130.922 84.0904C130.929 84.0553 130.927 84.0191 130.916 83.985C130.905 83.9509 130.886 83.9201 130.86 83.8951L130.42 83.4673C130.392 83.4384 130.372 83.4022 130.363 83.3627C130.353 83.3231 130.355 83.2818 130.368 83.2434C130.381 83.2049 130.404 83.1707 130.435 83.1445C130.466 83.1184 130.504 83.1014 130.544 83.0953L131.149 83.0054C131.184 83.0011 131.217 82.9881 131.246 82.9675C131.275 82.9469 131.298 82.9195 131.313 82.8876L131.586 82.3389C131.605 82.305 131.634 82.277 131.668 82.2577C131.702 82.2384 131.741 82.2285 131.78 82.2292C131.819 82.2298 131.857 82.2409 131.891 82.2613C131.924 82.2816 131.952 82.3106 131.97 82.3451Z" fill="#F0F0F0"/>
<path d="M98.763 30.9658C98.763 31.0473 98.7388 31.127 98.6935 31.1948C98.6482 31.2626 98.5838 31.3155 98.5084 31.3467C98.4331 31.3779 98.3502 31.3861 98.2702 31.3701C98.1902 31.3542 98.1168 31.315 98.0591 31.2573C98.0015 31.1996 97.9622 31.1262 97.9463 31.0462C97.9304 30.9662 97.9385 30.8833 97.9697 30.808C98.0009 30.7326 98.0538 30.6683 98.1216 30.623C98.1894 30.5776 98.2691 30.5535 98.3507 30.5535C98.46 30.5535 98.5649 30.5969 98.6422 30.6742C98.7195 30.7515 98.763 30.8564 98.763 30.9658Z" fill="#F0F0F0"/>
<path d="M110.596 110.878C110.596 110.959 110.571 111.039 110.526 111.107C110.481 111.174 110.416 111.227 110.341 111.258C110.266 111.29 110.183 111.298 110.103 111.282C110.023 111.266 109.949 111.227 109.892 111.169C109.834 111.111 109.795 111.038 109.779 110.958C109.763 110.878 109.771 110.795 109.802 110.72C109.834 110.644 109.886 110.58 109.954 110.535C110.022 110.489 110.102 110.465 110.183 110.465C110.238 110.465 110.291 110.475 110.342 110.496C110.392 110.516 110.437 110.547 110.476 110.585C110.514 110.623 110.544 110.669 110.565 110.719C110.586 110.769 110.596 110.823 110.596 110.878Z" fill="#F5F5F5"/>
<path d="M41.1526 25.8259C41.1526 26.1748 41.0491 26.5158 40.8553 26.8059C40.6615 27.096 40.386 27.322 40.0637 27.4555C39.7414 27.589 39.3867 27.624 39.0445 27.5559C38.7024 27.4879 38.3881 27.3199 38.1414 27.0732C37.8947 26.8265 37.7267 26.5122 37.6586 26.17C37.5906 25.8279 37.6255 25.4732 37.759 25.1509C37.8925 24.8286 38.1186 24.5531 38.4087 24.3593C38.6988 24.1655 39.0398 24.062 39.3887 24.062C39.8565 24.062 40.3051 24.2478 40.6359 24.5786C40.9667 24.9094 41.1526 25.3581 41.1526 25.8259Z" fill="#F0F0F0"/>
<path d="M57.8429 37.482C58.9073 37.669 59.9862 37.7613 61.0669 37.7579C60.6439 38.2523 60.1 38.6287 59.4882 38.8504C58.8764 39.0721 58.2177 39.1315 57.5761 39.0229C56.9345 38.9142 56.3321 38.6412 55.8274 38.2305C55.3227 37.8197 54.9331 37.2852 54.6964 36.6791C55.7199 37.0378 56.7727 37.3064 57.8429 37.482Z" fill="#F5F5F5"/>
<path d="M58.3915 34.2271C57.1644 34.0073 55.9173 33.92 54.6715 33.9667C54.982 33.151 55.566 32.4683 56.3237 32.0352C57.0815 31.602 57.966 31.4452 58.8265 31.5916C59.6869 31.7379 60.4699 32.1783 61.0419 32.8376C61.6138 33.4969 61.9393 34.3342 61.9627 35.2067C60.8107 34.7536 59.6135 34.4252 58.3915 34.2271Z" fill="#F5F5F5"/>
<path d="M64.0562 36.29C64.176 35.581 61.6551 34.5639 58.4257 34.0183C55.1962 33.4726 52.4811 33.6051 52.3613 34.3141C52.2415 35.0231 54.7624 36.0402 57.9918 36.5859C61.2213 37.1315 63.9364 36.9991 64.0562 36.29Z" fill="#F5F5F5"/>
<path d="M134.428 62.8679C132.985 65.7571 130.987 68.3338 128.548 70.4506C126.109 72.5674 123.277 74.183 120.213 75.2049C117.15 76.2269 113.915 76.6353 110.693 76.4067C107.472 76.1782 104.327 75.3172 101.438 73.8729C100.936 73.6249 100.449 73.3614 99.9844 73.0824C104.322 71.4738 108.234 68.896 111.424 65.5455C114.614 62.195 116.996 58.1603 118.39 53.7492C119.783 49.338 120.151 44.6669 119.465 40.092C118.778 35.5172 117.057 31.1595 114.43 27.3512C118.439 27.6804 122.307 28.9875 125.693 31.158C129.08 33.3286 131.883 36.2964 133.857 39.8015C135.83 43.3066 136.914 47.2422 137.014 51.2635C137.114 55.2848 136.226 59.2693 134.428 62.8679Z" fill="#F5F5F5"/>
<path d="M123.182 33.8984C123.843 34.3871 124.389 35.0159 124.779 35.7399C125.169 36.4639 125.394 37.2653 125.438 38.0865C124.58 36.9002 123.543 35.8544 122.363 34.9865C121.189 34.1146 119.888 33.4268 118.507 32.9467C119.308 32.7499 120.143 32.7332 120.951 32.8978C121.759 33.0624 122.521 33.4041 123.182 33.8984Z" fill="#F0F0F0"/>
<path d="M116.972 71.1727C116.285 71.6259 115.507 71.9215 114.692 72.0383C113.877 72.1552 113.047 72.0903 112.26 71.8485C113.665 71.4499 115 70.835 116.216 70.0257C117.44 69.2242 118.534 68.2405 119.462 67.1086C119.372 67.9278 119.103 68.7171 118.673 69.4198C118.242 70.1225 117.662 70.7212 116.972 71.1727Z" fill="#F0F0F0"/>
<path d="M125.445 47.7679C125.797 48.5116 125.98 49.3243 125.98 50.1472C125.98 50.9701 125.797 51.7827 125.445 52.5264C125.252 51.0782 124.834 49.6692 124.205 48.3507C123.585 47.0265 122.768 45.8045 121.78 44.7268C122.578 44.932 123.32 45.3111 123.953 45.8369C124.587 46.3626 125.096 47.0221 125.445 47.7679Z" fill="#F0F0F0"/>
<path d="M129.441 64.6472C128.925 65.2887 128.273 65.8082 127.533 66.1683C126.793 66.5285 125.982 66.7204 125.159 66.7304C126.376 65.9223 127.459 64.9286 128.368 63.7854C129.289 62.6489 130.031 61.3789 130.569 60.0189C130.734 60.8258 130.719 61.6593 130.523 62.4595C130.328 63.2598 129.959 64.0069 129.441 64.6472Z" fill="#F0F0F0"/>
<path d="M77.5001 132.544C110.696 132.544 137.606 130.972 137.606 129.034C137.606 127.096 110.696 125.525 77.5001 125.525C44.3045 125.525 17.3942 127.096 17.3942 129.034C17.3942 130.972 44.3045 132.544 77.5001 132.544Z" fill="#F5F5F5"/>
<path d="M78.8485 41.1772L78.6315 41.0067C79.608 39.7667 80.6341 38.6011 81.6819 37.5099L81.8772 37.7021C80.8356 38.784 79.8157 39.9558 78.8485 41.1772Z" fill="#F58634"/>
<path d="M77.6906 42.1955L76.6908 43.4561L76.9045 43.6256L77.9043 42.365L77.6906 42.1955Z" fill="#F58634"/>
<path d="M99.2 55.5581C105.936 44.7298 106.854 34.0596 101.95 30.6062C97.0455 27.1528 87.3084 31.6106 79.3817 41.6019L56.73 70.1746L79.9552 86.5302L99.2 55.5581Z" fill="#F58634"/>
<path opacity="0.1" d="M96.5496 53.6918L76.8336 84.3415L74.4218 79.7318L94.0044 51.7698C99.541 43.8617 102.644 36.6356 102.657 32.6118C102.656 32.534 102.683 32.4585 102.733 32.3987C102.783 32.339 102.852 32.2988 102.929 32.2854C103.005 32.272 103.084 32.2863 103.151 32.3256C103.218 32.3649 103.269 32.4268 103.295 32.5002C104.69 36.5147 102.272 44.7979 96.5496 53.6918Z" fill="white"/>
<path d="M79.9413 86.5228C83.0767 82.0698 80.4187 74.7987 74.0045 70.2823C67.5902 65.7659 59.8487 65.7145 56.7132 70.1676C53.5778 74.6206 56.2358 81.8917 62.65 86.4081C69.0643 90.9245 76.8059 90.9758 79.9413 86.5228Z" fill="#F58634"/>
<path opacity="0.5" d="M79.9413 86.5228C83.0767 82.0698 80.4187 74.7987 74.0045 70.2823C67.5902 65.7659 59.8487 65.7145 56.7132 70.1676C53.5778 74.6206 56.2358 81.8917 62.65 86.4081C69.0643 90.9245 76.8059 90.9758 79.9413 86.5228Z" fill="white"/>
<path opacity="0.1" d="M77.531 65.2363C72.4346 61.6465 66.6531 60.6204 62.961 62.2975L57.2104 69.5453C60.6204 65.7385 67.9085 65.9989 74.0031 70.2893C80.0977 74.5797 82.8041 81.3656 80.3613 85.8513L85.1879 78.1013C85.6033 74.031 82.6832 68.8633 77.531 65.2363Z" fill="black"/>
<path opacity="0.2" d="M85.6932 41.8684C84.2796 44.1066 83.2132 48.2947 87.4137 51.249C91.6142 54.2033 95.1978 51.7946 96.8253 49.699L85.6932 41.8684Z" fill="black"/>
<path d="M97.8173 47.1199C97.3368 51.1189 92.7147 54.036 87.8632 50.6198C83.0117 47.2036 84.199 41.8685 87.8012 40.0798C90.0208 38.97 92.848 39.4599 94.7824 40.8053C96.7168 42.1507 98.1149 44.6399 97.8173 47.1199Z" fill="white"/>
<path d="M88.5236 49.6743C86.6357 48.3475 85.6685 46.6115 85.8049 44.7949C85.8669 44.0109 86.1307 43.2562 86.5707 42.6044C87.0107 41.9525 87.612 41.4256 88.3159 41.0749C90.0023 40.2317 92.3893 40.4952 94.1222 41.7135C95.8551 42.9318 96.9122 45.0956 96.6797 46.968C96.5875 47.7468 96.2956 48.4886 95.8323 49.1214C95.369 49.7541 94.75 50.2564 94.0354 50.5795C92.38 51.3297 90.4115 51.0042 88.5236 49.6743Z" fill="#F58634"/>
<path opacity="0.3" d="M88.5236 49.6743C86.6357 48.3475 85.6685 46.6115 85.8049 44.7949C85.8669 44.0109 86.1307 43.2562 86.5707 42.6044C87.0107 41.9525 87.612 41.4256 88.3159 41.0749C90.0023 40.2317 92.3893 40.4952 94.1222 41.7135C95.8551 42.9318 96.9122 45.0956 96.6797 46.968C96.5875 47.7468 96.2956 48.4886 95.8323 49.1214C95.369 49.7541 94.75 50.2564 94.0354 50.5795C92.38 51.3297 90.4115 51.0042 88.5236 49.6743Z" fill="black"/>
<path d="M88.5236 49.6742C86.6357 48.3474 85.6344 46.661 85.7088 44.9312C85.741 44.1958 85.9757 43.4835 86.3871 42.873C86.7985 42.2626 87.3705 41.7776 88.04 41.4716C89.6613 40.7214 92.0018 41.05 93.7347 42.2714C95.4676 43.4928 96.565 45.5853 96.4038 47.3647C96.3413 48.0993 96.0764 48.8022 95.6387 49.3953C95.2009 49.9885 94.6073 50.4488 93.9238 50.7251C92.3335 51.3792 90.4115 51.0041 88.5236 49.6742Z" fill="#F58634"/>
<path opacity="0.2" d="M88.5236 49.6742C86.6357 48.3474 85.6344 46.661 85.7088 44.9312C85.741 44.1958 85.9757 43.4835 86.3871 42.873C86.7985 42.2626 87.3705 41.7776 88.04 41.4716C89.6613 40.7214 92.0018 41.05 93.7347 42.2714C95.4676 43.4928 96.565 45.5853 96.4038 47.3647C96.3413 48.0993 96.0764 48.8022 95.6387 49.3953C95.2009 49.9885 94.6073 50.4488 93.9238 50.7251C92.3335 51.3792 90.4115 51.0041 88.5236 49.6742Z" fill="white"/>
<path opacity="0.3" d="M95.0491 43.4961L86.3226 47.3463C85.8898 46.617 85.6747 45.779 85.7026 44.9314C85.7191 44.5322 85.7976 44.1379 85.9351 43.7627L91.5678 41.2827C92.9349 41.6292 94.1537 42.4076 95.0429 43.5023L95.0491 43.4961Z" fill="white"/>
<path opacity="0.3" d="M96.3015 45.979L88.2942 49.5068C87.8126 49.1536 87.3736 48.7459 86.986 48.2916L95.697 44.4476C95.9692 44.9273 96.1726 45.4428 96.3015 45.979Z" fill="white"/>
<path opacity="0.1" d="M105.031 39.0754C104.764 36.9364 103.121 34.4626 100.524 32.6336C97.9258 30.8046 95.0459 30.0916 92.941 30.5597C96.5215 29.0996 99.73 29.0438 101.95 30.6062C104.169 32.1686 105.198 35.2128 105.031 39.0754Z" fill="black"/>
<path opacity="0.5" d="M73.9997 77.8032C74.9765 76.4159 74.1853 74.1766 72.2324 72.8016C70.2796 71.4266 67.9047 71.4365 66.9278 72.8238C65.951 74.2111 66.7423 76.4504 68.6951 77.8254C70.6479 79.2004 73.0229 79.1905 73.9997 77.8032Z" fill="#F58634"/>
<path opacity="0.5" d="M64.79 76.5016C63.8135 77.8873 61.4389 77.8997 59.4859 76.5233C57.5329 75.1469 56.7393 72.9087 57.7158 71.523C58.6923 70.1373 61.07 70.1249 63.023 71.5013C64.976 72.8777 65.7541 75.1159 64.79 76.5016Z" fill="#F58634"/>
<path opacity="0.5" d="M78.3401 86.0527C77.3636 87.4415 74.989 87.4508 73.036 86.0744C71.083 84.698 70.2925 82.4598 71.269 81.0741C72.2455 79.6884 74.62 79.676 76.5731 81.0524C78.5261 82.4288 79.3166 84.667 78.3401 86.0527Z" fill="#F58634"/>
<path opacity="0.5" d="M69.13 84.7477C68.1535 86.1334 65.7789 86.1427 63.8259 84.7694C61.8729 83.3961 61.0824 81.1548 62.0589 79.766C63.0354 78.3772 65.41 78.371 67.363 79.7443C69.316 81.1176 70.0941 83.3589 69.13 84.7477Z" fill="#F58634"/>
<path opacity="0.5" d="M74.0032 77.8099C73.8999 77.9564 73.7791 78.0896 73.6436 78.2067C74.1861 76.8241 73.3677 74.9052 71.6224 73.6776C69.8771 72.45 67.797 72.326 66.6779 73.2994C66.7436 73.1344 66.8279 72.9774 66.929 72.8313C67.9055 71.4456 70.2832 71.4332 72.2362 72.8096C74.1892 74.186 74.9766 76.4211 74.0032 77.8099Z" fill="#F58634"/>
<path opacity="0.5" d="M64.79 76.5017C64.6871 76.6474 64.5674 76.7806 64.4335 76.8985C64.976 75.5128 64.1607 73.597 62.4123 72.3663C60.6639 71.1356 58.5869 71.0147 57.4678 71.9912C57.5329 71.8258 57.6171 71.6687 57.7189 71.5231C58.6954 70.1343 61.07 70.125 63.023 71.5014C64.976 72.8778 65.7541 75.1129 64.79 76.5017Z" fill="#F58634"/>
<path opacity="0.5" d="M78.3401 86.0558C78.2372 86.2006 78.1175 86.3327 77.9836 86.4495C78.5261 85.0638 77.7077 83.148 75.9624 81.9204C74.2171 80.6928 72.137 80.5657 71.0179 81.5453C71.0824 81.3787 71.1667 81.2205 71.269 81.0741C72.2455 79.6853 74.6201 79.676 76.5731 81.0524C78.5261 82.4288 79.3197 84.667 78.3401 86.0558Z" fill="#F58634"/>
<path opacity="0.5" d="M69.1299 84.7477C69.0287 84.8939 68.9088 85.0262 68.7734 85.1414C69.3159 83.7588 68.4975 81.8399 66.7522 80.6123C65.0069 79.3847 62.9268 79.2607 61.8077 80.2372C61.8715 80.0703 61.9559 79.9121 62.0588 79.766C63.0353 78.3772 65.4099 78.371 67.3629 79.7443C69.3159 81.1176 70.094 83.3589 69.1299 84.7477Z" fill="#F58634"/>
<path d="M72.0998 52.1511C72.0998 52.1511 67.9148 57.5823 64.2692 62.2571C63.7515 62.9089 63.0732 63.4147 62.3009 63.7251C61.5286 64.0354 60.6889 64.1395 59.8641 64.0272C56.6804 63.6335 51.4941 65.8872 51.4941 65.8872C51.4941 65.8872 61.3056 49.7703 72.0998 52.1511Z" fill="#F58634"/>
<path opacity="0.3" d="M72.0998 52.1511C72.0998 52.1511 67.9148 57.5823 64.2692 62.2571C63.7515 62.9089 63.0732 63.4147 62.3009 63.7251C61.5286 64.0354 60.6889 64.1395 59.8641 64.0272C56.6804 63.6335 51.4941 65.8872 51.4941 65.8872C51.4941 65.8872 61.3056 49.7703 72.0998 52.1511Z" fill="black"/>
<path d="M91.7258 65.974C91.7258 65.974 88.0399 71.7431 84.85 76.7496C84.4111 77.4566 84.1638 78.2657 84.1322 79.0973C84.1007 79.9289 84.2861 80.7544 84.6702 81.4926C86.1148 84.3601 85.7366 90.0145 85.7366 90.0145C85.7366 90.0145 97.6065 75.3298 91.7258 65.974Z" fill="#F58634"/>
<path opacity="0.3" d="M91.7258 65.974C91.7258 65.974 88.0399 71.7431 84.85 76.7496C84.4111 77.4566 84.1638 78.2657 84.1322 79.0973C84.1007 79.9289 84.2861 80.7544 84.6702 81.4926C86.1148 84.3601 85.7366 90.0145 85.7366 90.0145C85.7366 90.0145 97.6065 75.3298 91.7258 65.974Z" fill="black"/>
<path d="M105.248 107.449C109.12 97.9755 92.38 95.2909 85.7553 97.6686C79.1306 100.046 72.3757 101.813 72.1153 95.4738C71.8549 89.1343 76.9575 85.2035 74.524 83.7403C73.1755 82.9281 72.7911 84.3603 72.1246 86.4497C70.0848 92.8512 58.5311 94.3764 63.8476 103.642C69.1641 112.908 66.3276 110.896 57.3841 114.613C48.4406 118.33 53.0441 129.034 61.6962 129.034H113.801C137.683 129.034 115.072 83.3218 105.248 107.449Z" fill="#F58634"/>
<path opacity="0.6" d="M105.248 107.449C109.12 97.9755 92.38 95.2909 85.7553 97.6686C79.1306 100.046 72.3757 101.813 72.1153 95.4738C71.8549 89.1343 76.9575 85.2035 74.524 83.7403C73.1755 82.9281 72.7911 84.3603 72.1246 86.4497C70.0848 92.8512 58.5311 94.3764 63.8476 103.642C69.1641 112.908 66.3276 110.896 57.3841 114.613C48.4406 118.33 53.0441 129.034 61.6962 129.034H113.801C137.683 129.034 115.072 83.3218 105.248 107.449Z" fill="white"/>
<path d="M61.2405 74.4277C60.5461 72.0159 56.7889 75.0477 53.0875 78.7212C49.3861 82.3947 47.5602 90.7802 43.9797 95.1512C40.3992 99.5222 30.1475 103.472 34.1558 110.05C40.0675 119.743 26.4802 129.043 42.5723 129.043H75.578C81.6137 129.043 88.1578 121.662 78.7586 116.643C69.3594 111.625 55.2792 123.327 51.4786 112.164C49.5938 106.624 56.4386 109.166 53.2673 100.096C50.096 91.0251 50.3068 88.5544 51.9219 84.512C55.8527 74.6602 62.31 78.0919 61.2405 74.4277Z" fill="#F58634"/>
<path opacity="0.6" d="M61.2405 74.4277C60.5461 72.0159 56.7889 75.0477 53.0875 78.7212C49.3861 82.3947 47.5602 90.7802 43.9797 95.1512C40.3992 99.5222 30.1475 103.472 34.1558 110.05C40.0675 119.743 26.4802 129.043 42.5723 129.043H75.578C81.6137 129.043 88.1578 121.662 78.7586 116.643C69.3594 111.625 55.2792 123.327 51.4786 112.164C49.5938 106.624 56.4386 109.166 53.2673 100.096C50.096 91.0251 50.3068 88.5544 51.9219 84.512C55.8527 74.6602 62.31 78.0919 61.2405 74.4277Z" fill="white"/>
<path d="M68.0823 75.5406C68.9007 74.0464 71.7093 74.9423 71.6473 76.8984C71.5853 78.8545 64.3127 81.4182 65.6643 88.1731C67.0159 94.928 79.9987 95.4116 83.046 102.179C86.0933 108.946 74.2885 109.895 77.8101 114.126C81.3317 118.358 92.2003 108.639 99.9441 111.138C107.688 113.637 115.425 129.034 101.221 129.034H57.4524C47.9354 129.034 40.9852 109.383 50.1302 101.299C59.2752 93.2137 51.8972 95.8394 55.3103 90.6593C58.7234 85.4792 64.942 81.2694 68.0823 75.5406Z" fill="#F58634"/>
<path opacity="0.8" d="M68.0823 75.5406C68.9007 74.0464 71.7093 74.9423 71.6473 76.8984C71.5853 78.8545 64.3127 81.4182 65.6643 88.1731C67.0159 94.928 79.9987 95.4116 83.046 102.179C86.0933 108.946 74.2885 109.895 77.8101 114.126C81.3317 118.358 92.2003 108.639 99.9441 111.138C107.688 113.637 115.425 129.034 101.221 129.034H57.4524C47.9354 129.034 40.9852 109.383 50.1302 101.299C59.2752 93.2137 51.8972 95.8394 55.3103 90.6593C58.7234 85.4792 64.942 81.2694 68.0823 75.5406Z" fill="white"/>
</svg>
