<svg width="121" height="28" viewBox="0 0 121 28" fill="none" xmlns="http://www.w3.org/2000/svg">
<path d="M12.0979 5.8541C12.6966 4.01148 15.3034 4.01148 15.9021 5.8541L16.6942 8.2918C16.9619 9.11584 17.7298 9.67376 18.5963 9.67376H21.1594C23.0969 9.67376 23.9024 12.153 22.335 13.2918L20.2614 14.7984C19.5604 15.3077 19.2671 16.2104 19.5348 17.0344L20.3269 19.4721C20.9256 21.3148 18.8166 22.847 17.2492 21.7082L15.1756 20.2016C14.4746 19.6923 13.5254 19.6923 12.8244 20.2016L10.7508 21.7082C9.18337 22.847 7.07441 21.3148 7.67312 19.4721L8.46517 17.0344C8.73292 16.2104 8.43961 15.3077 7.73863 14.7984L5.665 13.2918C4.09757 12.153 4.90313 9.67376 6.84057 9.67376H9.40372C10.2702 9.67376 11.0381 9.11584 11.3058 8.2918L12.0979 5.8541Z" fill="#235EAC"/>
<path d="M43.0979 5.8541C43.6966 4.01148 46.3034 4.01148 46.9021 5.8541L47.6942 8.2918C47.9619 9.11584 48.7298 9.67376 49.5963 9.67376H52.1594C54.0969 9.67376 54.9024 12.153 53.335 13.2918L51.2614 14.7984C50.5604 15.3077 50.2671 16.2104 50.5348 17.0344L51.3269 19.4721C51.9256 21.3148 49.8166 22.847 48.2492 21.7082L46.1756 20.2016C45.4746 19.6923 44.5254 19.6923 43.8244 20.2016L41.7508 21.7082C40.1834 22.847 38.0744 21.3148 38.6731 19.4721L39.4652 17.0344C39.7329 16.2104 39.4396 15.3077 38.7386 14.7984L36.665 13.2918C35.0976 12.153 35.9031 9.67376 37.8406 9.67376H40.4037C41.2702 9.67376 42.0381 9.11584 42.3058 8.2918L43.0979 5.8541Z" fill="#235EAC"/>
<path d="M74.0979 5.8541C74.6966 4.01148 77.3034 4.01148 77.9021 5.8541L78.6942 8.2918C78.9619 9.11584 79.7298 9.67376 80.5963 9.67376H83.1594C85.0969 9.67376 85.9024 12.153 84.335 13.2918L82.2614 14.7984C81.5604 15.3077 81.2671 16.2104 81.5348 17.0344L82.3269 19.4721C82.9256 21.3148 80.8166 22.847 79.2492 21.7082L77.1756 20.2016C76.4746 19.6923 75.5254 19.6923 74.8244 20.2016L72.7508 21.7082C71.1834 22.847 69.0744 21.3148 69.6731 19.4721L70.4652 17.0344C70.7329 16.2104 70.4396 15.3077 69.7386 14.7984L67.665 13.2918C66.0976 12.153 66.9031 9.67376 68.8406 9.67376H71.4037C72.2702 9.67376 73.0381 9.11584 73.3058 8.2918L74.0979 5.8541Z" fill="#235EAC"/>
<path d="M105.098 5.8541C105.697 4.01148 108.303 4.01148 108.902 5.8541L109.694 8.2918C109.962 9.11584 110.73 9.67376 111.596 9.67376H114.159C116.097 9.67376 116.902 12.153 115.335 13.2918L113.261 14.7984C112.56 15.3077 112.267 16.2104 112.535 17.0344L113.327 19.4721C113.926 21.3148 111.817 22.847 110.249 21.7082L108.176 20.2016C107.475 19.6923 106.525 19.6923 105.824 20.2016L103.751 21.7082C102.183 22.847 100.074 21.3148 100.673 19.4721L101.465 17.0344C101.733 16.2104 101.44 15.3077 100.739 14.7984L98.665 13.2918C97.0976 12.153 97.9031 9.67376 99.8406 9.67376H102.404C103.27 9.67376 104.038 9.11584 104.306 8.2918L105.098 5.8541Z" fill="#235EAC"/>
</svg>
