<svg width="64" height="64" viewBox="0 0 64 64" fill="none" xmlns="http://www.w3.org/2000/svg">
<rect width="64" height="64" fill="#F58634"/>
<path d="M43.5625 42.1456C45.3241 42.0917 47.0724 43.4553 47.6475 45.9659L47.6553 46.003L47.6504 46.0401C47.4416 47.5015 46.8894 48.5309 46.1484 49.1807C45.407 49.8307 44.4934 50.086 43.5938 50.0323C41.8074 49.9256 40.0381 48.5945 39.7148 46.6563L39.71 46.6251L39.7148 46.5938C40.1313 43.6799 41.7915 42.1999 43.5625 42.1456ZM25.334 41.838C27.2517 41.838 29.1175 43.2486 29.3291 45.9962L29.3311 46.0284L29.3242 46.0587C28.6934 48.6871 26.8831 49.8351 25.0928 49.7266C23.3174 49.619 21.6135 48.276 21.1895 46.0499L21.1836 46.0196L21.1875 45.9884C21.5044 43.2446 23.419 41.8381 25.334 41.838ZM44.2812 44.0665C43.86 43.9489 43.3943 43.9744 42.9707 44.2413C42.5503 44.5064 42.1971 44.9932 41.9609 45.7471L41.957 45.7618L41.9541 45.7774C41.8444 46.4908 42.0221 47.0733 42.3691 47.4854C42.7134 47.8941 43.2123 48.1211 43.7217 48.1495C44.232 48.1778 44.7607 48.0075 45.1611 47.6143C45.5128 47.2688 45.7539 46.7634 45.8086 46.1016L45.8203 45.8087C45.8202 45.4366 45.6291 45.0554 45.3555 44.7491C45.0794 44.4401 44.6989 44.1831 44.2812 44.0665ZM25.2412 43.5948C24.7471 43.636 24.2494 43.8215 23.8711 44.126C23.4907 44.4325 23.2228 44.869 23.2227 45.4014C23.2227 46.0677 23.4749 46.5613 23.8711 46.877C24.2618 47.1881 24.773 47.3118 25.2695 47.2842C26.2465 47.2298 27.2938 46.5684 27.2939 45.4014C27.2939 44.7346 27.0402 44.2507 26.6396 43.9503C26.2464 43.6553 25.7348 43.5537 25.2412 43.5948ZM5.30859 27.0782L39.918 27.4854L40.1191 27.4874V31.1505H45.708L45.7686 31.2178L52.2832 38.5469L52.3418 38.6134L52.334 38.7003L51.7227 45.6221L51.707 45.8077H48.3174L48.2725 45.6661C47.4727 43.1679 45.8273 41.6855 44.124 41.5469C42.4343 41.4095 40.5625 42.5883 39.29 45.6817L39.2383 45.8077H29.9912L29.9482 45.6622C29.0645 42.6535 27.0913 41.2125 25.2188 41.2159C23.3502 41.2194 21.4711 42.6618 20.7734 45.6505L20.7373 45.8077H14.4961L14.4697 45.6348L13.8857 41.7364H11.0742L11.0225 41.6104L10.4717 40.2803H29.4307C30.1052 40.2802 30.6523 39.7332 30.6523 39.0587C30.6521 38.3843 30.105 37.8371 29.4307 37.837H9.45898L9.12207 37.0235H28.209C28.8835 37.0235 29.4305 36.4763 29.4307 35.8018C29.4305 35.1273 28.8835 34.5802 28.209 34.5801H8.10938L7.77246 33.7657H26.1729C26.8475 33.7657 27.3945 33.2186 27.3945 32.544C27.3943 31.8696 26.8473 31.3223 26.1729 31.3223H6.75977L6.42285 30.5089H24.1377C24.812 30.5087 25.3582 29.9615 25.3584 29.2872C25.3583 28.6128 24.8121 28.0657 24.1377 28.0655H5.41016L5.11816 27.3594L5 27.0743L5.30859 27.0782ZM40.7305 37.6651H48.6924L48.4209 37.3321L44.7559 32.8536L44.6953 32.7794H40.7305V37.6651ZM32.8574 17.5626C36.8643 13.9155 41.0046 12.6823 44.7686 13.0675C48.5273 13.4521 51.8869 15.4484 54.3447 18.2149C56.8017 20.9808 58.3694 24.5297 58.5342 28.0391C58.6991 31.5544 57.4547 35.0288 54.2959 37.6182L53.9775 37.3858C55.9203 32.5286 56.2262 28.5003 55.4473 25.2911C54.6687 22.0843 52.803 19.6766 50.3691 18.0616C45.4913 14.8249 38.3286 14.7711 33.0986 17.8887L32.8574 17.5626ZM43.7979 27.9786C44.3598 27.9786 44.815 28.4343 44.8154 28.9962C44.8154 29.5583 44.36 30.0147 43.7979 30.0147C43.2359 30.0145 42.7803 29.5582 42.7803 28.9962C42.7807 28.4345 43.2361 27.9788 43.7979 27.9786ZM52.0205 24.1573C52.3279 24.019 52.6896 24.1567 52.8281 24.4639C52.9665 24.7715 52.8291 25.1332 52.5215 25.2716L45.4668 28.4454C45.1593 28.5836 44.7976 28.4471 44.6592 28.1397C44.5212 27.8323 44.6585 27.4705 44.9658 27.3321L52.0205 24.1573ZM42.5693 22.3721C42.9024 22.3204 43.2144 22.549 43.2666 22.8819L43.957 27.3067C44.009 27.64 43.7805 27.953 43.4473 28.005C43.1141 28.0567 42.8019 27.8284 42.75 27.4952L42.0596 23.0694C42.0082 22.7366 42.2365 22.4242 42.5693 22.3721Z" fill="white"/>
</svg>
